<?xml version="1.0" encoding="UTF-8"?><svg xmlns="http://www.w3.org/2000/svg" xmlns:xlink="http://www.w3.org/1999/xlink" viewBox="0 0 1919.91 1080"><defs><style>.cls-1{fill:none;}.cls-2{clip-path:url(#clippath);}.cls-3{fill:#f56939;}.cls-4{fill:#f56738;}.cls-5{fill:#f56637;}.cls-6{fill:#f56b3a;}.cls-7{fill:#f56a39;}.cls-8{fill:#f56838;}.cls-9{fill:#f56537;}.cls-10{fill:#fa8f48;}.cls-11{fill:#fa8a46;}.cls-12{fill:#fa8d47;}.cls-13{fill:#fa8c47;}.cls-14{fill:#fa8b46;}.cls-15{fill:#f87e41;}.cls-16{fill:#f88042;}.cls-17{fill:#f87b40;}.cls-18{fill:#f87c40;}.cls-19{fill:#f87a40;}.cls-20{fill:#f98745;}.cls-21{fill:#f98443;}.cls-22{fill:#f98644;}.cls-23{fill:#f98544;}.cls-24{fill:#f98142;}.cls-25{fill:#f98243;}.cls-26{fill:#f45e34;}.cls-27{fill:#f46437;}.cls-28{fill:#f46135;}.cls-29{fill:#f46035;}.cls-30{fill:#f45f34;}.cls-31{fill:#f46236;}.cls-32{fill:#f46336;}.cls-33{fill:#f2f0e9;}.cls-34{fill:#fb944a;}.cls-35{fill:#f87f41;}.cls-36{fill:#fa8845;}.cls-37{fill:#fb9048;}.cls-38{fill:#fb9149;}.cls-39{fill:#fb9249;}.cls-40{fill:#fb954a;}.cls-41{fill:#687922;}.cls-42{fill:#f14e2e;}.cls-43{fill:#f14d2d;}.cls-44{fill:#f14c2d;}.cls-45{fill:#f1492c;}.cls-46{fill:azure;}.cls-47{fill:#ee3624;}.cls-48{fill:#ee3825;}.cls-49{fill:#ee3725;}.cls-50{fill:#ee3724;}.cls-51{fill:#ee3925;}.cls-52{fill:#ee3a24;}.cls-53{fill:#f35731;}.cls-54{fill:#f35832;}.cls-55{fill:#f35932;}.cls-56{fill:#f35a32;}.cls-57{fill:#f35b33;}.cls-58{fill:#f6723c;}.cls-59{fill:#f66c3a;}.cls-60{fill:#f6713c;}.cls-61{fill:#f6703b;}.cls-62{fill:#f66f3b;}.cls-63{fill:#f66e3a;}.cls-64{fill:#f7733d;}.cls-65{fill:#f7743d;}.cls-66{fill:#f7793f;}.cls-67{fill:#f7753e;}.cls-68{fill:#f7783f;}.cls-69{fill:#f7773e;}.cls-70{fill:#f0442a;}.cls-71{fill:#f04128;}.cls-72{fill:#f04329;}.cls-73{fill:#f04229;}.cls-74{fill:#f0452a;}.cls-75{fill:#f0472b;}.cls-76{fill:#ffb051;}.cls-77{fill:#ffb053;}.cls-78{fill:#ffb052;}.cls-79{fill:#ffae54;}.cls-80{fill:#ffaf54;}.cls-81{fill:#ffaf55;}.cls-82{fill:#fff;}.cls-83{fill:#f35c33;}.cls-84{fill:#f35d34;}.cls-85{fill:#f14a2c;}.cls-86{fill:#f1482b;}.cls-87{fill:#f14b2c;}.cls-88{fill:#f0462a;}.cls-89{fill:#f0462b;}.cls-90{fill:#ffca3b;}.cls-91{fill:#ffca3c;}.cls-92{fill:#ffc936;}.cls-93{fill:#ffc935;}.cls-94{fill:#ffc937;}.cls-95{fill:#ffc939;}.cls-96{fill:#ffc938;}.cls-97{fill:#ffc934;}.cls-98{fill:#ffc93a;}.cls-99{fill:#ffc933;}.cls-100{fill:#ffca3f;}.cls-101{fill:#ffca3d;}.cls-102{fill:#ffca3e;}.cls-103{fill:#ffba36;}.cls-104{fill:#ffbb32;}.cls-105{fill:#ffbb31;}.cls-106{fill:#fb3;}.cls-107{fill:#ffb938;}.cls-108{fill:#ffb939;}.cls-109{fill:#ffb937;}.cls-110{fill:#ffc724;}.cls-111{fill:#ffc726;}.cls-112{fill:#ffc725;}.cls-113{fill:#ffc728;}.cls-114{fill:#ffc729;}.cls-115{fill:#ffc727;}.cls-116{fill:#ffba34;}.cls-117{fill:#ffb24b;}.cls-118{fill:#ffb24c;}.cls-119{fill:#ffb349;}.cls-120{fill:#ffb34a;}.cls-121{fill:#ffb24d;}.cls-122{fill:#ffb14e;}.cls-123{fill:#ffb150;}.cls-124{fill:#ffb14f;}.cls-125{fill:#ffc022;}.cls-126{fill:#ffc023;}.cls-127{fill:#ffc024;}.cls-128{fill:#ffbf27;}.cls-129{fill:#ffbf26;}.cls-130{fill:#ffbf25;}.cls-131{fill:#ffbe28;}.cls-132{fill:#ffbe2a;}.cls-133{fill:#ffbe29;}.cls-134{fill:#ffb83a;}.cls-135{fill:#ffb83c;}.cls-136{fill:#ffb83b;}.cls-137{fill:#ffbc2e;}.cls-138{fill:#ffbc2f;}.cls-139{fill:#ffbc30;}.cls-140{fill:#ffb640;}.cls-141{fill:#ffbd2b;}.cls-142{fill:#ffbd2d;}.cls-143{fill:#ffbd2c;}.cls-144{fill:#ffc31a;}.cls-145{fill:#ffc31b;}.cls-146{fill:#ffb73f;}.cls-147{fill:#ffb73e;}.cls-148{fill:#ffb641;}.cls-149{fill:#ffb642;}.cls-150{fill:#ffc832;}.cls-151{fill:#ffc61b;}.cls-152{fill:#ffc620;}.cls-153{fill:#ffc61d;}.cls-154{fill:#ffc61a;}.cls-155{fill:#ffc515;}.cls-156{fill:#ffc61c;}.cls-157{fill:#ffc61f;}.cls-158{fill:#ffc621;}.cls-159{fill:#ffc61e;}.cls-160{fill:#ffc830;}.cls-161{fill:#ffc831;}.cls-162{fill:#ffc82f;}.cls-163{fill:#ffc82e;}.cls-164{fill:#ffc82b;}.cls-165{fill:#ffc82c;}.cls-166{fill:#ffc82d;}.cls-167{fill:#ffc723;}.cls-168{fill:#ffc722;}.cls-169{fill:#ffc517;}.cls-170{fill:#ffc516;}.cls-171{fill:#ffc519;}.cls-172{fill:#ffc518;}.cls-173{fill:#ffac54;}.cls-174{fill:#ffc418;}.cls-175{fill:#ffc419;}.cls-176{fill:#ffc417;}.cls-177{fill:#ffc121;}.cls-178{fill:#ffc120;}.cls-179{fill:#ffc31c;}.cls-180{fill:#ffb73d;}.cls-181{fill:#ffb447;}.cls-182{fill:#ffb448;}.cls-183{fill:#ffb545;}.cls-184{fill:#ffc21f;}.cls-185{fill:#ffb544;}.cls-186{fill:#ffb543;}.cls-187{fill:#ffc21e;}.cls-188{fill:#ffc21d;}.cls-189{fill:#ffb446;}.cls-190{fill:#fc9b4d;}.cls-191{fill:#fc9d4e;}.cls-192{fill:#fc9a4c;}.cls-193{fill:#ef3d27;}.cls-194{fill:#ef3f28;}.cls-195{fill:#ef3e27;}.cls-196{fill:#ef4028;}.cls-197{fill:#ef3b26;}.cls-198{fill:#ef3c26;}.cls-199{fill:#ef3c27;}.cls-200{fill:#ef3a26;}.cls-201{fill:#f2522f;}.cls-202{fill:#f25530;}.cls-203{fill:#f25330;}.cls-204{fill:#f25631;}.cls-205{fill:#f2502f;}.cls-206{fill:#f24f2e;}.cls-207{fill:#f25430;}.cls-208{fill:#f2512f;}.cls-209{fill:#fda250;}.cls-210{fill:#fda350;}.cls-211{fill:#fd9f4f;}.cls-212{fill:#fda04f;}.cls-213{fill:#fd9e4e;}.cls-214{fill:#fea451;}.cls-215{fill:#fc994c;}.cls-216{fill:#fc974b;}.cls-217{fill:#fc964b;}.cls-218{fill:#fea852;}.cls-219{fill:#fea752;}.cls-220{fill:#fea651;}.cls-221{fill:#feab53;}.cls-222{fill:#feaa53;}.cls-223{fill:#999;}.cls-224{fill:#8b3629;}.cls-225{fill:#98a824;}.cls-226{fill:#a62524;}.cls-227{fill:#ae2112;}.cls-228{fill:#bdccd4;}.cls-229{fill:#c04f3c;}.cls-230{fill:#ccc;}.cls-231{fill:#d2edf3;}.cls-232{fill:#d9d9d9;}.cls-233{fill:#acbac2;}.cls-234{fill:#065085;}.cls-235{fill:#0b5e9c;}.cls-236{fill:#899936;}.cls-237{fill:#85cdb8;}.cls-238{fill:#9c201e;}.cls-239{fill:#53281f;}.cls-240{fill:#79bba8;}.cls-241{opacity:.25;}.cls-242{opacity:.5;}.cls-243{opacity:.75;}</style><clipPath id="clippath"><rect class="cls-1" x="1331.45" y="540.32" width="81.09" height="113.42"/></clipPath></defs><g id="Layer_100"><g><rect class="cls-239" x=".12" y=".21" width="1920" height="1080"/><rect class="cls-224" x="107.59" y="88.83" width="128.53" height="47.37" rx="3.65" ry="3.65"/><rect class="cls-224" x="256.14" y="89.27" width="128.53" height="47.37" rx="3.65" ry="3.65"/><rect class="cls-229" x="64.14" y="156.27" width="128.53" height="47.37" rx="3.65" ry="3.65"/><rect class="cls-229" x="163.14" y="223.27" width="128.53" height="47.37" rx="3.65" ry="3.65"/><rect class="cls-224" x="242.53" y="1007.72" width="128.53" height="47.37" rx="3.65" ry="3.65"/><rect class="cls-224" x="163.53" y="944.72" width="128.53" height="47.37" rx="3.65" ry="3.65"/><rect class="cls-224" x="242.81" y="882.1" width="128.53" height="47.37" rx="3.65" ry="3.65"/><rect class="cls-229" x="163.81" y="819.1" width="128.53" height="47.37" rx="3.65" ry="3.65"/><rect class="cls-229" x="313.81" y="819.1" width="128.53" height="47.37" rx="3.65" ry="3.65"/><rect class="cls-229" x="393.81" y="882.1" width="128.53" height="47.37" rx="3.65" ry="3.65"/><rect class="cls-224" x="442.37" y="516.48" width="128.53" height="47.37" rx="3.65" ry="3.65"/><rect class="cls-224" x="522.3" y="582.18" width="128.53" height="47.37" rx="3.65" ry="3.65"/><rect class="cls-229" x="595.3" y="516.18" width="128.53" height="47.37" rx="3.65" ry="3.65"/><rect class="cls-229" x="522.3" y="450.18" width="128.53" height="47.37" rx="3.65" ry="3.65"/><rect class="cls-224" x="674.3" y="450.18" width="128.53" height="47.37" rx="3.65" ry="3.65"/><rect class="cls-224" x="918.23" y="88.94" width="128.53" height="47.37" rx="3.65" ry="3.65"/><rect class="cls-224" x="959.91" y="152.95" width="128.53" height="47.37" rx="3.65" ry="3.65"/><rect class="cls-229" x="1111.91" y="152.95" width="128.53" height="47.37" rx="3.65" ry="3.65"/><rect class="cls-224" x="917.91" y="216.95" width="128.53" height="47.37" rx="3.65" ry="3.65"/><rect class="cls-224" x="1064.91" y="216.95" width="128.53" height="47.37" rx="3.65" ry="3.65"/><rect class="cls-229" x="959.91" y="280.95" width="128.53" height="47.37" rx="3.65" ry="3.65"/><rect class="cls-229" x="1023.91" y="344.95" width="128.53" height="47.37" rx="3.65" ry="3.65"/><rect class="cls-224" x="1001.05" y="1007.22" width="128.53" height="47.37" rx="3.65" ry="3.65"/><rect class="cls-224" x="1024.26" y="943.11" width="128.53" height="47.37" rx="3.65" ry="3.65"/><rect class="cls-229" x="1088.26" y="879.11" width="128.53" height="47.37" rx="3.65" ry="3.65"/><rect class="cls-224" x="937.26" y="879.11" width="128.53" height="47.37" rx="3.65" ry="3.65"/><rect class="cls-229" x="856.52" y="814.81" width="128.53" height="47.37" rx="3.65" ry="3.65"/><rect class="cls-229" x="1000.52" y="814.81" width="128.53" height="47.37" rx="3.65" ry="3.65"/><rect class="cls-224" x="1145.52" y="814.81" width="128.53" height="47.37" rx="3.65" ry="3.65"/><rect class="cls-224" x="1735.92" y="17.13" width="128.53" height="47.37" rx="3.65" ry="3.65"/><rect class="cls-224" x="1687.92" y="81.13" width="128.53" height="47.37" rx="3.65" ry="3.65"/><rect class="cls-229" x="1603.92" y="145.13" width="128.53" height="47.37" rx="3.65" ry="3.65"/><rect class="cls-224" x="1751.92" y="145.13" width="128.53" height="47.37" rx="3.65" ry="3.65"/><rect class="cls-229" x="1781.92" y="399.13" width="128.53" height="47.37" rx="3.65" ry="3.65"/><rect class="cls-229" x="1741.92" y="460.13" width="128.53" height="47.37" rx="3.65" ry="3.65"/><rect class="cls-224" x="1781.92" y="521.13" width="128.53" height="47.37" rx="3.65" ry="3.65"/><rect class="cls-224" x="1634.92" y="399.13" width="128.53" height="47.37" rx="3.65" ry="3.65"/><rect class="cls-229" x="1595.92" y="460.13" width="128.53" height="47.37" rx="3.65" ry="3.65"/><rect class="cls-224" x="1487.92" y="399.13" width="128.53" height="47.37" rx="3.65" ry="3.65"/><rect class="cls-224" x="1551.92" y="338.13" width="128.53" height="47.37" rx="3.65" ry="3.65"/><rect class="cls-224" x="1551.92" y="983.5" width="128.53" height="47.37" rx="3.65" ry="3.65"/><rect class="cls-229" x="1623.92" y="919.5" width="128.53" height="47.37" rx="3.65" ry="3.65"/><rect class="cls-224" x="1539.92" y="860.5" width="128.53" height="47.37" rx="3.65" ry="3.65"/><rect class="cls-224" x="1687.92" y="860.5" width="128.53" height="47.37" rx="3.65" ry="3.65"/><rect class="cls-224" x="1735.92" y="801.5" width="128.53" height="47.37" rx="3.65" ry="3.65"/></g></g><g id="Layer_157"><g><polygon class="cls-82" points="1443.08 350 1438.08 350.22 1438.08 379 1443.08 378.83 1443.08 350"/><polygon class="cls-82" points="1453.08 367 1452.88 362 1427.08 362 1427.23 367 1453.08 367"/></g><g><polygon class="cls-82" points="1443.33 584.5 1438.33 584.72 1438.33 613.5 1443.33 613.33 1443.33 584.5"/><polygon class="cls-82" points="1453.33 601.5 1453.13 596.5 1427.33 596.5 1427.48 601.5 1453.33 601.5"/></g><g><polygon class="cls-82" points="1443.33 778.5 1438.33 778.72 1438.33 807.5 1443.33 807.33 1443.33 778.5"/><polygon class="cls-82" points="1453.33 795.5 1453.13 790.5 1427.33 790.5 1427.48 795.5 1453.33 795.5"/></g></g><g id="Layer_101"><g><path class="cls-33" d="M711.26,104.11v121h-47.2V104.11h47.2Zm17.6,48.6v-48.6h47.2v121h-47.2v-31.6h-11.8l1.4-40.8h10.4Z"/><path class="cls-33" d="M814.26,76.11c15.4,0,23.6,4.8,23.6,18,0,14-9.4,19.2-23.2,19.2-15.6,0-23.6-4.8-23.6-17.8,0-14,9.4-19.4,23.2-19.4Zm-22.8,44.8h45.6v73c0,39-17.2,53-37.8,53h-7.8V120.91Z"/><path class="cls-33" d="M849.05,194.71c0-20.4,12.6-30,53.2-30v10c0,24.8,5,35.4,13.2,42.8-7.4,6.4-17.4,9.8-28.2,9.8-22.4,0-38.2-13.6-38.2-32.6Zm6-37.6c-.2-26.2,14.2-36.2,47.2-36.2v36.2h-47.2Zm101.8,30.2h52.4c0,24.2-17,40-41.8,40-43,0-57-19.6-57-53.2v-53.2h46.4v66.4Zm8-66.4c31.8,0,50,18.2,47.6,59.2h-47.6v-59.2Z"/><path class="cls-33" d="M1070.65,90.71V225.1h-45.6V97.51l45.6-6.8Z"/><path class="cls-33" d="M1130.25,246.9h-45.6V120.91h45.6v126Zm13.4-126c23.8,0,43.8,14,43.8,53.2,0,37-17,51-43.8,51h-5.2V120.91h5.2Z"/><path class="cls-33" d="M1198.85,205.11c0-13.4,10.6-21.4,28.4-21.4s28.6,8,28.6,21.4-10.6,21.6-28.6,21.6-28.4-8-28.4-21.6Zm3.2-84.2c-2.2-5.2-3-9.8-3-14.2,0-15,11.4-24.4,28.6-24.4s28.2,9.2,28.2,23.8c0,4.4-1,9.4-3,14.8l-21.8,56.4h-7.2l-21.8-56.4Z"/></g></g><g id="Layer_102"><g><path class="cls-82" d="M678.61,341.25c1.9-.4,4.9-.7,7.95-.7,4.35,0,7.15,.75,9.25,2.45,1.75,1.3,2.8,3.3,2.8,5.95,0,3.25-2.15,6.1-5.7,7.4v.1c3.2,.8,6.95,3.45,6.95,8.45,0,2.9-1.15,5.1-2.85,6.75-2.35,2.15-6.15,3.15-11.65,3.15-3,0-5.3-.2-6.75-.4v-33.15Zm4.35,13.8h3.95c4.6,0,7.3-2.4,7.3-5.65,0-3.95-3-5.5-7.4-5.5-2,0-3.15,.15-3.85,.3v10.85Zm0,16.15c.85,.15,2.1,.2,3.65,.2,4.5,0,8.65-1.65,8.65-6.55,0-4.6-3.95-6.5-8.7-6.5h-3.6v12.85Z"/><path class="cls-82" d="M708.21,363.2c.1,5.95,3.9,8.4,8.3,8.4,3.15,0,5.05-.55,6.7-1.25l.75,3.15c-1.55,.7-4.2,1.5-8.05,1.5-7.45,0-11.9-4.9-11.9-12.2s4.3-13.05,11.35-13.05c7.9,0,10,6.95,10,11.4,0,.9-.1,1.6-.15,2.05h-17Zm12.9-3.15c.05-2.8-1.15-7.15-6.1-7.15-4.45,0-6.4,4.1-6.75,7.15h12.85Z"/><path class="cls-82" d="M730.81,356.85c0-2.5-.05-4.55-.2-6.55h3.9l.25,4h.1c1.2-2.3,4-4.55,8-4.55,3.35,0,8.55,2,8.55,10.3v14.45h-4.4v-13.95c0-3.9-1.45-7.15-5.6-7.15-2.9,0-5.15,2.05-5.9,4.5-.2,.55-.3,1.3-.3,2.05v14.55h-4.4v-17.65Z"/><path class="cls-82" d="M761.01,363.2c.1,5.95,3.9,8.4,8.3,8.4,3.15,0,5.05-.55,6.7-1.25l.75,3.15c-1.55,.7-4.2,1.5-8.05,1.5-7.45,0-11.9-4.9-11.9-12.2s4.3-13.05,11.35-13.05c7.9,0,10,6.95,10,11.4,0,.9-.1,1.6-.15,2.05h-17Zm12.9-3.15c.05-2.8-1.15-7.15-6.1-7.15-4.45,0-6.4,4.1-6.75,7.15h12.85Z"/><path class="cls-82" d="M804.51,339v29.25c0,2.15,.05,4.6,.2,6.25h-3.95l-.2-4.2h-.1c-1.35,2.7-4.3,4.75-8.25,4.75-5.85,0-10.35-4.95-10.35-12.3-.05-8.05,4.95-13,10.85-13,3.7,0,6.2,1.75,7.3,3.7h.1v-14.45h4.4Zm-4.4,21.15c0-.55-.05-1.3-.2-1.85-.65-2.8-3.05-5.1-6.35-5.1-4.55,0-7.25,4-7.25,9.35,0,4.9,2.4,8.95,7.15,8.95,2.95,0,5.65-1.95,6.45-5.25,.15-.6,.2-1.2,.2-1.9v-4.2Z"/><path class="cls-82" d="M816.71,343.5c.05,1.5-1.05,2.7-2.8,2.7-1.55,0-2.65-1.2-2.65-2.7s1.15-2.75,2.75-2.75,2.7,1.2,2.7,2.75Zm-4.9,31v-24.2h4.4v24.2h-4.4Z"/><path class="cls-82" d="M827.86,361.4h.1c.6-.85,1.45-1.9,2.15-2.75l7.1-8.35h5.3l-9.35,9.95,10.65,14.25h-5.35l-8.35-11.6-2.25,2.5v9.1h-4.35v-35.5h4.35v22.4Z"/><path class="cls-82" d="M852.26,343.35v6.95h6.3v3.35h-6.3v13.05c0,3,.85,4.7,3.3,4.7,1.15,0,2-.15,2.55-.3l.2,3.3c-.85,.35-2.2,.6-3.9,.6-2.05,0-3.7-.65-4.75-1.85-1.25-1.3-1.7-3.45-1.7-6.3v-13.2h-3.75v-3.35h3.75v-5.8l4.3-1.15Z"/><path class="cls-82" d="M865.66,363.2c.1,5.95,3.9,8.4,8.3,8.4,3.15,0,5.05-.55,6.7-1.25l.75,3.15c-1.55,.7-4.2,1.5-8.05,1.5-7.45,0-11.9-4.9-11.9-12.2s4.3-13.05,11.35-13.05c7.9,0,10,6.95,10,11.4,0,.9-.1,1.6-.15,2.05h-17Zm12.9-3.15c.05-2.8-1.15-7.15-6.1-7.15-4.45,0-6.4,4.1-6.75,7.15h12.85Z"/><path class="cls-82" d="M898.86,356.85c0-2.5-.05-4.55-.2-6.55h3.85l.2,3.9h.15c1.35-2.3,3.6-4.45,7.6-4.45,3.3,0,5.8,2,6.85,4.85h.1c.75-1.35,1.7-2.4,2.7-3.15,1.45-1.1,3.05-1.7,5.35-1.7,3.2,0,7.95,2.1,7.95,10.5v14.25h-4.3v-13.7c0-4.65-1.7-7.45-5.25-7.45-2.5,0-4.45,1.85-5.2,4-.2,.6-.35,1.4-.35,2.2v14.95h-4.3v-14.5c0-3.85-1.7-6.65-5.05-6.65-2.75,0-4.75,2.2-5.45,4.4-.25,.65-.35,1.4-.35,2.15v14.6h-4.3v-17.65Z"/><path class="cls-82" d="M943.01,363.2c.1,5.95,3.9,8.4,8.3,8.4,3.15,0,5.05-.55,6.7-1.25l.75,3.15c-1.55,.7-4.2,1.5-8.05,1.5-7.45,0-11.9-4.9-11.9-12.2s4.3-13.05,11.35-13.05c7.9,0,10,6.95,10,11.4,0,.9-.1,1.6-.15,2.05h-17Zm12.9-3.15c.05-2.8-1.15-7.15-6.1-7.15-4.45,0-6.4,4.1-6.75,7.15h12.85Z"/><path class="cls-82" d="M986.51,339v29.25c0,2.15,.05,4.6,.2,6.25h-3.95l-.2-4.2h-.1c-1.35,2.7-4.3,4.75-8.25,4.75-5.85,0-10.35-4.95-10.35-12.3-.05-8.05,4.95-13,10.85-13,3.7,0,6.2,1.75,7.3,3.7h.1v-14.45h4.4Zm-4.4,21.15c0-.55-.05-1.3-.2-1.85-.65-2.8-3.05-5.1-6.35-5.1-4.55,0-7.25,4-7.25,9.35,0,4.9,2.4,8.95,7.15,8.95,2.95,0,5.65-1.95,6.45-5.25,.15-.6,.2-1.2,.2-1.9v-4.2Z"/><path class="cls-82" d="M1017.81,374.5l-.35-3.05h-.15c-1.35,1.9-3.95,3.6-7.4,3.6-4.9,0-7.4-3.45-7.4-6.95,0-5.85,5.2-9.05,14.55-9v-.5c0-2-.55-5.6-5.5-5.6-2.25,0-4.6,.7-6.3,1.8l-1-2.9c2-1.3,4.9-2.15,7.95-2.15,7.4,0,9.2,5.05,9.2,9.9v9.05c0,2.1,.1,4.15,.4,5.8h-4Zm-.65-12.35c-4.8-.1-10.25,.75-10.25,5.45,0,2.85,1.9,4.2,4.15,4.2,3.15,0,5.15-2,5.85-4.05,.15-.45,.25-.95,.25-1.4v-4.2Z"/><path class="cls-82" d="M1033.61,343.35v6.95h6.3v3.35h-6.3v13.05c0,3,.85,4.7,3.3,4.7,1.15,0,2-.15,2.55-.3l.2,3.3c-.85,.35-2.2,.6-3.9,.6-2.05,0-3.7-.65-4.75-1.85-1.25-1.3-1.7-3.45-1.7-6.3v-13.2h-3.75v-3.35h3.75v-5.8l4.3-1.15Z"/><path class="cls-82" d="M1055.26,374.5c.1-1.65,.2-4.1,.2-6.25v-29.25h4.35v15.2h.1c1.55-2.7,4.35-4.45,8.25-4.45,6,0,10.25,5,10.2,12.35,0,8.65-5.45,12.95-10.85,12.95-3.5,0-6.3-1.35-8.1-4.55h-.15l-.2,4h-3.8Zm4.55-9.7c0,.55,.1,1.1,.2,1.6,.85,3.05,3.4,5.15,6.6,5.15,4.6,0,7.35-3.75,7.35-9.3,0-4.85-2.5-9-7.2-9-3,0-5.8,2.05-6.7,5.4-.1,.5-.25,1.1-.25,1.8v4.35Z"/><path class="cls-82" d="M1083.9,339h4.4v35.5h-4.4v-35.5Z"/><path class="cls-82" d="M1100.61,343.5c.05,1.5-1.05,2.7-2.8,2.7-1.55,0-2.65-1.2-2.65-2.7s1.15-2.75,2.75-2.75,2.7,1.2,2.7,2.75Zm-4.9,31v-24.2h4.4v24.2h-4.4Z"/><path class="cls-82" d="M1109.1,350.3l4.75,13.6c.8,2.2,1.45,4.2,1.95,6.2h.15c.55-2,1.25-4,2.05-6.2l4.7-13.6h4.6l-9.5,24.2h-4.2l-9.2-24.2h4.7Z"/><path class="cls-82" d="M1133.4,363.2c.1,5.95,3.9,8.4,8.3,8.4,3.15,0,5.05-.55,6.7-1.25l.75,3.15c-1.55,.7-4.2,1.5-8.05,1.5-7.45,0-11.9-4.9-11.9-12.2s4.3-13.05,11.35-13.05c7.9,0,10,6.95,10,11.4,0,.9-.1,1.6-.15,2.05h-17Zm12.9-3.15c.05-2.8-1.15-7.15-6.1-7.15-4.45,0-6.4,4.1-6.75,7.15h12.85Z"/><path class="cls-82" d="M1167.05,374.5v-20.85h-3.4v-3.35h3.4v-1.15c0-3.4,.75-6.5,2.8-8.45,1.65-1.6,3.85-2.25,5.9-2.25,1.55,0,2.9,.35,3.75,.7l-.6,3.4c-.65-.3-1.55-.55-2.8-.55-3.75,0-4.7,3.3-4.7,7v1.3h5.85v3.35h-5.85v20.85h-4.35Z"/><path class="cls-82" d="M1201.45,367.9c0,2.5,.05,4.7,.2,6.6h-3.9l-.25-3.95h-.1c-1.15,1.95-3.7,4.5-8,4.5-3.8,0-8.35-2.1-8.35-10.6v-14.15h4.4v13.4c0,4.6,1.4,7.7,5.4,7.7,2.95,0,5-2.05,5.8-4,.25-.65,.4-1.45,.4-2.25v-14.85h4.4v17.6Z"/><path class="cls-82" d="M1208.75,339h4.4v35.5h-4.4v-35.5Z"/><path class="cls-82" d="M1241.45,339v29.25c0,2.15,.05,4.6,.2,6.25h-3.95l-.2-4.2h-.1c-1.35,2.7-4.3,4.75-8.25,4.75-5.85,0-10.35-4.95-10.35-12.3-.05-8.05,4.95-13,10.85-13,3.7,0,6.2,1.75,7.3,3.7h.1v-14.45h4.4Zm-4.4,21.15c0-.55-.05-1.3-.2-1.85-.65-2.8-3.05-5.1-6.35-5.1-4.55,0-7.25,4-7.25,9.35,0,4.9,2.4,8.95,7.15,8.95,2.95,0,5.65-1.95,6.45-5.25,.15-.6,.2-1.2,.2-1.9v-4.2Z"/><path class="cls-82" d="M710.71,403.35v6.95h6.3v3.35h-6.3v13.05c0,3,.85,4.7,3.3,4.7,1.15,0,2-.15,2.55-.3l.2,3.3c-.85,.35-2.2,.6-3.9,.6-2.05,0-3.7-.65-4.75-1.85-1.25-1.3-1.7-3.45-1.7-6.3v-13.2h-3.75v-3.35h3.75v-5.8l4.3-1.15Z"/><path class="cls-82" d="M726.86,403.5c.05,1.5-1.05,2.7-2.8,2.7-1.55,0-2.65-1.2-2.65-2.7s1.15-2.75,2.75-2.75,2.7,1.2,2.7,2.75Zm-4.9,31v-24.2h4.4v24.2h-4.4Z"/><path class="cls-82" d="M733.66,399h4.4v35.5h-4.4v-35.5Z"/><path class="cls-82" d="M756.51,434.5v-20.85h-3.4v-3.35h3.4v-1.15c0-3.4,.75-6.5,2.8-8.45,1.65-1.6,3.85-2.25,5.9-2.25,1.55,0,2.9,.35,3.75,.7l-.6,3.4c-.65-.3-1.55-.55-2.8-.55-3.75,0-4.7,3.3-4.7,7v1.3h5.85v3.35h-5.85v20.85h-4.35Z"/><path class="cls-82" d="M770.66,417.85c0-2.85-.05-5.3-.2-7.55h3.85l.15,4.75h.2c1.1-3.25,3.75-5.3,6.7-5.3,.5,0,.85,.05,1.25,.15v4.15c-.45-.1-.9-.15-1.5-.15-3.1,0-5.3,2.35-5.9,5.65-.1,.6-.2,1.3-.2,2.05v12.9h-4.35v-16.65Z"/><path class="cls-82" d="M788.96,423.2c.1,5.95,3.9,8.4,8.3,8.4,3.15,0,5.05-.55,6.7-1.25l.75,3.15c-1.55,.7-4.2,1.5-8.05,1.5-7.45,0-11.9-4.9-11.9-12.2s4.3-13.05,11.35-13.05c7.9,0,10,6.95,10,11.4,0,.9-.1,1.6-.15,2.05h-17Zm12.9-3.15c.05-2.8-1.15-7.15-6.1-7.15-4.45,0-6.4,4.1-6.75,7.15h12.85Z"/><path class="cls-82" d="M832.46,399v29.25c0,2.15,.05,4.6,.2,6.25h-3.95l-.2-4.2h-.1c-1.35,2.7-4.3,4.75-8.25,4.75-5.85,0-10.35-4.95-10.35-12.3-.05-8.05,4.95-13,10.85-13,3.7,0,6.2,1.75,7.3,3.7h.1v-14.45h4.4Zm-4.4,21.15c0-.55-.05-1.3-.2-1.85-.65-2.8-3.05-5.1-6.35-5.1-4.55,0-7.25,4-7.25,9.35,0,4.9,2.4,8.95,7.15,8.95,2.95,0,5.65-1.95,6.45-5.25,.15-.6,.2-1.2,.2-1.9v-4.2Z"/><path class="cls-82" d="M853.16,434.5l-.35-3.05h-.15c-1.35,1.9-3.95,3.6-7.4,3.6-4.9,0-7.4-3.45-7.4-6.95,0-5.85,5.2-9.05,14.55-9v-.5c0-2-.55-5.6-5.5-5.6-2.25,0-4.6,.7-6.3,1.8l-1-2.9c2-1.3,4.9-2.15,7.95-2.15,7.4,0,9.2,5.05,9.2,9.9v9.05c0,2.1,.1,4.15,.4,5.8h-4Zm-.65-12.35c-4.8-.1-10.25,.75-10.25,5.45,0,2.85,1.9,4.2,4.15,4.2,3.15,0,5.15-2,5.85-4.05,.15-.45,.25-.95,.25-1.4v-4.2Z"/><path class="cls-82" d="M884.71,410.3c-.1,1.75-.2,3.7-.2,6.65v14.05c0,5.55-1.1,8.95-3.45,11.05-2.35,2.2-5.75,2.9-8.8,2.9s-6.1-.7-8.05-2l1.1-3.35c1.6,1,4.1,1.9,7.1,1.9,4.5,0,7.8-2.35,7.8-8.45v-2.7h-.1c-1.35,2.25-3.95,4.05-7.7,4.05-6,0-10.3-5.1-10.3-11.8,0-8.2,5.35-12.85,10.9-12.85,4.2,0,6.5,2.2,7.55,4.2h.1l.2-3.65h3.85Zm-4.55,9.55c0-.75-.05-1.4-.25-2-.8-2.55-2.95-4.65-6.15-4.65-4.2,0-7.2,3.55-7.2,9.15,0,4.75,2.4,8.7,7.15,8.7,2.7,0,5.15-1.7,6.1-4.5,.25-.75,.35-1.6,.35-2.35v-4.35Z"/><path class="cls-82" d="M891.2,430c1.3,.85,3.6,1.75,5.8,1.75,3.2,0,4.7-1.6,4.7-3.6,0-2.1-1.25-3.25-4.5-4.45-4.35-1.55-6.4-3.95-6.4-6.85,0-3.9,3.15-7.1,8.35-7.1,2.45,0,4.6,.7,5.95,1.5l-1.1,3.2c-.95-.6-2.7-1.4-4.95-1.4-2.6,0-4.05,1.5-4.05,3.3,0,2,1.45,2.9,4.6,4.1,4.2,1.6,6.35,3.7,6.35,7.3,0,4.25-3.3,7.25-9.05,7.25-2.65,0-5.1-.65-6.8-1.65l1.1-3.35Z"/><path class="cls-82" d="M928.86,433.6c-1.15,.6-3.7,1.4-6.95,1.4-7.3,0-12.05-4.95-12.05-12.35s5.1-12.85,13-12.85c2.6,0,4.9,.65,6.1,1.25l-1,3.4c-1.05-.6-2.7-1.15-5.1-1.15-5.55,0-8.55,4.1-8.55,9.15,0,5.6,3.6,9.05,8.4,9.05,2.5,0,4.15-.65,5.4-1.2l.75,3.3Z"/><path class="cls-82" d="M947.4,434.5l-.35-3.05h-.15c-1.35,1.9-3.95,3.6-7.4,3.6-4.9,0-7.4-3.45-7.4-6.95,0-5.85,5.2-9.05,14.55-9v-.5c0-2-.55-5.6-5.5-5.6-2.25,0-4.6,.7-6.3,1.8l-1-2.9c2-1.3,4.9-2.15,7.95-2.15,7.4,0,9.2,5.05,9.2,9.9v9.05c0,2.1,.1,4.15,.4,5.8h-4Zm-.65-12.35c-4.8-.1-10.25,.75-10.25,5.45,0,2.85,1.9,4.2,4.15,4.2,3.15,0,5.15-2,5.85-4.05,.15-.45,.25-.95,.25-1.4v-4.2Z"/><path class="cls-82" d="M958.55,434.5v-20.85h-3.4v-3.35h3.4v-1.15c0-3.4,.75-6.5,2.8-8.45,1.65-1.6,3.85-2.25,5.9-2.25,1.55,0,2.9,.35,3.75,.7l-.6,3.4c-.65-.3-1.55-.55-2.8-.55-3.75,0-4.7,3.3-4.7,7v1.3h5.85v3.35h-5.85v20.85h-4.35Z"/><path class="cls-82" d="M974.5,423.2c.1,5.95,3.9,8.4,8.3,8.4,3.15,0,5.05-.55,6.7-1.25l.75,3.15c-1.55,.7-4.2,1.5-8.05,1.5-7.45,0-11.9-4.9-11.9-12.2s4.3-13.05,11.35-13.05c7.9,0,10,6.95,10,11.4,0,.9-.1,1.6-.15,2.05h-17Zm12.9-3.15c.05-2.8-1.15-7.15-6.1-7.15-4.45,0-6.4,4.1-6.75,7.15h12.85Z"/><path class="cls-82" d="M1012.6,403.5c.05,1.5-1.05,2.7-2.8,2.7-1.55,0-2.65-1.2-2.65-2.7s1.15-2.75,2.75-2.75,2.7,1.2,2.7,2.75Zm-4.9,31v-24.2h4.4v24.2h-4.4Z"/><path class="cls-82" d="M1019.4,416.85c0-2.5-.05-4.55-.2-6.55h3.9l.25,4h.1c1.2-2.3,4-4.55,8-4.55,3.35,0,8.55,2,8.55,10.3v14.45h-4.4v-13.95c0-3.9-1.45-7.15-5.6-7.15-2.9,0-5.15,2.05-5.9,4.5-.2,.55-.3,1.3-.3,2.05v14.55h-4.4v-17.65Z"/><path class="cls-82" d="M1068.05,399v29.25c0,2.15,.05,4.6,.2,6.25h-3.95l-.2-4.2h-.1c-1.35,2.7-4.3,4.75-8.25,4.75-5.85,0-10.35-4.95-10.35-12.3-.05-8.05,4.95-13,10.85-13,3.7,0,6.2,1.75,7.3,3.7h.1v-14.45h4.4Zm-4.4,21.15c0-.55-.05-1.3-.2-1.85-.65-2.8-3.05-5.1-6.35-5.1-4.55,0-7.25,4-7.25,9.35,0,4.9,2.4,8.95,7.15,8.95,2.95,0,5.65-1.95,6.45-5.25,.15-.6,.2-1.2,.2-1.9v-4.2Z"/><path class="cls-82" d="M1077.8,423.2c.1,5.95,3.9,8.4,8.3,8.4,3.15,0,5.05-.55,6.7-1.25l.75,3.15c-1.55,.7-4.2,1.5-8.05,1.5-7.45,0-11.9-4.9-11.9-12.2s4.3-13.05,11.35-13.05c7.9,0,10,6.95,10,11.4,0,.9-.1,1.6-.15,2.05h-17Zm12.9-3.15c.05-2.8-1.15-7.15-6.1-7.15-4.45,0-6.4,4.1-6.75,7.15h12.85Z"/><path class="cls-82" d="M1100.4,416.85c0-2.5-.05-4.55-.2-6.55h3.9l.25,4h.1c1.2-2.3,4-4.55,8-4.55,3.35,0,8.55,2,8.55,10.3v14.45h-4.4v-13.95c0-3.9-1.45-7.15-5.6-7.15-2.9,0-5.15,2.05-5.9,4.5-.2,.55-.3,1.3-.3,2.05v14.55h-4.4v-17.65Z"/><path class="cls-82" d="M1138.75,399h4.4v15.1h.1c.7-1.25,1.8-2.35,3.15-3.1,1.3-.75,2.85-1.25,4.5-1.25,3.25,0,8.45,2,8.45,10.35v14.4h-4.4v-13.9c0-3.9-1.45-7.2-5.6-7.2-2.85,0-5.1,2-5.9,4.4-.25,.6-.3,1.25-.3,2.1v14.6h-4.4v-35.5Z"/><path class="cls-82" d="M1186.75,427.9c0,2.5,.05,4.7,.2,6.6h-3.9l-.25-3.95h-.1c-1.15,1.95-3.7,4.5-8,4.5-3.8,0-8.35-2.1-8.35-10.6v-14.15h4.4v13.4c0,4.6,1.4,7.7,5.4,7.7,2.95,0,5-2.05,5.8-4,.25-.65,.4-1.45,.4-2.25v-14.85h4.4v17.6Z"/><path class="cls-82" d="M1194.05,416.85c0-2.5-.05-4.55-.2-6.55h3.9l.25,4h.1c1.2-2.3,4-4.55,8-4.55,3.35,0,8.55,2,8.55,10.3v14.45h-4.4v-13.95c0-3.9-1.45-7.15-5.6-7.15-2.9,0-5.15,2.05-5.9,4.5-.2,.55-.3,1.3-.3,2.05v14.55h-4.4v-17.65Z"/><path class="cls-82" d="M854.56,490c1.3,.85,3.6,1.75,5.8,1.75,3.2,0,4.7-1.6,4.7-3.6,0-2.1-1.25-3.25-4.5-4.45-4.35-1.55-6.4-3.95-6.4-6.85,0-3.9,3.15-7.1,8.35-7.1,2.45,0,4.6,.7,5.95,1.5l-1.1,3.2c-.95-.6-2.7-1.4-4.95-1.4-2.6,0-4.05,1.5-4.05,3.3,0,2,1.45,2.9,4.6,4.1,4.2,1.6,6.35,3.7,6.35,7.3,0,4.25-3.3,7.25-9.05,7.25-2.65,0-5.1-.65-6.8-1.65l1.1-3.35Z"/><path class="cls-82" d="M879.31,481.4h.1c.6-.85,1.45-1.9,2.15-2.75l7.1-8.35h5.3l-9.35,9.95,10.65,14.25h-5.35l-8.35-11.6-2.25,2.5v9.1h-4.35v-35.5h4.35v22.4Z"/><path class="cls-82" d="M912.71,494.5l-.35-3.05h-.15c-1.35,1.9-3.95,3.6-7.4,3.6-4.9,0-7.4-3.45-7.4-6.95,0-5.85,5.2-9.05,14.55-9v-.5c0-2-.55-5.6-5.5-5.6-2.25,0-4.6,.7-6.3,1.8l-1-2.9c2-1.3,4.9-2.15,7.95-2.15,7.4,0,9.2,5.05,9.2,9.9v9.05c0,2.1,.1,4.15,.4,5.8h-4Zm-.65-12.35c-4.8-.1-10.25,.75-10.25,5.45,0,2.85,1.9,4.2,4.15,4.2,3.15,0,5.15-2,5.85-4.05,.15-.45,.25-.95,.25-1.4v-4.2Z"/><path class="cls-82" d="M923.4,459h4.4v35.5h-4.4v-35.5Z"/><path class="cls-82" d="M950.7,463.5c.05,1.5-1.05,2.7-2.8,2.7-1.55,0-2.65-1.2-2.65-2.7s1.15-2.75,2.75-2.75,2.7,1.2,2.7,2.75Zm-4.9,31v-24.2h4.4v24.2h-4.4Z"/><path class="cls-82" d="M967.9,494.5c.1-1.65,.2-4.1,.2-6.25v-29.25h4.35v15.2h.1c1.55-2.7,4.35-4.45,8.25-4.45,6,0,10.25,5,10.2,12.35,0,8.65-5.45,12.95-10.85,12.95-3.5,0-6.3-1.35-8.1-4.55h-.15l-.2,4h-3.8Zm4.55-9.7c0,.55,.1,1.1,.2,1.6,.85,3.05,3.4,5.15,6.6,5.15,4.6,0,7.35-3.75,7.35-9.3,0-4.85-2.5-9-7.2-9-3,0-5.8,2.05-6.7,5.4-.1,.5-.25,1.1-.25,1.8v4.35Z"/><path class="cls-82" d="M997.8,470.3l5.3,14.3c.55,1.6,1.15,3.5,1.55,4.95h.1c.45-1.45,.95-3.3,1.55-5.05l4.8-14.2h4.65l-6.6,17.25c-3.15,8.3-5.3,12.55-8.3,15.15-2.15,1.9-4.3,2.65-5.4,2.85l-1.1-3.7c1.1-.35,2.55-1.05,3.85-2.15,1.2-.95,2.7-2.65,3.7-4.9,.2-.45,.35-.8,.35-1.05s-.1-.6-.3-1.15l-8.95-22.3h4.8Z"/><path class="cls-82" d="M1021.7,483.2c.1,5.95,3.9,8.4,8.3,8.4,3.15,0,5.05-.55,6.7-1.25l.75,3.15c-1.55,.7-4.2,1.5-8.05,1.5-7.45,0-11.9-4.9-11.9-12.2s4.3-13.05,11.35-13.05c7.9,0,10,6.95,10,11.4,0,.9-.1,1.6-.15,2.05h-17Zm12.9-3.15c.05-2.8-1.15-7.15-6.1-7.15-4.45,0-6.4,4.1-6.75,7.15h12.85Z"/><path class="cls-82" d="M1044.3,476.85c0-2.5-.05-4.55-.2-6.55h3.9l.25,4h.1c1.2-2.3,4-4.55,8-4.55,3.35,0,8.55,2,8.55,10.3v14.45h-4.4v-13.95c0-3.9-1.45-7.15-5.6-7.15-2.9,0-5.15,2.05-5.9,4.5-.2,.55-.3,1.3-.3,2.05v14.55h-4.4v-17.65Z"/><path class="cls-82" d="M724.71,580.8h18.15v3.65h-13.8v11.2h12.75v3.6h-12.75v15.25h-4.35v-33.7Z"/><path class="cls-82" d="M760.06,614.5l-.35-3.05h-.15c-1.35,1.9-3.95,3.6-7.4,3.6-4.9,0-7.4-3.45-7.4-6.95,0-5.85,5.2-9.05,14.55-9v-.5c0-2-.55-5.6-5.5-5.6-2.25,0-4.6,.7-6.3,1.8l-1-2.9c2-1.3,4.9-2.15,7.95-2.15,7.4,0,9.2,5.05,9.2,9.9v9.05c0,2.1,.1,4.15,.4,5.8h-4Zm-.65-12.35c-4.8-.1-10.25,.75-10.25,5.45,0,2.85,1.9,4.2,4.15,4.2,3.15,0,5.15-2,5.85-4.05,.15-.45,.25-.95,.25-1.4v-4.2Zm-9.45-19.05c0-2.65,1.95-4.75,5.1-4.75s4.95,2.05,4.95,4.7-2.15,4.6-5,4.6c-3,0-5.05-2-5.05-4.55Zm7.6-.1c0-1.5-1-2.75-2.6-2.75s-2.45,1.3-2.45,2.85c0,1.3,1,2.7,2.45,2.7,1.6,0,2.6-1.3,2.6-2.8Z"/><path class="cls-82" d="M803.26,602.2c0,8.95-6.2,12.85-12.05,12.85-6.55,0-11.6-4.8-11.6-12.45,0-8.1,5.3-12.85,12-12.85s11.65,5.05,11.65,12.45Zm-19.2,.25c0,5.3,3.05,9.3,7.35,9.3s7.35-3.95,7.35-9.4c0-4.1-2.05-9.3-7.25-9.3s-7.45,4.8-7.45,9.4Z"/><path class="cls-82" d="M810.16,590.3l4.75,13.6c.8,2.2,1.45,4.2,1.95,6.2h.15c.55-2,1.25-4,2.05-6.2l4.7-13.6h4.6l-9.5,24.2h-4.2l-9.2-24.2h4.7Z"/><path class="cls-82" d="M834.46,603.2c.1,5.95,3.9,8.4,8.3,8.4,3.15,0,5.05-.55,6.7-1.25l.75,3.15c-1.55,.7-4.2,1.5-8.05,1.5-7.45,0-11.9-4.9-11.9-12.2s4.3-13.05,11.35-13.05c7.9,0,10,6.95,10,11.4,0,.9-.1,1.6-.15,2.05h-17Zm12.9-3.15c.05-2.8-1.15-7.15-6.1-7.15-4.45,0-6.4,4.1-6.75,7.15h12.85Z"/><path class="cls-82" d="M857.06,597.85c0-2.85-.05-5.3-.2-7.55h3.85l.15,4.75h.2c1.1-3.25,3.75-5.3,6.7-5.3,.5,0,.85,.05,1.25,.15v4.15c-.45-.1-.9-.15-1.5-.15-3.1,0-5.3,2.35-5.9,5.65-.1,.6-.2,1.3-.2,2.05v12.9h-4.35v-16.65Z"/><path class="cls-82" d="M892.16,586.1h-.1l-5.65,3.05-.85-3.35,7.1-3.8h3.75v32.5h-4.25v-28.4Z"/><path class="cls-82" d="M929.86,597.9c0,11.05-4.1,17.15-11.3,17.15-6.35,0-10.65-5.95-10.75-16.7,0-10.9,4.7-16.9,11.3-16.9s10.75,6.1,10.75,16.45Zm-17.65,.5c0,8.45,2.6,13.25,6.6,13.25,4.5,0,6.65-5.25,6.65-13.55s-2.05-13.25-6.6-13.25c-3.85,0-6.65,4.7-6.65,13.55Z"/><path class="cls-82" d="M955.51,597.9c0,11.05-4.1,17.15-11.3,17.15-6.35,0-10.65-5.95-10.75-16.7,0-10.9,4.7-16.9,11.3-16.9s10.75,6.1,10.75,16.45Zm-17.65,.5c0,8.45,2.6,13.25,6.6,13.25,4.5,0,6.65-5.25,6.65-13.55s-2.05-13.25-6.6-13.25c-3.85,0-6.65,4.7-6.65,13.55Z"/><path class="cls-82" d="M971.55,598.2c0-3.1-.1-5.6-.2-7.9h3.95l.2,4.15h.1c1.8-2.95,4.65-4.7,8.6-4.7,5.85,0,10.25,4.95,10.25,12.3,0,8.7-5.3,13-11,13-3.2,0-6-1.4-7.45-3.8h-.1v13.15h-4.35v-26.2Zm4.35,6.45c0,.65,.1,1.25,.2,1.8,.8,3.05,3.45,5.15,6.6,5.15,4.65,0,7.35-3.8,7.35-9.35,0-4.85-2.55-9-7.2-9-3,0-5.8,2.15-6.65,5.45-.15,.55-.3,1.2-.3,1.8v4.15Z"/><path class="cls-82" d="M1021.9,602.2c0,8.95-6.2,12.85-12.05,12.85-6.55,0-11.6-4.8-11.6-12.45,0-8.1,5.3-12.85,12-12.85s11.65,5.05,11.65,12.45Zm-19.2,.25c0,5.3,3.05,9.3,7.35,9.3s7.35-3.95,7.35-9.4c0-4.1-2.05-9.3-7.25-9.3s-7.45,4.8-7.45,9.4Z"/><path class="cls-82" d="M1032.35,583.5c.05,1.5-1.05,2.7-2.8,2.7-1.55,0-2.65-1.2-2.65-2.7s1.15-2.75,2.75-2.75,2.7,1.2,2.7,2.75Zm-4.9,31v-24.2h4.4v24.2h-4.4Z"/><path class="cls-82" d="M1039.15,596.85c0-2.5-.05-4.55-.2-6.55h3.9l.25,4h.1c1.2-2.3,4-4.55,8-4.55,3.35,0,8.55,2,8.55,10.3v14.45h-4.4v-13.95c0-3.9-1.45-7.15-5.6-7.15-2.9,0-5.15,2.05-5.9,4.5-.2,.55-.3,1.3-.3,2.05v14.55h-4.4v-17.65Z"/><path class="cls-82" d="M1072,583.35v6.95h6.3v3.35h-6.3v13.05c0,3,.85,4.7,3.3,4.7,1.15,0,2-.15,2.55-.3l.2,3.3c-.85,.35-2.2,.6-3.9,.6-2.05,0-3.7-.65-4.75-1.85-1.25-1.3-1.7-3.45-1.7-6.3v-13.2h-3.75v-3.35h3.75v-5.8l4.3-1.15Z"/><path class="cls-82" d="M1094.3,614.5v-20.85h-3.4v-3.35h3.4v-1.15c0-3.4,.75-6.5,2.8-8.45,1.65-1.6,3.85-2.25,5.9-2.25,1.55,0,2.9,.35,3.75,.7l-.6,3.4c-.65-.3-1.55-.55-2.8-.55-3.75,0-4.7,3.3-4.7,7v1.3h5.85v3.35h-5.85v20.85h-4.35Z"/><path class="cls-82" d="M1129.7,602.2c0,8.95-6.2,12.85-12.05,12.85-6.55,0-11.6-4.8-11.6-12.45,0-8.1,5.3-12.85,12-12.85s11.65,5.05,11.65,12.45Zm-19.2,.25c0,5.3,3.05,9.3,7.35,9.3s7.35-3.95,7.35-9.4c0-4.1-2.05-9.3-7.25-9.3s-7.45,4.8-7.45,9.4Z"/><path class="cls-82" d="M1135.25,597.85c0-2.85-.05-5.3-.2-7.55h3.85l.15,4.75h.2c1.1-3.25,3.75-5.3,6.7-5.3,.5,0,.85,.05,1.25,.15v4.15c-.45-.1-.9-.15-1.5-.15-3.1,0-5.3,2.35-5.9,5.65-.1,.6-.2,1.3-.2,2.05v12.9h-4.35v-16.65Z"/><path class="cls-82" d="M1175.6,614.5l-.35-3.05h-.15c-1.35,1.9-3.95,3.6-7.4,3.6-4.9,0-7.4-3.45-7.4-6.95,0-5.85,5.2-9.05,14.55-9v-.5c0-2-.55-5.6-5.5-5.6-2.25,0-4.6,.7-6.3,1.8l-1-2.9c2-1.3,4.9-2.15,7.95-2.15,7.4,0,9.2,5.05,9.2,9.9v9.05c0,2.1,.1,4.15,.4,5.8h-4Zm-.65-12.35c-4.8-.1-10.25,.75-10.25,5.45,0,2.85,1.9,4.2,4.15,4.2,3.15,0,5.15-2,5.85-4.05,.15-.45,.25-.95,.25-1.4v-4.2Z"/><path class="cls-82" d="M1191.4,583.35v6.95h6.3v3.35h-6.3v13.05c0,3,.85,4.7,3.3,4.7,1.15,0,2-.15,2.55-.3l.2,3.3c-.85,.35-2.2,.6-3.9,.6-2.05,0-3.7-.65-4.75-1.85-1.25-1.3-1.7-3.45-1.7-6.3v-13.2h-3.75v-3.35h3.75v-5.8l4.3-1.15Z"/><path class="cls-82" d="M906.93,650.3l4.75,13.6c.8,2.2,1.45,4.2,1.95,6.2h.15c.55-2,1.25-4,2.05-6.2l4.7-13.6h4.6l-9.5,24.2h-4.2l-9.2-24.2h4.7Z"/><path class="cls-82" d="M934.18,643.5c.05,1.5-1.05,2.7-2.8,2.7-1.55,0-2.65-1.2-2.65-2.7s1.15-2.75,2.75-2.75,2.7,1.2,2.7,2.75Zm-4.9,31v-24.2h4.4v24.2h-4.4Z"/><path class="cls-82" d="M940.98,656.85c0-2.5-.05-4.55-.2-6.55h3.9l.25,4h.1c1.2-2.3,4-4.55,8-4.55,3.35,0,8.55,2,8.55,10.3v14.45h-4.4v-13.95c0-3.9-1.45-7.15-5.6-7.15-2.9,0-5.15,2.05-5.9,4.5-.2,.55-.3,1.3-.3,2.05v14.55h-4.4v-17.65Z"/><path class="cls-82" d="M989.63,639v29.25c0,2.15,.05,4.6,.2,6.25h-3.95l-.2-4.2h-.1c-1.35,2.7-4.3,4.75-8.25,4.75-5.85,0-10.35-4.95-10.35-12.3-.05-8.05,4.95-13,10.85-13,3.7,0,6.2,1.75,7.3,3.7h.1v-14.45h4.4Zm-4.4,21.15c0-.55-.05-1.3-.2-1.85-.65-2.8-3.05-5.1-6.35-5.1-4.55,0-7.25,4-7.25,9.35,0,4.9,2.4,8.95,7.15,8.95,2.95,0,5.65-1.95,6.45-5.25,.15-.6,.2-1.2,.2-1.9v-4.2Z"/><path class="cls-82" d="M999.38,663.2c.1,5.95,3.9,8.4,8.3,8.4,3.15,0,5.05-.55,6.7-1.25l.75,3.15c-1.55,.7-4.2,1.5-8.05,1.5-7.45,0-11.9-4.9-11.9-12.2s4.3-13.05,11.35-13.05c7.9,0,10,6.95,10,11.4,0,.9-.1,1.6-.15,2.05h-17Zm12.9-3.15c.05-2.8-1.15-7.15-6.1-7.15-4.45,0-6.4,4.1-6.75,7.15h12.85Z"/></g></g><g id="Layer_148"><g><g><path class="cls-223" d="M1393.74,434.32c-11.7,.95-29.76,1.11-41.5,.47-14.45-.79-23.05-8.74-23.11-24.54-.06-16.61,.22-39.34,.74-55.86,.5-15.7,8.9-23.39,23.13-24.62,11.57-1,29.39-1.49,41.04-.83,14.33,.8,22.7,9.06,23.28,24.72,.61,16.47,.64,39.39-.04,55.91-.65,15.71-9.14,23.58-23.54,24.75Z"/><path class="cls-225" d="M1416.88,418.03c-28.98,0-57.99-.47-86.96,.53-.14-36.55,.3-73.12,.29-109.68,28.89,0,57.78,0,86.67,0,0,36.38,0,72.77,0,109.15Z"/><path class="cls-225" d="M1330.97,411.5c-.71-20.3-.91-44.35-.49-64.67,.17-8.02,3.75-11.77,11.52-12.22,19.67-1.16,43.35-1.22,63.02-.04,7.77,.47,11.41,4.37,11.46,12.23,.13,19.92-.32,43.09-.49,62.99-.07,7.85-3.53,11.95-11.22,12.49-19.47,1.35-42.66,1.74-62.17,1.21-7.7-.21-11.35-3.97-11.63-11.98Z"/><path class="cls-236" d="M1368.71,425.81c-13.7,0-26.81-2.56-38.25-7.71-.94-.42-1.36-1.53-.93-2.46,.42-.94,1.53-1.35,2.46-.93,23.17,10.43,53.53,9.78,81.45-1.68-.37-23.42-.44-47.19-.51-70.2-.03-9.92-.06-19.84-.11-29.76,0-1.03,.82-1.87,1.85-1.87h.01c1.02,0,1.86,.83,1.86,1.85,.05,9.92,.08,19.85,.11,29.77,.07,23.41,.14,47.61,.53,71.41,.01,.76-.44,1.45-1.14,1.75-15.5,6.55-31.8,9.84-47.33,9.84Z"/><path class="cls-232" d="M1416.88,308.92c-.09-5.01-36.29-4.99-43.39-5.06-7.1-.06-42.8,.75-42.46,5.72,.35,4.97,35.32,4.33,42.3,4.4,6.98,.07,43.64-.05,43.55-5.06Z"/><path class="cls-230" d="M1374.67,315.01h-.72c-40.98-.04-43.41-3.15-44.21-4.17-.19-.25-.33-.52-.41-.8-.23-.62-.28-1.47,.18-2.34,.81-1.56,3.29-6.31,44.02-6.67,27.02-.25,42.07,1.82,44.72,6.11,.53,.87,.57,1.72,.4,2.35-.07,.37-.24,.73-.51,1.05-2.42,2.97-17.05,4.47-43.47,4.47Zm-41.07-6.18c2.66,.82,11.56,2.42,40.36,2.45,29.33,.04,37.98-1.83,40.46-2.73-2.06-1.22-10.13-4.08-40.84-3.8-29.6,.26-37.76,2.85-39.97,4.08Zm-.66,1.09s0,0,0,0c0,0,0,0,0,0Zm0,0s0,0,0,0c0,0,0,0,0,0Zm.04-.22c0,.07-.02,.14-.04,.21,.02-.07,.03-.14,.04-.21Zm82.02-.26s0,0,0,0c0,0,0,0,0,0Zm0,0s0,0,0,0c0,0,0,0,0,0Zm0,0s0,0,0,0c0,0,0,0,0,0Zm0,0s0,0,0,0c0,0,0,0,0,0Zm0-.01s0,0,0,.01c0,0,0,0,0-.01Zm0,0s0,0,0,0c0,0,0,0,0,0Zm0,0s0,0,0,0c0,0,0,0,0,0Zm0-.01s0,.01,0,.01c0,0,0,0,0-.01Zm0,0s0,0,0,0c0,0,0,0,0,0Zm0,0s0,0,0,0c0,0,0,0,0,0Zm0,0h0s0,0,0,0Zm-82.32-.95h0Z"/><g><path class="cls-230" d="M1329.39,419.95h-.03c-1.03-.02-1.85-.86-1.83-1.89,.57-35.95,1.15-71.9,1.73-107.86,.02-1.02,.85-1.83,1.86-1.83h.03c1.03,.02,1.85,.86,1.83,1.89-.58,35.95-1.16,71.9-1.73,107.86-.02,1.02-.85,1.83-1.86,1.83Z"/><path class="cls-230" d="M1417.6,418.77c-1.02,0-1.86-.83-1.86-1.85-.28-38.57-.54-73.39-.88-108.88-.01-1.03,.82-1.87,1.85-1.88,1.05-.01,1.87,.82,1.88,1.85,.34,35.49,.6,70.31,.88,108.89,0,1.03-.82,1.87-1.85,1.88h-.01Z"/></g><path class="cls-230" d="M1371.81,428.23c-14.31,0-28.65-2.57-42.66-7.72-.97-.35-1.46-1.43-1.11-2.39,.35-.97,1.43-1.46,2.39-1.11,28.5,10.48,58.42,9.95,86.52-1.52,.95-.39,2.04,.07,2.43,1.02,.39,.95-.07,2.04-1.02,2.43-15.16,6.19-30.84,9.29-46.56,9.29Z"/><path class="cls-230" d="M1338.57,433.28c-.38,0-.77-.12-1.11-.36-4.72-3.48-7.51-7.48-9.63-13.79-.33-.98,.2-2.03,1.17-2.36,.98-.33,2.03,.2,2.36,1.17,1.88,5.6,4.21,8.96,8.32,11.98,.83,.61,1,1.78,.39,2.61-.37,.49-.93,.76-1.5,.76Z"/><path class="cls-230" d="M1408.82,431.46c-.63,0-1.24-.32-1.59-.89-.54-.88-.26-2.02,.62-2.56,4.53-2.78,5.96-5.08,7.95-10.6,.35-.97,1.42-1.47,2.38-1.12,.97,.35,1.47,1.42,1.12,2.38-2.14,5.93-4.02,9.15-9.51,12.51-.3,.19-.64,.27-.97,.27Z"/><path class="cls-230" d="M1372.04,436.59c-18.04,0-32.25-2.83-33.2-3.03-1.01-.21-1.66-1.19-1.45-2.2,.2-1.01,1.19-1.66,2.2-1.45,.37,.08,37.52,7.47,67.77-1.66,.98-.29,2.02,.26,2.32,1.25,.3,.99-.26,2.02-1.25,2.32-12.07,3.64-24.99,4.78-36.39,4.78Z"/></g><g><ellipse class="cls-232" cx="1375.1" cy="344.61" rx="15.13" ry="12.8"/><ellipse class="cls-232" cx="1376.33" cy="377.03" rx="26.98" ry="28.16"/><ellipse class="cls-232" cx="1375.1" cy="344.27" rx="13.49" ry="10.75"/><ellipse class="cls-232" cx="1376.24" cy="377.11" rx="25.26" ry="26.36"/><rect class="cls-232" x="1350.98" y="370.2" width="50.69" height="12.8"/><g><path class="cls-232" d="M1358.2,371.94h6.82v1.06h-2.8v8.27h-1.22v-8.27h-2.81v-1.06Z"/><path class="cls-232" d="M1366.47,378.62v-4.34h1.1v4.34c0,.63,.11,1.09,.32,1.39,.21,.3,.54,.44,.99,.44,.52,0,.92-.19,1.19-.57,.28-.38,.41-.93,.41-1.64v-3.96h1.11v6.99h-1.11v-1.05c-.19,.4-.46,.71-.8,.92-.34,.21-.73,.31-1.18,.31-.69,0-1.2-.23-1.53-.7-.34-.47-.5-1.18-.5-2.13Z"/><path class="cls-232" d="M1376.99,378.74c0,.52,.09,.91,.27,1.17,.18,.26,.45,.39,.81,.39h1.29v.97h-1.39c-.66,0-1.17-.22-1.53-.66-.36-.44-.54-1.06-.54-1.87v-6.33h-1.77v-.9h2.87v7.23Z"/><path class="cls-232" d="M1384.38,378.74c0,.52,.09,.91,.27,1.17,.18,.26,.45,.39,.81,.39h1.29v.97h-1.4c-.66,0-1.17-.22-1.53-.66-.36-.44-.54-1.06-.54-1.87v-6.33h-1.77v-.9h2.87v7.23Z"/><path class="cls-232" d="M1394.16,377.2v.56h-4.77v.04c-.03,.95,.14,1.64,.52,2.06,.38,.42,.92,.63,1.61,.63,.35,0,.72-.06,1.1-.17,.38-.12,.79-.29,1.23-.53v1.14c-.42,.18-.82,.31-1.21,.4-.39,.09-.77,.13-1.13,.13-1.04,0-1.86-.33-2.44-.98-.59-.65-.88-1.55-.88-2.7s.29-2.01,.86-2.67c.58-.67,1.34-1,2.3-1,.85,0,1.53,.3,2.02,.91s.76,1.33,.79,2.19Zm-1.1-.34c-.05-.48-.22-.9-.51-1.25s-.71-.53-1.25-.53-.97,.18-1.31,.55c-.34,.37-.53,.78-.56,1.24h3.63Z"/></g></g><g><ellipse class="cls-33" cx="1373.14" cy="343" rx="15.13" ry="12.8"/><ellipse class="cls-33" cx="1374.36" cy="375.42" rx="26.98" ry="28.16"/><ellipse class="cls-41" cx="1373.14" cy="342.66" rx="13.49" ry="10.75"/><ellipse class="cls-41" cx="1374.28" cy="375.51" rx="25.26" ry="26.36"/><rect class="cls-33" x="1349.02" y="368.6" width="50.69" height="12.8"/><g><path d="M1356.24,370.34h6.82v1.06h-2.8v8.27h-1.22v-8.27h-2.81v-1.06Z"/><path d="M1364.51,377.02v-4.34h1.1v4.34c0,.63,.11,1.09,.32,1.39,.21,.3,.54,.44,.99,.44,.52,0,.92-.19,1.19-.57,.28-.38,.41-.93,.41-1.64v-3.96h1.11v6.99h-1.11v-1.05c-.19,.4-.46,.71-.8,.92-.34,.21-.73,.31-1.18,.31-.69,0-1.2-.23-1.53-.7-.34-.47-.5-1.18-.5-2.13Z"/><path d="M1375.03,377.14c0,.52,.09,.91,.27,1.17,.18,.26,.45,.39,.81,.39h1.29v.97h-1.39c-.66,0-1.17-.22-1.53-.66-.36-.44-.54-1.06-.54-1.87v-6.33h-1.77v-.9h2.87v7.23Z"/><path d="M1382.41,377.14c0,.52,.09,.91,.27,1.17,.18,.26,.45,.39,.81,.39h1.29v.97h-1.4c-.66,0-1.17-.22-1.53-.66-.36-.44-.54-1.06-.54-1.87v-6.33h-1.77v-.9h2.87v7.23Z"/><path d="M1392.2,375.6v.56h-4.77v.04c-.03,.95,.14,1.64,.52,2.06,.38,.42,.92,.63,1.61,.63,.35,0,.72-.06,1.1-.17,.38-.12,.79-.29,1.23-.53v1.14c-.42,.18-.82,.31-1.21,.4-.39,.09-.77,.13-1.13,.13-1.04,0-1.86-.33-2.44-.98-.59-.65-.88-1.55-.88-2.7s.29-2.01,.86-2.67c.58-.67,1.34-1,2.3-1,.85,0,1.53,.3,2.02,.91s.76,1.33,.79,2.19Zm-1.1-.34c-.05-.48-.22-.9-.51-1.25s-.71-.53-1.25-.53-.97,.18-1.31,.55c-.34,.37-.53,.78-.56,1.24h3.63Z"/></g></g></g></g><g id="Layer_149"><g><path class="cls-232" d="M1332.12,521.98c-.42,0-.8-.24-.92-.61-.14-.44,.16-.89,.67-1.01,27.4-6.45,54.02-6.55,81.38-.3,.51,.12,.81,.57,.68,1s-.66,.7-1.16,.59c-27.04-6.17-53.34-6.07-80.4,.3-.08,.02-.17,.03-.25,.03Z"/><path class="cls-237" d="M1386.14,558.33c-.66,0-1.34-.11-1.99-.34-2.67-.95-3.94-3.59-2.84-5.9,5.24-11.02,11.25-21.93,17.06-32.48,6.02-10.92,12.24-22.21,17.53-33.52,1.08-2.31,4.13-3.43,6.8-2.49,2.67,.94,3.96,3.57,2.88,5.89-5.41,11.56-11.7,22.97-17.79,34.02-5.75,10.44-11.7,21.24-16.83,32.03-.83,1.75-2.78,2.8-4.83,2.8Z"/><ellipse class="cls-240" cx="1421.39" cy="486.55" rx="3.01" ry="4.75" transform="translate(635.23 1766.8) rotate(-77.34)"/><g class="cls-2"><rect class="cls-47" x="1331.45" y="540.32" width="81.09" height=".53"/><rect class="cls-47" x="1331.45" y="540.85" width="81.09" height=".53"/><rect class="cls-50" x="1331.45" y="541.38" width="81.09" height=".53"/><rect class="cls-50" x="1331.45" y="541.91" width="81.09" height=".53"/><rect class="cls-49" x="1331.45" y="542.44" width="81.09" height=".53"/><rect class="cls-48" x="1331.45" y="542.98" width="81.09" height=".53"/><rect class="cls-48" x="1331.45" y="543.51" width="81.09" height=".53"/><rect class="cls-51" x="1331.45" y="544.04" width="81.09" height=".53"/><rect class="cls-51" x="1331.45" y="544.57" width="81.09" height=".53"/><rect class="cls-200" x="1331.45" y="545.1" width="81.09" height=".53"/><rect class="cls-200" x="1331.45" y="545.64" width="81.09" height=".53"/><rect class="cls-197" x="1331.45" y="546.17" width="81.09" height=".53"/><rect class="cls-198" x="1331.45" y="546.7" width="81.09" height=".53"/><rect class="cls-199" x="1331.45" y="547.23" width="81.09" height=".53"/><rect class="cls-193" x="1331.45" y="547.76" width="81.09" height=".53"/><rect class="cls-195" x="1331.45" y="548.29" width="81.09" height=".53"/><rect class="cls-195" x="1331.45" y="548.83" width="81.09" height=".53"/><rect class="cls-194" x="1331.45" y="549.36" width="81.09" height=".53"/><rect class="cls-196" x="1331.45" y="549.89" width="81.09" height=".53"/><rect class="cls-196" x="1331.45" y="550.42" width="81.09" height=".53"/><rect class="cls-71" x="1331.45" y="550.95" width="81.09" height=".53"/><rect class="cls-73" x="1331.45" y="551.49" width="81.09" height=".53"/><rect class="cls-72" x="1331.45" y="552.02" width="81.09" height=".53"/><rect class="cls-72" x="1331.45" y="552.55" width="81.09" height=".53"/><rect class="cls-70" x="1331.45" y="553.08" width="81.09" height=".53"/><rect class="cls-74" x="1331.45" y="553.61" width="81.09" height=".53"/><rect class="cls-88" x="1331.45" y="554.15" width="81.09" height=".53"/><rect class="cls-89" x="1331.45" y="554.68" width="81.09" height=".53"/><rect class="cls-75" x="1331.45" y="555.21" width="81.09" height=".53"/><rect class="cls-86" x="1331.45" y="555.74" width="81.09" height=".53"/><rect class="cls-45" x="1331.45" y="556.27" width="81.09" height=".53"/><rect class="cls-85" x="1331.45" y="556.81" width="81.09" height=".53"/><rect class="cls-87" x="1331.45" y="557.34" width="81.09" height=".53"/><rect class="cls-44" x="1331.45" y="557.87" width="81.09" height=".53"/><rect class="cls-44" x="1331.45" y="558.4" width="81.09" height=".53"/><rect class="cls-43" x="1331.45" y="558.93" width="81.09" height=".53"/><rect class="cls-42" x="1331.45" y="559.46" width="81.09" height=".53"/><rect class="cls-206" x="1331.45" y="560" width="81.09" height=".53"/><rect class="cls-205" x="1331.45" y="560.53" width="81.09" height=".53"/><rect class="cls-208" x="1331.45" y="561.06" width="81.09" height=".53"/><rect class="cls-201" x="1331.45" y="561.59" width="81.09" height=".53"/><rect class="cls-203" x="1331.45" y="562.12" width="81.09" height=".53"/><rect class="cls-207" x="1331.45" y="562.66" width="81.09" height=".53"/><rect class="cls-202" x="1331.45" y="563.19" width="81.09" height=".53"/><rect class="cls-204" x="1331.45" y="563.72" width="81.09" height=".53"/><rect class="cls-53" x="1331.45" y="564.25" width="81.09" height=".53"/><rect class="cls-54" x="1331.45" y="564.78" width="81.09" height=".53"/><rect class="cls-55" x="1331.45" y="565.32" width="81.09" height=".53"/><rect class="cls-56" x="1331.45" y="565.85" width="81.09" height=".53"/><rect class="cls-57" x="1331.45" y="566.38" width="81.09" height=".53"/><rect class="cls-83" x="1331.45" y="566.91" width="81.09" height=".53"/><rect class="cls-84" x="1331.45" y="567.44" width="81.09" height=".53"/><rect class="cls-26" x="1331.45" y="567.97" width="81.09" height=".53"/><rect class="cls-30" x="1331.45" y="568.51" width="81.09" height=".53"/><rect class="cls-29" x="1331.45" y="569.04" width="81.09" height=".53"/><rect class="cls-28" x="1331.45" y="569.57" width="81.09" height=".53"/><rect class="cls-31" x="1331.45" y="570.1" width="81.09" height=".53"/><rect class="cls-32" x="1331.45" y="570.63" width="81.09" height=".53"/><rect class="cls-27" x="1331.45" y="571.17" width="81.09" height=".53"/><rect class="cls-9" x="1331.45" y="571.7" width="81.09" height=".53"/><rect class="cls-5" x="1331.45" y="572.23" width="81.09" height=".53"/><rect class="cls-4" x="1331.45" y="572.76" width="81.09" height=".53"/><rect class="cls-8" x="1331.45" y="573.29" width="81.09" height=".53"/><rect class="cls-3" x="1331.45" y="573.83" width="81.09" height=".53"/><rect class="cls-7" x="1331.45" y="574.36" width="81.09" height=".53"/><rect class="cls-6" x="1331.45" y="574.89" width="81.09" height=".53"/><rect class="cls-59" x="1331.45" y="575.42" width="81.09" height=".53"/><rect class="cls-63" x="1331.45" y="575.95" width="81.09" height=".53"/><rect class="cls-62" x="1331.45" y="576.49" width="81.09" height=".53"/><rect class="cls-61" x="1331.45" y="577.02" width="81.09" height=".53"/><rect class="cls-60" x="1331.45" y="577.55" width="81.09" height=".53"/><rect class="cls-58" x="1331.45" y="578.08" width="81.09" height=".53"/><rect class="cls-64" x="1331.45" y="578.61" width="81.09" height=".53"/><rect class="cls-65" x="1331.45" y="579.14" width="81.09" height=".53"/><rect class="cls-67" x="1331.45" y="579.68" width="81.09" height=".53"/><rect class="cls-69" x="1331.45" y="580.21" width="81.09" height=".53"/><rect class="cls-68" x="1331.45" y="580.74" width="81.09" height=".53"/><rect class="cls-66" x="1331.45" y="581.27" width="81.09" height=".53"/><rect class="cls-19" x="1331.45" y="581.8" width="81.09" height=".53"/><rect class="cls-17" x="1331.45" y="582.34" width="81.09" height=".53"/><rect class="cls-18" x="1331.45" y="582.87" width="81.09" height=".53"/><rect class="cls-15" x="1331.45" y="583.4" width="81.09" height=".53"/><rect class="cls-35" x="1331.45" y="583.93" width="81.09" height=".53"/><rect class="cls-16" x="1331.45" y="584.46" width="81.09" height=".53"/><rect class="cls-24" x="1331.45" y="585" width="81.09" height=".53"/><rect class="cls-25" x="1331.45" y="585.53" width="81.09" height=".53"/><rect class="cls-21" x="1331.45" y="586.06" width="81.09" height=".53"/><rect class="cls-23" x="1331.45" y="586.59" width="81.09" height=".53"/><rect class="cls-22" x="1331.45" y="587.12" width="81.09" height=".53"/><rect class="cls-20" x="1331.45" y="587.65" width="81.09" height=".53"/><rect class="cls-36" x="1331.45" y="588.19" width="81.09" height=".53"/><rect class="cls-11" x="1331.45" y="588.72" width="81.09" height=".53"/><rect class="cls-14" x="1331.45" y="589.25" width="81.09" height=".53"/><rect class="cls-13" x="1331.45" y="589.78" width="81.09" height=".53"/><rect class="cls-12" x="1331.45" y="590.31" width="81.09" height=".53"/><rect class="cls-10" x="1331.45" y="590.85" width="81.09" height=".53"/><rect class="cls-37" x="1331.45" y="591.38" width="81.09" height=".53"/><rect class="cls-38" x="1331.45" y="591.91" width="81.09" height=".53"/><rect class="cls-39" x="1331.45" y="592.44" width="81.09" height=".53"/><rect class="cls-34" x="1331.45" y="592.97" width="81.09" height=".53"/><rect class="cls-40" x="1331.45" y="593.51" width="81.09" height=".53"/><rect class="cls-217" x="1331.45" y="594.04" width="81.09" height=".53"/><rect class="cls-216" x="1331.45" y="594.57" width="81.09" height=".53"/><rect class="cls-215" x="1331.45" y="595.1" width="81.09" height=".53"/><rect class="cls-192" x="1331.45" y="595.63" width="81.09" height=".53"/><rect class="cls-190" x="1331.45" y="596.17" width="81.09" height=".53"/><rect class="cls-191" x="1331.45" y="596.7" width="81.09" height=".53"/><rect class="cls-213" x="1331.45" y="597.23" width="81.09" height=".53"/><rect class="cls-211" x="1331.45" y="597.76" width="81.09" height=".53"/><rect class="cls-212" x="1331.45" y="598.29" width="81.09" height=".53"/><rect class="cls-209" x="1331.45" y="598.82" width="81.09" height=".53"/><rect class="cls-210" x="1331.45" y="599.36" width="81.09" height=".53"/><rect class="cls-214" x="1331.45" y="599.89" width="81.09" height=".53"/><rect class="cls-220" x="1331.45" y="600.42" width="81.09" height=".53"/><rect class="cls-219" x="1331.45" y="600.95" width="81.09" height=".53"/><rect class="cls-218" x="1331.45" y="601.48" width="81.09" height=".53"/><rect class="cls-222" x="1331.45" y="602.02" width="81.09" height=".53"/><rect class="cls-221" x="1331.45" y="602.55" width="81.09" height=".53"/><rect class="cls-173" x="1331.45" y="603.08" width="81.09" height=".53"/><rect class="cls-79" x="1331.45" y="603.61" width="81.09" height=".53"/><rect class="cls-81" x="1331.45" y="604.14" width="81.09" height=".53"/><rect class="cls-81" x="1331.45" y="604.68" width="81.09" height=".53"/><rect class="cls-80" x="1331.45" y="605.2" width="81.09" height=".53"/><rect class="cls-77" x="1331.45" y="605.73" width="81.09" height=".53"/><rect class="cls-78" x="1331.45" y="606.26" width="81.09" height=".53"/><rect class="cls-76" x="1331.45" y="606.79" width="81.09" height=".53"/><rect class="cls-123" x="1331.45" y="607.31" width="81.09" height=".53"/><rect class="cls-124" x="1331.45" y="607.84" width="81.09" height=".53"/><rect class="cls-122" x="1331.45" y="608.37" width="81.09" height=".53"/><rect class="cls-121" x="1331.45" y="608.9" width="81.09" height=".53"/><rect class="cls-118" x="1331.45" y="609.42" width="81.09" height=".53"/><rect class="cls-117" x="1331.45" y="609.95" width="81.09" height=".53"/><rect class="cls-120" x="1331.45" y="610.48" width="81.09" height=".53"/><rect class="cls-119" x="1331.45" y="611.01" width="81.09" height=".53"/><rect class="cls-182" x="1331.45" y="611.54" width="81.09" height=".53"/><rect class="cls-181" x="1331.45" y="612.06" width="81.09" height=".53"/><rect class="cls-189" x="1331.45" y="612.59" width="81.09" height=".53"/><rect class="cls-183" x="1331.45" y="613.12" width="81.09" height=".53"/><rect class="cls-185" x="1331.45" y="613.65" width="81.09" height=".53"/><rect class="cls-186" x="1331.45" y="614.17" width="81.09" height=".53"/><rect class="cls-149" x="1331.45" y="614.7" width="81.09" height=".53"/><rect class="cls-148" x="1331.45" y="615.23" width="81.09" height=".53"/><rect class="cls-140" x="1331.45" y="615.76" width="81.09" height=".53"/><rect class="cls-146" x="1331.45" y="616.28" width="81.09" height=".53"/><rect class="cls-147" x="1331.45" y="616.81" width="81.09" height=".53"/><rect class="cls-180" x="1331.45" y="617.34" width="81.09" height=".53"/><rect class="cls-135" x="1331.45" y="617.87" width="81.09" height=".53"/><rect class="cls-136" x="1331.45" y="618.4" width="81.09" height=".53"/><rect class="cls-134" x="1331.45" y="618.92" width="81.09" height=".53"/><rect class="cls-108" x="1331.45" y="619.45" width="81.09" height=".53"/><rect class="cls-107" x="1331.45" y="619.98" width="81.09" height=".53"/><rect class="cls-109" x="1331.45" y="620.51" width="81.09" height=".53"/><rect class="cls-103" x="1331.45" y="621.03" width="81.09" height=".53"/><rect class="cls-116" x="1331.45" y="621.56" width="81.09" height=".53"/><rect class="cls-106" x="1331.45" y="622.09" width="81.09" height=".53"/><rect class="cls-104" x="1331.45" y="622.62" width="81.09" height=".53"/><rect class="cls-105" x="1331.45" y="623.14" width="81.09" height=".53"/><rect class="cls-139" x="1331.45" y="623.67" width="81.09" height=".53"/><rect class="cls-138" x="1331.45" y="624.2" width="81.09" height=".53"/><rect class="cls-137" x="1331.45" y="624.73" width="81.09" height=".53"/><rect class="cls-142" x="1331.45" y="625.26" width="81.09" height=".53"/><rect class="cls-143" x="1331.45" y="625.78" width="81.09" height=".53"/><rect class="cls-141" x="1331.45" y="626.31" width="81.09" height=".53"/><rect class="cls-132" x="1331.45" y="626.84" width="81.09" height=".53"/><rect class="cls-133" x="1331.45" y="627.37" width="81.09" height=".53"/><rect class="cls-131" x="1331.45" y="627.89" width="81.09" height=".53"/><rect class="cls-128" x="1331.45" y="628.42" width="81.09" height=".53"/><rect class="cls-129" x="1331.45" y="628.95" width="81.09" height=".53"/><rect class="cls-130" x="1331.45" y="629.48" width="81.09" height=".53"/><rect class="cls-127" x="1331.45" y="630" width="81.09" height=".53"/><rect class="cls-126" x="1331.45" y="630.53" width="81.09" height=".53"/><rect class="cls-125" x="1331.45" y="631.06" width="81.09" height=".53"/><rect class="cls-177" x="1331.45" y="631.59" width="81.09" height=".53"/><rect class="cls-178" x="1331.45" y="632.12" width="81.09" height=".53"/><rect class="cls-184" x="1331.45" y="632.64" width="81.09" height=".53"/><rect class="cls-187" x="1331.45" y="633.17" width="81.09" height=".53"/><rect class="cls-188" x="1331.45" y="633.7" width="81.09" height=".53"/><rect class="cls-179" x="1331.45" y="634.23" width="81.09" height=".53"/><rect class="cls-145" x="1331.45" y="634.75" width="81.09" height=".53"/><rect class="cls-144" x="1331.45" y="635.28" width="81.09" height=".53"/><rect class="cls-175" x="1331.45" y="635.81" width="81.09" height=".53"/><rect class="cls-174" x="1331.45" y="636.34" width="81.09" height=".53"/><rect class="cls-176" x="1331.45" y="636.86" width="81.09" height=".53"/><rect class="cls-170" x="1331.45" y="637.39" width="81.09" height=".53"/><rect class="cls-155" x="1331.45" y="637.92" width="81.09" height=".53"/><rect class="cls-155" x="1331.45" y="638.45" width="81.09" height=".36"/><rect class="cls-170" x="1331.45" y="638.81" width="81.09" height=".36"/><rect class="cls-169" x="1331.45" y="639.17" width="81.09" height=".36"/><rect class="cls-172" x="1331.45" y="639.52" width="81.09" height=".36"/><rect class="cls-171" x="1331.45" y="639.88" width="81.09" height=".36"/><rect class="cls-154" x="1331.45" y="640.24" width="81.09" height=".36"/><rect class="cls-151" x="1331.45" y="640.6" width="81.09" height=".36"/><rect class="cls-156" x="1331.45" y="640.96" width="81.09" height=".36"/><rect class="cls-153" x="1331.45" y="641.32" width="81.09" height=".36"/><rect class="cls-159" x="1331.45" y="641.68" width="81.09" height=".36"/><rect class="cls-157" x="1331.45" y="642.04" width="81.09" height=".36"/><rect class="cls-152" x="1331.45" y="642.39" width="81.09" height=".36"/><rect class="cls-158" x="1331.45" y="642.75" width="81.09" height=".36"/><rect class="cls-168" x="1331.45" y="643.11" width="81.09" height=".36"/><rect class="cls-167" x="1331.45" y="643.47" width="81.09" height=".36"/><rect class="cls-110" x="1331.45" y="643.83" width="81.09" height=".36"/><rect class="cls-112" x="1331.45" y="644.19" width="81.09" height=".36"/><rect class="cls-111" x="1331.45" y="644.55" width="81.09" height=".36"/><rect class="cls-115" x="1331.45" y="644.91" width="81.09" height=".36"/><rect class="cls-113" x="1331.45" y="645.26" width="81.09" height=".36"/><rect class="cls-114" x="1331.45" y="645.62" width="81.09" height=".36"/><rect class="cls-164" x="1331.45" y="645.98" width="81.09" height=".36"/><rect class="cls-165" x="1331.45" y="646.34" width="81.09" height=".36"/><rect class="cls-166" x="1331.45" y="646.7" width="81.09" height=".36"/><rect class="cls-163" x="1331.45" y="647.06" width="81.09" height=".36"/><rect class="cls-162" x="1331.45" y="647.42" width="81.09" height=".36"/><rect class="cls-160" x="1331.45" y="647.78" width="81.09" height=".36"/><rect class="cls-161" x="1331.45" y="648.13" width="81.09" height=".36"/><rect class="cls-150" x="1331.45" y="648.49" width="81.09" height=".36"/><rect class="cls-99" x="1331.45" y="648.85" width="81.09" height=".36"/><rect class="cls-97" x="1331.45" y="649.21" width="81.09" height=".36"/><rect class="cls-93" x="1331.45" y="649.57" width="81.09" height=".36"/><rect class="cls-92" x="1331.45" y="649.93" width="81.09" height=".36"/><rect class="cls-94" x="1331.45" y="650.29" width="81.09" height=".36"/><rect class="cls-96" x="1331.45" y="650.65" width="81.09" height=".36"/><rect class="cls-95" x="1331.45" y="651" width="81.09" height=".36"/><rect class="cls-98" x="1331.45" y="651.36" width="81.09" height=".36"/><rect class="cls-90" x="1331.45" y="651.72" width="81.09" height=".36"/><rect class="cls-91" x="1331.45" y="652.08" width="81.09" height=".36"/><rect class="cls-101" x="1331.45" y="652.44" width="81.09" height=".36"/><rect class="cls-102" x="1331.45" y="652.8" width="81.09" height=".36"/><rect class="cls-100" x="1331.45" y="653.16" width="81.09" height=".36"/><rect class="cls-100" x="1331.45" y="653.52" width="81.09" height=".23"/></g><path class="cls-52" d="M1331.45,540.32s7.27-1.81,13.8,0,13.14,0,13.14,0c0,0,9.92-1.81,17.81,0,7.89,1.81,21.16,0,21.16,0,0,0,5.36-1.81,15.18,0"/><path class="cls-232" d="M1369.35,527.37c-13.06,0-25.85-1.34-38.55-4.01-.51-.11-.82-.55-.7-.99s.64-.71,1.15-.6c25.86,5.45,52.15,5.28,80.35-.51,.51-.11,1.02,.17,1.14,.61,.12,.44-.19,.88-.7,.99-14.67,3.01-28.83,4.52-42.69,4.52Z"/><g class="cls-241"><path class="cls-232" d="M1411.98,653.46c-26.52,.26-53.05-.45-79.56,.28,.8-68.58-3.15-114.35-1.06-130.11,26.93,4.47,52.84,4.5,79.78-1.36,2.88,10.28-.62,98.94,.84,131.18Z"/></g><g class="cls-241"><path class="cls-230" d="M1408.89,651.17c-.26,0-.51-.12-.63-.33l-76.29-126.57c-.18-.3-.05-.67,.3-.83,.35-.16,.78-.04,.96,.26l76.29,126.57c.18,.3,.05,.67-.3,.83-.1,.05-.22,.07-.33,.07Z"/></g><g class="cls-241"><path class="cls-230" d="M1411.4,636.21c-.25,0-.5-.12-.63-.33l-68.53-110.7c-.19-.3-.06-.67,.29-.83,.35-.16,.78-.05,.96,.25l68.53,110.7c.19,.3,.06,.67-.29,.83-.11,.05-.22,.07-.34,.07Z"/></g><g class="cls-241"><path class="cls-230" d="M1411.4,620.78c-.26,0-.51-.12-.63-.33l-55.96-93.46c-.18-.3-.04-.67,.31-.83,.35-.15,.78-.04,.96,.26l55.96,93.46c.18,.3,.04,.67-.31,.83-.1,.05-.22,.07-.33,.07Z"/></g><g class="cls-241"><path class="cls-230" d="M1411.4,603.54c-.26,0-.51-.12-.64-.34l-44.21-75.22-33.35,48.62c-.2,.29-.64,.39-.98,.22-.34-.17-.45-.55-.25-.84l34.01-49.59c.13-.19,.39-.29,.64-.3,.26,0,.49,.14,.61,.34l44.8,76.22c.18,.3,.04,.67-.31,.83-.1,.05-.21,.07-.32,.07Z"/></g><g class="cls-241"><path class="cls-230" d="M1411.4,583.58c-.27,0-.53-.13-.65-.36l-29.69-57.17c-.16-.31,0-.68,.36-.81,.36-.14,.78,0,.94,.31l29.69,57.17c.16,.31,0,.68-.36,.81-.09,.04-.19,.05-.29,.05Z"/></g><g class="cls-241"><path class="cls-230" d="M1411.4,562.71c-.26,0-.52-.13-.64-.35l-20.56-36.3c-.17-.31-.03-.68,.33-.83,.36-.15,.78-.02,.95,.28l20.56,36.3c.17,.31,.03,.68-.33,.83-.1,.04-.21,.06-.31,.06Z"/></g><g class="cls-241"><path class="cls-230" d="M1412.54,545.47c-.26,0-.51-.13-.64-.34l-11.42-19.96c-.17-.31-.03-.68,.32-.83,.36-.15,.78-.02,.95,.28l11.42,19.96c.17,.31,.03,.68-.32,.83-.1,.04-.21,.06-.32,.06Z"/></g><g class="cls-241"><path class="cls-230" d="M1398.05,651.17c-.25,0-.5-.12-.63-.32l-65.46-104.79c-.19-.3-.06-.67,.29-.84,.35-.16,.78-.05,.97,.25l65.46,104.79c.19,.3,.06,.67-.29,.84-.11,.05-.22,.07-.34,.07Z"/></g><g class="cls-241"><path class="cls-230" d="M1383.99,653.45c-.26,0-.51-.12-.64-.34l-51.39-87.11c-.18-.3-.04-.67,.31-.83,.35-.15,.78-.03,.96,.27l51.39,87.11c.18,.3,.04,.67-.31,.83-.1,.05-.21,.07-.32,.07Z"/></g><g class="cls-241"><path class="cls-230" d="M1367.95,653.45c-.27,0-.52-.14-.64-.35l-35.36-64.4c-.17-.31-.02-.68,.34-.82,.36-.14,.78-.01,.95,.29l34.71,63.22,43.23-79.58c.17-.31,.59-.44,.95-.3,.36,.15,.51,.51,.34,.82l-43.87,80.76c-.12,.22-.37,.35-.64,.35h0Z"/></g><g class="cls-241"><path class="cls-230" d="M1356.58,653.45c-.26,0-.5-.12-.63-.33l-23.98-39.02c-.18-.3-.05-.67,.29-.83,.35-.16,.78-.04,.96,.25l23.98,39.02c.18,.3,.05,.67-.29,.83-.11,.05-.22,.07-.33,.07Z"/></g><g class="cls-241"><path class="cls-230" d="M1344.99,653.45c-.24,0-.48-.11-.61-.3l-12.39-18.15c-.2-.29-.09-.67,.25-.84,.34-.17,.78-.08,.98,.22l12.39,18.15c.2,.29,.09,.67-.25,.84-.11,.06-.24,.09-.36,.09Z"/></g><g class="cls-241"><path class="cls-230" d="M1332.42,654.36c-.11,0-.22-.02-.33-.07-.35-.16-.48-.53-.3-.83l78.98-130.66c.18-.3,.61-.42,.96-.26,.35,.16,.48,.53,.3,.83l-78.98,130.66c-.13,.21-.37,.33-.63,.33Z"/></g><g class="cls-241"><path class="cls-230" d="M1332.59,625.32c-.12,0-.24-.03-.35-.08-.34-.17-.46-.54-.27-.84l65.1-99.81c.19-.3,.63-.4,.97-.23,.34,.17,.46,.54,.27,.84l-65.1,99.81c-.13,.2-.37,.31-.62,.31Z"/></g><g class="cls-241"><path class="cls-230" d="M1332.59,599.01c-.12,0-.25-.03-.36-.08-.34-.17-.45-.55-.26-.84l49.11-72.59c.2-.29,.63-.39,.97-.22,.34,.17,.45,.55,.26,.84l-49.11,72.59c-.13,.2-.37,.31-.62,.31Z"/></g><g class="cls-241"><path class="cls-230" d="M1332.59,556.36c-.13,0-.26-.03-.37-.09-.34-.18-.44-.56-.24-.85l20.56-29.04c.21-.29,.64-.38,.98-.2,.34,.18,.44,.56,.24,.85l-20.56,29.04c-.13,.19-.37,.29-.61,.29Z"/></g><g class="cls-241"><path class="cls-230" d="M1348.58,652.54c-.11,0-.23-.02-.33-.07-.35-.16-.48-.53-.29-.83l64.08-104.35c.18-.3,.61-.41,.96-.26,.35,.16,.48,.53,.29,.83l-64.08,104.35c-.13,.21-.37,.33-.63,.33Z"/></g><g class="cls-241"><path class="cls-230" d="M1383.99,653.45c-.1,0-.21-.02-.31-.06-.35-.15-.5-.52-.33-.83l27.83-49.14c.17-.31,.6-.43,.95-.28,.35,.15,.5,.52,.33,.83l-27.83,49.14c-.12,.22-.38,.35-.64,.35Z"/></g><g class="cls-241"><path class="cls-230" d="M1402.91,651.17c-.1,0-.21-.02-.31-.06-.35-.15-.5-.52-.33-.82l8.48-14.96c.17-.31,.6-.43,.95-.28,.35,.15,.5,.52,.33,.82l-8.48,14.96c-.12,.22-.38,.35-.64,.35Z"/></g><rect class="cls-232" x="1330.31" y="652.83" width="83.37" height="8.17"/><path class="cls-232" d="M1330.34,653.24c-.03-2.53,.13-5.05,.17-7.58,7.93,3.27,15.88,5.85,24.59,7.49"/><path class="cls-232" d="M1413.67,653.42c.15-2.53-.02-5.05,.14-7.59-8.17,3.29-15.82,6.2-24.91,7.49"/><path class="cls-232" d="M1412.66,648.47c-.52,0-.95-.37-.95-.82,0-14.04,0-28.09,0-42.13,0-28.09-.02-56.17,0-84.26,0-.45,.43-.82,.95-.82h0c.52,0,.95,.37,.95,.82-.02,28.09-.02,56.17,0,84.26,0,14.04,0,28.09,0,42.13,0,.45-.42,.82-.95,.82Z"/><path class="cls-232" d="M1331.68,650.02c-.52,0-.95-.37-.95-.82,0-14.18,0-28.36,0-42.54,0-28.36-.02-56.72,0-85.08,0-.45,.43-.82,.95-.82h0c.52,0,.95,.37,.95,.82-.03,28.36-.02,56.71,0,85.07,0,14.18,0,28.36,0,42.54,0,.45-.42,.82-.95,.82Z"/></g></g><g id="Layer_150"><g><g class="cls-242"><path class="cls-46" d="M1338.57,765.47c3.05,.63,5.68,.86,8.84,.27,3.16-.6,6.82-.88,10.1-.72,3.24,.96,5.74,2.14,9.38,1.84,3.64-.3,9.08-1.96,12.74-1.99,3.66-.03,7.34-.59,10.45-.46,3.11,.13,5.63,1.41,8.14,1.5,2.51,.1,3.41-.94,5.39-1.8-4.21,16.42-7.89,32.8-10.98,49.51-3.47,1.46-7.24,4.21-10.62,5.42-3.38,1.21-5.98,1.57-9.41,2.27-3.43,.7-7.36,.49-10.97,1.06-2.69-1.66-7.41-3.87-9.63-5.31-2.22-1.44-1.9-2.1-3.64-3.39-2.96-15.6-6.61-31.14-9.77-46.73"/></g><path class="cls-232" d="M1392.72,843.6c-14.1,1.73-27.79,1.92-41.94,.66-.79-10.45-2.72-20.75-3.54-31.2,22.43,8.96,24.99,8.13,47.01-1.12-.53,10.53-1.64,21.13-1.52,31.66Z"/><path class="cls-232" d="M1349.25,820.32c-.48,0-.9-.34-.99-.83-2.65-15.64-6.25-31.43-9.73-46.69-1.15-5.06-2.31-10.11-3.43-15.16-.12-.54,.22-1.07,.76-1.19,.54-.12,1.07,.22,1.19,.76,1.12,5.05,2.27,10.1,3.42,15.15,3.49,15.29,7.1,31.1,9.75,46.8,.09,.54-.28,1.06-.82,1.15-.06,0-.11,.01-.17,.01Z"/><path class="cls-232" d="M1391.98,820.16c-.06,0-.11,0-.17-.01-.54-.09-.91-.61-.82-1.15,2.66-15.7,6.26-31.51,9.75-46.8,1.15-5.05,2.3-10.1,3.42-15.15,.12-.54,.64-.88,1.19-.76,.54,.12,.88,.65,.76,1.19-1.12,5.05-2.27,10.11-3.43,15.16-3.48,15.27-7.08,31.05-9.73,46.69-.08,.49-.51,.83-.99,.83Z"/><path class="cls-232" d="M1405.16,758.21c-.11,0-.22-.02-.33-.05-18.77-6.49-40.56-6.5-68.57-.02-.54,.13-1.07-.21-1.2-.75-.12-.54,.21-1.08,.75-1.2,28.39-6.57,50.52-6.54,69.67,.08,.52,.18,.8,.75,.62,1.27-.14,.41-.53,.67-.95,.67Z"/><path class="cls-232" d="M1373.73,763.09c-13.42,0-26.16-2.29-37.68-4.9-.54-.12-.88-.66-.75-1.2,.12-.54,.65-.88,1.2-.75,20.01,4.54,43.76,8.1,68.19,.11,.53-.17,1.09,.12,1.26,.64,.17,.52-.11,1.09-.64,1.26-10.76,3.52-21.36,4.85-31.58,4.85Z"/></g></g><g id="Layer_151"><g><path class="cls-223" d="M1699.59,430.73c-11.56,.96-29.41,1.12-41.01,.47-14.28-.79-22.78-8.8-22.84-24.69-.06-16.71,.22-39.58,.73-56.21,.49-15.8,8.79-23.54,22.86-24.78,11.43-1.01,29.05-1.49,40.56-.84,14.16,.81,22.43,9.12,23,24.87,.6,16.57,.64,39.63-.04,56.26-.65,15.81-9.03,23.72-23.26,24.91Z"/><path class="cls-227" d="M1722.46,414.34c-28.64,0-57.31-.48-85.94,.53-.14-36.77,.3-73.58,.29-110.36,28.55,0,57.1,0,85.65,0,0,36.61,0,73.22,0,109.83Z"/><path class="cls-227" d="M1637.57,407.77c-.7-20.43-.9-44.62-.48-65.08,.16-8.07,3.71-11.84,11.39-12.3,19.44-1.17,42.84-1.23,62.28-.04,7.68,.47,11.27,4.4,11.32,12.31,.13,20.04-.31,43.35-.49,63.38-.07,7.9-3.49,12.03-11.09,12.56-19.24,1.36-42.16,1.75-61.44,1.21-7.61-.21-11.22-3.99-11.5-12.05Z"/><path class="cls-238" d="M1674.86,422.15c-13.54,0-26.5-2.58-37.81-7.76-.93-.43-1.34-1.53-.92-2.47s1.51-1.35,2.44-.93c22.89,10.49,52.89,9.84,80.48-1.69-.37-23.58-.44-47.52-.5-70.69-.03-9.97-.06-19.94-.11-29.91,0-1.03,.82-1.87,1.83-1.87h0c1.01,0,1.84,.83,1.84,1.85,.05,9.97,.08,19.94,.11,29.92,.07,23.57,.14,47.94,.52,71.9,.01,.76-.43,1.45-1.12,1.74-15.32,6.59-31.43,9.9-46.78,9.91Z"/><path class="cls-232" d="M1722.46,304.55c-.09-5.04-35.86-5.03-42.88-5.09-7.02-.07-42.3,.76-41.96,5.76,.34,5,34.9,4.35,41.8,4.42,6.9,.07,43.13-.05,43.04-5.09Z"/><path class="cls-230" d="M1680.76,310.66h-.72c-40.47-.04-42.89-3.16-43.69-4.19-.19-.25-.33-.53-.41-.81-.23-.62-.27-1.47,.18-2.35,.81-1.57,3.29-6.33,43.5-6.69,26.67-.24,41.55,1.82,44.19,6.13,.53,.87,.57,1.73,.4,2.37-.07,.37-.24,.74-.51,1.06-2.41,2.98-16.87,4.49-42.95,4.49Zm-40.59-6.19c2.63,.82,11.42,2.43,39.88,2.46h.7c28.53,0,36.93-1.87,39.31-2.76-1.98-1.22-9.9-4.12-40.39-3.84-29.16,.26-37.3,2.93-39.5,4.13Zm-.65,1.08s0,0,0,0c0,0,0,0,0,0Zm0,0s0,0,0,0c0,0,0,0,0,0Zm.03-.18c0,.06-.02,.12-.03,.18,.02-.06,.03-.12,.03-.18Zm81.05-.29s0,0,0,0c0,0,0,0,0,0Zm0,0s0,0,0,0c0,0,0,0,0,0Zm0,0s0,0,0,0c0,0,0,0,0,0Zm0,0s0,0,0,0c0,0,0,0,0,0Zm0,0s0,0,0,0c0,0,0,0,0,0Zm0,0s0,0,0,0c0,0,0,0,0,0Zm0,0s0,0,0,0c0,0,0,0,0,0Zm0,0s0,0,0,0c0,0,0,0,0,0Zm0,0s0,0,0,0c0,0,0,0,0,0Zm0,0h0s0,0,0,0Zm0,0h0Z"/><g><path class="cls-230" d="M1636.01,416.25h-.03c-1.02-.02-1.83-.86-1.82-1.89,.56-36.18,1.14-72.35,1.71-108.53,.02-1.02,.84-1.83,1.84-1.83h.03c1.02,.02,1.83,.86,1.81,1.89-.58,36.18-1.15,72.35-1.71,108.53-.02,1.02-.84,1.83-1.84,1.83Z"/><path class="cls-230" d="M1723.18,415.07c-1.01,0-1.84-.82-1.84-1.85-.28-39.04-.54-74.24-.87-109.56,0-1.03,.81-1.87,1.83-1.88,1.04-.01,1.85,.82,1.86,1.84,.33,35.33,.59,70.52,.87,109.57,0,1.03-.81,1.87-1.83,1.88h-.01Z"/></g><path class="cls-230" d="M1677.92,424.59c-14.15,0-28.32-2.59-42.17-7.77-.96-.36-1.44-1.43-1.09-2.39,.35-.97,1.42-1.45,2.37-1.1,28.16,10.54,57.73,10.01,85.5-1.53,.94-.39,2.02,.06,2.41,1.01,.39,.95-.06,2.04-1,2.43-14.99,6.23-30.49,9.35-46.02,9.35Z"/><path class="cls-230" d="M1645.08,429.67c-.38,0-.77-.12-1.1-.37-4.66-3.5-7.42-7.52-9.52-13.87-.32-.98,.2-2.03,1.17-2.36,.96-.32,2.01,.2,2.33,1.18,1.86,5.63,4.17,9.02,8.22,12.06,.82,.61,.99,1.78,.38,2.61-.36,.49-.92,.75-1.48,.75Z"/><path class="cls-230" d="M1714.5,427.84c-.62,0-1.22-.31-1.57-.88-.54-.87-.27-2.02,.6-2.56,4.48-2.8,5.89-5.12,7.86-10.67,.34-.97,1.4-1.47,2.36-1.13,.96,.35,1.46,1.41,1.11,2.38-2.12,5.97-3.97,9.2-9.4,12.58-.3,.19-.64,.28-.97,.28Z"/><ellipse class="cls-226" cx="1679.12" cy="359.42" rx="39.66" ry="23.27"/><path class="cls-230" d="M1678.15,433c-17.83,0-31.88-2.85-32.82-3.05-1-.21-1.64-1.19-1.43-2.2,.21-1.01,1.18-1.66,2.18-1.45,.37,.08,37.08,7.52,66.96-1.67,.97-.3,2,.25,2.3,1.24s-.25,2.02-1.23,2.32c-11.93,3.67-24.7,4.81-35.97,4.81Z"/><path class="cls-33" d="M1656.93,360.39h-1.24v9.05h-2.18v-19.55h2.18v9.1l1.18-.39,6.18-8.71h2.52l-6.15,8.41-1.1,.92,1.34,1.12,6.73,9.1h-2.76l-6.7-9.05Z"/><path class="cls-33" d="M1667.34,362.45c0-2.36,.49-4.17,1.48-5.43s2.41-1.89,4.27-1.89c.98,0,1.84,.17,2.56,.52,.73,.34,1.33,.84,1.8,1.48,.47,.64,.82,1.41,1.05,2.32,.23,.9,.34,1.9,.34,3,0,2.36-.5,4.17-1.48,5.43-.99,1.26-2.41,1.89-4.27,1.89-.98,0-1.84-.17-2.56-.52-.73-.34-1.33-.84-1.8-1.48-.47-.64-.82-1.41-1.05-2.32-.23-.9-.34-1.9-.34-3Zm2.18,0c0,.71,.07,1.39,.2,2.04s.34,1.22,.62,1.7c.28,.48,.65,.88,1.1,1.17s1.01,.45,1.66,.45c2.38,.02,3.57-1.77,3.57-5.36,0-.73-.07-1.41-.2-2.07s-.34-1.22-.62-1.7c-.28-.48-.65-.87-1.1-1.16-.46-.29-1.01-.43-1.66-.43-2.38-.02-3.57,1.77-3.57,5.36Z"/><path class="cls-33" d="M1684.5,366c0,.65,.11,1.12,.32,1.4,.21,.28,.51,.42,.89,.42,.23,0,.47-.02,.74-.06s.56-.12,.89-.25l.24,1.76c-.28,.15-.67,.27-1.17,.36-.5,.09-.93,.14-1.3,.14-.79,0-1.44-.24-1.95-.71-.51-.47-.76-1.28-.76-2.42v-16.75h2.1v16.11Z"/><path class="cls-33" d="M1692.17,366c0,.65,.11,1.12,.32,1.4,.21,.28,.51,.42,.89,.42,.23,0,.47-.02,.74-.06s.56-.12,.89-.25l.24,1.76c-.28,.15-.67,.27-1.17,.36-.5,.09-.93,.14-1.3,.14-.79,0-1.44-.24-1.95-.71-.51-.47-.76-1.28-.76-2.42v-16.75h2.1v16.11Z"/><path class="cls-33" d="M1697.3,356.51c.67-.43,1.44-.74,2.33-.95,.88-.2,1.81-.31,2.77-.31,.91,0,1.64,.13,2.19,.39,.55,.26,.97,.6,1.26,1.02,.29,.42,.48,.88,.58,1.38s.14,1.01,.14,1.51c0,1.12-.03,2.21-.08,3.27-.05,1.06-.08,2.07-.08,3.02,0,.69,.03,1.34,.08,1.96,.05,.61,.15,1.18,.29,1.7h-1.55l-.55-1.95h-.13c-.16,.26-.35,.52-.59,.77-.24,.25-.52,.47-.85,.67-.33,.2-.72,.36-1.16,.49-.44,.13-.94,.2-1.5,.2s-1.08-.09-1.56-.28c-.48-.19-.9-.45-1.25-.8-.35-.34-.63-.76-.83-1.24-.2-.48-.3-1.03-.3-1.65,0-.82,.16-1.5,.47-2.05s.76-.99,1.33-1.31c.57-.33,1.25-.56,2.05-.7,.8-.14,1.68-.21,2.64-.21h.72c.24,0,.48,.02,.72,.06,.05-.56,.08-1.06,.08-1.51,0-1.02-.19-1.74-.58-2.15-.39-.41-1.09-.61-2.1-.61-.3,0-.62,.02-.96,.07-.34,.05-.69,.11-1.05,.2s-.7,.19-1.02,.32c-.32,.12-.61,.26-.85,.42l-.66-1.7Zm3.73,11.2c.49,0,.93-.07,1.31-.21s.72-.32,1-.53c.28-.21,.51-.45,.7-.71,.18-.26,.32-.51,.41-.75v-2.32c-.25-.02-.5-.03-.75-.04s-.5-.01-.75-.01c-.54,0-1.07,.03-1.59,.1-.52,.07-.97,.19-1.37,.36-.39,.18-.71,.42-.95,.73s-.35,.69-.35,1.16c0,.65,.22,1.19,.66,1.61,.44,.42,1,.63,1.68,.63Z"/></g></g><g id="Layer_152"><g><g class="cls-243"><rect class="cls-231" x="1642.46" y="519.86" width="72.99" height="141.22" rx="14" ry="14"/></g><g class="cls-243"><rect class="cls-231" x="1659.13" y="504.55" width="39.76" height="15.31"/></g><g class="cls-242"><rect class="cls-228" x="1642.56" y="519.86" width="72.89" height="140.95" rx="14" ry="14"/></g><g class="cls-242"><rect class="cls-228" x="1659.13" y="489.23" width="39.76" height="30.63"/></g><path class="cls-233" d="M1704.26,661.43c-.15,0-.3,0-.44-.01h-49.67c-10.36-.75-12.52-8.89-12.22-13.09v-119.49c0-.05,0-.11,.02-.16,1.34-4.72,4.05-7.03,6.08-8.14,2.22-1.21,4.13-1.28,4.21-1.28h6.18v-25.99c-.02-3.48,1.03-6.29,3.13-8.34,3.58-3.5,8.87-3.54,9.09-3.54h16.72c10.44,1.34,12.55,8.4,12.21,11.94v25.94s5.66,.08,5.66,.08c.03,0,.06,0,.09,0,8.72,1.41,10.83,8.34,10.73,11.81l-.02,119.07s0,.06,0,.09c-1.34,8.84-8.05,11.11-11.78,11.11Zm-.41-1.22c.42,.03,9.36,.32,10.95-10.02l.02-119.04c0-.38,.12-8.99-9.65-10.6l-6.23-.08c-.34,0-.61-.27-.61-.6v-26.6c.04-.43,.68-9.17-11.06-10.68h-16.64s-5.01,.05-8.21,3.2c-1.85,1.82-2.78,4.34-2.76,7.48v26.6c0,.33-.28,.6-.62,.6h-6.78c-.25,0-6.74,.34-9.09,8.46v119.45c-.03,.49-.63,11,11.02,11.84h49.65Z"/><g><rect class="cls-235" x="1654.99" y="481.17" width="47.21" height="22.57" rx="10.31" ry="10.31"/><rect class="cls-235" x="1654.99" y="490.85" width="47.21" height="14.51" rx="3.01" ry="3.01"/></g><g><rect class="cls-234" x="1654.99" y="501.32" width="47.21" height="1.61"/><path class="cls-234" d="M1700.13,501.32h-43.07c-1.14,0-2.07,.9-2.07,2.01h0c0,.26,.05,.52,.15,.75,.3,.74,1.05,1.27,1.92,1.27h43.07c1.14,0,2.07-.9,2.07-2.01h0c0-1.11-.93-2.01-2.07-2.01Z"/></g><path class="cls-235" d="M1655.82,504.95c-.23,0-.41-.18-.41-.4v-4.03c0-.22,.19-.4,.41-.4s.41,.18,.41,.4v4.03c0,.22-.19,.4-.41,.4Z"/><path class="cls-235" d="M1657.06,505.35c-.23,0-.41-.18-.41-.4v-4.03c0-.22,.19-.4,.41-.4s.41,.18,.41,.4v4.03c0,.22-.19,.4-.41,.4Z"/><path class="cls-235" d="M1658.35,505.35c-.23,0-.41-.18-.41-.4v-4.03c0-.22,.19-.4,.41-.4s.41,.18,.41,.4v4.03c0,.22-.19,.4-.41,.4Z"/><path class="cls-235" d="M1659.54,505.35c-.23,0-.41-.18-.41-.4v-4.03c0-.22,.19-.4,.41-.4s.41,.18,.41,.4v4.03c0,.22-.19,.4-.41,.4Z"/><path class="cls-235" d="M1660.69,505.35c-.23,0-.41-.18-.41-.4v-4.03c0-.22,.19-.4,.41-.4s.41,.18,.41,.4v4.03c0,.22-.19,.4-.41,.4Z"/><path class="cls-235" d="M1661.96,505.35c-.23,0-.41-.18-.41-.4v-4.03c0-.22,.19-.4,.41-.4s.41,.18,.41,.4v4.03c0,.22-.19,.4-.41,.4Z"/><path class="cls-235" d="M1663.24,505.35c-.23,0-.41-.18-.41-.4v-4.03c0-.22,.19-.4,.41-.4s.41,.18,.41,.4v4.03c0,.22-.19,.4-.41,.4Z"/><path class="cls-235" d="M1664.44,505.35c-.23,0-.41-.18-.41-.4v-4.03c0-.22,.19-.4,.41-.4s.41,.18,.41,.4v4.03c0,.22-.19,.4-.41,.4Z"/><path class="cls-235" d="M1665.59,505.35c-.23,0-.41-.18-.41-.4v-4.03c0-.22,.19-.4,.41-.4s.41,.18,.41,.4v4.03c0,.22-.19,.4-.41,.4Z"/><path class="cls-235" d="M1666.86,505.35c-.23,0-.41-.18-.41-.4v-4.03c0-.22,.19-.4,.41-.4s.41,.18,.41,.4v4.03c0,.22-.19,.4-.41,.4Z"/><path class="cls-235" d="M1668.17,505.35c-.23,0-.41-.18-.41-.4v-4.03c0-.22,.19-.4,.41-.4s.41,.18,.41,.4v4.03c0,.22-.19,.4-.41,.4Z"/><path class="cls-235" d="M1669.37,505.35c-.23,0-.41-.18-.41-.4v-4.03c0-.22,.19-.4,.41-.4s.41,.18,.41,.4v4.03c0,.22-.19,.4-.41,.4Z"/><path class="cls-235" d="M1670.52,505.35c-.23,0-.41-.18-.41-.4v-4.03c0-.22,.19-.4,.41-.4s.41,.18,.41,.4v4.03c0,.22-.19,.4-.41,.4Z"/><path class="cls-235" d="M1671.79,505.35c-.23,0-.41-.18-.41-.4v-4.03c0-.22,.19-.4,.41-.4s.41,.18,.41,.4v4.03c0,.22-.19,.4-.41,.4Z"/><path class="cls-235" d="M1673.09,505.35c-.23,0-.41-.18-.41-.4v-4.03c0-.22,.19-.4,.41-.4s.41,.18,.41,.4v4.03c0,.22-.19,.4-.41,.4Z"/><path class="cls-235" d="M1674.29,505.35c-.23,0-.41-.18-.41-.4v-4.03c0-.22,.19-.4,.41-.4s.41,.18,.41,.4v4.03c0,.22-.19,.4-.41,.4Z"/><path class="cls-235" d="M1675.44,505.35c-.23,0-.41-.18-.41-.4v-4.03c0-.22,.19-.4,.41-.4s.41,.18,.41,.4v4.03c0,.22-.19,.4-.41,.4Z"/><path class="cls-235" d="M1676.71,505.35c-.23,0-.41-.18-.41-.4v-4.03c0-.22,.19-.4,.41-.4s.41,.18,.41,.4v4.03c0,.22-.19,.4-.41,.4Z"/><path class="cls-235" d="M1678.02,505.35c-.23,0-.41-.18-.41-.4v-4.03c0-.22,.19-.4,.41-.4s.41,.18,.41,.4v4.03c0,.22-.19,.4-.41,.4Z"/><path class="cls-235" d="M1679.22,505.35c-.23,0-.41-.18-.41-.4v-4.03c0-.22,.19-.4,.41-.4s.41,.18,.41,.4v4.03c0,.22-.19,.4-.41,.4Z"/><path class="cls-235" d="M1680.37,505.35c-.23,0-.41-.18-.41-.4v-4.03c0-.22,.19-.4,.41-.4s.41,.18,.41,.4v4.03c0,.22-.19,.4-.41,.4Z"/><path class="cls-235" d="M1681.64,505.35c-.23,0-.41-.18-.41-.4v-4.03c0-.22,.19-.4,.41-.4s.41,.18,.41,.4v4.03c0,.22-.19,.4-.41,.4Z"/><path class="cls-235" d="M1682.96,505.35c-.23,0-.41-.18-.41-.4v-4.03c0-.22,.19-.4,.41-.4s.41,.18,.41,.4v4.03c0,.22-.19,.4-.41,.4Z"/><path class="cls-235" d="M1684.16,505.35c-.23,0-.41-.18-.41-.4v-4.03c0-.22,.19-.4,.41-.4s.41,.18,.41,.4v4.03c0,.22-.19,.4-.41,.4Z"/><path class="cls-235" d="M1685.31,505.35c-.23,0-.41-.18-.41-.4v-4.03c0-.22,.19-.4,.41-.4s.41,.18,.41,.4v4.03c0,.22-.19,.4-.41,.4Z"/><path class="cls-235" d="M1686.58,505.35c-.23,0-.41-.18-.41-.4v-4.03c0-.22,.19-.4,.41-.4s.41,.18,.41,.4v4.03c0,.22-.19,.4-.41,.4Z"/><path class="cls-235" d="M1687.88,505.35c-.23,0-.41-.18-.41-.4v-4.03c0-.22,.19-.4,.41-.4s.41,.18,.41,.4v4.03c0,.22-.19,.4-.41,.4Z"/><path class="cls-235" d="M1689.08,505.35c-.23,0-.41-.18-.41-.4v-4.03c0-.22,.19-.4,.41-.4s.41,.18,.41,.4v4.03c0,.22-.19,.4-.41,.4Z"/><path class="cls-235" d="M1690.23,505.35c-.23,0-.41-.18-.41-.4v-4.03c0-.22,.19-.4,.41-.4s.41,.18,.41,.4v4.03c0,.22-.19,.4-.41,.4Z"/><path class="cls-235" d="M1691.5,505.35c-.23,0-.41-.18-.41-.4v-4.03c0-.22,.19-.4,.41-.4s.41,.18,.41,.4v4.03c0,.22-.19,.4-.41,.4Z"/><path class="cls-235" d="M1692.83,505.35c-.23,0-.41-.18-.41-.4v-4.03c0-.22,.19-.4,.41-.4s.41,.18,.41,.4v4.03c0,.22-.19,.4-.41,.4Z"/><path class="cls-235" d="M1694.02,505.35c-.23,0-.41-.18-.41-.4v-4.03c0-.22,.19-.4,.41-.4s.41,.18,.41,.4v4.03c0,.22-.19,.4-.41,.4Z"/><path class="cls-235" d="M1695.17,505.35c-.23,0-.41-.18-.41-.4v-4.03c0-.22,.19-.4,.41-.4s.41,.18,.41,.4v4.03c0,.22-.19,.4-.41,.4Z"/><path class="cls-235" d="M1696.44,505.35c-.23,0-.41-.18-.41-.4v-4.03c0-.22,.19-.4,.41-.4s.41,.18,.41,.4v4.03c0,.22-.19,.4-.41,.4Z"/><path class="cls-235" d="M1696.34,505.35c-.23,0-.41-.18-.41-.4v-4.03c0-.22,.19-.4,.41-.4s.41,.18,.41,.4v4.03c0,.22-.19,.4-.41,.4Z"/><path class="cls-235" d="M1697.53,505.35c-.23,0-.41-.18-.41-.4v-4.03c0-.22,.19-.4,.41-.4s.41,.18,.41,.4v4.03c0,.22-.19,.4-.41,.4Z"/><path class="cls-235" d="M1698.68,505.35c-.23,0-.41-.18-.41-.4v-4.03c0-.22,.19-.4,.41-.4s.41,.18,.41,.4v4.03c0,.22-.19,.4-.41,.4Z"/><path class="cls-235" d="M1699.95,505.35c-.23,0-.41-.18-.41-.4v-4.03c0-.22,.19-.4,.41-.4s.41,.18,.41,.4v4.03c0,.22-.19,.4-.41,.4Z"/><path class="cls-235" d="M1701.16,505c-.23,0-.41-.18-.41-.4v-4.03c0-.22,.19-.4,.41-.4s.41,.18,.41,.4v4.03c0,.22-.19,.4-.41,.4Z"/><rect class="cls-234" x="1654.99" y="500.52" width="47.21" height=".81"/><ellipse class="cls-234" cx="1678.59" cy="578.29" rx="29.4" ry="28.61"/><g><path class="cls-33" d="M1666.8,582.79l-1.42,1.35c-.22-1.67-.6-3.56-1.14-5.67-.47-1.8-.83-2.97-1.09-3.5s-.59-.8-1-.8c-.71,0-1.22,.52-1.53,1.57-.2-.04-.29-.15-.28-.31,.02-.33,.22-.79,.61-1.4,.47-.73,1.08-1.1,1.81-1.1,.6,0,1.07,.27,1.41,.8s.72,1.63,1.16,3.29c.48,1.86,.87,3.53,1.15,4.99,2.36-3.22,3.54-5.46,3.54-6.72,0-.49-.2-.85-.61-1.08l1.19-1.28c.54,.29,.81,.75,.81,1.36,0,.78-.65,2.17-1.95,4.18l-.91,1.37-.66,1.02c-.04,.06-.17,.28-.4,.66l-.37,.64c-.05,.09-.16,.3-.32,.64Z"/><path class="cls-33" d="M1676.33,580.7c-.61,.98-1.28,1.77-2.01,2.4s-1.36,.93-1.9,.93c-.74,0-1.11-.58-1.11-1.74,0-1.6,.54-2.98,1.61-4.14s2.35-1.75,3.82-1.75c.56,0,1.04,.07,1.43,.2-.03,.09-.04,.15-.05,.17l-.1,.42c-.06,.29-.1,.46-.11,.5l-.52,3.47-.07,.5c-.07,.5-.11,.83-.11,1,0,.23,.07,.34,.2,.34,.45,0,.91-.49,1.38-1.47,.14,.08,.22,.17,.22,.25,0,.18-.23,.55-.7,1.11-.63,.76-1.22,1.13-1.76,1.13-.39,0-.59-.26-.59-.77,0-.16,.02-.38,.06-.65l.08-.63,.11-.69,.09-.58Zm.46-3.12c-.49-.27-.99-.4-1.49-.4-.76,0-1.39,.45-1.9,1.34-.51,.9-.77,2.01-.77,3.33,0,.68,.21,1.02,.62,1.02,.48,0,1.06-.36,1.74-1.07,.92-.96,1.47-2.09,1.67-3.38l.13-.85Z"/><path class="cls-33" d="M1682,583.55l-1.21,.48,.02-.22,.07-.58,.06-.55,.42-3.65,.05-.42c.03-.33,.05-.59,.05-.79,0-.34-.09-.5-.26-.5-.41,0-.84,.45-1.3,1.34-.12-.1-.19-.19-.19-.26,0-.31,.3-.74,.89-1.29s1.06-.81,1.4-.81c.46,0,.7,.29,.7,.87,0,.15-.01,.34-.04,.59l-.06,.64-.07,.54-.07,.56c.64-.92,1.33-1.69,2.09-2.29s1.4-.9,1.94-.9,.78,.35,.78,1.06c0,.22-.03,.54-.09,.97l-.44,2.93c-.09,.59-.13,1.05-.13,1.39,0,.27,.08,.41,.23,.41,.37,0,.83-.48,1.38-1.44,.13,.08,.19,.16,.19,.24,0,.34-.3,.79-.9,1.34-.6,.55-1.09,.83-1.47,.83-.42,0-.63-.29-.63-.88,0-.43,.06-1.03,.17-1.79l.29-1.9c.09-.62,.14-1.11,.14-1.47,0-.41-.15-.62-.44-.62-.69,0-1.39,.45-2.1,1.37-.71,.91-1.12,1.89-1.24,2.93l-.21,1.89Z"/><path class="cls-33" d="M1694.57,576.41l.08-.68c.19-1.68,.78-3.08,1.77-4.19s2.12-1.67,3.41-1.67c.31,0,.57,.03,.79,.08l-1.15,1.14c-.25-.08-.55-.13-.9-.13-.81,0-1.41,.28-1.81,.83-.4,.55-.67,1.49-.83,2.82l-.75,6.56-.06,.5c-.05,.45-.07,.76-.07,.95,0,.26,.07,.39,.21,.39,.45,0,.9-.49,1.35-1.47,.15,.08,.22,.17,.22,.25,0,.19-.22,.56-.66,1.11-.61,.76-1.18,1.13-1.72,1.13-.41,0-.62-.28-.62-.83,0-.2,.03-.61,.1-1.22l.08-.69,.06-.58c-.37,.79-.96,1.54-1.78,2.25s-1.5,1.07-2.03,1.07c-.76,0-1.14-.58-1.14-1.74,0-1.52,.52-2.88,1.58-4.08s2.24-1.81,3.56-1.81c.06,0,.17,0,.32,.02Zm-.13,1.13c-.45-.24-.87-.36-1.25-.36-.8,0-1.46,.44-1.98,1.32-.52,.88-.78,2-.78,3.36,0,.68,.2,1.02,.61,1.02,.5,0,1.08-.36,1.75-1.07,.87-.92,1.38-2.04,1.54-3.38l.1-.89Z"/></g></g></g><g id="Layer_153"><g><path class="cls-82" d="M1484.99,352.08h-11.16l-1.12,7.51c.68-.09,1.31-.18,2.39-.18,2.25,0,4.5,.5,6.3,1.58,2.29,1.3,4.18,3.82,4.18,7.51,0,5.71-4.54,9.99-10.89,9.99-3.2,0-5.89-.9-7.29-1.8l.99-3.01c1.21,.72,3.6,1.62,6.25,1.62,3.73,0,6.93-2.43,6.93-6.34-.04-3.78-2.57-6.48-8.42-6.48-1.67,0-2.97,.18-4.05,.31l1.89-14.04h13.99v3.33Z"/><path class="cls-82" d="M1501.41,363.33c0-2.79-.09-5.04-.18-7.11h3.56l.18,3.73h.09c1.62-2.65,4.18-4.23,7.74-4.23,5.27,0,9.22,4.45,9.22,11.07,0,7.83-4.77,11.7-9.9,11.7-2.88,0-5.4-1.26-6.7-3.42h-.09v11.83h-3.92v-23.58Zm3.92,5.8c0,.58,.09,1.12,.18,1.62,.72,2.74,3.1,4.63,5.94,4.63,4.18,0,6.62-3.42,6.62-8.41,0-4.36-2.29-8.1-6.48-8.1-2.7,0-5.22,1.93-5.98,4.9-.13,.49-.27,1.08-.27,1.62v3.73Z"/><path class="cls-82" d="M1546.72,366.93c0,8.05-5.58,11.56-10.84,11.56-5.89,0-10.44-4.32-10.44-11.2,0-7.29,4.77-11.56,10.8-11.56s10.48,4.54,10.48,11.2Zm-17.28,.22c0,4.77,2.75,8.37,6.61,8.37s6.62-3.55,6.62-8.46c0-3.69-1.84-8.37-6.52-8.37s-6.71,4.32-6.71,8.46Z"/><path class="cls-82" d="M1556.13,350.1c.04,1.35-.94,2.43-2.52,2.43-1.39,0-2.38-1.08-2.38-2.43s1.04-2.47,2.47-2.47,2.43,1.08,2.43,2.47Zm-4.41,27.9v-21.78h3.96v21.78h-3.96Z"/><path class="cls-82" d="M1562.25,362.12c0-2.25-.04-4.09-.18-5.9h3.51l.23,3.6h.09c1.08-2.07,3.6-4.09,7.2-4.09,3.01,0,7.69,1.8,7.69,9.27v13h-3.96v-12.55c0-3.51-1.3-6.43-5.04-6.43-2.61,0-4.63,1.84-5.31,4.05-.18,.5-.27,1.17-.27,1.85v13.09h-3.96v-15.88Z"/><path class="cls-82" d="M1591.81,349.97v6.25h5.67v3.02h-5.67v11.74c0,2.7,.76,4.23,2.97,4.23,1.04,0,1.8-.13,2.29-.27l.18,2.97c-.76,.31-1.98,.54-3.51,.54-1.84,0-3.33-.58-4.27-1.67-1.12-1.17-1.53-3.1-1.53-5.67v-11.88h-3.38v-3.02h3.38v-5.22l3.87-1.03Z"/></g><g><path class="cls-82" d="M1466.71,587.65h-.09l-5.09,2.75-.76-3.01,6.39-3.42h3.38v29.25h-3.82v-25.56Z"/><path class="cls-82" d="M1500.63,598.27c0,9.95-3.69,15.44-10.17,15.44-5.71,0-9.59-5.36-9.68-15.03,0-9.81,4.23-15.21,10.17-15.21s9.67,5.49,9.67,14.8Zm-15.88,.45c0,7.6,2.34,11.92,5.94,11.92,4.05,0,5.98-4.72,5.98-12.19s-1.85-11.92-5.94-11.92c-3.46,0-5.98,4.23-5.98,12.2Z"/><path class="cls-82" d="M1515.08,598.54c0-2.79-.09-5.04-.18-7.11h3.55l.18,3.74h.09c1.62-2.66,4.19-4.23,7.74-4.23,5.27,0,9.22,4.46,9.22,11.07,0,7.83-4.77,11.7-9.9,11.7-2.88,0-5.4-1.26-6.7-3.42h-.09v11.83h-3.91v-23.58Zm3.91,5.8c0,.58,.09,1.12,.18,1.62,.72,2.74,3.1,4.63,5.94,4.63,4.18,0,6.62-3.42,6.62-8.41,0-4.37-2.29-8.1-6.48-8.1-2.7,0-5.22,1.93-5.98,4.9-.13,.49-.27,1.08-.27,1.62v3.74Z"/><path class="cls-82" d="M1560.39,602.14c0,8.05-5.58,11.56-10.85,11.56-5.89,0-10.44-4.32-10.44-11.21,0-7.29,4.77-11.56,10.8-11.56s10.48,4.54,10.48,11.21Zm-17.28,.22c0,4.77,2.74,8.37,6.61,8.37s6.62-3.55,6.62-8.46c0-3.69-1.84-8.37-6.52-8.37s-6.71,4.32-6.71,8.46Z"/><path class="cls-82" d="M1569.8,585.31c.04,1.35-.94,2.43-2.52,2.43-1.39,0-2.38-1.08-2.38-2.43s1.04-2.47,2.47-2.47,2.43,1.08,2.43,2.47Zm-4.41,27.9v-21.78h3.96v21.78h-3.96Z"/><path class="cls-82" d="M1575.92,597.32c0-2.25-.04-4.09-.18-5.9h3.51l.23,3.6h.09c1.08-2.07,3.6-4.09,7.2-4.09,3.02,0,7.7,1.8,7.7,9.27v13h-3.96v-12.55c0-3.51-1.3-6.43-5.04-6.43-2.61,0-4.63,1.84-5.31,4.05-.18,.5-.27,1.17-.27,1.85v13.09h-3.96v-15.88Z"/><path class="cls-82" d="M1605.48,585.17v6.25h5.67v3.02h-5.67v11.74c0,2.7,.76,4.23,2.97,4.23,1.04,0,1.8-.13,2.29-.27l.18,2.97c-.76,.32-1.98,.54-3.51,.54-1.84,0-3.33-.59-4.27-1.67-1.12-1.17-1.53-3.1-1.53-5.67v-11.88h-3.38v-3.02h3.38v-5.22l3.87-1.04Z"/></g><g><path class="cls-82" d="M1463.7,780.65h-.09l-5.08,2.75-.77-3.01,6.39-3.42h3.38v29.25h-3.83v-25.56Z"/><path class="cls-82" d="M1495.65,780.29h-11.16l-1.12,7.51c.67-.09,1.3-.18,2.38-.18,2.25,0,4.5,.5,6.3,1.58,2.29,1.3,4.19,3.83,4.19,7.51,0,5.71-4.54,9.99-10.89,9.99-3.2,0-5.89-.9-7.29-1.8l.99-3.01c1.21,.72,3.6,1.62,6.25,1.62,3.73,0,6.93-2.43,6.93-6.34-.04-3.78-2.56-6.48-8.41-6.48-1.67,0-2.97,.18-4.05,.31l1.89-14.04h13.99v3.33Z"/><path class="cls-82" d="M1512.08,791.54c0-2.79-.09-5.04-.18-7.11h3.56l.18,3.74h.09c1.62-2.66,4.18-4.23,7.74-4.23,5.27,0,9.22,4.46,9.22,11.07,0,7.83-4.77,11.7-9.9,11.7-2.88,0-5.4-1.26-6.71-3.42h-.09v11.83h-3.91v-23.58Zm3.91,5.8c0,.58,.09,1.12,.18,1.62,.72,2.74,3.11,4.63,5.94,4.63,4.19,0,6.62-3.42,6.62-8.41,0-4.37-2.29-8.1-6.48-8.1-2.7,0-5.22,1.93-5.98,4.9-.13,.49-.27,1.08-.27,1.62v3.74Z"/><path class="cls-82" d="M1557.39,795.14c0,8.05-5.58,11.56-10.84,11.56-5.89,0-10.44-4.32-10.44-11.21,0-7.29,4.77-11.56,10.8-11.56s10.48,4.54,10.48,11.21Zm-17.28,.22c0,4.77,2.75,8.37,6.62,8.37s6.62-3.55,6.62-8.46c0-3.69-1.85-8.37-6.53-8.37s-6.71,4.32-6.71,8.46Z"/><path class="cls-82" d="M1566.8,778.31c.04,1.35-.95,2.43-2.52,2.43-1.39,0-2.38-1.08-2.38-2.43s1.04-2.47,2.47-2.47,2.43,1.08,2.43,2.47Zm-4.41,27.9v-21.78h3.96v21.78h-3.96Z"/><path class="cls-82" d="M1572.92,790.32c0-2.25-.04-4.09-.18-5.9h3.51l.22,3.6h.09c1.08-2.07,3.6-4.09,7.2-4.09,3.01,0,7.69,1.8,7.69,9.27v13h-3.96v-12.55c0-3.51-1.3-6.43-5.04-6.43-2.61,0-4.63,1.84-5.31,4.05-.18,.5-.27,1.17-.27,1.85v13.09h-3.96v-15.88Z"/><path class="cls-82" d="M1602.48,778.17v6.25h5.67v3.02h-5.67v11.74c0,2.7,.77,4.23,2.97,4.23,1.04,0,1.8-.13,2.29-.27l.18,2.97c-.77,.32-1.98,.54-3.51,.54-1.85,0-3.33-.59-4.28-1.67-1.12-1.17-1.53-3.1-1.53-5.67v-11.88h-3.38v-3.02h3.38v-5.22l3.87-1.04Z"/></g><path class="cls-82" d="M1747.64,363.37v2.92h-11.12v-2.92h11.12Z"/><path class="cls-82" d="M1745.76,593.57v2.92h-11.12v-2.92h11.12Z"/><g><path class="cls-82" d="M1772.99,352.08h-11.16l-1.12,7.51c.68-.09,1.31-.18,2.39-.18,2.25,0,4.5,.5,6.3,1.58,2.29,1.3,4.18,3.82,4.18,7.51,0,5.71-4.54,9.99-10.89,9.99-3.2,0-5.89-.9-7.29-1.8l.99-3.01c1.21,.72,3.6,1.62,6.25,1.62,3.73,0,6.93-2.43,6.93-6.34-.04-3.78-2.57-6.48-8.42-6.48-1.67,0-2.97,.18-4.05,.31l1.89-14.04h13.99v3.33Z"/><path class="cls-82" d="M1789.41,363.33c0-2.79-.09-5.04-.18-7.11h3.56l.18,3.73h.09c1.62-2.65,4.18-4.23,7.74-4.23,5.27,0,9.22,4.45,9.22,11.07,0,7.83-4.77,11.7-9.9,11.7-2.88,0-5.4-1.26-6.7-3.42h-.09v11.83h-3.92v-23.58Zm3.92,5.8c0,.58,.09,1.12,.18,1.62,.72,2.74,3.1,4.63,5.94,4.63,4.18,0,6.62-3.42,6.62-8.41,0-4.36-2.29-8.1-6.48-8.1-2.7,0-5.22,1.93-5.98,4.9-.13,.49-.27,1.08-.27,1.62v3.73Z"/><path class="cls-82" d="M1834.72,366.93c0,8.05-5.58,11.56-10.84,11.56-5.89,0-10.44-4.32-10.44-11.2,0-7.29,4.77-11.56,10.8-11.56s10.48,4.54,10.48,11.2Zm-17.28,.22c0,4.77,2.75,8.37,6.61,8.37s6.62-3.55,6.62-8.46c0-3.69-1.84-8.37-6.52-8.37s-6.71,4.32-6.71,8.46Z"/><path class="cls-82" d="M1844.13,350.1c.04,1.35-.94,2.43-2.52,2.43-1.39,0-2.38-1.08-2.38-2.43s1.04-2.47,2.47-2.47,2.43,1.08,2.43,2.47Zm-4.41,27.9v-21.78h3.96v21.78h-3.96Z"/><path class="cls-82" d="M1850.25,362.12c0-2.25-.04-4.09-.18-5.9h3.51l.23,3.6h.09c1.08-2.07,3.6-4.09,7.2-4.09,3.01,0,7.69,1.8,7.69,9.27v13h-3.96v-12.55c0-3.51-1.3-6.43-5.04-6.43-2.61,0-4.63,1.84-5.31,4.05-.18,.5-.27,1.17-.27,1.85v13.09h-3.96v-15.88Z"/><path class="cls-82" d="M1879.81,349.97v6.25h5.67v3.02h-5.67v11.74c0,2.7,.76,4.23,2.97,4.23,1.04,0,1.8-.13,2.29-.27l.18,2.97c-.76,.31-1.98,.54-3.51,.54-1.84,0-3.33-.58-4.27-1.67-1.12-1.17-1.53-3.1-1.53-5.67v-11.88h-3.38v-3.02h3.38v-5.22l3.87-1.03Z"/></g><g><path class="cls-82" d="M1762.61,581.25h-.09l-5.08,2.75-.77-3.01,6.39-3.42h3.38v29.25h-3.83v-25.56Z"/><path class="cls-82" d="M1787.91,574.86h3.96v31.95h-3.96v-31.95Z"/><path class="cls-82" d="M1802.93,578.91c.04,1.35-.94,2.43-2.52,2.43-1.39,0-2.38-1.08-2.38-2.43s1.04-2.47,2.47-2.47,2.43,1.08,2.43,2.47Zm-4.41,27.9v-21.78h3.96v21.78h-3.96Z"/><path class="cls-82" d="M1810.58,585.03l4.28,12.24c.72,1.98,1.3,3.78,1.76,5.58h.13c.49-1.8,1.12-3.6,1.84-5.58l4.23-12.24h4.14l-8.55,21.78h-3.78l-8.28-21.78h4.23Z"/></g></g></svg>