<?xml version="1.0" encoding="UTF-8"?><svg id="Layer_39" xmlns="http://www.w3.org/2000/svg" viewBox="0 0 250 715"><defs><style>.cls-1{fill:#f2f2f2;}.cls-2{fill:#fac4ab;}.cls-3{fill:#f3d5b5;}.cls-4{fill:#e8ccae;}.cls-5{fill:#e8b318;}.cls-6{fill:#ef8080;}.cls-7{fill:#fff;}.cls-8{fill:#f5bb00;}.cls-9{fill:#f3978e;}.cls-10{fill:#e6bc91;}.cls-11{fill:#75315e;}.cls-12{fill:#7e3766;}.cls-13{fill:#8b9b35;}.cls-14{fill:#8a9a34;}.cls-15{fill:#8c6239;}.cls-16{fill:#b3b3b3;}.cls-17{fill:#98a824;}.cls-18{fill:#ab6894;}.cls-19{fill:#ccc;}.cls-20{fill:#d2de3f;}.cls-21{fill:#d2de8c;}.cls-22{fill:#231f20;}.cls-23{opacity:.35;}</style></defs><path class="cls-4" d="M69.09,417.31c-.27-.41-1.9-1.64-3.63-2.94-5.37-4.04-15.37-11.56-24.18-22.97-12.03-15.57-8.27-28.06-7.9-29.18l1.85-8.49,2.71-8.57,3.89-10.08,5.79-13.7,5.2-13.05,1.86,.74-5.2,13.07-5.78,13.69-3.86,9.99-2.67,8.42-1.87,8.57s-1.05,3.09-.63,7.96c.38,4.5,2.12,11.52,8.2,19.4,8.65,11.19,18.51,18.61,23.8,22.6,2.52,1.9,3.66,2.77,4.1,3.44l-1.67,1.09Z"/><g><path class="cls-8" d="M28.7,192.52C38.65,113.66,30.89,6.92,120.74,.49c89.85-6.43,112.47,50.29,119.37,155.04,6.89,104.75,21.77,144.64-96.05,142.09-117.82-2.55-125.3-26.24-115.35-105.1Z"/><rect class="cls-5" x="119.22" y="208.71" width="30" height="31"/><circle class="cls-5" cx="133.22" cy="141.71" r="77"/><g><rect class="cls-3" x="121.22" y="210.71" width="26" height="26"/><path class="cls-3" d="M103.43,247.87c-10.41-10.17,26.92-12.18,31.58-12.5,4.65-.32,40.56,3.39,34.7,9.88-5.86,6.49-21.74,18.18-36.34,17.05-14.6-1.12-19.52-4.26-29.93-14.43Z"/><path class="cls-4" d="M55.24,129.46c-.72-42.45,26.78-67.66,58.99-79.33,32.2-11.68,94.54,11.37,98.55,56.79,4.01,45.42-18.95,105.27-74.23,108.62-55.28,3.35-82.59-43.62-83.31-86.07Z"/><path class="cls-3" d="M56.23,129.6c-.71-41.86,26.32-66.71,57.96-78.23,31.64-11.51,92.9,11.21,96.85,55.99,3.94,44.78-18.62,103.8-72.94,107.1-54.32,3.31-81.16-43.01-81.87-84.87Z"/></g></g><g><path class="cls-8" d="M48.5,93.76c11.86-24.74,16.95-24.29,27.35-37.78,10.4-13.49,11.98-9.49,24.5-11.99,12.52-2.5,42.63-18.09,35.35,10.33-7.28,28.41-99.06,64.19-87.2,39.45Z"/><path class="cls-8" d="M133.32,44.4c.52-17.66,30.64-11.43,45.36-4.36,14.72,7.08,16.38,9.31,34.64,32.52,18.26,23.22-.44,29.43-26.73,21.33-26.29-8.1-53.79-31.83-53.27-49.49Z"/></g><path class="cls-3" d="M33.76,368.99c-1.71,32.21,55.07,49,42.77,65.45-12.3,16.45-68.53-35.17-74.39-59.79-5.86-24.63,37.44-130.18,52.91-103.34,15.47,26.84-19.58,65.47-21.29,97.68Z"/><path class="cls-14" d="M227.23,309.31c-1.89-.63-3.16-.35-5.13-.51,5.73-19.47,9.15-32.1,16.92-51.72,3.09,1.36,6.27,2.47,9.38,3.8-5.92,12.53-19.66,35.81-21.17,48.44Z"/><path class="cls-14" d="M55.63,310.81c.04-1.63,.51-2.92,1.09-4.42-8.55,.01-30.41-4.12-38.22-7.65-1.03,2.93-2.71,5.07-4.22,7.73,9.52,4.91,29.48,3.96,41.35,4.34Z"/><path class="cls-17" d="M55.6,309.45c-7.17-.95-19.38-.79-24.53-2.04-.94-1.63-2.08-3.12-3.05-4.73,10.71-5.63,18.56-1.77,28.76,2.77-.37,1.35-.69,2.7-1.18,4.01Z"/><path class="cls-13" d="M176.13,245.27c4.15,15.3-24.32,30.6-42.5,31.05-18.18,.46-46.65-19.19-38.42-32.64,8.23-13.45,15.2,13.83,40.08,14.04,24.87,.21,36.68-27.76,40.84-12.46Z"/><path class="cls-17" d="M171.61,240.27c-15.25,32.78-65.75,19.45-71.52,.2-57.2,11.87-28.7,148.34-29.51,194.78,35.34,1.61,70.42-.59,105.79,2.44-2.26-67.03,58.01-160.93-4.76-197.41Z"/><path class="cls-17" d="M100.33,239.3c-23.18,5.82-65.76-7.91-83.13,64.73,35.34-7.94,17.38-35.38-1.69,.97,24.51,6.52,57.48,.43,84.13,3.03,2.75-23.55,3.6-45.15,.69-68.73Z"/><path class="cls-17" d="M75.62,300.8c-7.83-2.13-11.37-9.46-17.13-11.58-2.35,8.7,3.89,51.44,10.53,57.15,4.15-5.03,2.41-12.7,7.55-17.12-6.75-9.66-2.71-18.02-.95-28.45Z"/><path class="cls-17" d="M171.27,306.05c13-.93,40.28,2.12,54.29,3.06,3.39-17.24,13.61-33.42,21.62-48.88-30.41-11.72-44.64-17.27-77.21-17-.5,20.99,.85,41.83,1.3,62.81Z"/><g><path class="cls-12" d="M125.4,455.59c-20.56-7.01-35.28,.6-56.06-9.87-57,166.16-24.34,105.22-29.57,268.99,24.69-2.42,48.98,.86,73.6-.72-3.36-139.78-19.85-126.65,12.03-258.4Z"/><path class="cls-12" d="M73.87,515.06c14.75,2.73,29.75,2.09,44.46,5.04-9.65,67.53-3.94,126.14-2.77,193.64-16.19,.26-32.33,.37-48.52,.02,.61-73.36-16.26-124.81,6.83-198.7Z"/><path class="cls-12" d="M126.06,455.89c25.08,4.28,26.09,1.98,48.13-10.82,47.95,138.22,36.64,138.52,46.3,269.04-24.25,2.78-47.96-2-72.15,.47-5.6-89.93-11.11-168.06-22.27-258.69Z"/><rect class="cls-12" x="103.22" y="455.71" width="47" height="109"/><path class="cls-12" d="M128.16,566.97c13.21-4.28,6.47-16.76-1.01-19.32-7.48-2.56-12.48,8.71-17.16,13.13-4.67,4.41-12.89,28.39-5.19,28.03s10.14-17.55,23.35-21.83Z"/><path class="cls-12" d="M121.27,551.27c5.44-6.66,10.01-3.21,15.85,1.1,5.84,4.31,7.45,17.58,3.99,22.58-3.46,5-5.37-6.51-12.82-7.11-7.46-.6-12.46-9.9-7.02-16.56Z"/><path class="cls-11" d="M169.74,508.27c-3.52-10.54-5.13-22.65,6.99-27.79,12.13-5.13,12.12,10.7,16.42,23.41,4.3,12.71,7.73,18.79,9.95,36.78,2.22,17.99-29.84-21.87-33.36-32.4Z"/><path class="cls-11" d="M74.1,508.7c3.52-10.54,5.13-22.65-6.99-27.79-12.13-5.13-12.12,10.7-16.42,23.41-4.3,12.71-7.73,18.79-9.95,36.78-2.22,17.99,29.84-21.87,33.36-32.4Z"/><path class="cls-11" d="M176.8,442.88c-35.94,.58-72.71-.84-108.33,.38-1.6,6.2-3.46,12.33-4.81,18.59,37.9,1.03,78.12,4.67,115.59-2.37-1.86-7.87-3.42-7.93-2.45-16.6Z"/><path class="cls-12" d="M176.6,433.88c-35.82,.83-70.16,.36-105.94-.37-1.58,7.32-4.16,14.36-5.48,21.74,37.17,2.99,75.56,3.59,112.67-.49-.59-7.32-1.78-13.5-1.24-20.89Z"/><circle class="cls-22" cx="126.22" cy="445.71" r="4"/></g><g><ellipse class="cls-1" cx="97.22" cy="125.21" rx="17" ry="21.5"/><ellipse class="cls-1" cx="165.77" cy="125.38" rx="17" ry="21.67"/><path d="M87.42,126.28c.49-5.9,1.37-12.11,8.57-13.87,7.2-1.76,11.03,6.57,10.88,13.18s-3.19,14.53-10.2,14.2c-7.01-.33-9.74-7.61-9.25-13.52Z"/><path d="M156.28,126.09c.49-5.9,1.37-12.11,8.57-13.87,7.2-1.76,11.03,6.57,10.88,13.18s-3.19,14.53-10.2,14.2c-7.01-.33-9.74-7.61-9.25-13.52Z"/><path class="cls-7" d="M90.19,118.32c.56-2.82,2.63-4.88,5.65-5.14,3.02-.27,1.16,3.04,.36,4.34-.8,1.3-.8,1.98-2.33,2.39-1.53,.41-4.24,1.24-3.68-1.58Z"/><path class="cls-7" d="M159.89,118.02c.56-2.82,2.63-4.88,5.65-5.14,3.02-.27,1.16,3.04,.36,4.34-.8,1.3-.8,1.98-2.33,2.39s-4.24,1.24-3.68-1.58Z"/><path class="cls-7" d="M97.78,136.2c.58-1.45,2.37-1.73,3.08-3.53,.71-1.8,2.38-2.61,2.73,.12,.35,2.74-2.11,4.52-3.93,5.24-1.82,.72-2.46-.39-1.88-1.83Z"/><path class="cls-7" d="M167.17,134.21c.58-1.45,2.37-1.73,3.08-3.53,.71-1.8,2.38-2.61,2.73,.12,.35,2.74-2.11,4.52-3.93,5.24-1.82,.72-2.46-.39-1.88-1.83Z"/><circle class="cls-7" cx="172.78" cy="127.12" r="1.21"/></g><g><path class="cls-15" d="M79.52,105.83c8.81-9.47,20.12-13.18,32.41-9.16,1.23,.4,1.77-.45,1.94-1.33,.14,.09,0,0,0,0,.17-.87-.01-1.53-1.35-1.94-13.39-4.13-25.81,.02-35.38,10.17-.96,1.01-.6,1.63,.02,2.24-.1,.13,0,0,0,0,.62,.61,1.48,.97,2.37,.02Z"/><path class="cls-15" d="M183.47,105.66c-8.81-9.47-20.12-13.18-32.41-9.16-1.23,.4-1.77-.45-1.94-1.33-.14,.09,0,0,0,0-.17-.87,.01-1.53,1.35-1.94,13.39-4.13,25.81,.02,35.38,10.17,.96,1.01,.6,1.63-.02,2.24,.1,.13,0,0,0,0-.62,.61-1.48,.97-2.37,.02Z"/></g><path class="cls-10" d="M128.82,161.81c-.09-.91,.02-1.88,.07-2.79,0-.12-.06-.22,.17-.19,22.06,2.71,4.16-7.54,7.12-30.92,.03-.24,.06-.18,.17-.19,.82-.08,1.57-.05,2.38,.12,.11,.02,.16,.01,.14,.24-2.34,22.01,15.15,35.7-9.89,33.72-.26-.02-.15,.14-.16,.02Z"/><g><path class="cls-9" d="M115.37,183.08c3.56-3.91,12.96-1.1,18.15-6.06,5.19-4.97,16.01-4.86,19.03,3.27,3.02,8.14-11.05,14.48-15.73,12.32-4.68-2.16-25.01-5.63-21.45-9.53Z"/><path class="cls-6" d="M113.22,184.21c-.85-3.32,19.72-.24,22.12-.1,2.4,.14,22.53-3.75,20.77-1.01-1.75,2.74-15.91,3.63-20.51,3.41-4.61-.21-21.52,1.02-22.38-2.3Z"/><path class="cls-6" d="M113.19,183.73c.72-2.24,15.6-3.84,22.91-9.29,7.31-5.45,24.6,7.81,19.67,8.59-4.93,.78-10.22-11.03-21.14-4.12-10.92,6.91-22.17,7.06-21.45,4.82Z"/><path class="cls-6" d="M113.88,184c1.69-3.64,13.74,6.61,24.66,7.83,10.92,1.23,11.9-10.3,17.12-10.2s-12.7,15.35-18.64,13.31c-5.94-2.05-24.82-7.29-23.13-10.94Z"/></g><path class="cls-13" d="M175.31,434.08c-.48,0-.9-.35-.99-.83-1.39-8.31,1.55-23.52,2.96-30.83l.07-.34c1-5.17,1.09-5.62,1.57-7.78l.58-2.65c.7-3.25,1.04-4.65,1.61-6.98,.3-1.26,.67-2.78,1.2-5.01,.66-2.81,1.59-6.37,2.57-10.14,1.27-4.88,2.58-9.92,3.62-14.45,.53-2.3,1.16-4.96,1.82-7.77,1.69-7.17,3.61-15.3,4.75-21.05,.89-4.49,1.37-8.18,1.84-11.76,.37-2.81,.74-5.71,1.32-9l.16-.92,.93,.1c5.49,.58,11.12,1.06,16.56,1.52,3.54,.3,7.08,.6,10.62,.93,.55,.05,.95,.54,.9,1.09-.05,.55-.54,.96-1.09,.9-3.53-.33-7.06-.63-10.6-.93-5.14-.44-10.46-.89-15.67-1.43-.48,2.88-.82,5.47-1.15,7.99-.47,3.6-.96,7.33-1.86,11.89-1.15,5.79-3.07,13.93-4.76,21.12-.66,2.81-1.29,5.46-1.82,7.76-1.05,4.55-2.36,9.61-3.64,14.5-.98,3.76-1.9,7.31-2.56,10.1-.53,2.23-.9,3.76-1.2,5.02-.56,2.32-.9,3.71-1.6,6.94l-.58,2.66c-.47,2.14-.57,2.59-1.56,7.73l-.07,.34c-1.28,6.63-4.28,22.17-2.95,30.12,.09,.54-.28,1.06-.82,1.15-.06,0-.11,.01-.17,.01Z"/><g class="cls-23"><ellipse class="cls-2" cx="97.22" cy="163.71" rx="17" ry="11"/></g><g class="cls-23"><ellipse class="cls-2" cx="166.22" cy="163.71" rx="17" ry="11"/></g><polygon class="cls-11" points="148.33 714.64 143.26 637.73 138.5 576.28 140.5 576.12 145.26 637.59 150.33 714.51 148.33 714.64"/><path class="cls-5" d="M210.88,98.92h-.01c-53.32-.78-75.83-42.72-76.05-43.14-.25-.49-.07-1.09,.42-1.35,.49-.26,1.09-.07,1.35,.42,.22,.41,22.21,41.3,74.3,42.07,.55,0,.99,.46,.99,1.01,0,.55-.45,.99-1,.99Z"/><path class="cls-5" d="M59.19,103.06c-.44,0-.84-.29-.96-.74-.14-.53,.17-1.08,.71-1.23,35.27-9.53,54.01-21.83,63.53-30.47,10.27-9.33,12.26-16.49,12.28-16.56,.14-.53,.69-.85,1.22-.71,.53,.14,.85,.68,.71,1.22-.31,1.21-8.48,29.88-77.22,48.46-.09,.02-.17,.04-.26,.04Z"/><g><path class="cls-16" d="M136.65,267.69c-12.77,0-25.8-9.32-37.7-26.96-.31-.46-.19-1.08,.27-1.39,.46-.31,1.08-.19,1.39,.27,11.59,17.19,24.12,26.24,36.29,26.08,11.83-.12,23.22-8.57,33.87-25.1,.3-.46,.92-.6,1.38-.3,.46,.3,.6,.92,.3,1.38-11.04,17.13-22.99,25.88-35.53,26.01-.09,0-.18,0-.28,0Z"/><g><path class="cls-19" d="M136.34,275.53h-.09c-15.24-.05-29.85-12.13-41.15-34.02-.25-.49-.06-1.09,.43-1.35,.49-.25,1.09-.06,1.35,.43,10.94,21.2,24.92,32.89,39.37,32.94h.08c13.9,0,26.86-10.72,37.48-31,.26-.49,.86-.68,1.35-.42,.49,.26,.68,.86,.42,1.35-10.99,20.98-24.56,32.07-39.25,32.07Z"/><circle class="cls-12" cx="97.72" cy="245.21" r="2.5"/><circle class="cls-12" cx="101.72" cy="251.21" r="2.5"/><circle class="cls-12" cx="106.72" cy="258.21" r="2.5"/><circle class="cls-12" cx="112.72" cy="264.21" r="2.5"/><circle class="cls-12" cx="119.72" cy="269.21" r="2.5"/><circle class="cls-12" cx="127.72" cy="273.21" r="2.5"/><circle class="cls-12" cx="137.72" cy="274.21" r="2.5"/><circle class="cls-12" cx="146.72" cy="272.21" r="2.5"/><circle class="cls-12" cx="154.72" cy="268.21" r="2.5"/><circle class="cls-12" cx="165.72" cy="257.21" r="2.5"/><circle class="cls-12" cx="170.72" cy="251.21" r="2.5"/><circle class="cls-12" cx="173.72" cy="245.21" r="2.5"/><circle class="cls-12" cx="160.72" cy="263.21" r="2.5"/><circle class="cls-18" cx="101.72" cy="251.21" r="1.5"/><circle class="cls-18" cx="97.72" cy="245.21" r="1.5"/><circle class="cls-18" cx="106.72" cy="258.21" r="1.5"/><circle class="cls-18" cx="112.72" cy="264.21" r="1.5"/><circle class="cls-18" cx="119.72" cy="269.21" r="1.5"/><circle class="cls-18" cx="127.72" cy="273.21" r="1.5"/><circle class="cls-18" cx="137.72" cy="274.21" r="1.5"/><circle class="cls-18" cx="146.72" cy="272.21" r="1.5"/><circle class="cls-18" cx="154.72" cy="268.21" r="1.5"/><circle class="cls-18" cx="160.72" cy="263.21" r="1.5"/><circle class="cls-18" cx="165.72" cy="257.21" r="1.5"/><circle class="cls-18" cx="170.72" cy="251.21" r="1.5"/><circle class="cls-18" cx="173.72" cy="245.21" r="1.5"/></g></g><path class="cls-11" d="M128.44,519.85c.15-19.04,.12-38.06-.09-57.1-2.41-.42-4.84-.12-7.2-.52-.72,19.3,.54,38.48,.43,57.76,2.26-.23,4.6-.32,6.86-.14Z"/><circle class="cls-20" cx="95.22" cy="365.71" r="16"/><circle class="cls-20" cx="156.22" cy="365.71" r="16"/><circle class="cls-20" cx="126.25" cy="338.89" r="21.82"/><path class="cls-21" d="M93.78,352.16c-1.54-.77-5.49,.11-7.32,1.44s-5.28,5.41-4.03,6.83c1.25,1.42,6.1-4.02,6.68-4.37,.58-.35,6.2-3.14,4.66-3.91Z"/><path class="cls-21" d="M155.63,351.34c-1.54-.77-5.49,.11-7.32,1.44s-5.28,5.41-4.03,6.83c1.25,1.42,6.1-4.02,6.68-4.37,.58-.35,6.2-3.14,4.66-3.91Z"/><path class="cls-21" d="M123.93,319.44c-1.76-.64-6.62,.76-8.98,2.4-2.36,1.64-7,6.4-5.65,7.77,1.34,1.37,7.82-5.01,8.56-5.45,.74-.44,7.84-4.08,6.08-4.72Z"/></svg>