<?xml version="1.0" encoding="UTF-8"?><svg id="Layer_122" xmlns="http://www.w3.org/2000/svg" xmlns:xlink="http://www.w3.org/1999/xlink" viewBox="0 0 130 260"><defs><style>.cls-1{fill:none;}.cls-2{clip-path:url(#clippath);}.cls-3{fill:#f56939;}.cls-4{fill:#f56738;}.cls-5{fill:#f56637;}.cls-6{fill:#f56b3a;}.cls-7{fill:#f56a39;}.cls-8{fill:#f56838;}.cls-9{fill:#f56537;}.cls-10{fill:#fa8f48;}.cls-11{fill:#fa8a46;}.cls-12{fill:#fa8d47;}.cls-13{fill:#fa8c47;}.cls-14{fill:#fa8b46;}.cls-15{fill:#f87e41;}.cls-16{fill:#f88042;}.cls-17{fill:#f87b40;}.cls-18{fill:#f87c40;}.cls-19{fill:#f87a40;}.cls-20{fill:#f98745;}.cls-21{fill:#f98443;}.cls-22{fill:#f98644;}.cls-23{fill:#f98544;}.cls-24{fill:#f98142;}.cls-25{fill:#f98243;}.cls-26{fill:#f45e34;}.cls-27{fill:#f46437;}.cls-28{fill:#f46135;}.cls-29{fill:#f46035;}.cls-30{fill:#f45f34;}.cls-31{fill:#f46236;}.cls-32{fill:#f46336;}.cls-33{fill:#fb944a;}.cls-34{fill:#f87f41;}.cls-35{fill:#fa8845;}.cls-36{fill:#fb9048;}.cls-37{fill:#fb9149;}.cls-38{fill:#fb9249;}.cls-39{fill:#fb954a;}.cls-40{fill:#f14e2e;}.cls-41{fill:#f14d2d;}.cls-42{fill:#f14c2d;}.cls-43{fill:#f1492c;}.cls-44{fill:#ee3624;}.cls-45{fill:#ee3825;}.cls-46{fill:#ee3725;}.cls-47{fill:#ee3724;}.cls-48{fill:#ee3925;}.cls-49{fill:#ee3a24;}.cls-50{fill:#f35731;}.cls-51{fill:#f35832;}.cls-52{fill:#f35932;}.cls-53{fill:#f35a32;}.cls-54{fill:#f35b33;}.cls-55{fill:#f6723c;}.cls-56{fill:#f66c3a;}.cls-57{fill:#f6713c;}.cls-58{fill:#f6703b;}.cls-59{fill:#f66f3b;}.cls-60{fill:#f66e3a;}.cls-61{fill:#f7733d;}.cls-62{fill:#f7743d;}.cls-63{fill:#f7793f;}.cls-64{fill:#f7753e;}.cls-65{fill:#f7783f;}.cls-66{fill:#f7773e;}.cls-67{fill:#f0442a;}.cls-68{fill:#f04128;}.cls-69{fill:#f04329;}.cls-70{fill:#f04229;}.cls-71{fill:#f0452a;}.cls-72{fill:#f0472b;}.cls-73{fill:#ffb051;}.cls-74{fill:#ffb053;}.cls-75{fill:#ffb052;}.cls-76{fill:#ffae54;}.cls-77{fill:#ffaf54;}.cls-78{fill:#ffaf55;}.cls-79{fill:#f35c33;}.cls-80{fill:#f35d34;}.cls-81{fill:#f14a2c;}.cls-82{fill:#f1482b;}.cls-83{fill:#f14b2c;}.cls-84{fill:#f0462a;}.cls-85{fill:#f0462b;}.cls-86{fill:#ffca3b;}.cls-87{fill:#ffca3c;}.cls-88{fill:#ffc936;}.cls-89{fill:#ffc935;}.cls-90{fill:#ffc937;}.cls-91{fill:#ffc939;}.cls-92{fill:#ffc938;}.cls-93{fill:#ffc934;}.cls-94{fill:#ffc93a;}.cls-95{fill:#ffc933;}.cls-96{fill:#ffca3f;}.cls-97{fill:#ffca3d;}.cls-98{fill:#ffca3e;}.cls-99{fill:#ffba36;}.cls-100{fill:#ffbb32;}.cls-101{fill:#ffbb31;}.cls-102{fill:#fb3;}.cls-103{fill:#ffb938;}.cls-104{fill:#ffb939;}.cls-105{fill:#ffb937;}.cls-106{fill:#ffc724;}.cls-107{fill:#ffc726;}.cls-108{fill:#ffc725;}.cls-109{fill:#ffc728;}.cls-110{fill:#ffc729;}.cls-111{fill:#ffc727;}.cls-112{fill:#ffba34;}.cls-113{fill:#ffb24b;}.cls-114{fill:#ffb24c;}.cls-115{fill:#ffb349;}.cls-116{fill:#ffb34a;}.cls-117{fill:#ffb24d;}.cls-118{fill:#ffb14e;}.cls-119{fill:#ffb150;}.cls-120{fill:#ffb14f;}.cls-121{fill:#ffc022;}.cls-122{fill:#ffc023;}.cls-123{fill:#ffc024;}.cls-124{fill:#ffbf27;}.cls-125{fill:#ffbf26;}.cls-126{fill:#ffbf25;}.cls-127{fill:#ffbe28;}.cls-128{fill:#ffbe2a;}.cls-129{fill:#ffbe29;}.cls-130{fill:#ffb83a;}.cls-131{fill:#ffb83c;}.cls-132{fill:#ffb83b;}.cls-133{fill:#ffbc2e;}.cls-134{fill:#ffbc2f;}.cls-135{fill:#ffbc30;}.cls-136{fill:#ffb640;}.cls-137{fill:#ffbd2b;}.cls-138{fill:#ffbd2d;}.cls-139{fill:#ffbd2c;}.cls-140{fill:#ffc31a;}.cls-141{fill:#ffc31b;}.cls-142{fill:#ffb73f;}.cls-143{fill:#ffb73e;}.cls-144{fill:#ffb641;}.cls-145{fill:#ffb642;}.cls-146{fill:#ffc832;}.cls-147{fill:#ffc61b;}.cls-148{fill:#ffc620;}.cls-149{fill:#ffc61d;}.cls-150{fill:#ffc61a;}.cls-151{fill:#ffc515;}.cls-152{fill:#ffc61c;}.cls-153{fill:#ffc61f;}.cls-154{fill:#ffc621;}.cls-155{fill:#ffc61e;}.cls-156{fill:#ffc830;}.cls-157{fill:#ffc831;}.cls-158{fill:#ffc82f;}.cls-159{fill:#ffc82e;}.cls-160{fill:#ffc82b;}.cls-161{fill:#ffc82c;}.cls-162{fill:#ffc82d;}.cls-163{fill:#ffc723;}.cls-164{fill:#ffc722;}.cls-165{fill:#ffc517;}.cls-166{fill:#ffc516;}.cls-167{fill:#ffc519;}.cls-168{fill:#ffc518;}.cls-169{fill:#ffac54;}.cls-170{fill:#ffc418;}.cls-171{fill:#ffc419;}.cls-172{fill:#ffc417;}.cls-173{fill:#ffc121;}.cls-174{fill:#ffc120;}.cls-175{fill:#ffc31c;}.cls-176{fill:#ffb73d;}.cls-177{fill:#ffb447;}.cls-178{fill:#ffb448;}.cls-179{fill:#ffb545;}.cls-180{fill:#ffc21f;}.cls-181{fill:#ffb544;}.cls-182{fill:#ffb543;}.cls-183{fill:#ffc21e;}.cls-184{fill:#ffc21d;}.cls-185{fill:#ffb446;}.cls-186{fill:#fc9b4d;}.cls-187{fill:#fc9d4e;}.cls-188{fill:#fc9a4c;}.cls-189{fill:#ef3d27;}.cls-190{fill:#ef3f28;}.cls-191{fill:#ef3e27;}.cls-192{fill:#ef4028;}.cls-193{fill:#ef3b26;}.cls-194{fill:#ef3c26;}.cls-195{fill:#ef3c27;}.cls-196{fill:#ef3a26;}.cls-197{fill:#f2522f;}.cls-198{fill:#f25530;}.cls-199{fill:#f25330;}.cls-200{fill:#f25631;}.cls-201{fill:#f2502f;}.cls-202{fill:#f24f2e;}.cls-203{fill:#f25430;}.cls-204{fill:#f2512f;}.cls-205{fill:#fda250;}.cls-206{fill:#fda350;}.cls-207{fill:#fd9f4f;}.cls-208{fill:#fda04f;}.cls-209{fill:#fd9e4e;}.cls-210{fill:#fea451;}.cls-211{fill:#fc994c;}.cls-212{fill:#fc974b;}.cls-213{fill:#fc964b;}.cls-214{fill:#fea852;}.cls-215{fill:#fea752;}.cls-216{fill:#fea651;}.cls-217{fill:#feab53;}.cls-218{fill:#feaa53;}.cls-219{fill:#ccc;}.cls-220{fill:#d9d9d9;}.cls-221{fill:#85cdb8;}.cls-222{fill:#79bba8;}.cls-223{opacity:.25;}</style><clipPath id="clippath"><rect class="cls-1" x="15.9" y="91.3" width="85.39" height="137.98"/></clipPath></defs><path class="cls-220" d="M16.6,69c-.44,0-.84-.29-.96-.74-.15-.53,.17-1.08,.7-1.23,28.85-7.85,56.88-7.96,85.7-.36,.53,.14,.85,.69,.71,1.22s-.69,.85-1.22,.71c-28.47-7.51-56.17-7.39-84.67,.36-.09,.02-.18,.04-.26,.04Z"/><path class="cls-221" d="M73.49,113.21c-.7,0-1.41-.13-2.09-.42-2.81-1.16-4.15-4.37-2.99-7.18,5.52-13.41,11.85-26.68,17.97-39.51,6.33-13.29,12.89-27.02,18.46-40.78,1.14-2.81,4.35-4.17,7.16-3.03,2.81,1.14,4.17,4.35,3.03,7.16-5.7,14.06-12.32,27.95-18.73,41.38-6.06,12.7-12.32,25.83-17.72,38.96-.87,2.12-2.93,3.41-5.09,3.41Z"/><ellipse class="cls-222" cx="110.61" cy="25.9" rx="3.63" ry="5.06" transform="translate(51.24 122.76) rotate(-71.67)"/><g class="cls-2"><rect class="cls-44" x="15.9" y="91.3" width="85.39" height=".65"/><rect class="cls-44" x="15.9" y="91.95" width="85.39" height=".65"/><rect class="cls-47" x="15.9" y="92.59" width="85.39" height=".65"/><rect class="cls-47" x="15.9" y="93.24" width="85.39" height=".65"/><rect class="cls-46" x="15.9" y="93.89" width="85.39" height=".65"/><rect class="cls-45" x="15.9" y="94.53" width="85.39" height=".65"/><rect class="cls-45" x="15.9" y="95.18" width="85.39" height=".65"/><rect class="cls-48" x="15.9" y="95.83" width="85.39" height=".65"/><rect class="cls-48" x="15.9" y="96.48" width="85.39" height=".65"/><rect class="cls-196" x="15.9" y="97.12" width="85.39" height=".65"/><rect class="cls-196" x="15.9" y="97.77" width="85.39" height=".65"/><rect class="cls-193" x="15.9" y="98.42" width="85.39" height=".65"/><rect class="cls-194" x="15.9" y="99.06" width="85.39" height=".65"/><rect class="cls-195" x="15.9" y="99.71" width="85.39" height=".65"/><rect class="cls-189" x="15.9" y="100.36" width="85.39" height=".65"/><rect class="cls-191" x="15.9" y="101" width="85.39" height=".65"/><rect class="cls-191" x="15.9" y="101.65" width="85.39" height=".65"/><rect class="cls-190" x="15.9" y="102.3" width="85.39" height=".65"/><rect class="cls-192" x="15.9" y="102.95" width="85.39" height=".65"/><rect class="cls-192" x="15.9" y="103.59" width="85.39" height=".65"/><rect class="cls-68" x="15.9" y="104.24" width="85.39" height=".65"/><rect class="cls-70" x="15.9" y="104.89" width="85.39" height=".65"/><rect class="cls-69" x="15.9" y="105.53" width="85.39" height=".65"/><rect class="cls-69" x="15.9" y="106.18" width="85.39" height=".65"/><rect class="cls-67" x="15.9" y="106.83" width="85.39" height=".65"/><rect class="cls-71" x="15.9" y="107.47" width="85.39" height=".65"/><rect class="cls-84" x="15.9" y="108.12" width="85.39" height=".65"/><rect class="cls-85" x="15.9" y="108.77" width="85.39" height=".65"/><rect class="cls-72" x="15.9" y="109.42" width="85.39" height=".65"/><rect class="cls-82" x="15.9" y="110.06" width="85.39" height=".65"/><rect class="cls-43" x="15.9" y="110.71" width="85.39" height=".65"/><rect class="cls-81" x="15.9" y="111.36" width="85.39" height=".65"/><rect class="cls-83" x="15.9" y="112" width="85.39" height=".65"/><rect class="cls-42" x="15.9" y="112.65" width="85.39" height=".65"/><rect class="cls-42" x="15.9" y="113.3" width="85.39" height=".65"/><rect class="cls-41" x="15.9" y="113.94" width="85.39" height=".65"/><rect class="cls-40" x="15.9" y="114.59" width="85.39" height=".65"/><rect class="cls-202" x="15.9" y="115.24" width="85.39" height=".65"/><rect class="cls-201" x="15.9" y="115.89" width="85.39" height=".65"/><rect class="cls-204" x="15.9" y="116.53" width="85.39" height=".65"/><rect class="cls-197" x="15.9" y="117.18" width="85.39" height=".65"/><rect class="cls-199" x="15.9" y="117.83" width="85.39" height=".65"/><rect class="cls-203" x="15.9" y="118.47" width="85.39" height=".65"/><rect class="cls-198" x="15.9" y="119.12" width="85.39" height=".65"/><rect class="cls-200" x="15.9" y="119.77" width="85.39" height=".65"/><rect class="cls-50" x="15.9" y="120.41" width="85.39" height=".65"/><rect class="cls-51" x="15.9" y="121.06" width="85.39" height=".65"/><rect class="cls-52" x="15.9" y="121.71" width="85.39" height=".65"/><rect class="cls-53" x="15.9" y="122.36" width="85.39" height=".65"/><rect class="cls-54" x="15.9" y="123" width="85.39" height=".65"/><rect class="cls-79" x="15.9" y="123.65" width="85.39" height=".65"/><rect class="cls-80" x="15.9" y="124.3" width="85.39" height=".65"/><rect class="cls-26" x="15.9" y="124.94" width="85.39" height=".65"/><rect class="cls-30" x="15.9" y="125.59" width="85.39" height=".65"/><rect class="cls-29" x="15.9" y="126.24" width="85.39" height=".65"/><rect class="cls-28" x="15.9" y="126.89" width="85.39" height=".65"/><rect class="cls-31" x="15.9" y="127.53" width="85.39" height=".65"/><rect class="cls-32" x="15.9" y="128.18" width="85.39" height=".65"/><rect class="cls-27" x="15.9" y="128.83" width="85.39" height=".65"/><rect class="cls-9" x="15.9" y="129.47" width="85.39" height=".65"/><rect class="cls-5" x="15.9" y="130.12" width="85.39" height=".65"/><rect class="cls-4" x="15.9" y="130.77" width="85.39" height=".65"/><rect class="cls-8" x="15.9" y="131.41" width="85.39" height=".65"/><rect class="cls-3" x="15.9" y="132.06" width="85.39" height=".65"/><rect class="cls-7" x="15.9" y="132.71" width="85.39" height=".65"/><rect class="cls-6" x="15.9" y="133.36" width="85.39" height=".65"/><rect class="cls-56" x="15.9" y="134" width="85.39" height=".65"/><rect class="cls-60" x="15.9" y="134.65" width="85.39" height=".65"/><rect class="cls-59" x="15.9" y="135.3" width="85.39" height=".65"/><rect class="cls-58" x="15.9" y="135.94" width="85.39" height=".65"/><rect class="cls-57" x="15.9" y="136.59" width="85.39" height=".65"/><rect class="cls-55" x="15.9" y="137.24" width="85.39" height=".65"/><rect class="cls-61" x="15.9" y="137.88" width="85.39" height=".65"/><rect class="cls-62" x="15.9" y="138.53" width="85.39" height=".65"/><rect class="cls-64" x="15.9" y="139.18" width="85.39" height=".65"/><rect class="cls-66" x="15.9" y="139.83" width="85.39" height=".65"/><rect class="cls-65" x="15.9" y="140.47" width="85.39" height=".65"/><rect class="cls-63" x="15.9" y="141.12" width="85.39" height=".65"/><rect class="cls-19" x="15.9" y="141.77" width="85.39" height=".65"/><rect class="cls-17" x="15.9" y="142.41" width="85.39" height=".65"/><rect class="cls-18" x="15.9" y="143.06" width="85.39" height=".65"/><rect class="cls-15" x="15.9" y="143.71" width="85.39" height=".65"/><rect class="cls-34" x="15.9" y="144.35" width="85.39" height=".65"/><rect class="cls-16" x="15.9" y="145" width="85.39" height=".65"/><rect class="cls-24" x="15.9" y="145.65" width="85.39" height=".65"/><rect class="cls-25" x="15.9" y="146.3" width="85.39" height=".65"/><rect class="cls-21" x="15.9" y="146.94" width="85.39" height=".65"/><rect class="cls-23" x="15.9" y="147.59" width="85.39" height=".65"/><rect class="cls-22" x="15.9" y="148.24" width="85.39" height=".65"/><rect class="cls-20" x="15.9" y="148.88" width="85.39" height=".65"/><rect class="cls-35" x="15.9" y="149.53" width="85.39" height=".65"/><rect class="cls-11" x="15.9" y="150.18" width="85.39" height=".65"/><rect class="cls-14" x="15.9" y="150.82" width="85.39" height=".65"/><rect class="cls-13" x="15.9" y="151.47" width="85.39" height=".65"/><rect class="cls-12" x="15.9" y="152.12" width="85.39" height=".65"/><rect class="cls-10" x="15.9" y="152.77" width="85.39" height=".65"/><rect class="cls-36" x="15.9" y="153.41" width="85.39" height=".65"/><rect class="cls-37" x="15.9" y="154.06" width="85.39" height=".65"/><rect class="cls-38" x="15.9" y="154.71" width="85.39" height=".65"/><rect class="cls-33" x="15.9" y="155.35" width="85.39" height=".65"/><rect class="cls-39" x="15.9" y="156" width="85.39" height=".65"/><rect class="cls-213" x="15.9" y="156.65" width="85.39" height=".65"/><rect class="cls-212" x="15.9" y="157.3" width="85.39" height=".65"/><rect class="cls-211" x="15.9" y="157.94" width="85.39" height=".65"/><rect class="cls-188" x="15.9" y="158.59" width="85.39" height=".65"/><rect class="cls-186" x="15.9" y="159.24" width="85.39" height=".65"/><rect class="cls-187" x="15.9" y="159.88" width="85.39" height=".65"/><rect class="cls-209" x="15.9" y="160.53" width="85.39" height=".65"/><rect class="cls-207" x="15.9" y="161.18" width="85.39" height=".65"/><rect class="cls-208" x="15.9" y="161.82" width="85.39" height=".65"/><rect class="cls-205" x="15.9" y="162.47" width="85.39" height=".65"/><rect class="cls-206" x="15.9" y="163.12" width="85.39" height=".65"/><rect class="cls-210" x="15.9" y="163.77" width="85.39" height=".65"/><rect class="cls-216" x="15.9" y="164.41" width="85.39" height=".65"/><rect class="cls-215" x="15.9" y="165.06" width="85.39" height=".65"/><rect class="cls-214" x="15.9" y="165.71" width="85.39" height=".65"/><rect class="cls-218" x="15.9" y="166.35" width="85.39" height=".65"/><rect class="cls-217" x="15.9" y="167" width="85.39" height=".65"/><rect class="cls-169" x="15.9" y="167.65" width="85.39" height=".65"/><rect class="cls-76" x="15.9" y="168.29" width="85.39" height=".65"/><rect class="cls-78" x="15.9" y="168.94" width="85.39" height=".65"/><rect class="cls-78" x="15.9" y="169.59" width="85.39" height=".64"/><rect class="cls-77" x="15.9" y="170.23" width="85.39" height=".64"/><rect class="cls-74" x="15.9" y="170.87" width="85.39" height=".64"/><rect class="cls-75" x="15.9" y="171.51" width="85.39" height=".64"/><rect class="cls-73" x="15.9" y="172.16" width="85.39" height=".64"/><rect class="cls-119" x="15.9" y="172.8" width="85.39" height=".64"/><rect class="cls-120" x="15.9" y="173.44" width="85.39" height=".64"/><rect class="cls-118" x="15.9" y="174.08" width="85.39" height=".64"/><rect class="cls-117" x="15.9" y="174.72" width="85.39" height=".64"/><rect class="cls-114" x="15.9" y="175.37" width="85.39" height=".64"/><rect class="cls-113" x="15.9" y="176.01" width="85.39" height=".64"/><rect class="cls-116" x="15.9" y="176.65" width="85.39" height=".64"/><rect class="cls-115" x="15.9" y="177.29" width="85.39" height=".64"/><rect class="cls-178" x="15.9" y="177.93" width="85.39" height=".64"/><rect class="cls-177" x="15.9" y="178.58" width="85.39" height=".64"/><rect class="cls-185" x="15.9" y="179.22" width="85.39" height=".64"/><rect class="cls-179" x="15.9" y="179.86" width="85.39" height=".64"/><rect class="cls-181" x="15.9" y="180.5" width="85.39" height=".64"/><rect class="cls-182" x="15.9" y="181.14" width="85.39" height=".64"/><rect class="cls-145" x="15.9" y="181.78" width="85.39" height=".64"/><rect class="cls-144" x="15.9" y="182.43" width="85.39" height=".64"/><rect class="cls-136" x="15.9" y="183.07" width="85.39" height=".64"/><rect class="cls-142" x="15.9" y="183.71" width="85.39" height=".64"/><rect class="cls-143" x="15.9" y="184.35" width="85.39" height=".64"/><rect class="cls-176" x="15.9" y="184.99" width="85.39" height=".64"/><rect class="cls-131" x="15.9" y="185.64" width="85.39" height=".64"/><rect class="cls-132" x="15.9" y="186.28" width="85.39" height=".64"/><rect class="cls-130" x="15.9" y="186.92" width="85.39" height=".64"/><rect class="cls-104" x="15.9" y="187.56" width="85.39" height=".64"/><rect class="cls-103" x="15.9" y="188.2" width="85.39" height=".64"/><rect class="cls-105" x="15.9" y="188.85" width="85.39" height=".64"/><rect class="cls-99" x="15.9" y="189.49" width="85.39" height=".64"/><rect class="cls-112" x="15.9" y="190.13" width="85.39" height=".64"/><rect class="cls-102" x="15.9" y="190.77" width="85.39" height=".64"/><rect class="cls-100" x="15.9" y="191.41" width="85.39" height=".64"/><rect class="cls-101" x="15.9" y="192.06" width="85.39" height=".64"/><rect class="cls-135" x="15.9" y="192.7" width="85.39" height=".64"/><rect class="cls-134" x="15.9" y="193.34" width="85.39" height=".64"/><rect class="cls-133" x="15.9" y="193.98" width="85.39" height=".64"/><rect class="cls-138" x="15.9" y="194.62" width="85.39" height=".64"/><rect class="cls-139" x="15.9" y="195.27" width="85.39" height=".64"/><rect class="cls-137" x="15.9" y="195.91" width="85.39" height=".64"/><rect class="cls-128" x="15.9" y="196.55" width="85.39" height=".64"/><rect class="cls-129" x="15.9" y="197.19" width="85.39" height=".64"/><rect class="cls-127" x="15.9" y="197.83" width="85.39" height=".64"/><rect class="cls-124" x="15.9" y="198.47" width="85.39" height=".64"/><rect class="cls-125" x="15.9" y="199.12" width="85.39" height=".64"/><rect class="cls-126" x="15.9" y="199.76" width="85.39" height=".64"/><rect class="cls-123" x="15.9" y="200.4" width="85.39" height=".64"/><rect class="cls-122" x="15.9" y="201.04" width="85.39" height=".64"/><rect class="cls-121" x="15.9" y="201.68" width="85.39" height=".64"/><rect class="cls-173" x="15.9" y="202.33" width="85.39" height=".64"/><rect class="cls-174" x="15.9" y="202.97" width="85.39" height=".64"/><rect class="cls-180" x="15.9" y="203.61" width="85.39" height=".64"/><rect class="cls-183" x="15.9" y="204.25" width="85.39" height=".64"/><rect class="cls-184" x="15.9" y="204.89" width="85.39" height=".64"/><rect class="cls-175" x="15.9" y="205.54" width="85.39" height=".64"/><rect class="cls-141" x="15.9" y="206.18" width="85.39" height=".64"/><rect class="cls-140" x="15.9" y="206.82" width="85.39" height=".64"/><rect class="cls-171" x="15.9" y="207.46" width="85.39" height=".64"/><rect class="cls-170" x="15.9" y="208.1" width="85.39" height=".64"/><rect class="cls-172" x="15.9" y="208.75" width="85.39" height=".64"/><rect class="cls-166" x="15.9" y="209.39" width="85.39" height=".64"/><rect class="cls-151" x="15.9" y="210.03" width="85.39" height=".64"/><rect class="cls-151" x="15.9" y="210.67" width="85.39" height=".44"/><rect class="cls-166" x="15.9" y="211.11" width="85.39" height=".44"/><rect class="cls-165" x="15.9" y="211.54" width="85.39" height=".44"/><rect class="cls-168" x="15.9" y="211.98" width="85.39" height=".44"/><rect class="cls-167" x="15.9" y="212.42" width="85.39" height=".44"/><rect class="cls-150" x="15.9" y="212.85" width="85.39" height=".44"/><rect class="cls-147" x="15.9" y="213.29" width="85.39" height=".44"/><rect class="cls-152" x="15.9" y="213.73" width="85.39" height=".44"/><rect class="cls-149" x="15.9" y="214.16" width="85.39" height=".44"/><rect class="cls-155" x="15.9" y="214.6" width="85.39" height=".44"/><rect class="cls-153" x="15.9" y="215.04" width="85.39" height=".44"/><rect class="cls-148" x="15.9" y="215.47" width="85.39" height=".44"/><rect class="cls-154" x="15.9" y="215.91" width="85.39" height=".44"/><rect class="cls-164" x="15.9" y="216.34" width="85.39" height=".44"/><rect class="cls-163" x="15.9" y="216.78" width="85.39" height=".44"/><rect class="cls-106" x="15.9" y="217.22" width="85.39" height=".44"/><rect class="cls-108" x="15.9" y="217.65" width="85.39" height=".44"/><rect class="cls-107" x="15.9" y="218.09" width="85.39" height=".44"/><rect class="cls-111" x="15.9" y="218.53" width="85.39" height=".44"/><rect class="cls-109" x="15.9" y="218.96" width="85.39" height=".44"/><rect class="cls-110" x="15.9" y="219.4" width="85.39" height=".44"/><rect class="cls-160" x="15.9" y="219.84" width="85.39" height=".44"/><rect class="cls-161" x="15.9" y="220.27" width="85.39" height=".44"/><rect class="cls-162" x="15.9" y="220.71" width="85.39" height=".44"/><rect class="cls-159" x="15.9" y="221.14" width="85.39" height=".44"/><rect class="cls-158" x="15.9" y="221.58" width="85.39" height=".44"/><rect class="cls-156" x="15.9" y="222.02" width="85.39" height=".44"/><rect class="cls-157" x="15.9" y="222.45" width="85.39" height=".44"/><rect class="cls-146" x="15.9" y="222.89" width="85.39" height=".44"/><rect class="cls-95" x="15.9" y="223.33" width="85.39" height=".44"/><rect class="cls-93" x="15.9" y="223.76" width="85.39" height=".44"/><rect class="cls-89" x="15.9" y="224.2" width="85.39" height=".44"/><rect class="cls-88" x="15.9" y="224.64" width="85.39" height=".44"/><rect class="cls-90" x="15.9" y="225.07" width="85.39" height=".44"/><rect class="cls-92" x="15.9" y="225.51" width="85.39" height=".44"/><rect class="cls-91" x="15.9" y="225.95" width="85.39" height=".44"/><rect class="cls-94" x="15.9" y="226.38" width="85.39" height=".44"/><rect class="cls-86" x="15.9" y="226.82" width="85.39" height=".44"/><rect class="cls-87" x="15.9" y="227.25" width="85.39" height=".44"/><rect class="cls-97" x="15.9" y="227.69" width="85.39" height=".44"/><rect class="cls-98" x="15.9" y="228.13" width="85.39" height=".44"/><rect class="cls-96" x="15.9" y="228.56" width="85.39" height=".44"/><rect class="cls-96" x="15.9" y="229" width="85.39" height=".27"/></g><path class="cls-49" d="M15.9,91.3s7.66-2.21,14.54,0,13.83,0,13.83,0c0,0,10.45-2.21,18.75,0,8.31,2.21,22.29,0,22.29,0,0,0,5.64-2.21,15.99,0"/><path class="cls-220" d="M55.81,75.55c-13.76,0-27.22-1.63-40.59-4.88-.54-.13-.87-.67-.74-1.21s.67-.87,1.21-.74c27.24,6.63,54.91,6.42,84.62-.62,.53-.13,1.08,.21,1.2,.74,.13,.54-.2,1.08-.74,1.2-15.45,3.66-30.37,5.5-44.96,5.5Z"/><g class="cls-223"><path class="cls-220" d="M100.71,228.93c-27.93,.32-55.87-.55-83.78,.34,.84-83.43-3.32-139.1-1.12-158.27,28.36,5.44,55.64,5.48,84.02-1.65,3.04,12.5-.65,120.35,.88,159.58Z"/></g><g class="cls-223"><path class="cls-219" d="M97.44,226.15c-.27,0-.53-.15-.67-.4L16.44,71.78c-.19-.37-.05-.82,.32-1.01,.37-.19,.82-.05,1.01,.32L98.11,225.05c.19,.37,.05,.82-.32,1.01-.11,.06-.23,.08-.35,.08Z"/></g><g class="cls-223"><path class="cls-219" d="M100.09,207.95c-.27,0-.53-.14-.66-.4L27.27,72.89c-.2-.37-.06-.82,.31-1.02,.37-.2,.82-.06,1.02,.31L100.75,206.84c.2,.37,.06,.82-.31,1.02-.11,.06-.23,.09-.35,.09Z"/></g><g class="cls-223"><path class="cls-219" d="M100.09,189.18c-.27,0-.53-.15-.67-.41L40.49,75.09c-.19-.37-.05-.82,.32-1.01,.37-.19,.82-.05,1.01,.32l58.93,113.69c.19,.37,.05,.82-.32,1.01-.11,.06-.23,.08-.34,.08Z"/></g><g class="cls-223"><path class="cls-219" d="M100.09,168.21c-.27,0-.54-.15-.67-.41L52.86,76.3l-35.12,59.15c-.21,.36-.67,.47-1.03,.26-.36-.21-.47-.67-.26-1.03l35.81-60.32c.14-.24,.41-.36,.67-.37,.27,0,.52,.17,.64,.41l47.18,92.72c.19,.37,.04,.82-.33,1.01-.11,.06-.22,.08-.34,.08Z"/></g><g class="cls-223"><path class="cls-219" d="M100.09,143.93c-.29,0-.56-.16-.68-.44l-31.27-69.54c-.17-.38,0-.82,.38-.99,.37-.17,.82,0,.99,.38l31.27,69.54c.17,.38,0,.82-.38,.99-.1,.04-.2,.07-.31,.07Z"/></g><g class="cls-223"><path class="cls-219" d="M100.09,118.54c-.28,0-.54-.15-.67-.42l-21.65-44.15c-.18-.37-.03-.82,.34-1,.37-.18,.82-.03,1,.34l21.65,44.15c.18,.37,.03,.82-.34,1-.11,.05-.22,.08-.33,.08Z"/></g><g class="cls-223"><path class="cls-219" d="M101.29,97.57c-.28,0-.54-.15-.67-.42l-12.03-24.28c-.18-.37-.03-.82,.34-1,.38-.18,.82-.03,1,.34l12.03,24.28c.18,.37,.03,.82-.34,1-.11,.05-.22,.08-.33,.08Z"/></g><g class="cls-223"><path class="cls-219" d="M86.03,226.15c-.27,0-.53-.14-.66-.39L16.44,98.28c-.2-.36-.06-.82,.3-1.02,.37-.2,.82-.06,1.02,.3l68.93,127.47c.2,.36,.06,.82-.3,1.02-.11,.06-.24,.09-.36,.09Z"/></g><g class="cls-223"><path class="cls-219" d="M71.23,228.92c-.27,0-.54-.15-.67-.41L16.43,122.55c-.19-.37-.04-.82,.33-1.01,.37-.19,.82-.04,1.01,.33l54.12,105.96c.19,.37,.04,.82-.33,1.01-.11,.06-.23,.08-.34,.08Z"/></g><g class="cls-223"><path class="cls-219" d="M54.34,228.92c-.29,0-.55-.17-.68-.43L16.42,150.15c-.18-.37-.02-.82,.36-1,.38-.18,.82-.02,1,.36l36.55,76.91,45.52-96.8c.18-.37,.62-.54,1-.36,.38,.18,.54,.62,.36,1l-46.2,98.24c-.12,.26-.39,.43-.68,.43h0Z"/></g><g class="cls-223"><path class="cls-219" d="M42.36,228.92c-.27,0-.53-.14-.66-.4l-25.26-47.46c-.19-.37-.06-.82,.31-1.01,.37-.2,.82-.05,1.01,.31l25.26,47.46c.19,.37,.06,.82-.31,1.01-.11,.06-.23,.09-.35,.09Z"/></g><g class="cls-223"><path class="cls-219" d="M30.15,228.92c-.26,0-.51-.13-.65-.37l-13.05-22.08c-.21-.36-.09-.82,.26-1.03,.36-.21,.82-.09,1.03,.26l13.05,22.08c.21,.36,.09,.82-.26,1.03-.12,.07-.25,.1-.38,.1Z"/></g><g class="cls-223"><path class="cls-219" d="M16.92,230.03c-.12,0-.24-.03-.35-.09-.37-.19-.51-.64-.32-1.01L99.43,69.98c.19-.37,.64-.51,1.01-.32,.37,.19,.51,.64,.32,1.01L17.59,229.62c-.13,.26-.39,.4-.67,.4Z"/></g><g class="cls-223"><path class="cls-219" d="M17.1,194.7c-.12,0-.25-.03-.37-.1-.36-.2-.49-.66-.28-1.02L85,72.16c.2-.36,.66-.49,1.02-.28,.36,.2,.49,.66,.28,1.02L17.75,194.32c-.14,.24-.39,.38-.65,.38Z"/></g><g class="cls-223"><path class="cls-219" d="M17.1,162.69c-.13,0-.26-.03-.38-.1-.36-.21-.48-.67-.27-1.03l51.72-88.3c.21-.36,.67-.48,1.03-.27,.36,.21,.48,.67,.27,1.03L17.75,162.32c-.14,.24-.39,.37-.65,.37Z"/></g><g class="cls-223"><path class="cls-219" d="M17.1,110.81c-.13,0-.27-.04-.39-.11-.35-.22-.46-.68-.25-1.03l21.65-35.32c.22-.35,.68-.47,1.03-.25,.35,.22,.46,.68,.25,1.03l-21.65,35.32c-.14,.23-.39,.36-.64,.36Z"/></g><g class="cls-223"><path class="cls-219" d="M33.94,227.82c-.12,0-.24-.03-.35-.09-.37-.19-.5-.65-.31-1.01L100.76,99.78c.19-.37,.65-.5,1.01-.31,.37,.19,.5,.65,.31,1.01L34.6,227.42c-.13,.25-.39,.4-.66,.4Z"/></g><g class="cls-223"><path class="cls-219" d="M71.22,228.92c-.11,0-.22-.02-.33-.08-.37-.18-.53-.63-.34-1l29.31-59.78c.18-.37,.63-.53,1-.34,.37,.18,.53,.63,.34,1l-29.31,59.78c-.13,.27-.4,.42-.67,.42Z"/></g><g class="cls-223"><path class="cls-219" d="M91.15,226.15c-.11,0-.22-.02-.33-.08-.37-.18-.53-.63-.34-1l8.93-18.2c.18-.37,.63-.53,1-.34,.37,.18,.53,.63,.34,1l-8.93,18.2c-.13,.27-.4,.42-.67,.42Z"/></g><rect class="cls-220" x="14.7" y="228.17" width="87.8" height="9.93"/><path class="cls-220" d="M14.73,228.67c-.04-3.08,.14-6.14,.18-9.22,8.36,3.98,16.72,7.12,25.89,9.11"/><path class="cls-220" d="M102.48,228.88c.16-3.07-.02-6.15,.14-9.23-8.6,4-16.67,7.54-26.23,9.11"/><path class="cls-220" d="M101.42,222.86c-.55,0-1-.45-1-1,0-17.08,0-34.17,0-51.25,0-34.17-.02-68.33,0-102.5,0-.55,.45-1,1-1h0c.55,0,1,.45,1,1-.03,34.17-.02,68.33,0,102.5,0,17.08,0,34.17,0,51.25,0,.55-.45,1-1,1Z"/><path class="cls-220" d="M16.14,224.75c-.55,0-1-.45-1-1,0-17.25,0-34.5,0-51.75,0-34.5-.02-68.99,0-103.49,0-.55,.45-1,1-1h0c.55,0,1,.45,1,1-.03,34.5-.02,68.99,0,103.49,0,17.25,0,34.5,0,51.75,0,.55-.45,1-1,1Z"/></svg>