<?xml version="1.0" encoding="UTF-8"?><svg id="Layer_140" xmlns="http://www.w3.org/2000/svg" viewBox="0 0 100 130"><defs><style>.cls-1{fill:#687922;}.cls-2{fill:#6b2b55;}.cls-3{fill:#7e3766;}.cls-4{fill:#b3bc90;}.cls-5{opacity:.9;}.cls-6{opacity:.75;}</style></defs><g class="cls-6"><rect class="cls-3" x="25.05" y="41.25" width="48.3" height="80.18" rx="9.05" ry="9.05"/></g><g class="cls-6"><rect class="cls-3" x="36.08" y="21.05" width="26.31" height="20.21"/></g><g class="cls-5"><rect class="cls-1" x="25.12" y="41.11" width="48.24" height="80.47" rx="5.68" ry="5.68"/></g><g class="cls-5"><path class="cls-1" d="M62.51,10.94c-8.75,.27-17.5,.26-26.25,.01-.05,10.09,.08,20.18-.19,30.27,8.86,.06,17.72-.02,26.58,.03-.18-10.1-.07-20.21-.14-30.31Z"/></g><g><ellipse class="cls-4" cx="49.39" cy="11.2" rx="13.16" ry="2.27"/><path class="cls-1" d="M49.39,13.89c-4.71,0-13.61-.56-13.61-2.7s8.9-2.7,13.61-2.7,13.61,.56,13.61,2.7-8.9,2.7-13.61,2.7Zm0-4.55c-8.22,0-12.7,1.22-12.7,1.85s4.48,1.85,12.7,1.85,12.7-1.22,12.7-1.85-4.48-1.85-12.7-1.85Z"/></g><path class="cls-1" d="M68.16,122l-38.15-.14c-5.23-.43-5.41-4.94-5.41-4.98l.07-70.8c.04-1.66,.59-2.96,1.64-3.87,1.67-1.45,3.97-1.38,4.06-1.37l5.25-.03,.16-29.61h.91s-.16,30.45-.16,30.45l-6.17,.03s-2.05-.06-3.43,1.15c-.86,.75-1.31,1.85-1.34,3.26l-.07,70.78c0,.14,.17,3.79,4.54,4.15l38.08,.14c.15-.01,4.39-.33,4.77-4.43V46.07s.01-2.13-1.41-3.41c-.8-.72-1.94-1.05-3.34-.99h-5.95s-.11-30.48-.11-30.48h.91s.11,29.63,.11,29.63h5.03c1.66-.08,3.01,.33,4,1.23,1.7,1.54,1.68,3.92,1.68,4.02V116.76c-.45,4.87-5.6,5.24-5.65,5.24Z"/><g class="cls-5"><path class="cls-3" d="M73.65,61.96c-16.29,0-32.57,.03-48.86,.03,0,9.25,0,18.5-.02,27.75,16.29,.01,32.59,.01,48.88,.01,0-9.27,0-18.53,0-27.8Z"/></g><rect class="cls-2" x="24.8" y="61.56" width="48.89" height=".85"/><rect class="cls-2" x="24.78" y="89.33" width="48.88" height=".85"/></svg>