<?xml version="1.0" encoding="UTF-8"?><svg id="Layer_156" xmlns="http://www.w3.org/2000/svg" viewBox="0 0 1300 390"><defs><style>.cls-1{fill:#ed9f05;}</style></defs><g><path class="cls-1" d="M154.04,77.28c-.3-42.3-23.1-63.9-68.4-63.9S13.94,42.48,13.94,94.98c0,42,15.6,78.9,55.8,78.9,5.1,0,9.6-2.4,9.6-7.5,0-5.4-2.1-7.8-8.4-8.4-27.9-2.7-41.7-30.3-41.7-63,0-42.6,22.2-67.5,56.4-67.5,31.5,0,48,13.5,52.2,39.3,1.5,9.6-1.8,21-15,23.4-12,2.1-18.9-3.3-22.2-15-2.1-7.8-6.9-11.1-15-11.1-13.8,0-16.8,15.9-16.8,33.3,0,15.3,4.5,24.9,13.2,24.9,3,0,5.4,1.8,5.4,5.7s-2.4,5.4-5.4,5.4c-12,0-25.2-7.2-25.2-36s10.5-44.4,28.8-44.4c14.1,0,22.5,5.1,26.7,19.2,1.2,4.5,3.3,8.1,8.7,6.9,4.8-1.2,5.7-5.1,4.8-10.2-3.3-20.1-16.2-30.3-40.2-30.3-28.5,0-44.1,22.8-44.1,56.4,0,24.6,7.8,49.5,30.3,51.9,14.4,1.5,19.8,7.5,19.8,19.5s-9,18.6-21.9,18.6C24.14,184.98,1.94,145.98,1.94,94.98,1.94,33.48,32.24,2.28,85.64,2.28s80.4,25.2,80.4,75c0,3-2.1,5.7-6,5.7-3.6,0-6-2.7-6-5.7Zm-63.6,22.2h6c11.4,0,17.7,7.2,17.7,19.2v41.4c0,11.1,6,15.6,21.9,15.6,14.4,0,19.2-7.5,19.2-16.5v-36.9c0-5.4-.3-11.1-6.6-11.1s-7.8,4.5-7.8,11.1v34.8c0,3-2.4,5.4-6.3,5.4-3.6,0-6-2.4-6-5.4v-34.8c0-16.8,6.9-22.2,20.1-22.2s18.9,6.6,18.9,22.2v36.9c0,14.7-6.9,27.6-31.5,27.6-27,0-34.2-9-34.2-26.7v-41.4c0-3.9-.6-8.1-5.4-8.1h-6c-3,0-5.4-1.8-5.4-5.4,0-3.9,2.4-5.7,5.4-5.7Z"/><path class="cls-1" d="M255.44,10.68V118.08c0,5.1,2.4,7.8,7.2,7.8s7.8-2.7,7.8-7.8V25.98c0-15.9,6.9-21.6,19.8-21.6,11.7,0,18.9,6.3,18.9,21V114.18c0,32.1-14.1,48.6-45.9,48.6s-46.5-15.9-46.5-48.3V25.38c0-5.4-1.2-10.2-7.2-10.2-6.6,0-7.8,4.5-7.8,10.8V108.18c0,49.8,25.5,69.3,61.8,69.3s60.6-19.8,60.6-69V10.68c0-3.3,2.1-5.7,6-5.7,3.6,0,6,2.4,6,5.7V108.48c0,58.8-32.1,80.1-72.6,80.1s-73.8-21-73.8-80.4V25.98c0-15.9,6.9-21.6,19.8-21.6,12,0,19.2,6.3,19.2,21V114.48c0,23.7,9.9,37.2,34.5,37.2s33.9-13.8,33.9-37.5V25.38c0-5.4-1.2-10.2-6.9-10.2-6.3,0-7.8,4.5-7.8,10.8V118.08c0,13.2-7.8,18.9-19.8,18.9s-19.2-5.7-19.2-18.9V10.68c0-3.3,2.1-5.7,6-5.7s6,2.4,6,5.7Z"/><path class="cls-1" d="M389.54,157.08V26.88c0-5.4-.6-11.7-7.2-11.7-7.2,0-7.5,5.4-7.5,11.7V160.08c0,11.1,6.3,15.6,21.9,15.6s19.5-7.5,19.5-16.8V10.68c0-3.3,2.4-5.7,6-5.7,3.9,0,6,2.4,6,5.7V158.88c0,14.7-6.9,27.9-31.5,27.9-26.7,0-33.9-9-33.9-26.7V26.88c0-16.8,5.4-22.5,19.5-22.5,13.2,0,19.2,7.5,19.2,22.5V157.08c0,3-2.1,5.4-6,5.4-3.6,0-6-2.4-6-5.4Zm52.8,18c15.9,0,25.2-6,25.2-20.1,0-13.2-8.4-19.2-20.4-19.2-3,0-5.7-1.8-5.7-5.4,0-3.9,2.7-5.7,5.7-5.7,18.9,0,32.4,9,32.4,30.3s-12.6,31.2-37.2,31.2c-3,0-5.7-1.8-5.7-5.4,0-3.9,2.7-5.7,5.7-5.7Z"/><path class="cls-1" d="M524.84,157.08V26.28c0-5.1-.3-11.1-6.6-11.1-6.9,0-8.1,5.1-8.1,11.7V159.48c0,11.4,5.1,16.2,20.7,16.2,14.4,0,20.7-7.8,20.7-17.1V10.68c0-3.3,3-5.7,6-5.7s6,2.4,6,5.7V158.58c0,14.7-8.7,28.2-32.7,28.2-26.1,0-32.7-9.3-32.7-27.3V26.88c0-16.5,6.9-22.5,20.1-22.5s18.6,6.6,18.6,21.9V157.08c0,3-2.1,5.4-6,5.4s-6-2.4-6-5.4Zm54.3-30.6c7.2-2.1,12.6-13.2,12.6-30.6,0-16.2-5.1-26.4-12.6-32.7-8.1-6-8.4-17.4-3-24.9,6-7.8,19.5-9.6,31.2-1.2,12.9,9,24,29.7,24,57.3,0,40.5-17.7,60.6-40.5,65.4-3.9,.6-5.4,4.2-4.8,8.4,1.2,6.6,8.1,6.6,15,4.8,28.5-7.2,45.6-35.1,45.6-78.6s-20.4-78-52.8-78c-5.4,0-10.8,.6-15.6,1.5-2.7,.6-5.7-.3-6.6-4.2-.6-3.3,1.2-6,4.2-6.3,5.7-1.5,11.4-2.1,18-2.1,37.2,0,65.1,38.1,65.1,89.1s-22.8,81-55.2,89.4c-17.1,4.2-27-.9-29.4-13.2-2.1-11.7,3.9-19.8,14.4-21.9,18.9-3.9,30.6-23.1,30.6-54.3,0-22.5-7.5-40.8-18.3-48.3-5.4-3.9-12.6-5.1-15.6-.9-2.4,3-2.1,6.9,.6,9.6,9.6,7.8,18,19.8,18,41.1,0,27.6-12.3,38.7-21.9,41.1-3,.9-6-.3-6.6-3.6-.9-3.3,.9-6.3,3.6-6.9Z"/><path class="cls-1" d="M706.34,157.08V26.28c0-5.1-.3-11.1-6.6-11.1-6.9,0-8.1,5.1-8.1,11.7V159.48c0,11.4,5.1,16.2,20.7,16.2,14.4,0,20.7-7.8,20.7-17.1V10.68c0-3.3,2.4-5.7,6-5.7,4.2,0,6,2.4,6,5.7V158.58c0,14.7-8.7,28.2-32.7,28.2-26.1,0-32.7-9.3-32.7-27.3V26.88c0-16.5,6.9-22.5,20.1-22.5s18.6,6.6,18.6,21.9V157.08c0,3-2.1,5.4-6,5.4s-6-2.4-6-5.4ZM758.24,8.88c6-2.4,12.3-3.6,19.8-3.6,33.3,0,50.1,23.4,50.1,51,0,12-3.6,24.6-11.1,35.4-1.2,1.2-3,3.6-1.2,4.8,15,9,21.3,19.5,21.3,36.9,0,27.3-16.8,53.1-56.1,53.1-9.6,0-18-1.2-24.9-3.6-3-.6-4.8-3.6-3.6-6.9,.9-3.3,3.9-4.8,6.6-3.6,6.3,1.8,13.8,3,21.9,3,31.5,0,44.1-20.7,44.1-42,0-12.3-3.9-20.7-14.7-27.3-7.2-4.2-10.5-10.5-2.7-21.6,6.3-8.1,8.4-18.9,8.4-28.2,0-21-11.7-39.9-38.1-39.9-6,0-10.8,.6-15.3,2.7-2.7,1.2-6,.9-7.2-2.7-1.2-2.7,0-6.3,2.7-7.5Zm1.5,59.1v-24.6c0-8.7,6.3-13.8,16.2-13.8,11.4,0,25.2,8.4,25.2,30.6,0,20.4-8.4,36.6-33,36.6-3,0-5.4-1.8-5.4-5.7,0-3.3,2.7-5.4,5.7-5.4,17.4,.6,20.4-12.6,20.4-25.5,0-11.7-6.3-19.8-12.9-19.8-2.7,0-4.2,1.2-4.2,4.2v23.4c0,3-2.1,5.7-6,5.7-3.6,0-6-2.7-6-5.7Zm7.8,40.2c26.4-3.6,38.7,9.3,38.7,27,0,18.9-13.5,26.1-26.7,26.1-14.4,0-19.8-5.7-19.8-13.8v-12.6c0-3,2.4-5.4,6-5.4,3.9,0,6,2.4,6,5.4v12.6c0,3,4.8,2.7,7.8,2.7,7.8,0,14.7-4.5,14.7-15,0-11.7-9.3-18-25.2-15.9-3,0-6-1.2-6.3-4.8-.3-3.9,1.8-6,4.8-6.3Z"/><path class="cls-1" d="M893.53,46.08l-29.1,102.6c-3.6,12-3.6,26.7,12.3,26.7,10.2,0,14.7-6.6,14.7-13.2,0-7.2-3.3-12.6-9.6-14.4-3-.6-4.5-3.6-3.9-6.6,.9-3.6,4.2-4.5,6.9-3.9,11.4,3.3,18.9,11.7,18.9,24.9,0,12.3-8.4,24.3-27,24.3-23.4,0-30.6-18.3-24-40.8l29.4-102.6c.9-3,3.6-4.5,7.2-3.9,3.3,.9,5.1,4.2,4.2,6.9Zm67.8,112.5l-33.9-133.5c-1.5-5.4-3.9-9-8.1-9-6,0-7.5,6.6-6,12.9l9.6,39.3c3.6,14.1,.3,16.2-12,23.4-5.1,2.7-6.9,8.7-6.9,17.4,0,13.8,6.9,18.9,19.2,18.9,10.8,0,15.9,7.8,18.9,18.6l3,12c3,11.1,7.8,17.1,24,17.1,15,0,23.1-7.8,19.8-20.4L952.03,12.78c-.6-3,1.5-6,4.2-6.9,3-.6,6.6,1.2,7.5,3.9l36.6,142.5c5.4,19.5-5.7,34.5-31.2,34.5-24,0-31.2-8.4-35.4-25.2l-3-12c-1.2-4.2-1.8-10.5-7.5-10.5-19.2,0-31.2-7.2-31.2-30,0-15,5.7-22.8,13.5-27,5.7-3.3,7.5-4.2,6-10.8l-9.9-39.3c-4.5-18.9,5.7-27,17.7-27,8.7,0,16.2,3.6,19.5,17.1l34.2,133.5c.6,3-1.2,6-4.5,6.6-3.9,.9-6.3-.9-7.2-3.6Z"/><path class="cls-1" d="M1052.83,157.08V26.28c0-5.1-.3-11.1-6.6-11.1-6.9,0-8.1,5.1-8.1,11.7V159.48c0,11.4,5.1,16.2,20.7,16.2,14.4,0,20.7-7.8,20.7-17.1V10.68c0-3.3,2.4-5.7,6-5.7,3.9,0,6,2.4,6,5.7V158.58c0,14.7-8.7,28.2-32.7,28.2-26.1,0-32.7-9.3-32.7-27.3V26.88c0-16.5,6.9-22.5,20.1-22.5s18.6,6.6,18.6,21.9V157.08c0,3-2.1,5.4-6,5.4s-6-2.4-6-5.4Zm93.6,3.6l-12-19.5c-3.9-6.3-6.3-10.5-11.1-10.5-6.9,0-8.7,6.9-4.5,14.1l8.7,15c6.6,11.4,10.2,15.9,25.2,15.9,13.5,0,22.8-6,22.8-13.5,0-4.5-2.4-8.7-6.9-16.2l-11.1-17.7c-5.1-8.7-3.9-15.3,.9-20.1,8.4-8.4,12.6-18.9,12.6-37.8,0-33.9-16.8-53.4-45.9-53.4-6.9,0-12.9,.9-17.7,3-3,.9-6.6,0-7.2-3.3-.9-3.3,.6-6.3,3.3-7.5,6.3-1.8,13.2-3.3,21.6-3.3,35.4,0,57.9,21.6,57.9,64.5,0,23.7-6.6,35.4-16.5,45.6-1.8,1.8-.6,4.2,.6,6.3l11.1,17.7c6.3,9.9,9.3,16.2,9.3,22.2,0,11.7-9.6,24.6-34.8,24.6-20.4,0-26.1-5.1-35.4-21.6l-8.7-14.7c-9.6-17.1,1.2-30.9,14.7-30.9,8.1,0,13.5,3,21.3,15.6l11.7,19.5c1.5,2.4,.6,6.3-2.1,7.8s-6.3,.9-7.8-1.8Zm-32.4-61.8c19.5,1.8,27.9-8.7,27.9-27s-8.1-29.7-17.1-29.7c-3.6,0-6.3,3-6.3,7.5v31.5c0,3-2.4,5.4-6,5.4-3.9,0-6-2.4-6-5.4v-31.5c0-12.3,9-18.6,18.3-18.6,12.3,0,29.4,9.3,29.4,40.8,0,27-13.8,40.5-41.1,38.1-3-.3-5.4-2.4-5.1-6,.3-3.6,3-5.1,6-5.1Z"/></g><g><path class="cls-1" d="M773.06,330.32l-22.8-14c-12.4-7.6-20-20.6-20-34.8,0-22.2,16.8-38.8,45-38.8,32.8,0,42.6,16.2,42.6,28.8,0,7.2-4,14.6-13.8,14.6-7.2,0-9.8-4.6-14-11-3-4.6-7.2-7.8-15-7.8-12.2,0-17.6,7.2-17.6,14.8,0,6.4,3.6,10.4,10.4,14.2l11.8,6.6c16,9,21,14.8,21,24.8s-8.4,21.4-26.8,21.4c-14.2,0-21-4.6-25.6-12.4-2.6-4.4-3.2-7.8-8.2-7.8-3.4,0-5.6,3-5.6,6.6,0,11.6,12.2,23.6,37.8,23.6,27.4,0,39.4-14.2,39.8-31.8,.2-14.6-7.6-22-24.6-32.4l-15.2-9.2c-1.6-1-2-3.4-1-5,1-1.8,3.2-2.4,5.2-1.4l15,9.2c20.4,12.4,29,21.8,28.6,38.8-.4,21.2-14.4,39.2-47.8,39.2s-45.8-16.4-45.8-31c0-8.6,5.8-14,13.6-14s10.6,4.4,14.6,11,7.8,9.2,19.8,9.2,18-7,18-14c0-7.8-4.4-11.8-16.6-18.4l-11.8-6.6c-9.4-5-14.8-11.2-14.8-20.6,0-11,7.6-22.2,25.8-22.2,11.2,0,17.4,4.4,21.4,10.8,2.2,3.4,3.6,8,8,8,3.8,0,5.6-3.4,5.6-7.2,0-9.4-10.4-21.4-34.8-21.4-22.8,0-37,13.2-37,31.4,0,11.6,5.6,22.2,16,28.4l22.8,14c1.6,1,2.2,3.2,1.2,5-1,1.8-3.4,2.4-5.2,1.4Z"/><path class="cls-1" d="M851.86,367.72v-92c0-3.4-.2-7.4-4.4-7.4-4.6,0-5.4,3.4-5.4,7.8v93.4c0,7.6,3.4,10.8,13.8,10.8,9.6,0,13.8-5.2,13.8-11.4v-80.4c0-20,9.2-28.4,26.6-28.4,22.4,0,38.4,16.6,38.4,50.6,0,39.6-21.6,52.6-36.8,54.8-10.2,1.6-14.6-3.8-14.8-10.4-.2-5.8,3.4-9,8.2-11.2,10.6-4.8,18-13.4,18-33.2,0-14.6-6-25.6-12.4-25.6-4,0-5.2,3.6-3.4,6,4.6,6,7,12.6,6.8,21.2-.2,8.8-3.6,15.6-8,19.4-1.6,1.4-4,1.6-5.4-.4-1.2-1.6-1.2-4,.4-5.2,3.4-3,4.8-8,5-14.2,.2-6.6-1.8-12-5.2-16.8-5-6.8-1-17.2,9.8-17.2,8.8,0,20.4,8.8,20.4,32.8s-10.4,34.2-23,39.8c-1.8,.8-3.4,2-3.2,4.2,.2,2.6,2.4,4,5.8,3.4,13.2-1.8,29.6-14.8,29.6-47.4,0-27-11.2-43.2-30.2-43.2-13,0-18.6,7.2-18.6,21v80.4c0,9.8-6,18.8-21.8,18.8-17.6,0-22-6.2-22-18.2v-93.4c0-11,4.6-15,13.6-15s12.4,4.4,12.4,14.6v92c0,2-1.6,3.6-4,3.6-2.6,0-4-1.6-4-3.6Z"/><path class="cls-1" d="M964.66,346.12v-70.4c0-3.4-.2-7.4-4.4-7.4-4.6,0-5.4,3.4-5.4,7.8v72c0,7.4,3.4,10.4,13.8,10.4,9.6,0,13.8-5,13.8-11.2v-81.6c0-2,1.4-3.6,4-3.6,2.4,0,4,1.6,4,3.6v81.6c0,10-6,18.6-21.8,18.6-17.8,0-22-6-22-17.8v-72c0-11,4.6-15,13.6-15s12.4,4.4,12.4,14.6v70.4c0,2-1.6,3.6-4,3.6-2.6,0-4-1.6-4-3.6Zm-6.6-93c-6-3.6-9.2-9.8-9.2-17,0-10.8,7-19.4,20.6-19.4s19.6,8.6,19.6,19.4c0,7.2-3.6,13.8-9.4,17-1.8,1-4.4,.6-5.4-1.4s-.4-4.4,1.4-5.2c3.8-2.2,5.4-6.4,5.4-10.6,0-6.4-3.4-12-12-12s-12,5.6-12,12c0,4.2,1.6,8.4,5.2,10.6,1.8,1,2.2,3.4,1.2,5.2-1.2,2-3.8,2.4-5.4,1.4Z"/><path class="cls-1" d="M1024.06,346.12v-95.4c0-3.4-.2-7.4-4.4-7.4-4.6,0-5.4,3.4-5.4,7.8v96.6c0,7.6,3.4,10.8,13.8,10.8,9.6,0,13.8-5.2,13.8-11.4v-112c0-2,1.4-3.6,4-3.6,2.4,0,4,1.6,4,3.6v112c0,9.8-6,18.8-21.8,18.8-17.6,0-22-6.2-22-18.2v-96.6c0-11,4.6-15.2,13.6-15.2s12.4,4.6,12.4,14.8v95.4c0,2-1.6,3.6-4,3.6-2.6,0-4-1.6-4-3.6Z"/><path class="cls-1" d="M1083.46,346.12v-95.4c0-3.4-.2-7.4-4.4-7.4-4.6,0-5.4,3.4-5.4,7.8v96.6c0,7.6,3.4,10.8,13.8,10.8,9.6,0,13.8-5.2,13.8-11.4v-112c0-2,1.4-3.6,4-3.6,2.4,0,4,1.6,4,3.6v112c0,9.8-6,18.8-21.8,18.8-17.6,0-22-6.2-22-18.2v-96.6c0-11,4.6-15.2,13.6-15.2s12.4,4.6,12.4,14.8v95.4c0,2-1.6,3.6-4,3.6-2.6,0-4-1.6-4-3.6Z"/><path class="cls-1" d="M1180.66,312.12c0-6.6-2-11-6.8-11-6,0-7.8,5.8-7.8,11.4,0,8.4,4,12.4,13.2,12.4h22.8c11,0,15.2-7.4,15.2-16,0-27.2-17-42-42.8-42s-43.6,18.6-43.6,46.6c0,31.6,15,46,35.8,46,3.6,0,5.8-2,5.8-5.2,0-2.8-1-4.6-4.4-5-17.8-1.6-27.6-13-27.6-36.4s14-36.2,34.2-36.2,32.2,11.6,31.8,35.2c0,2-1.4,3.8-4.2,3.8s-3.8-1.8-3.8-3.8c.4-17.4-8.4-27.8-23.8-27.8-16.2,0-26.2,11.6-26.2,28.8s6.2,27.8,20.2,29c9.2,1,12,5.2,12,12.4,0,7.6-5.4,12.6-14,12.6-24.2,0-43.8-14.6-43.8-53.4,0-33,22-54,51.6-54s51,17.2,51,49.4c0,13-7.2,23.4-23.4,23.4h-22.8c-14.6,0-21.2-6.4-21.2-19.8,0-11.6,6-18.8,15.8-18.8,8.2,0,14.8,4,14.8,18.4,0,2-1.2,3.6-4,3.6-3,0-4-1.6-4-3.6Z"/><path class="cls-1" d="M1257.66,344.32c-1.8-3.2-2.2-7.8-2.2-12.4l.2-54.2c0-3.6,0-7.4-4.4-7.4s-5.4,3.4-5.4,7.6v54.2c0,15.2,5.8,25.8,23.2,25.8,2.6,0,4.2-1.4,4.2-4l.2-52.8c0-6.4,3.2-10.6,11-10.6,4.8,0,5.6-5.4,5.6-10.8s-.8-10.2-6.2-10.2c-7.2,0-10.6-2.6-10.6-10.6v-13.6c0-2.2-1.6-2.8-3.4-1.6l-15.4,10.4c-1.6,1.2-4,1.2-5.2-.8-1-1.8-.6-4,1-5.2l15.6-10.4c8-5.4,15.4-2,15.4,7v14.2c0,2,.6,3.2,2.6,3.2,9.4,0,14.2,4.6,14.2,17.6s-5.8,18-13.6,18c-2.6,0-3,1.6-3,3.4l-.2,52.8c0,7.2-4.8,11.4-12.2,11.4-22.4,0-31.4-12.6-31.4-33.2v-54.2c0-11,4.6-15,13.6-15s12.4,4.4,12.4,14.8l-.2,54.2c0,3.2,.2,6.6,1.4,8.8,1,1.6,.4,4-1.6,5s-4.6,.4-5.6-1.4Z"/></g></svg>