<?xml version="1.0" encoding="UTF-8"?><svg id="Layer_143" xmlns="http://www.w3.org/2000/svg" viewBox="0 0 460 460"><defs><style>.cls-1{fill:#025e73;}.cls-2{fill:#fff;}.cls-3{fill:#f5bb00;}.cls-4{fill:#ed9f05;}.cls-5{fill:#bb3e04;}.cls-6{fill:#ca6602;}.cls-7{fill:#0a9396;}.cls-8{fill:#35bfb6;}.cls-9{fill:#94d2bd;}.cls-10{fill:#302a2c;}</style></defs><g><circle class="cls-10" cx="230" cy="230" r="226"/><path class="cls-9" d="M230,230L389.8,70.19c20.99,20.99,37.64,45.9,49,73.32,11.36,27.42,17.21,56.81,17.21,86.49H230Z"/><path class="cls-7" d="M230,230l-.18-226c.06,0,.12,0,.18,0,59.72,0,117.07,23.67,159.4,65.79L230,230Z"/><path class="cls-1" d="M230,230L69.51,70.88c20.91-21.09,45.77-37.85,73.16-49.32,27.39-11.48,56.77-17.44,86.47-17.55l.86,226Z"/><path class="cls-8" d="M230,230H4s0,0,0,0c0-59.97,23.87-117.54,66.3-159.91L230,230Z"/><path class="cls-5" d="M230,230L70.42,390.03C27.91,347.64,4,290.02,4,230c0-.02,0-.05,0-.07l226,.07Z"/><path class="cls-6" d="M230,230l.76,226c-.25,0-.51,0-.76,0-59.79,0-117.2-23.73-159.55-65.94L230,230Z"/><path class="cls-4" d="M230,230l160.3,159.31c-20.92,21.05-45.79,37.78-73.18,49.22-27.39,11.44-56.76,17.38-86.45,17.47l-.68-226Z"/><path class="cls-3" d="M230,230h226c0,29.69-5.85,59.08-17.21,86.51-11.36,27.42-28.02,52.34-49.01,73.33L230,230Z"/><circle class="cls-10" cx="229.5" cy="229.5" r="3.5"/></g><g><path class="cls-2" d="M300.38,189.5l8.49,24.63-10.78,3.72-8.49-24.63,10.78-3.72Zm4.16-1.43c4.87-1.68,9.83-.48,12.34,6.8l5.09,14.75-11.16,3.85-8.49-24.63,2.22-.77Z"/><path class="cls-2" d="M318.52,171.4c3.64-1.25,5.97-.79,7.04,2.33,1.14,3.31-.66,5.3-3.92,6.43-3.69,1.27-5.97,.79-7.03-2.28-1.14-3.31,.64-5.35,3.9-6.48Zm9.04,8.73l8.49,24.63-10.78,3.72-8.49-24.63,10.78-3.72Z"/><path class="cls-2" d="M342.02,175.14l2.84-.98,3.33,9.64-2.84,.98,5.33,15.46c-7.47,2.58-11.97,1.48-14.55-5.98l-5.27-15.27,8.56-11.36,2.59,7.52Z"/><path class="cls-2" d="M359.04,169.27l2.84-.98,3.33,9.64-2.84,.98,5.33,15.46c-7.47,2.58-11.97,1.48-14.55-5.98l-5.27-15.27,8.56-11.36,2.59,7.52Z"/><path class="cls-2" d="M380.71,179.36l12.29-4.24c2.3,5.45-.49,10.85-7.53,13.28-8.75,3.02-13.66,.58-16.75-8.4-3.34-9.69,0-14.71,6.39-16.91l5.61,16.26Zm-3.72-16.91c7.52-2.59,13.41,.4,16.27,10.68l-11.25,3.88-5.02-14.56Z"/><path class="cls-2" d="M402.19,154.39l8.49,24.63-10.78,3.72-8.49-24.63,10.78-3.72Zm4.16-1.43c4.87-1.68,9.83-.48,12.34,6.8l5.09,14.75-11.16,3.85-8.49-24.63,2.22-.77Z"/></g><g><path class="cls-2" d="M252.86,167.51l-.48,.92c-2.47,4.76-6,6.71-11.26,3.98-5.57-2.89-5.74-7.44-3.55-11.66l.48-.92,14.8,7.68Zm-14.05-9.13l4.35-8.38,13.56,7.04c6.5,3.37,7,8.05,4.86,12.16l-.4,.78-22.37-11.6Zm10.76,18.24l4.46-8.59,6.5,3.37c-2.82,5.43-6.83,7.36-10.95,5.22Z"/><path class="cls-2" d="M255.71,143.08l11.43,5.93-4.2,8.09-18.5-9.6,11.26-4.43Zm-7.08,1.06c-1.46-1.44-1.86-3.62-.74-5.79,1.44-2.77,4.4-3.8,7.14-2.38,1.92,.99,2.8,2.67,2.81,4.39l-9.21,3.78Z"/><path class="cls-2" d="M258.06,121.27l21.52,3.77-4.59,8.84-21.59-3.63,4.66-8.98Zm2.02,11.82l13.68,2.28c0,.77-.41,2.09-1.05,3.33-1.86,3.58-5.13,4.41-9.07,2.37-3.16-1.64-4.51-4.86-3.57-7.98Z"/><path class="cls-2" d="M265.91,106.15l1.1-2.13,7.24,3.76-1.1,2.13,11.61,6.02c-2.91,5.61-6.12,7.46-11.73,4.55l-11.47-5.95-1.3-11.31,5.64,2.93Z"/><path class="cls-2" d="M262.34,93.57c1.42-2.73,3.03-3.75,5.37-2.53,2.48,1.29,2.54,3.44,1.27,5.89-1.44,2.77-3.03,3.75-5.33,2.55-2.48-1.29-2.58-3.46-1.31-5.9Zm10.05,.08l18.5,9.59-4.2,8.09-18.5-9.59,4.2-8.09Z"/><path class="cls-2" d="M276.46,85.53l.41-.78,5.47,2.83,3.88-3.39c2.5-2.22,4.73-2.68,7.14-1.43,3.87,2.01,5.45,5.21,3.42,9.12l-.37,.71-4.19-2.17-3.23,3.01c-2.83,2.59-5.07,3.18-8.69,1.3-4.4-2.28-5.53-5.93-3.83-9.2Zm3.44-8.8l7.38,4.46-5.15,4.45-4.54-2.36,2.32-6.55Zm12.64,15.75l3.09,1.6-3.48,6.71-6.14-3.19,6.53-5.13Z"/><path class="cls-2" d="M306.74,70.69c-2.42,1.45-5.67,1.29-9.97-.94-7.17-3.72-7.87-8.54-5.68-12.77l.41-.78,18.99,9.85-.41,.78c-.37,.71-.77,1.31-1.19,1.86l1.89,2.78-1.53,2.95-2.52-3.74Zm-14.08-16.72c.29-.57,.62-1.12,1.01-1.59l-1.82-2.75,1.53-2.95,2.48,3.72c2.47-1.47,5.89-1.54,10.5,.85,6.75,3.5,7.74,7.84,5.29,12.56l-.41,.78-18.99-9.85,.41-.78Z"/><path class="cls-2" d="M296.85,33.38l23.86,12.38-4.2,8.09-22.65-11.75,2.99-8.72Z"/></g><g><path class="cls-2" d="M55.24,299.94l12.15,23.05-10.09,5.32-12.15-23.05,10.09-5.32Zm3.89-2.05c4.56-2.4,9.64-1.97,13.23,4.84l7.27,13.8-10.44,5.5-12.14-23.05,2.08-1.1Z"/><path class="cls-2" d="M70.41,279.29c3.41-1.79,5.78-1.69,7.32,1.23,1.63,3.1,.16,5.34-2.89,6.95-3.45,1.82-5.78,1.69-7.29-1.19-1.63-3.1-.18-5.39,2.87-7Zm10.27,7.25l12.14,23.05-10.09,5.32-12.15-23.05,10.09-5.32Z"/><path class="cls-2" d="M94.21,279.41l2.65-1.4,4.76,9.02-2.65,1.4,7.62,14.46c-6.99,3.68-11.61,3.29-15.29-3.7l-7.53-14.29,6.73-12.54,3.71,7.03Z"/><path class="cls-2" d="M110.13,271.02l2.65-1.4,4.76,9.02-2.65,1.4,7.62,14.46c-6.99,3.68-11.61,3.29-15.29-3.7l-7.53-14.29,6.73-12.53,3.71,7.03Z"/><path class="cls-2" d="M133.09,277.68l11.5-6.06c3.11,5.03,1.17,10.8-5.42,14.27-8.18,4.31-13.41,2.66-17.84-5.75-4.78-9.07-2.23-14.54,3.74-17.68l8.02,15.22Zm-6.25-16.15c7.03-3.71,13.32-1.65,17.71,8.08l-10.53,5.55-7.18-13.62Z"/><path class="cls-2" d="M150.51,249.73l12.15,23.05-10.09,5.32-12.14-23.05,10.09-5.32Zm3.89-2.05c4.56-2.4,9.64-1.97,13.23,4.84l7.27,13.8-10.44,5.5-12.15-23.05,2.08-1.1Z"/></g><g><path class="cls-2" d="M267.6,289.48l-23.89,10.38-4.54-10.46,23.89-10.38,4.54,10.46Zm1.75,4.04c2.05,4.72,1.24,9.76-5.82,12.83l-14.31,6.22-4.7-10.82,23.89-10.38,.94,2.16Z"/><path class="cls-2" d="M279.06,315.85l-23.89,10.38-4.54-10.46,23.89-10.38,4.54,10.46Zm8-9.69c1.53,3.53,1.25,5.89-1.78,7.2-3.21,1.4-5.34-.24-6.71-3.41-1.55-3.58-1.25-5.89,1.73-7.18,3.21-1.39,5.38,.22,6.76,3.39Z"/><path class="cls-2" d="M285.15,329.88l1.2,2.75-9.36,4.06-1.2-2.75-15,6.52c-3.15-7.25-2.41-11.82,4.84-14.97l14.81-6.44,12,7.66-7.29,3.17Z"/><path class="cls-2" d="M292.33,346.39l1.2,2.75-9.36,4.06-1.2-2.75-15,6.52c-3.15-7.25-2.41-11.82,4.84-14.97l14.81-6.44,11.99,7.66-7.29,3.17Z"/><path class="cls-2" d="M283.95,368.78l5.18,11.92c-5.25,2.72-10.86,.36-13.83-6.48-3.69-8.48-1.64-13.57,7.07-17.36,9.4-4.08,14.66-1.14,17.35,5.05l-15.78,6.85Zm16.57-5.02c3.17,7.29,.64,13.4-9.38,17.05l-4.74-10.92,14.12-6.14Z"/><path class="cls-2" d="M310.52,388.26l-23.89,10.38-4.54-10.46,23.89-10.38,4.54,10.46Zm1.75,4.04c2.05,4.72,1.24,9.76-5.82,12.83l-14.31,6.22-4.7-10.82,23.89-10.38,.94,2.16Z"/></g><g><path class="cls-2" d="M172.59,60.48l-23.89,10.38-4.54-10.46,23.89-10.38,4.54,10.46Zm1.75,4.04c2.05,4.72,1.24,9.76-5.82,12.83l-14.31,6.22-4.7-10.82,23.89-10.38,.94,2.16Z"/><path class="cls-2" d="M184.05,86.84l-23.89,10.38-4.54-10.46,23.89-10.38,4.54,10.46Zm8-9.69c1.53,3.53,1.25,5.89-1.78,7.2-3.21,1.4-5.34-.24-6.71-3.41-1.55-3.58-1.25-5.89,1.73-7.18,3.21-1.39,5.38,.22,6.76,3.39Z"/><path class="cls-2" d="M190.15,100.88l1.2,2.75-9.36,4.06-1.2-2.75-15,6.52c-3.15-7.25-2.41-11.82,4.84-14.97l14.81-6.44,12,7.66-7.29,3.17Z"/><path class="cls-2" d="M197.32,117.39l1.2,2.75-9.36,4.06-1.2-2.75-15,6.52c-3.15-7.25-2.41-11.82,4.84-14.97l14.81-6.44,11.99,7.66-7.29,3.17Z"/><path class="cls-2" d="M188.95,139.78l5.18,11.92c-5.25,2.72-10.86,.36-13.83-6.48-3.69-8.48-1.64-13.57,7.07-17.36,9.4-4.08,14.66-1.14,17.35,5.05l-15.78,6.85Zm16.57-5.02c3.17,7.29,.64,13.4-9.38,17.05l-4.74-10.92,14.12-6.14Z"/><path class="cls-2" d="M215.51,159.25l-23.89,10.38-4.54-10.46,23.89-10.38,4.54,10.46Zm1.75,4.04c2.05,4.72,1.24,9.76-5.82,12.83l-14.31,6.22-4.7-10.82,23.89-10.38,.94,2.16Z"/></g><g><path class="cls-2" d="M274.45,251.77l8.59,4.46-3.37,6.5c-5.43-2.82-7.36-6.83-5.22-10.95Zm9.11,3.28l-.92-.48c-4.76-2.47-6.71-6-3.98-11.26,2.89-5.57,7.44-5.74,11.66-3.55l.92,.48-7.68,14.8Zm9.14-14.05l8.38,4.35-7.04,13.56c-3.37,6.5-8.04,7-12.16,4.86l-.78-.4,11.6-22.37Z"/><path class="cls-2" d="M307.99,257.91l-5.93,11.43-8.09-4.2,9.59-18.5,4.43,11.26Zm-1.06-7.08c1.43-1.46,3.62-1.86,5.79-.74,2.77,1.44,3.8,4.4,2.38,7.14-.99,1.92-2.67,2.8-4.39,2.81l-3.78-9.21Z"/><path class="cls-2" d="M317.98,262.28l-2.28,13.68c-.77,0-2.09-.41-3.33-1.05-3.59-1.86-4.41-5.13-2.37-9.07,1.64-3.16,4.86-4.51,7.98-3.57Zm11.82-2.02l-3.77,21.52-8.84-4.59,3.63-21.59,8.98,4.66Z"/><path class="cls-2" d="M344.93,268.1l2.13,1.1-3.76,7.24-2.13-1.1-6.02,11.61c-5.61-2.91-7.46-6.12-4.55-11.73l5.95-11.47,11.31-1.3-2.93,5.64Z"/><path class="cls-2" d="M357.42,274.58l-9.6,18.5-8.09-4.2,9.6-18.5,8.09,4.2Zm.08-10.05c2.73,1.42,3.75,3.03,2.53,5.37-1.29,2.48-3.44,2.54-5.89,1.27-2.77-1.44-3.75-3.03-2.55-5.33,1.29-2.48,3.45-2.58,5.9-1.31Z"/><path class="cls-2" d="M358.59,294.74l-1.6,3.09-6.71-3.48,3.19-6.14,5.12,6.53Zm6.95-16.08l.78,.41-2.84,5.47,3.39,3.88c2.22,2.5,2.68,4.73,1.43,7.14-2.01,3.87-5.21,5.45-9.12,3.42l-.71-.37,2.17-4.19-3.01-3.23c-2.59-2.83-3.18-5.07-1.3-8.69,2.28-4.4,5.93-5.53,9.2-3.83Zm8.8,3.44l-4.46,7.38-4.45-5.15,2.36-4.54,6.55,2.32Z"/><path class="cls-2" d="M380.39,308.93c-1.45-2.42-1.29-5.67,.94-9.97,3.72-7.17,8.54-7.87,12.77-5.68l.78,.41-9.85,18.99-.78-.41c-.71-.37-1.31-.77-1.86-1.19l-2.78,1.89-2.95-1.53,3.74-2.52Zm16.72-14.08c.57,.29,1.12,.62,1.6,1.01l2.75-1.82,2.95,1.53-3.72,2.48c1.46,2.47,1.54,5.89-.85,10.5-3.5,6.75-7.84,7.74-12.56,5.29l-.78-.41,9.85-18.99,.78,.41Z"/><path class="cls-2" d="M417.69,299.04l-12.38,23.86-8.09-4.2,11.75-22.65,8.72,2.99Z"/></g><g><path class="cls-2" d="M29.92,169.17l-.86-.29c-3.94-1.35-6.41-4.08-4.94-8.24l7.81,2.68-2.01,5.86Zm6.96-20.3l-4.48,13.08-7.52-2.58,5.05-12.89,6.95,2.38Zm-.9,9.75c3.81,1.31,6.49,3.96,5.06,8.13-1.36,3.97-4.62,4.63-8.93,3.16l-.79-.27,3.87-11.29,.79,.27Zm2.29-9.28l7.25,2.49-3.18,7.46-6.69-2.29,2.62-7.65Z"/><path class="cls-2" d="M44.83,172.39c-1.44-2.38-1.56-5.71-.21-9.66,2.22-6.49,6.69-9.36,12.02-7.54,1.62,.56,3.03,1.41,3.91,2.52l-15.72,14.67Zm16.62-13.4c1.38,2.44,1.52,5.81,.21,9.65-2.24,6.52-6.69,9.25-12.05,7.42-1.59-.54-2.94-1.34-3.85-2.36l15.7-14.71Z"/><path class="cls-2" d="M68.41,175.18c-1.07-1.74-1.17-4.25-.18-7.13,1.65-4.8,4.96-6.92,8.97-5.55,1.19,.41,2.27,1.04,2.91,1.88l-11.69,10.79Zm12.4-9.85c1.01,1.79,1.13,4.27,.14,7.15-.09,.26-.18,.53-.29,.75l6.61-7.09,2.25,.77-4.86,5.22c1.32-.51,2.8-.52,4.39,.03,1.19,.41,2.27,1.04,2.91,1.88l-11.7,10.83c-1.06-1.77-1.16-4.28-.17-7.16,.14-.4,.26-.76,.41-1.08l-6.75,7.27-2.25-.77,4.69-5.05c-1.26,.42-2.68,.38-4.21-.15-1.19-.41-2.18-.97-2.89-1.73l11.71-10.86Zm11.86,9.65c1,1.82,1.12,4.27,.14,7.15-1.66,4.83-4.93,6.82-8.97,5.44-1.19-.41-2.18-.97-2.88-1.73l11.71-10.86Z"/><path class="cls-2" d="M113.06,185.45l-3.65,10.66-7.55-2.59,5.91-17.25,5.29,9.18Zm-1.83-5.99c1.05-1.45,2.89-2.08,4.92-1.39,2.58,.89,3.86,3.32,2.98,5.87-.61,1.79-1.95,2.77-3.43,3l-4.46-7.49Z"/><path class="cls-2" d="M122.8,200.85c-3.81-1.31-6.42-4.16-4.73-9.09l3.67-10.7,7.82,2.68-5.96,17.38-.79-.27Zm8.11-16.65l7.55,2.59-3.67,10.7c-1.69,4.93-5.4,5.62-9.11,4.35l-.73-.25,5.96-17.38Z"/><path class="cls-2" d="M148.33,190.17l-5.91,17.25-7.55-2.59,5.91-17.25,7.55,2.59Zm2.91,1c3.41,1.17,5.63,3.97,3.89,9.07l-3.54,10.33-7.81-2.68,5.91-17.25,1.56,.53Z"/><path class="cls-2" d="M161.62,214.01l-.86-.29c-4.44-1.52-6.42-4.79-4.32-10.92,2.22-6.49,6.3-7.69,10.24-6.33l.86,.29-5.91,17.25Zm16.53-19.2l-7.63,22.25-7.55-2.59,7.24-21.12,7.94,1.46Z"/><path class="cls-2" d="M182.27,214.09l8.61,2.95c-1.07,4-4.94,5.78-9.88,4.09-6.13-2.1-7.79-5.56-5.63-11.85,2.33-6.79,6.33-8.12,10.8-6.58l-3.9,11.39Zm5.23-10.94c5.26,1.8,7.23,5.99,4.38,12.9l-7.88-2.7,3.5-10.2Z"/></g><g><path class="cls-2" d="M139,412.18l12.6,5.69-3.27,7.24-12.35-6.23,3.03-6.7Zm.61-1.34l3.16-6.99,7.12,3.87-2.91,6.44-7.37-3.33Zm9.02,3.15c1.66-3.67,4.55-6.08,8.57-4.27,3.83,1.73,4.18,5.04,2.31,9.18l-.35,.77-10.88-4.91,.35-.77Zm9.93,7.02l-.38,.83c-1.71,3.8-4.67,6-8.67,4.15l3.4-7.53,5.65,2.55Z"/><path class="cls-2" d="M163.17,406.46c-2.51,1.21-5.84,1.01-9.63-.7-6.25-2.82-8.7-7.54-6.38-12.67,.71-1.56,1.69-2.89,2.88-3.65l13.13,17.03Zm-11.78-17.8c2.56-1.15,5.93-.97,9.63,.7,6.28,2.84,8.58,7.53,6.25,12.69-.69,1.53-1.61,2.81-2.71,3.62l-13.17-17.01Z"/><path class="cls-2" d="M168.16,383.26c-1.83,.9-4.34,.77-7.12-.49-4.62-2.09-6.42-5.59-4.68-9.45,.52-1.15,1.25-2.16,2.15-2.72l9.65,12.65Zm-8.64-13.27c1.88-.84,4.36-.72,7.13,.53,.25,.11,.51,.23,.72,.36l-6.44-7.25,.98-2.17,4.74,5.33c-.38-1.36-.25-2.84,.44-4.37,.52-1.15,1.25-2.16,2.15-2.72l9.68,12.67c-1.86,.89-4.37,.75-7.15-.5-.38-.17-.73-.33-1.04-.51l6.61,7.4-.98,2.17-4.59-5.15c.3,1.29,.12,2.71-.54,4.17-.52,1.15-1.17,2.08-1.99,2.71l-9.71-12.68Zm10.72-10.9c1.91-.83,4.36-.72,7.13,.53,4.66,2.1,6.33,5.55,4.57,9.44-.52,1.15-1.17,2.08-1.99,2.71l-9.71-12.68Z"/><path class="cls-2" d="M182.58,339.77l10.27,4.64-3.29,7.27-16.62-7.51,9.63-4.41Zm-6.14,1.26c-1.35-1.18-1.8-3.08-.92-5.02,1.12-2.49,3.67-3.53,6.12-2.42,1.72,.78,2.58,2.2,2.67,3.7l-7.87,3.74Z"/><path class="cls-2" d="M198.83,331.51c-1.66,3.67-4.74,6-9.5,3.85l-10.3-4.65,3.4-7.53,16.75,7.57-.35,.76Zm-15.81-9.64l3.29-7.27,10.3,4.65c4.75,2.15,5.09,5.91,3.48,9.48l-.32,.7-16.75-7.57Z"/><path class="cls-2" d="M190.6,305.1l16.62,7.51-3.29,7.27-16.62-7.51,3.29-7.27Zm1.27-2.81c1.48-3.29,4.48-5.24,9.39-3.02l9.95,4.5-3.4,7.53-16.62-7.51,.68-1.5Z"/><path class="cls-2" d="M198.01,275.84l21.44,9.68-3.29,7.27-20.35-9.19,2.2-7.76Zm17.56,18.26l-.37,.83c-1.93,4.27-5.38,5.95-11.28,3.28-6.25-2.82-7.06-6.99-5.34-10.79l.38-.83,16.62,7.51Z"/><path class="cls-2" d="M217.6,273.55l3.75-8.29c3.88,1.44,5.29,5.46,3.14,10.22-2.67,5.9-6.26,7.23-12.33,4.5-6.54-2.95-7.49-7.07-5.54-11.38l10.97,4.96Zm-10.4-6.23c2.29-5.07,6.65-6.64,13.25-3.15l-3.43,7.59-9.83-4.44Z"/></g></svg>