<?xml version="1.0" encoding="UTF-8"?><svg id="Layer_111" xmlns="http://www.w3.org/2000/svg" viewBox="0 0 140 220"><defs><style>.cls-1{fill:#f2f0e9;}.cls-2{fill:#687922;}.cls-3{fill:#999;}.cls-4{fill:#98a824;}.cls-5{fill:#ccc;}.cls-6{fill:#d9d9d9;}.cls-7{fill:#899936;}</style></defs><g><path class="cls-3" d="M91.69,180.34c-12.56,1.02-31.94,1.19-44.54,.51-15.51-.84-24.74-9.38-24.8-26.33-.07-17.83,.24-42.22,.8-59.95,.53-16.85,9.55-25.1,24.83-26.43,12.42-1.07,31.55-1.59,44.05-.89,15.38,.86,24.36,9.72,24.98,26.53,.65,17.67,.69,42.27-.05,60.01-.7,16.86-9.81,25.3-25.26,26.56Z"/><path class="cls-4" d="M116.53,162.86c-31.11,0-62.24-.51-93.33,.57-.16-39.22,.33-78.48,.31-117.71,31.01,0,62.01,0,93.02,0,0,39.05,0,78.1,0,117.15Z"/><path class="cls-4" d="M24.33,155.85c-.77-21.79-.97-47.6-.52-69.41,.18-8.61,4.03-12.63,12.36-13.12,21.11-1.24,46.52-1.31,67.64-.04,8.34,.5,12.24,4.69,12.3,13.13,.14,21.38-.34,46.24-.53,67.6-.08,8.43-3.79,12.83-12.04,13.4-20.9,1.45-45.79,1.87-66.72,1.29-8.27-.23-12.18-4.26-12.49-12.85Z"/><path class="cls-7" d="M64.84,171.21c-14.71,0-28.77-2.75-41.06-8.28-1.01-.45-1.46-1.64-1-2.65,.46-1.01,1.64-1.45,2.65-1,24.87,11.19,57.45,10.5,87.41-1.8-.4-25.13-.47-50.65-.54-75.34-.03-10.65-.06-21.29-.12-31.94,0-1.1,.88-2,1.99-2.01h.01c1.1,0,1.99,.89,2,1.99,.06,10.65,.09,21.3,.12,31.95,.07,25.12,.15,51.1,.57,76.64,.01,.82-.47,1.56-1.22,1.88-16.63,7.03-34.13,10.56-50.8,10.56Z"/><path class="cls-6" d="M116.53,45.76c-.1-5.38-38.94-5.36-46.57-5.43-7.62-.07-45.94,.81-45.57,6.14,.37,5.34,37.9,4.64,45.4,4.72,7.49,.07,46.84-.06,46.74-5.43Z"/><path class="cls-5" d="M71.23,52.29h-.77c-43.98-.05-46.59-3.38-47.44-4.48-.21-.26-.35-.56-.44-.86-.25-.66-.3-1.57,.19-2.51,.87-1.67,3.53-6.77,47.24-7.16,29-.27,45.15,1.95,47.99,6.56,.57,.93,.61,1.85,.43,2.53-.08,.4-.26,.78-.54,1.13-2.6,3.19-18.3,4.8-46.66,4.8Zm-44.08-6.63c2.86,.88,12.41,2.6,43.32,2.63,31.47,.05,40.76-1.97,43.42-2.93-2.21-1.31-10.87-4.38-43.84-4.08-31.77,.28-40.53,3.06-42.9,4.38Zm-.7,1.17s0,0,0,0c0,0,0,0,0,0Zm0,0s0,0,0,0c0,0,0,0,0,0Zm.04-.23c0,.08-.02,.15-.04,.23,.02-.08,.03-.16,.04-.23Zm88.03-.28s0,0,0,0c0,0,0,0,0,0Zm0,0s0,0,0,0c0,0,0,0,0,0Zm0,0s0,0,0,0c0,0,0,0,0,0Zm0,0s0,0,0,0c0,0,0,0,0,0Zm0-.01s0,0,0,.01c0,0,0,0,0-.01Zm0,0s0,0,0,0c0,0,0,0,0,0Zm0,0s0,0,0,0c0,0,0,0,0,0Zm0-.02s0,.01,0,.02c0,0,0,0,0-.02Zm0,0s0,0,0,0c0,0,0,0,0,0Zm0,0s0,0,0,0c0,0,0,0,0,0Zm0,0h0s0,0,0,0Zm-88.35-1.02h0Z"/><g><path class="cls-5" d="M22.64,164.92h-.03c-1.1-.02-1.99-.93-1.97-2.03,.61-38.58,1.24-77.17,1.86-115.75,.02-1.09,.91-1.97,2-1.97h.03c1.1,.02,1.99,.93,1.97,2.03-.62,38.58-1.25,77.17-1.86,115.75-.02,1.09-.91,1.97-2,1.97Z"/><path class="cls-5" d="M117.3,163.66c-1.1,0-1.99-.89-2-1.99-.3-41.4-.58-78.77-.95-116.86-.01-1.1,.88-2.01,1.98-2.02,1.12-.02,2.01,.88,2.02,1.98,.36,38.09,.64,75.46,.95,116.87,0,1.1-.88,2.01-1.99,2.01h-.01Z"/></g><path class="cls-5" d="M68.15,173.8c-15.36,0-30.75-2.76-45.79-8.29-1.04-.38-1.57-1.53-1.19-2.57,.38-1.04,1.53-1.57,2.57-1.19,30.58,11.25,62.7,10.68,92.86-1.63,1.02-.42,2.19,.07,2.61,1.1,.42,1.02-.07,2.19-1.1,2.61-16.28,6.64-33.1,9.97-49.97,9.97Z"/><path class="cls-5" d="M32.49,179.22c-.41,0-.83-.13-1.19-.39-5.06-3.74-8.06-8.03-10.34-14.8-.35-1.05,.21-2.18,1.26-2.53,1.05-.35,2.18,.21,2.53,1.26,2.02,6,4.52,9.61,8.93,12.86,.89,.66,1.08,1.91,.42,2.8-.39,.53-1,.81-1.61,.81Z"/><path class="cls-5" d="M107.88,177.27c-.67,0-1.33-.34-1.71-.96-.58-.94-.28-2.17,.66-2.75,4.86-2.98,6.4-5.46,8.53-11.37,.37-1.04,1.52-1.58,2.56-1.2,1.04,.38,1.58,1.52,1.2,2.56-2.3,6.37-4.32,9.82-10.21,13.43-.33,.2-.69,.29-1.04,.29Z"/><path class="cls-5" d="M68.4,182.78c-19.36,0-34.61-3.04-35.64-3.25-1.08-.22-1.78-1.28-1.56-2.36,.22-1.08,1.28-1.78,2.36-1.56,.4,.08,40.27,8.02,72.73-1.79,1.06-.31,2.17,.28,2.49,1.34,.32,1.06-.28,2.17-1.34,2.49-12.95,3.91-26.82,5.13-39.05,5.13Z"/></g><g><ellipse class="cls-6" cx="71.69" cy="84.06" rx="16.23" ry="13.74"/><ellipse class="cls-6" cx="73" cy="118.85" rx="28.96" ry="30.22"/><ellipse class="cls-6" cx="71.69" cy="83.69" rx="14.48" ry="11.54"/><ellipse class="cls-6" cx="72.91" cy="118.94" rx="27.11" ry="28.29"/><rect class="cls-6" x="45.8" y="111.53" width="54.41" height="13.74"/><g><path class="cls-6" d="M53.55,113.4h7.32v1.14h-3v8.87h-1.3v-8.87h-3.01v-1.14Z"/><path class="cls-6" d="M62.43,120.56v-4.65h1.18v4.65c0,.68,.11,1.17,.34,1.49,.23,.32,.58,.48,1.06,.48,.56,0,.98-.2,1.28-.61,.3-.41,.44-1,.44-1.76v-4.25h1.19v7.5h-1.19v-1.13c-.21,.43-.5,.76-.86,.99-.36,.22-.79,.33-1.27,.33-.74,0-1.29-.25-1.65-.75-.36-.5-.54-1.26-.54-2.28Z"/><path class="cls-6" d="M73.72,120.69c0,.55,.1,.97,.29,1.25,.19,.28,.48,.42,.86,.42h1.38v1.04h-1.5c-.71,0-1.25-.24-1.64-.71-.39-.47-.58-1.14-.58-2.01v-6.79h-1.9v-.97h3.08v7.76Z"/><path class="cls-6" d="M81.64,120.69c0,.55,.1,.97,.29,1.25,.2,.28,.48,.42,.86,.42h1.38v1.04h-1.5c-.71,0-1.25-.24-1.64-.71-.39-.47-.58-1.14-.58-2.01v-6.79h-1.9v-.97h3.08v7.76Z"/><path class="cls-6" d="M92.15,119.04v.6h-5.12v.04c-.03,1.02,.15,1.76,.56,2.21,.41,.45,.99,.67,1.73,.67,.38,0,.77-.06,1.18-.19,.41-.13,.85-.32,1.32-.57v1.23c-.45,.19-.88,.34-1.3,.43-.42,.1-.82,.14-1.21,.14-1.12,0-1.99-.35-2.62-1.05-.63-.7-.95-1.66-.95-2.89s.31-2.16,.93-2.87c.62-.72,1.44-1.07,2.47-1.07,.92,0,1.64,.32,2.17,.97s.81,1.43,.85,2.35Zm-1.18-.36c-.05-.52-.23-.97-.54-1.34s-.76-.57-1.34-.57-1.04,.2-1.41,.59c-.37,.39-.57,.84-.6,1.33h3.89Z"/></g></g><g><ellipse class="cls-1" cx="69.58" cy="82.34" rx="16.23" ry="13.74"/><ellipse class="cls-1" cx="70.9" cy="117.13" rx="28.96" ry="30.22"/><ellipse class="cls-2" cx="69.58" cy="81.97" rx="14.48" ry="11.54"/><ellipse class="cls-2" cx="70.81" cy="117.22" rx="27.11" ry="28.29"/><rect class="cls-1" x="43.7" y="109.81" width="54.41" height="13.74"/><g><path d="M51.45,111.68h7.32v1.14h-3v8.87h-1.3v-8.87h-3.01v-1.14Z"/><path d="M60.32,118.84v-4.65h1.18v4.65c0,.68,.11,1.17,.34,1.49,.23,.32,.58,.48,1.06,.48,.56,0,.98-.2,1.28-.61,.3-.41,.44-1,.44-1.76v-4.25h1.19v7.5h-1.19v-1.13c-.21,.43-.5,.76-.86,.99-.36,.22-.79,.33-1.27,.33-.74,0-1.29-.25-1.65-.75-.36-.5-.54-1.26-.54-2.28Z"/><path d="M71.62,118.97c0,.55,.1,.97,.29,1.25,.19,.28,.48,.42,.86,.42h1.38v1.04h-1.5c-.71,0-1.25-.24-1.64-.71-.39-.47-.58-1.14-.58-2.01v-6.79h-1.9v-.97h3.08v7.76Z"/><path d="M79.54,118.97c0,.55,.1,.97,.29,1.25,.2,.28,.48,.42,.86,.42h1.38v1.04h-1.5c-.71,0-1.25-.24-1.64-.71-.39-.47-.58-1.14-.58-2.01v-6.79h-1.9v-.97h3.08v7.76Z"/><path d="M90.04,117.32v.6h-5.12v.04c-.03,1.02,.15,1.76,.56,2.21,.41,.45,.99,.67,1.73,.67,.38,0,.77-.06,1.18-.19,.41-.13,.85-.32,1.32-.57v1.23c-.45,.19-.88,.34-1.3,.43-.42,.1-.82,.14-1.21,.14-1.12,0-1.99-.35-2.62-1.05-.63-.7-.95-1.66-.95-2.89s.31-2.16,.93-2.87c.62-.72,1.44-1.07,2.47-1.07,.92,0,1.64,.32,2.17,.97s.81,1.43,.85,2.35Zm-1.18-.36c-.05-.52-.23-.97-.54-1.34s-.76-.57-1.34-.57-1.04,.2-1.41,.59c-.37,.39-.57,.84-.6,1.33h3.89Z"/></g></g></svg>