<?xml version="1.0" encoding="UTF-8"?><svg id="Layer_146" xmlns="http://www.w3.org/2000/svg" viewBox="0 0 265 235"><defs><style>.cls-1{fill:#f3d3a3;}.cls-2{fill:#f3d5b5;}.cls-3{fill:#e8d8a6;}.cls-4{fill:#e8ccae;}.cls-5{fill:#ed9f05;}.cls-6{fill:#e6caad;}.cls-7{fill:#e1941f;}.cls-8{fill:#decf9f;}.cls-9{fill:gray;}</style></defs><g><path class="cls-2" d="M39.8,227.63s16.35-5.37,17.91-6.71c1.57-1.33,19.14-8.62,24.35-11.98s24.31-14.75,25.76-17.05,5.89-5.03,6.67-6.67,9.65-17.85,9.65-17.85l19.8-37.4,13.16-26.81,7.18-16.87,2.54-7.49,.93-5.76"/><path class="cls-4" d="M40.11,228.58l-.62-1.9c7.94-2.61,16.68-5.76,17.58-6.52,.76-.65,3.87-2.09,9.29-4.58,5.49-2.52,12.33-5.65,15.17-7.48,1.21-.78,3.16-1.98,5.46-3.41,6.17-3.82,19-11.76,20-13.33,.83-1.31,2.38-2.63,3.89-3.9,1.14-.97,2.44-2.06,2.72-2.67,.79-1.64,9.32-17.23,9.68-17.9l19.8-37.38,13.15-26.78,7.16-16.82,2.49-7.34,.92-5.67,1.97,.32-.97,5.92-2.54,7.49-7.21,16.94-13.19,26.86-19.82,37.42c-.09,.17-8.87,16.22-9.64,17.81-.47,.99-1.75,2.07-3.24,3.33-1.32,1.12-2.83,2.39-3.49,3.44-1.14,1.82-10.02,7.4-20.63,13.97-2.29,1.42-4.23,2.62-5.43,3.39-2.96,1.9-9.58,4.94-15.41,7.62-3.86,1.77-8.24,3.78-8.83,4.28-1.63,1.39-15.49,5.99-18.25,6.89Z"/></g><path class="cls-2" d="M167.43,67.43c-12.37-3.43-67.41,86.78-80.13,104.51-12.72,17.73-92.42,23.61-84.77,51.75,7.65,28.14,105.42-22.55,114.34-40.64,8.92-18.09,62.92-112.19,50.55-115.62Z"/><path class="cls-2" d="M182.86,66.6c-1.26,6.17-17.38,17.01-20.92,10.41-3.54-6.6-2.89-8.01-1.52-14.6,1.36-6.59,8.38-16.08,15.17-12.32s8.53,10.34,7.27,16.5Z"/><path class="cls-2" d="M175.55,43.98c-.38-4.59,8-16.56,3.51-17.89-4.49-1.33-9.88,11.51-10.98,15.63-1.1,4.12-6.17,18.59-.22,19.1,5.95,.51,8.07-12.26,7.68-16.84Z"/><path class="cls-2" d="M193.09,46.81c-.61-2.9-8.62-.44-10.39,.09s-10.02,2.09-9.36,4.97c.66,2.89,8.69,.39,10.49-.14,1.8-.54,9.87-2.02,9.26-4.92Z"/><path class="cls-2" d="M194.23,54.18c-.61-2.9-8.62-.44-10.39,.09s-10.02,2.09-9.36,4.97c.66,2.89,8.69,.39,10.49-.14,1.8-.54,9.87-2.02,9.26-4.92Z"/><path class="cls-2" d="M194.23,61.18c-.61-2.9-8.62-.44-10.39,.09s-10.02,2.09-9.36,4.97c.66,2.89,8.69,.39,10.49-.14,1.8-.54,9.87-2.02,9.26-4.92Z"/><g><g><path class="cls-9" d="M212.4,94.81c-4.09,0-5.86-1.76-6.58-6.27-.43-2.66-.86-5.33-1.29-8.01-3.13-19.34-6.36-39.34-7.71-58.85-.05-.79-.12-1.39-.17-1.84-.11-1.02-.18-1.64,.42-2.07,.58-.41,1.17-.13,1.73,.14,.5,.24,1.25,.6,2.43,.92,13.28,3.66,35.84,.87,47.79-3.92,1.44-.58,2.27-1.81,2.82-2.63,.46-.68,.93-1.39,1.78-1.2,.95,.21,1.13,1.32,1.36,2.73,2.07,12.9,3.39,25.97,4.67,38.61,.95,9.36,1.93,19.03,3.21,28.58,.74,5.53-1.79,7.2-6.12,8.09h0c-12.29,2.53-26.77,4.44-43.04,5.66-.46,.03-.89,.05-1.31,.05Zm-13.71-74.75c.04,.4,.09,.89,.13,1.49,1.34,19.42,4.56,39.37,7.68,58.67,.43,2.68,.87,5.35,1.29,8.01,.62,3.9,1.81,4.84,5.76,4.54,16.18-1.21,30.58-3.11,42.78-5.62h0c4.12-.85,5.05-2.06,4.54-5.87-1.28-9.58-2.26-19.27-3.21-28.65-1.28-12.61-2.6-25.65-4.66-38.49v-.02c-.67,.91-1.68,2.03-3.24,2.65-12.24,4.91-35.4,7.76-49.06,3.99-.84-.23-1.51-.49-2.01-.7Z"/><path class="cls-9" d="M210.1,22.94c-7.39,0-13.11-1.17-13.62-4.93-.18-1.37,.31-2.78,1.47-4.19,4.45-5.42,18.11-10.15,24.8-10.56,17.32-1.08,27.25,1.04,30.36,6.48h0c.95,1.65,.64,3.01,.21,3.85-2.4,4.75-15.22,6.82-26.12,8.09l-.75,.09c-5.48,.64-11.3,1.19-16.35,1.19Zm20.82-17.96c-2.47,0-5.15,.09-8.04,.27-6.22,.39-19.45,5.05-23.38,9.84-.79,.97-1.14,1.86-1.03,2.66,.32,2.37,5.4,4.64,27.76,2.03l.75-.09c14.83-1.72,23.09-4.08,24.57-7,.19-.38,.39-1-.16-1.96-2.18-3.82-9.05-5.75-20.46-5.75Z"/><path class="cls-9" d="M199.34,34.75c.37,2.1,.52,4.79,.75,6.89,.07,.59-.07,.86-.62,.81-22.04-2.23-23.14,19.32,1.82,14.97,.63-.11,.75,.15,.88,.74,.46,2.12,1.15,4.71,1.08,6.91-.02,.61,.12,.87-.68,1.05-31.37,7.13-37.11-31.34-4.01-32.26,.84-.02,.68,.31,.78,.9Z"/></g><g><path class="cls-5" d="M255.96,87.77c-13.64,1.87-28.58,3.56-42.28,4.97-3.96,.41-5.58-.57-6.35-4.56-3.12-16.33-5.06-33.38-6.98-50.12-.47-4.09,1.8-5.4,5.79-5.23,13.79,.61,29.17-1.57,42.66-4.29,3.9-.79,5.91-.22,6.49,3.78,2.4,16.36,4.2,33.09,5.79,49.37,.39,3.98-1.19,5.54-5.14,6.08Z"/><ellipse class="cls-7" cx="240.77" cy="48.13" rx="6.59" ry="6.53" transform="translate(-4.55 37.8) rotate(-8.89)"/><circle class="cls-7" cx="249.77" cy="60.1" r="5.5"/><ellipse class="cls-7" cx="243.74" cy="72.99" rx="4.53" ry="4.6"/><path class="cls-1" d="M237.4,44.98c.43-.39,2.39-1.81,1.98-2.5-.41-.69-2.34,1.31-2.92,1.85s-1.97,3.37-1.32,3.86c.65,.49,1.83-2.82,2.26-3.21Z"/><path class="cls-1" d="M247.52,58.31c.37-.4,2.06-1.86,1.7-2.56-.35-.7-2.01,1.34-2.5,1.9s-1.69,3.46-1.14,3.96c.56,.5,1.57-2.89,1.94-3.29Z"/><path class="cls-1" d="M241.83,71.63c.3-.3,1.69-1.39,1.4-1.92-.29-.53-1.65,1.01-2.06,1.42s-1.39,2.6-.93,2.97c.46,.37,1.29-2.17,1.59-2.47Z"/><g><path class="cls-3" d="M255,33.96c-1.07,.09-2.2-.87-2.38-2.13-.19-1.26-.15-2.45,1.07-3.33s1.19,1.59,1.3,2.36c.11,.77,1.09,3.01,.02,3.1Z"/><path class="cls-8" d="M254.86,34.09c-1.12,0-2.18-.99-2.37-2.24-.18-1.24-.18-2.52,1.12-3.45,.29-.21,.55-.26,.76-.16,.53,.25,.62,1.35,.69,2.16,.01,.18,.03,.33,.04,.45,.02,.18,.1,.44,.18,.75,.22,.8,.5,1.79,.18,2.25-.1,.15-.26,.23-.46,.25h0c-.05,0-.1,0-.15,0Zm-.71-5.65c-.11,0-.24,.05-.39,.16-1.12,.81-1.22,1.87-1.02,3.21,.17,1.16,1.23,2.11,2.25,2.02h0c.13-.01,.22-.06,.28-.14,.25-.36-.02-1.33-.22-2.04-.09-.31-.17-.59-.19-.78-.02-.12-.03-.28-.04-.46-.05-.66-.15-1.77-.55-1.95-.04-.02-.08-.03-.12-.03Z"/></g><g><path class="cls-3" d="M253.92,29.33c-1.06-.07-2.35-.85-2.53-2.09-.18-1.24,.05-2.22,1.19-3.35,1.14-1.13,1.66,1.32,1.72,2.28,.06,.96,.68,3.22-.39,3.16Z"/><path class="cls-8" d="M253.97,29.46s-.04,0-.05,0h0c-1.15-.07-2.46-.91-2.65-2.19-.2-1.39,.15-2.39,1.23-3.46,.3-.3,.59-.39,.86-.29,.75,.28,1.04,2.06,1.08,2.65,.01,.2,.05,.47,.09,.75,.13,.91,.28,1.93-.11,2.36-.12,.12-.27,.19-.45,.19Zm-.04-.25c.13,0,.23-.03,.3-.11,.31-.34,.16-1.39,.04-2.15-.04-.29-.08-.56-.09-.77-.05-.75-.37-2.23-.92-2.44-.17-.07-.37,.01-.59,.23-1.18,1.17-1.31,2.15-1.15,3.24,.17,1.16,1.36,1.92,2.41,1.98Z"/></g><g><path class="cls-3" d="M206.6,40.34c-2.82,.88-5.79-.73-6.36-3.7-.57-2.97,.68-5.84,3.68-6.71,3-.87,5.83,.85,6.56,3.78,.73,2.93-1.05,5.75-3.87,6.63Z"/><path class="cls-8" d="M205.04,40.7c-.92,0-1.83-.24-2.62-.71-1.21-.73-2.03-1.91-2.31-3.32-.63-3.26,.88-6.01,3.76-6.85,1.46-.42,2.95-.26,4.2,.46,1.26,.72,2.15,1.93,2.52,3.41,.73,2.93-.97,5.84-3.96,6.78h0c-.52,.16-1.06,.24-1.6,.24Zm.43-10.87c-.5,0-1.02,.07-1.52,.22-2.75,.8-4.19,3.44-3.59,6.56,.26,1.35,1.04,2.47,2.19,3.16,1.19,.71,2.65,.87,4.01,.45h0c2.86-.89,4.49-3.68,3.79-6.48-.35-1.41-1.2-2.56-2.4-3.25-.75-.43-1.6-.66-2.48-.66Z"/></g><g><path class="cls-3" d="M211.51,33.48c-1.96,.61-4.03-.51-4.43-2.58-.4-2.07,.47-4.07,2.56-4.67,2.09-.61,4.06,.59,4.57,2.63,.51,2.04-.73,4-2.7,4.62Z"/><path class="cls-8" d="M210.43,33.77c-.65,0-1.29-.17-1.84-.5-.86-.51-1.43-1.34-1.63-2.34-.44-2.29,.62-4.23,2.65-4.82,1.02-.3,2.07-.18,2.95,.32,.89,.51,1.51,1.36,1.77,2.4,.51,2.06-.68,4.11-2.78,4.77-.37,.12-.75,.17-1.12,.17Zm.3-7.57c-.35,0-.7,.05-1.05,.15-1.9,.55-2.89,2.37-2.47,4.53,.18,.93,.71,1.7,1.51,2.17,.82,.49,1.83,.6,2.76,.31h0c1.97-.62,3.1-2.54,2.61-4.47-.24-.97-.83-1.77-1.66-2.24-.52-.3-1.11-.45-1.71-.45Z"/></g><g><path class="cls-3" d="M212.51,39.48c-1.96,.61-4.03-.51-4.43-2.58-.4-2.07,.47-4.07,2.56-4.67,2.09-.61,4.06,.59,4.57,2.63,.51,2.04-.73,4-2.7,4.62Z"/><path class="cls-8" d="M211.43,39.77c-.65,0-1.29-.17-1.84-.5-.86-.51-1.43-1.34-1.63-2.34-.44-2.29,.62-4.23,2.65-4.82,1.02-.3,2.07-.18,2.95,.32,.89,.51,1.51,1.36,1.77,2.4,.51,2.06-.68,4.11-2.78,4.77-.37,.12-.75,.17-1.12,.17Zm.3-7.57c-.35,0-.7,.05-1.05,.15-1.9,.55-2.89,2.37-2.47,4.53,.18,.93,.71,1.7,1.51,2.17,.82,.49,1.83,.6,2.76,.31h0c1.97-.62,3.1-2.54,2.61-4.47-.24-.97-.83-1.77-1.66-2.24-.52-.3-1.11-.45-1.71-.45Z"/></g><g><path class="cls-3" d="M218.27,37.58c-2.58,.81-5.31-.67-5.83-3.39-.53-2.72,.62-5.35,3.37-6.15,2.75-.8,5.34,.78,6.01,3.46,.67,2.68-.97,5.27-3.55,6.07Z"/><path class="cls-8" d="M216.85,37.92c-.85,0-1.68-.22-2.41-.66-1.12-.67-1.87-1.75-2.12-3.05-.58-2.99,.81-5.52,3.46-6.29,1.34-.39,2.71-.24,3.86,.42,1.15,.66,1.98,1.78,2.31,3.13,.67,2.69-.89,5.37-3.63,6.22-.48,.15-.98,.22-1.47,.22Zm.39-9.96c-.46,0-.93,.07-1.39,.2-2.51,.73-3.83,3.14-3.28,6,.24,1.23,.95,2.26,2,2.89,1.08,.65,2.42,.8,3.67,.41,2.61-.82,4.1-3.36,3.47-5.92-.32-1.29-1.1-2.34-2.2-2.97-.69-.4-1.47-.6-2.27-.6Z"/></g><g><path class="cls-3" d="M224.27,38.94c-1.96,.61-4.03-.51-4.43-2.58-.4-2.07,.47-4.07,2.56-4.67,2.09-.61,4.06,.59,4.57,2.63,.51,2.04-.73,4-2.7,4.62Z"/><path class="cls-8" d="M223.19,39.23c-.65,0-1.29-.17-1.84-.5-.85-.51-1.43-1.34-1.62-2.34-.44-2.29,.62-4.23,2.65-4.82,1.03-.3,2.08-.18,2.95,.32,.89,.51,1.51,1.36,1.77,2.4,.51,2.06-.68,4.11-2.78,4.77h0c-.37,.12-.75,.17-1.12,.17Zm.3-7.57c-.35,0-.7,.05-1.05,.15-1.9,.55-2.89,2.37-2.47,4.53,.18,.93,.71,1.7,1.51,2.17,.82,.49,1.82,.6,2.76,.31h0c1.97-.62,3.1-2.54,2.62-4.47-.24-.97-.83-1.77-1.66-2.24-.52-.3-1.11-.45-1.71-.45Z"/></g><g><path class="cls-3" d="M228.27,32.94c-1.96,.61-4.03-.51-4.43-2.58-.4-2.07,.47-4.07,2.56-4.67,2.09-.61,4.06,.59,4.57,2.63,.51,2.04-.73,4-2.7,4.62Z"/><path class="cls-8" d="M227.19,33.23c-.65,0-1.29-.17-1.84-.5-.85-.51-1.43-1.34-1.62-2.34-.44-2.29,.62-4.23,2.65-4.82,1.02-.3,2.07-.18,2.95,.32,.89,.51,1.51,1.36,1.77,2.4,.51,2.06-.68,4.11-2.78,4.77h0c-.37,.12-.75,.17-1.12,.17Zm.3-7.57c-.35,0-.7,.05-1.05,.15-1.9,.55-2.89,2.37-2.47,4.53,.18,.93,.71,1.7,1.51,2.17,.82,.49,1.82,.6,2.76,.31h0c1.97-.62,3.1-2.54,2.62-4.47-.24-.97-.83-1.77-1.66-2.24-.52-.3-1.11-.45-1.71-.45Z"/></g><g><path class="cls-3" d="M223.27,31.94c-1.96,.61-4.03-.51-4.43-2.58-.4-2.07,.47-4.07,2.56-4.67,2.09-.61,4.06,.59,4.57,2.63,.51,2.04-.73,4-2.7,4.62Z"/><path class="cls-8" d="M222.19,32.23c-.65,0-1.29-.17-1.84-.5-.85-.51-1.43-1.34-1.62-2.34-.44-2.29,.62-4.23,2.65-4.82,1.03-.3,2.07-.18,2.95,.32,.89,.51,1.51,1.36,1.77,2.4,.51,2.06-.68,4.11-2.78,4.77h0c-.37,.12-.75,.17-1.12,.17Zm.3-7.57c-.35,0-.7,.05-1.05,.15-1.9,.55-2.89,2.37-2.47,4.53,.18,.93,.71,1.7,1.51,2.17,.82,.49,1.82,.6,2.76,.31h0c1.97-.62,3.1-2.54,2.62-4.47-.24-.97-.83-1.77-1.66-2.24-.52-.3-1.11-.45-1.71-.45Z"/></g><g><path class="cls-3" d="M239.27,29.94c-1.96,.61-4.03-.51-4.43-2.58-.4-2.07,.47-4.07,2.56-4.67,2.09-.61,4.06,.59,4.57,2.63,.51,2.04-.73,4-2.7,4.62Z"/><path class="cls-8" d="M238.19,30.23c-.65,0-1.29-.17-1.84-.5-.85-.51-1.43-1.34-1.62-2.34-.44-2.29,.62-4.23,2.65-4.82,1.03-.3,2.07-.18,2.95,.32,.89,.51,1.51,1.36,1.77,2.4,.51,2.06-.68,4.11-2.78,4.77h0c-.37,.12-.75,.17-1.12,.17Zm.3-7.57c-.35,0-.7,.05-1.05,.15-1.9,.55-2.89,2.37-2.47,4.53,.18,.93,.71,1.7,1.51,2.17,.82,.49,1.82,.6,2.76,.31h0c1.97-.62,3.1-2.54,2.62-4.47-.24-.97-.83-1.77-1.66-2.24-.52-.3-1.11-.45-1.71-.45Z"/></g><g><path class="cls-3" d="M229.27,38.94c-1.96,.61-4.03-.51-4.43-2.58-.4-2.07,.47-4.07,2.56-4.67,2.09-.61,4.06,.59,4.57,2.63,.51,2.04-.73,4-2.7,4.62Z"/><path class="cls-8" d="M228.19,39.23c-.65,0-1.29-.17-1.84-.5-.85-.51-1.43-1.34-1.62-2.34-.44-2.29,.62-4.23,2.65-4.82,1.02-.3,2.07-.18,2.95,.32,.89,.51,1.51,1.36,1.77,2.4,.51,2.06-.68,4.11-2.78,4.77h0c-.37,.12-.75,.17-1.12,.17Zm.3-7.57c-.35,0-.7,.05-1.05,.15-1.9,.55-2.89,2.37-2.47,4.53,.18,.93,.71,1.7,1.51,2.17,.82,.49,1.82,.6,2.76,.31h0c1.97-.62,3.1-2.54,2.62-4.47-.24-.97-.83-1.77-1.66-2.24-.52-.3-1.11-.45-1.71-.45Z"/></g><g><path class="cls-3" d="M235.53,37.08c-2.58,.81-5.31-.67-5.83-3.39-.53-2.72,.62-5.35,3.37-6.15,2.75-.8,5.34,.78,6.01,3.46,.67,2.68-.97,5.27-3.55,6.07Z"/><path class="cls-8" d="M234.1,37.43c-.85,0-1.68-.22-2.41-.66-1.12-.67-1.87-1.75-2.12-3.05-.58-2.99,.81-5.52,3.46-6.29,1.34-.39,2.71-.24,3.85,.42,1.16,.66,1.98,1.78,2.32,3.13,.67,2.69-.89,5.37-3.63,6.22-.48,.15-.98,.22-1.47,.22Zm.39-9.96c-.46,0-.93,.07-1.39,.2-2.51,.73-3.83,3.14-3.28,6,.24,1.23,.95,2.26,2,2.89,1.08,.65,2.42,.79,3.67,.41,2.61-.82,4.1-3.36,3.47-5.92-.32-1.29-1.1-2.34-2.2-2.97-.69-.4-1.47-.6-2.27-.6Z"/></g><g><path class="cls-3" d="M245.64,36.48c-3.34,1.04-6.86-.86-7.54-4.38-.68-3.52,.81-6.92,4.35-7.95,3.55-1.03,6.91,1,7.77,4.47,.87,3.47-1.25,6.81-4.59,7.85Z"/><path class="cls-8" d="M243.79,36.89c-1.09,0-2.16-.29-3.09-.84-1.43-.86-2.4-2.25-2.72-3.92-.75-3.85,1.04-7.1,4.44-8.09,1.72-.5,3.48-.31,4.96,.54,1.48,.85,2.54,2.28,2.97,4.02,.86,3.46-1.15,6.9-4.67,8-.62,.19-1.25,.29-1.88,.29Zm.51-12.88c-.6,0-1.21,.09-1.81,.26-3.27,.95-4.99,4.08-4.27,7.8,.31,1.6,1.23,2.94,2.61,3.75,1.41,.84,3.15,1.04,4.77,.53,3.4-1.06,5.33-4.37,4.5-7.7-.42-1.67-1.43-3.05-2.86-3.87-.9-.52-1.91-.78-2.95-.78Z"/></g><g><path class="cls-3" d="M251.7,27.05c-2.24,.31-3.54,.19-4.15-2.12-.61-2.3,.58-3.75,2.69-4.03s3.13-.01,3.58,2.08c.45,2.1,.12,3.76-2.12,4.07Z"/><path class="cls-8" d="M250.23,27.3c-1.33,0-2.31-.47-2.81-2.33-.29-1.1-.19-2.08,.3-2.81,.5-.75,1.36-1.22,2.49-1.38,2.09-.28,3.25-.03,3.72,2.18,.31,1.43,.22,2.48-.28,3.19-.39,.56-1.04,.91-1.94,1.03h0c-.53,.07-1.03,.13-1.49,.13Zm1.19-6.37c-.34,0-.73,.04-1.17,.1-1.06,.14-1.86,.58-2.32,1.27-.45,.67-.54,1.58-.27,2.61,.57,2.13,1.7,2.34,4.02,2.02h0c.82-.11,1.42-.42,1.77-.93,.46-.65,.54-1.63,.24-2.99-.34-1.6-1.02-2.08-2.27-2.08Z"/></g><g><path class="cls-3" d="M251.17,34.64c-2.58,.81-5.31-.67-5.83-3.39-.53-2.72,.62-5.35,3.37-6.15,2.75-.8,5.34,.78,6.01,3.46,.67,2.68-.97,5.27-3.55,6.07Z"/><path class="cls-8" d="M249.74,34.98c-.85,0-1.68-.22-2.41-.66-1.12-.67-1.87-1.75-2.12-3.05-.58-2.99,.81-5.52,3.46-6.29,1.34-.39,2.71-.24,3.86,.42,1.15,.66,1.98,1.78,2.31,3.13,.67,2.69-.89,5.37-3.63,6.22h0c-.48,.15-.98,.23-1.47,.23Zm.39-9.96c-.46,0-.93,.07-1.39,.2-2.52,.73-3.83,3.14-3.28,6,.24,1.23,.95,2.26,2,2.89,1.08,.65,2.42,.8,3.67,.41h0c2.61-.82,4.1-3.36,3.47-5.92-.32-1.29-1.1-2.34-2.2-2.97-.69-.4-1.47-.6-2.27-.6Z"/></g><g><path class="cls-3" d="M252.9,37.45c-2.04,.64-3.92-.5-4.36-2.54-.45-2.04,.33-3.98,2.39-4.61,2.06-.63,3.9,.51,4.42,2.57s-.41,3.93-2.44,4.57Z"/><path class="cls-8" d="M251.77,37.75c-.6,0-1.18-.15-1.7-.45-.84-.49-1.43-1.33-1.66-2.36-.49-2.24,.5-4.15,2.48-4.75,1-.3,2-.21,2.83,.26,.86,.49,1.48,1.34,1.75,2.4,.55,2.18-.47,4.08-2.53,4.72h0c-.39,.12-.78,.18-1.17,.18Zm.27-7.49c-.35,0-.72,.05-1.08,.16-1.87,.57-2.77,2.32-2.3,4.46,.21,.96,.76,1.75,1.54,2.2,.78,.45,1.72,.54,2.66,.24,1.92-.6,2.87-2.38,2.36-4.42-.25-1-.83-1.79-1.63-2.25-.47-.27-1-.4-1.55-.4Z"/></g><g><path class="cls-3" d="M205.45,45.41c-2.06,.64-4.22-.53-4.64-2.7-.42-2.17,.5-4.26,2.68-4.89,2.19-.63,4.25,.62,4.79,2.76,.53,2.14-.77,4.19-2.83,4.84Z"/><path class="cls-8" d="M204.31,45.71c-.68,0-1.35-.18-1.93-.53-.89-.53-1.5-1.4-1.7-2.45-.46-2.4,.65-4.42,2.77-5.04,1.07-.31,2.17-.19,3.09,.34,.92,.53,1.58,1.42,1.85,2.51,.54,2.16-.71,4.3-2.91,4.98h0c-.39,.12-.78,.18-1.17,.18Zm.31-7.93c-.36,0-.74,.05-1.1,.16-1.99,.58-3.03,2.49-2.59,4.75,.19,.97,.75,1.78,1.58,2.28,.86,.51,1.92,.63,2.9,.32h0c2.07-.65,3.25-2.66,2.74-4.69-.25-1.02-.87-1.85-1.74-2.35-.55-.31-1.16-.47-1.79-.47Z"/></g><g><path class="cls-3" d="M204.75,32.48c-1.96,.61-4.03-.51-4.43-2.58-.4-2.07,.47-4.07,2.56-4.67,2.09-.61,4.06,.59,4.57,2.63,.51,2.04-.73,4-2.7,4.62Z"/><path class="cls-8" d="M203.66,32.77c-.65,0-1.29-.17-1.84-.5-.85-.51-1.43-1.34-1.62-2.34-.44-2.29,.62-4.23,2.65-4.82,1.03-.3,2.07-.18,2.95,.32,.88,.51,1.52,1.36,1.77,2.4,.51,2.06-.68,4.11-2.78,4.77h0c-.37,.12-.75,.17-1.12,.17Zm.3-7.57c-.35,0-.7,.05-1.05,.15-1.9,.55-2.89,2.37-2.47,4.53,.18,.93,.71,1.7,1.51,2.17,.82,.49,1.83,.6,2.76,.31h0c1.97-.62,3.1-2.54,2.62-4.47-.24-.97-.83-1.77-1.66-2.24-.52-.3-1.1-.45-1.71-.45Z"/></g><g><path class="cls-3" d="M215.79,42.65c-2.06,.64-4.22-.53-4.64-2.7-.42-2.17,.5-4.26,2.68-4.89,2.19-.63,4.25,.62,4.79,2.76,.53,2.14-.77,4.19-2.83,4.84Z"/><path class="cls-8" d="M214.65,42.95c-.68,0-1.35-.18-1.93-.53-.89-.53-1.5-1.4-1.7-2.45-.46-2.4,.65-4.42,2.77-5.04,1.07-.31,2.17-.19,3.09,.34,.93,.53,1.58,1.42,1.85,2.51,.54,2.16-.71,4.3-2.91,4.98h0c-.39,.12-.78,.18-1.17,.18Zm.31-7.93c-.36,0-.73,.05-1.1,.16-1.99,.58-3.03,2.49-2.59,4.75,.19,.97,.75,1.78,1.58,2.28,.86,.51,1.92,.63,2.9,.32h0c2.07-.65,3.25-2.66,2.74-4.69-.25-1.02-.87-1.85-1.74-2.35-.55-.31-1.16-.47-1.79-.47Z"/></g><g><path class="cls-3" d="M210.75,42.48c-1.96,.61-4.03-.51-4.43-2.58-.4-2.07,.47-4.07,2.56-4.67,2.09-.61,4.06,.59,4.57,2.63,.51,2.04-.73,4-2.7,4.62Z"/><path class="cls-8" d="M209.66,42.77c-.65,0-1.29-.17-1.84-.5-.85-.51-1.43-1.34-1.62-2.34-.44-2.29,.62-4.23,2.65-4.82,1.03-.3,2.07-.18,2.95,.32,.88,.51,1.52,1.36,1.77,2.4,.51,2.06-.68,4.11-2.78,4.77h0c-.37,.12-.75,.17-1.12,.17Zm.3-7.57c-.35,0-.7,.05-1.05,.15-1.9,.55-2.89,2.37-2.47,4.53,.18,.93,.71,1.7,1.51,2.17,.82,.49,1.83,.6,2.76,.31h0c1.97-.62,3.1-2.54,2.62-4.47-.24-.97-.83-1.77-1.66-2.24-.52-.3-1.1-.45-1.71-.45Z"/></g></g></g><g><path class="cls-6" d="M192.95,46.91c-.61-2.87-5.17-.89-7.09-.09-1.92,.81-6.77,1.91-6.08,4.78,.68,2.87,5.21,.83,7.14,.02,1.92-.81,6.64-1.85,6.03-4.72Z"/><path class="cls-6" d="M194.18,54.31c-.53-2.97-4.79-1.3-6.8-.6s-6.6,1.34-6,4.32c.6,2.98,4.83,1.24,6.84,.54,2.01-.71,6.49-1.28,5.96-4.26Z"/><path class="cls-6" d="M197.82,58.42c-.6-2.96-4.82-1.2-6.81-.46-2,.74-6.56,1.48-5.9,4.44,.66,2.96,4.85,1.14,6.85,.39,2-.75,6.46-1.42,5.86-4.38Z"/></g></svg>