<?xml version="1.0" encoding="UTF-8"?><svg id="Layer_97" xmlns="http://www.w3.org/2000/svg" viewBox="0 0 500 250"><defs><style>.cls-1{fill:#025e73;}.cls-2{fill:#f1f1f2;}</style></defs><path class="cls-1" d="M450.32,195.87H49.68c-6.75,0-12.28-5.53-12.28-12.28V66.41c0-6.75,5.53-12.28,12.28-12.28H450.32c6.75,0,12.28,5.53,12.28,12.28v117.17c0,6.75-5.53,12.28-12.28,12.28Z"/><g><path class="cls-2" d="M68.14,146v-32.7c0-1.27-.09-2.77-1.98-2.77-2.07,0-2.43,1.27-2.43,2.92v33.15c0,2.85,1.53,4.05,6.21,4.05,4.32,0,6.21-1.95,6.21-4.27v-36.97c0-.83,.72-1.42,1.8-1.42,1.17,0,1.8,.6,1.8,1.42v36.97c0,3.67-2.61,7.05-9.81,7.05-7.83,0-9.81-2.33-9.81-6.83v-33.15c0-4.12,2.07-5.62,6.03-5.62s5.58,1.65,5.58,5.47v32.7c0,.75-.63,1.35-1.8,1.35s-1.8-.6-1.8-1.35Zm16.02-12.6v-13.42c0-3.38,2.79-4.95,5.85-4.95,3.78,0,8.82,2.7,8.82,11.25,0,9.38-4.41,13.12-9.27,14.02-1.35,.23-2.34,.6-2.34,1.8,0,1.5,1.35,1.95,3.15,1.95,6.03,0,12.96-5.17,12.96-18.15,0-9.15-5.4-14.92-13.68-14.92-1.98,0-3.6,.22-5.13,.75-.81,.3-1.8,.07-2.07-.75-.36-.83,.09-1.58,.9-1.8,1.8-.6,3.87-.97,6.3-.97,9.81,0,17.28,6.15,17.28,17.7,0,16.57-9.63,20.85-16.56,20.85-4.59,0-6.84-1.58-6.84-4.65,0-2.7,1.89-3.97,5.31-4.42,3.96-.75,6.39-4.65,6.39-11.4,0-5.02-2.34-8.47-5.22-8.47-1.35,0-2.25,.97-2.25,2.17v13.42c0,.75-.63,1.35-1.8,1.35-1.08,0-1.8-.6-1.8-1.35Z"/><path class="cls-2" d="M120.24,146v-26.4c0-1.27-.09-2.77-1.98-2.77-2.07,0-2.43,1.27-2.43,2.92v26.85c0,2.85,1.53,4.05,6.21,4.05,4.32,0,6.21-1.95,6.21-4.27v-16.95c0-.75,.63-1.43,1.8-1.43,1.08,0,1.8,.68,1.8,1.43v16.95c0,3.67-2.7,7.05-9.81,7.05-7.92,0-9.9-2.33-9.9-6.83v-26.85c0-4.12,2.07-5.62,6.12-5.62s5.58,1.65,5.58,5.47v26.4c0,.75-.72,1.35-1.8,1.35-1.17,0-1.8-.6-1.8-1.35Zm15.48-22.05c3.42,0,5.31-2.25,5.31-4.65s-1.44-4.5-5.31-4.5c-5.22,0-6.93,4.88-4.41,7.2,.63,.6,.54,1.5-.27,2.02-.63,.53-1.71,.45-2.34-.08-3.78-3.75-1.71-11.92,7.02-11.92,6.21,0,9,3.22,9,7.27s-3.51,7.42-9,7.42c-.9,0-1.71-.45-1.71-1.42s.81-1.35,1.71-1.35Z"/><path class="cls-2" d="M167.02,116.75c-9.18,1.58-15.03,7.95-15.03,17.02,0,12.07,8.64,17.25,20.25,17.25s19.71-5.47,19.71-17.55-7.02-17.02-14.31-17.1c-1.71-.08-2.7,.67-2.7,1.88,0,1.05,.54,1.65,2.25,1.88,6.21,.97,10.44,4.05,10.44,13.42s-5.22,13.65-15.75,13.65-15.57-4.42-15.57-13.65c0-3.22,1.08-6,2.7-8.1,3.51-4.72,8.73-4.65,10.98-2.32,2.34,2.47,.63,5.17-1.17,7.12-.63,.75-.99,1.8-.99,3.08,0,2.62,.63,5.02,4.14,5.02s4.05-2.25,4.05-4.8c0-1.2-.36-2.17-1.17-2.92-.54-.52-.54-1.35,.18-1.95,.72-.68,1.98-.45,2.61,.07,1.17,1.2,1.98,2.7,1.98,4.8,0,4.8-2.34,7.58-7.65,7.58s-7.74-2.92-7.74-7.8c0-2.17,1.08-3.67,2.07-4.88,.9-1.12,1.98-2.47,.99-3.52-1.44-1.35-3.87,.15-5.4,2.02-1.44,1.73-1.98,4.05-1.98,6.6,0,7.05,3.6,10.88,11.97,10.88s12.06-3.83,12.06-10.88-2.34-9.97-7.38-10.65c-4.05-.6-5.22-2.1-5.22-4.65,0-2.85,2.34-4.72,6.3-4.65,8.55,.08,18,5.25,18,19.88s-10.35,20.32-23.4,20.32-23.84-5.85-23.84-20.02c0-10.65,7.38-17.85,17.91-19.8,.9-.15,1.8,.15,1.98,1.05,.27,.97-.45,1.5-1.26,1.72Zm-7.92,39.22l-4.23,6.67c-.36,.67-1.44,.9-2.25,.6-.9-.38-1.26-1.28-.81-1.95l4.23-6.67c.36-.67,1.35-.97,2.25-.6,.99,.38,1.26,1.28,.81,1.95Zm32.03-50.92l-4.23,6.67c-.36,.67-1.44,.97-2.25,.6-.9-.38-1.26-1.28-.81-1.95l4.23-6.67c.45-.6,1.44-.97,2.34-.6,.81,.38,1.17,1.27,.72,1.95Z"/><path class="cls-2" d="M217.77,146.37l-10.8-27.15c-.63-1.5-1.26-2.4-2.7-2.4-1.8,0-2.34,1.35-1.8,2.77l10.44,26.7c1.17,2.85,2.25,4.35,7.11,4.35,4.41,0,6.93-1.88,5.67-5.02l-11.52-29.55c-.36-.75,.09-1.58,1.08-1.8,1.08-.23,1.98,.15,2.25,.9l11.52,29.55c1.98,4.88-1.08,8.7-9,8.7-7.02,0-8.82-2.03-10.44-6.23l-10.44-26.77c-1.53-3.9,1.08-6.3,5.13-6.3,2.7,0,4.68,.83,6.03,4.12l10.8,27.3c.27,.67-.18,1.5-1.17,1.72-.99,.3-1.89-.08-2.16-.9Zm12.96-7.72l7.92-15.52c1.44-2.78,.9-6.45-4.68-6.45-4.05,0-6.03,1.88-6.03,4.12s1.53,3.83,3.78,4.5c.9,.22,1.44,.83,1.17,1.65-.27,.9-1.35,1.28-2.16,.98-3.87-1.05-6.39-3.45-6.39-7.12s2.88-6.9,9.63-6.9c8.73,0,10.35,5.55,7.83,10.42l-7.92,15.45c-.27,.67-1.35,1.05-2.25,.67-.99-.3-1.35-1.12-.9-1.8Z"/><path class="cls-2" d="M278.14,146v-26.4c0-1.27-.09-2.77-1.98-2.77-2.07,0-2.43,1.27-2.43,2.92v27c0,2.77,1.53,3.9,6.21,3.9,4.32,0,6.21-1.88,6.21-4.2v-30.6c0-.75,.63-1.35,1.8-1.35,1.08,0,1.8,.6,1.8,1.35v30.6c0,3.75-2.7,6.98-9.81,6.98-8.01,0-9.9-2.25-9.9-6.67v-27c0-4.12,2.07-5.62,6.12-5.62s5.58,1.65,5.58,5.47v26.4c0,.75-.72,1.35-1.8,1.35-1.17,0-1.8-.6-1.8-1.35Zm-2.97-34.87c-2.7-1.35-4.14-3.67-4.14-6.38,0-4.05,3.15-7.27,9.27-7.27s8.82,3.22,8.82,7.27c0,2.7-1.62,5.17-4.23,6.38-.81,.38-1.98,.23-2.43-.52s-.18-1.65,.63-1.95c1.71-.83,2.43-2.4,2.43-3.97,0-2.4-1.53-4.5-5.4-4.5s-5.4,2.1-5.4,4.5c0,1.57,.72,3.15,2.34,3.97,.81,.38,.99,1.27,.54,1.95-.54,.75-1.71,.9-2.43,.52Z"/><path class="cls-2" d="M322.77,138.42c8.55,1.73,15.39-2.17,15.39-9.75s-7.02-12.6-18.9-12.45c-11.61,.15-18.45,4.73-18.45,13.65,0,1.95,.09,4.28,2.61,4.28,1.98,0,1.98-1.95,1.98-3.15,0-7.95,5.13-11.02,13.77-11.02,9.54,0,14.04,4.42,14.04,9.3,0,4.12-2.97,6-6.21,6-3.69,0-5.76-1.88-5.76-4.42,0-1.2-.45-2.25-2.25-2.25-1.53,0-2.25,.97-2.25,2.02l-.09,7.12c0,2.85-1.53,4.72-6.12,4.72h-3.42c-5.13,0-7.83,2.48-7.83,5.92,0,6.6,6.03,11.85,20.7,11.85,12.24,0,18.99-4.88,18.99-9.45,0-1.2-.63-2.48-2.52-2.48h-27.08c-.9,0-1.44,.38-1.44,1.05,0,2.55,4.32,4.5,11.25,4.5s10.8-1.95,12.15-2.77c.72-.45,1.71-.53,2.34,.15,.54,.68,.45,1.58-.27,2.03-1.62,1.05-6.12,3.38-14.22,3.38-11.34,0-14.85-3.97-14.85-7.27,0-2.62,1.89-3.83,5.04-3.83h27.08c4.05,0,6.21,2.4,6.21,5.25,0,5.4-6.75,12.22-22.67,12.22-18.09,0-24.29-6.9-24.29-14.62,0-5.1,4.05-8.7,11.43-8.7h3.42c1.89,0,2.52-.75,2.52-1.95l.09-7.12c0-2.77,2.16-4.8,5.85-4.8s5.85,1.95,5.85,5.03c0,.97,.81,1.65,2.16,1.65,1.71,0,2.61-1.5,2.61-3.22,0-3.6-3.78-6.52-10.44-6.52s-10.08,2.4-10.08,8.25c0,3.3-1.98,5.92-5.67,5.92-4.23,0-6.21-2.32-6.21-7.05,0-10.65,8.1-16.27,22.04-16.42,14.4-.15,22.5,6.15,22.5,15.22,0,9.82-8.91,14.62-19.71,12.37-.9-.15-1.53-.83-1.26-1.65,.18-.9,1.17-1.2,1.98-.98Zm10.17-29.02c3.42,0,5.4-2.25,5.4-4.65s-1.53-4.5-5.4-4.5-6.03,2.1-6.03,6v3.53c0,.75-.72,1.42-1.8,1.42-1.17,0-1.89-.67-1.89-1.42v-3.53c0-6.15,3.96-8.77,9.72-8.77,6.3,0,9,3.22,9,7.27s-3.51,7.35-9,7.35c-.9,0-1.62-.38-1.62-1.35s.72-1.35,1.62-1.35Z"/><path class="cls-2" d="M372.98,133.25c0-2.47-.9-4.12-3.06-4.12-2.7,0-3.51,2.18-3.51,4.28,0,3.15,1.8,4.65,5.94,4.65h10.26c4.95,0,6.84-2.77,6.84-6,0-10.2-7.65-15.75-19.26-15.75s-19.62,6.97-19.62,17.47c0,11.85,6.75,17.25,16.11,17.25,1.62,0,2.61-.75,2.61-1.95,0-1.05-.45-1.72-1.98-1.88-8.01-.6-12.42-4.87-12.42-13.65s6.3-13.57,15.39-13.57,14.49,4.35,14.31,13.2c0,.75-.63,1.43-1.89,1.43s-1.71-.68-1.71-1.43c.18-6.52-3.78-10.42-10.71-10.42-7.29,0-11.79,4.35-11.79,10.8s2.79,10.42,9.09,10.88c4.14,.38,5.4,1.95,5.4,4.65,0,2.85-2.43,4.73-6.3,4.73-10.89,0-19.71-5.48-19.71-20.02,0-12.38,9.9-20.25,23.22-20.25s22.94,6.45,22.94,18.52c0,4.88-3.24,8.78-10.53,8.78h-10.26c-6.57,0-9.54-2.4-9.54-7.42,0-4.35,2.7-7.05,7.11-7.05,3.69,0,6.66,1.5,6.66,6.9,0,.75-.54,1.35-1.8,1.35-1.35,0-1.8-.6-1.8-1.35Z"/><path class="cls-2" d="M406.71,146v-26.4c0-1.27,0-2.77-1.89-2.77-2.07,0-2.43,1.27-2.43,2.92v26.85c0,2.85,1.44,4.05,6.21,4.05,4.23,0,6.12-1.95,6.12-4.27v-21.3c0-7.5,4.95-10.95,13.77-10.95,10.8,0,13.95,4.72,13.95,12.52v19.72c0,3.67-2.52,7.05-9.72,7.05-7.83,0-9.99-2.33-9.99-6.83v-20.1c0-4.12,2.16-5.7,6.12-5.7s5.58,1.72,5.58,5.55v19.65c0,.75-.72,1.35-1.8,1.35-1.17,0-1.89-.6-1.89-1.35v-19.65c0-1.28,0-2.78-1.89-2.78s-2.43,1.2-2.43,2.93v20.1c0,2.85,1.62,4.05,6.3,4.05,4.32,0,6.12-1.95,6.12-4.27v-19.72c0-5.77-1.98-9.82-10.35-9.82-6.57,0-10.08,2.77-10.08,8.25v21.3c0,3.67-2.7,7.05-9.81,7.05-7.92,0-9.9-2.33-9.9-6.83v-26.85c0-4.12,2.07-5.62,6.12-5.62,3.78,0,5.58,1.65,5.58,5.47v26.4c0,.75-.72,1.35-1.8,1.35-1.17,0-1.89-.6-1.89-1.35Z"/></g></svg>