<?xml version="1.0" encoding="UTF-8"?><svg id="Layer_119" xmlns="http://www.w3.org/2000/svg" viewBox="0 0 100 120"><defs><style>.cls-1{fill:azure;}.cls-2{fill:#d9d9d9;}.cls-3{opacity:.5;}</style></defs><g class="cls-3"><path class="cls-1" d="M17.97,27.29c3.05,.63,5.68,.86,8.84,.27,3.16-.6,6.82-.88,10.1-.72,3.24,.96,5.74,2.14,9.38,1.84,3.64-.3,9.08-1.96,12.74-1.99,3.66-.03,7.34-.59,10.45-.46,3.11,.13,5.63,1.41,8.14,1.5,2.51,.1,3.41-.94,5.39-1.8-4.21,16.42-7.89,32.8-10.98,49.51-3.47,1.46-7.24,4.21-10.62,5.42-3.38,1.21-5.98,1.57-9.41,2.27-3.43,.7-7.36,.49-10.97,1.06-2.69-1.66-7.41-3.87-9.63-5.31-2.22-1.44-1.9-2.1-3.64-3.39-2.96-15.6-6.61-31.14-9.77-46.73"/></g><path class="cls-2" d="M72.12,105.42c-14.1,1.73-27.79,1.92-41.94,.66-.79-10.45-2.72-20.75-3.54-31.2,22.43,8.96,24.99,8.13,47.01-1.12-.53,10.53-1.64,21.13-1.52,31.66Z"/><path class="cls-2" d="M28.64,82.14c-.48,0-.9-.34-.99-.83-2.65-15.64-6.25-31.43-9.73-46.69-1.15-5.06-2.31-10.11-3.43-15.16-.12-.54,.22-1.07,.76-1.19,.54-.12,1.07,.22,1.19,.76,1.12,5.05,2.27,10.1,3.42,15.15,3.49,15.29,7.1,31.1,9.75,46.8,.09,.54-.28,1.06-.82,1.15-.06,0-.11,.01-.17,.01Z"/><path class="cls-2" d="M71.38,81.97c-.06,0-.11,0-.17-.01-.54-.09-.91-.61-.82-1.15,2.66-15.7,6.26-31.51,9.75-46.8,1.15-5.05,2.3-10.1,3.42-15.15,.12-.54,.64-.88,1.19-.76,.54,.12,.88,.65,.76,1.19-1.12,5.05-2.27,10.11-3.43,15.16-3.48,15.27-7.08,31.05-9.73,46.69-.08,.49-.51,.83-.99,.83Z"/><path class="cls-2" d="M84.56,20.03c-.11,0-.22-.02-.33-.05-18.77-6.49-40.56-6.5-68.57-.02-.54,.13-1.07-.21-1.2-.75-.12-.54,.21-1.08,.75-1.2,28.39-6.57,50.52-6.54,69.67,.08,.52,.18,.8,.75,.62,1.27-.14,.41-.53,.67-.95,.67Z"/><path class="cls-2" d="M53.12,24.9c-13.42,0-26.16-2.29-37.68-4.9-.54-.12-.88-.66-.75-1.2,.12-.54,.65-.88,1.2-.75,20.01,4.54,43.76,8.1,68.19,.11,.53-.17,1.09,.12,1.26,.64,.17,.52-.11,1.09-.64,1.26-10.76,3.52-21.36,4.85-31.58,4.85Z"/></svg>