<?xml version="1.0" encoding="UTF-8"?><svg id="Layer_76" xmlns="http://www.w3.org/2000/svg" viewBox="0 0 1984.25 425.2"><defs><style>.cls-1{fill:#b67046;}.cls-2{fill:#ac6a41;}.cls-3{fill:#403e3a;}.cls-4{fill:#a3653e;}.cls-5{fill:#262523;}</style></defs><rect class="cls-5" x="35.63" y="92.82" width="1920" height="276.06"/><rect class="cls-3" x="40.5" y="57.99" width="7.09" height="310.89" rx="3.41" ry="3.41"/><rect class="cls-3" x="53.61" y="57.48" width="7.09" height="310.89" rx="3.41" ry="3.41"/><rect class="cls-3" x="67.61" y="57.48" width="7.09" height="310.89" rx="3.41" ry="3.41"/><rect class="cls-3" x="80.61" y="57.48" width="7.09" height="310.89" rx="3.41" ry="3.41"/><rect class="cls-3" x="94.24" y="57.73" width="7.09" height="310.89" rx="3.41" ry="3.41"/><rect class="cls-3" x="108.42" y="57.81" width="7.09" height="310.89" rx="3.41" ry="3.41"/><rect class="cls-3" x="122.42" y="57.81" width="7.09" height="310.89" rx="3.41" ry="3.41"/><rect class="cls-3" x="137.42" y="57.81" width="7.09" height="310.89" rx="3.41" ry="3.41"/><rect class="cls-3" x="151.42" y="57.81" width="7.09" height="310.89" rx="3.41" ry="3.41"/><rect class="cls-3" x="165.42" y="57.81" width="7.09" height="310.89" rx="3.41" ry="3.41"/><rect class="cls-3" x="179.42" y="57.81" width="7.09" height="310.89" rx="3.41" ry="3.41"/><rect class="cls-3" x="194.42" y="57.81" width="7.09" height="310.89" rx="3.41" ry="3.41"/><rect class="cls-3" x="208.42" y="57.81" width="7.09" height="310.89" rx="3.41" ry="3.41"/><rect class="cls-3" x="222.42" y="57.81" width="7.09" height="310.89" rx="3.41" ry="3.41"/><rect class="cls-3" x="236.42" y="57.81" width="7.09" height="310.89" rx="3.41" ry="3.41"/><rect class="cls-3" x="251.42" y="57.81" width="7.09" height="310.89" rx="3.41" ry="3.41"/><rect class="cls-3" x="267.42" y="57.81" width="7.09" height="310.89" rx="3.41" ry="3.41"/><rect class="cls-3" x="282.42" y="57.81" width="7.09" height="310.89" rx="3.41" ry="3.41"/><rect class="cls-3" x="298.42" y="57.81" width="7.09" height="310.89" rx="3.41" ry="3.41"/><rect class="cls-3" x="314.61" y="57.83" width="7.09" height="310.89" rx="3.41" ry="3.41"/><rect class="cls-3" x="327.73" y="57.33" width="7.09" height="310.89" rx="3.41" ry="3.41"/><rect class="cls-3" x="341.73" y="57.33" width="7.09" height="310.89" rx="3.41" ry="3.41"/><rect class="cls-3" x="354.73" y="57.33" width="7.09" height="310.89" rx="3.41" ry="3.41"/><rect class="cls-3" x="368.36" y="57.57" width="7.09" height="310.89" rx="3.41" ry="3.41"/><rect class="cls-3" x="382.53" y="57.65" width="7.09" height="310.89" rx="3.41" ry="3.41"/><rect class="cls-3" x="396.53" y="57.65" width="7.09" height="310.89" rx="3.41" ry="3.41"/><rect class="cls-3" x="411.53" y="57.65" width="7.09" height="310.89" rx="3.41" ry="3.41"/><rect class="cls-3" x="425.53" y="57.65" width="7.09" height="310.89" rx="3.41" ry="3.41"/><rect class="cls-3" x="439.53" y="57.65" width="7.09" height="310.89" rx="3.41" ry="3.41"/><rect class="cls-3" x="453.53" y="57.65" width="7.09" height="310.89" rx="3.41" ry="3.41"/><rect class="cls-3" x="468.53" y="57.65" width="7.09" height="310.89" rx="3.41" ry="3.41"/><rect class="cls-3" x="482.53" y="57.65" width="7.09" height="310.89" rx="3.41" ry="3.41"/><rect class="cls-3" x="496.53" y="57.65" width="7.09" height="310.89" rx="3.41" ry="3.41"/><rect class="cls-3" x="510.53" y="57.65" width="7.09" height="310.89" rx="3.41" ry="3.41"/><rect class="cls-3" x="525.53" y="57.65" width="7.09" height="310.89" rx="3.41" ry="3.41"/><rect class="cls-3" x="541.53" y="57.65" width="7.09" height="310.89" rx="3.41" ry="3.41"/><rect class="cls-3" x="556.53" y="57.65" width="7.09" height="310.89" rx="3.41" ry="3.41"/><rect class="cls-3" x="572.53" y="57.65" width="7.09" height="310.89" rx="3.41" ry="3.41"/><rect class="cls-3" x="588.86" y="58.55" width="7.09" height="310.89" rx="3.41" ry="3.41"/><rect class="cls-3" x="601.98" y="58.04" width="7.09" height="310.89" rx="3.41" ry="3.41"/><rect class="cls-3" x="615.98" y="58.04" width="7.09" height="310.89" rx="3.41" ry="3.41"/><rect class="cls-3" x="628.98" y="58.04" width="7.09" height="310.89" rx="3.41" ry="3.41"/><rect class="cls-3" x="642.61" y="58.28" width="7.09" height="310.89" rx="3.41" ry="3.41"/><rect class="cls-3" x="656.78" y="58.37" width="7.09" height="310.89" rx="3.41" ry="3.41"/><rect class="cls-3" x="670.78" y="58.37" width="7.09" height="310.89" rx="3.41" ry="3.41"/><rect class="cls-3" x="685.78" y="58.37" width="7.09" height="310.89" rx="3.41" ry="3.41"/><rect class="cls-3" x="699.78" y="58.37" width="7.09" height="310.89" rx="3.41" ry="3.41"/><rect class="cls-3" x="713.78" y="58.37" width="7.09" height="310.89" rx="3.41" ry="3.41"/><rect class="cls-3" x="727.78" y="58.37" width="7.09" height="310.89" rx="3.41" ry="3.41"/><rect class="cls-3" x="742.78" y="58.37" width="7.09" height="310.89" rx="3.41" ry="3.41"/><rect class="cls-3" x="756.78" y="58.37" width="7.09" height="310.89" rx="3.41" ry="3.41"/><rect class="cls-3" x="770.78" y="58.37" width="7.09" height="310.89" rx="3.41" ry="3.41"/><rect class="cls-3" x="784.78" y="58.37" width="7.09" height="310.89" rx="3.41" ry="3.41"/><rect class="cls-3" x="799.78" y="58.37" width="7.09" height="310.89" rx="3.41" ry="3.41"/><rect class="cls-3" x="815.78" y="58.37" width="7.09" height="310.89" rx="3.41" ry="3.41"/><rect class="cls-3" x="830.78" y="58.37" width="7.09" height="310.89" rx="3.41" ry="3.41"/><rect class="cls-3" x="846.78" y="58.37" width="7.09" height="310.89" rx="3.41" ry="3.41"/><rect class="cls-3" x="861.58" y="58.69" width="7.09" height="310.89" rx="3.41" ry="3.41"/><rect class="cls-3" x="874.7" y="58.18" width="7.09" height="310.89" rx="3.41" ry="3.41"/><rect class="cls-3" x="888.7" y="58.18" width="7.09" height="310.89" rx="3.41" ry="3.41"/><rect class="cls-3" x="901.7" y="58.18" width="7.09" height="310.89" rx="3.41" ry="3.41"/><rect class="cls-3" x="915.33" y="58.43" width="7.09" height="310.89" rx="3.41" ry="3.41"/><rect class="cls-3" x="929.5" y="58.51" width="7.09" height="310.89" rx="3.41" ry="3.41"/><rect class="cls-3" x="943.5" y="58.51" width="7.09" height="310.89" rx="3.41" ry="3.41"/><rect class="cls-3" x="958.5" y="58.51" width="7.09" height="310.89" rx="3.41" ry="3.41"/><rect class="cls-3" x="972.5" y="58.51" width="7.09" height="310.89" rx="3.41" ry="3.41"/><rect class="cls-3" x="986.5" y="58.51" width="7.09" height="310.89" rx="3.41" ry="3.41"/><rect class="cls-3" x="1000.5" y="58.51" width="7.09" height="310.89" rx="3.41" ry="3.41"/><rect class="cls-3" x="1015.5" y="58.51" width="7.09" height="310.89" rx="3.41" ry="3.41"/><rect class="cls-3" x="1029.5" y="58.51" width="7.09" height="310.89" rx="3.41" ry="3.41"/><rect class="cls-3" x="1043.5" y="58.51" width="7.09" height="310.89" rx="3.41" ry="3.41"/><rect class="cls-3" x="1057.5" y="58.51" width="7.09" height="310.89" rx="3.41" ry="3.41"/><rect class="cls-3" x="1072.5" y="58.51" width="7.09" height="310.89" rx="3.41" ry="3.41"/><rect class="cls-3" x="1088.5" y="58.51" width="7.09" height="310.89" rx="3.41" ry="3.41"/><rect class="cls-3" x="1103.5" y="58.51" width="7.09" height="310.89" rx="3.41" ry="3.41"/><rect class="cls-3" x="1119.5" y="58.51" width="7.09" height="310.89" rx="3.41" ry="3.41"/><rect class="cls-3" x="1133.78" y="58.71" width="7.09" height="310.89" rx="3.41" ry="3.41"/><rect class="cls-3" x="1146.9" y="58.2" width="7.09" height="310.89" rx="3.41" ry="3.41"/><rect class="cls-3" x="1160.9" y="58.2" width="7.09" height="310.89" rx="3.41" ry="3.41"/><rect class="cls-3" x="1173.9" y="58.2" width="7.09" height="310.89" rx="3.41" ry="3.41"/><rect class="cls-3" x="1187.53" y="58.44" width="7.09" height="310.89" rx="3.41" ry="3.41"/><rect class="cls-3" x="1201.7" y="58.53" width="7.09" height="310.89" rx="3.41" ry="3.41"/><rect class="cls-3" x="1215.7" y="58.53" width="7.09" height="310.89" rx="3.41" ry="3.41"/><rect class="cls-3" x="1230.7" y="58.53" width="7.09" height="310.89" rx="3.41" ry="3.41"/><rect class="cls-3" x="1244.7" y="58.53" width="7.09" height="310.89" rx="3.41" ry="3.41"/><rect class="cls-3" x="1258.7" y="58.53" width="7.09" height="310.89" rx="3.41" ry="3.41"/><rect class="cls-3" x="1272.7" y="58.53" width="7.09" height="310.89" rx="3.41" ry="3.41"/><rect class="cls-3" x="1287.7" y="58.53" width="7.09" height="310.89" rx="3.41" ry="3.41"/><rect class="cls-3" x="1301.7" y="58.53" width="7.09" height="310.89" rx="3.41" ry="3.41"/><rect class="cls-3" x="1315.7" y="58.53" width="7.09" height="310.89" rx="3.41" ry="3.41"/><rect class="cls-3" x="1329.7" y="58.53" width="7.09" height="310.89" rx="3.41" ry="3.41"/><rect class="cls-3" x="1344.7" y="58.53" width="7.09" height="310.89" rx="3.41" ry="3.41"/><rect class="cls-3" x="1360.7" y="58.53" width="7.09" height="310.89" rx="3.41" ry="3.41"/><rect class="cls-3" x="1375.7" y="58.53" width="7.09" height="310.89" rx="3.41" ry="3.41"/><rect class="cls-3" x="1391.7" y="58.53" width="7.09" height="310.89" rx="3.41" ry="3.41"/><rect class="cls-3" x="1406.91" y="58.6" width="7.09" height="310.89" rx="3.41" ry="3.41"/><rect class="cls-3" x="1420.02" y="58.09" width="7.09" height="310.89" rx="3.41" ry="3.41"/><rect class="cls-3" x="1434.02" y="58.09" width="7.09" height="310.89" rx="3.41" ry="3.41"/><rect class="cls-3" x="1447.02" y="58.09" width="7.09" height="310.89" rx="3.41" ry="3.41"/><rect class="cls-3" x="1460.65" y="58.33" width="7.09" height="310.89" rx="3.41" ry="3.41"/><rect class="cls-3" x="1474.83" y="58.42" width="7.09" height="310.89" rx="3.41" ry="3.41"/><rect class="cls-3" x="1488.83" y="58.42" width="7.09" height="310.89" rx="3.41" ry="3.41"/><rect class="cls-3" x="1503.83" y="58.42" width="7.09" height="310.89" rx="3.41" ry="3.41"/><rect class="cls-3" x="1517.83" y="58.42" width="7.09" height="310.89" rx="3.41" ry="3.41"/><rect class="cls-3" x="1531.83" y="58.42" width="7.09" height="310.89" rx="3.41" ry="3.41"/><rect class="cls-3" x="1545.83" y="58.42" width="7.09" height="310.89" rx="3.41" ry="3.41"/><rect class="cls-3" x="1560.83" y="58.42" width="7.09" height="310.89" rx="3.41" ry="3.41"/><rect class="cls-3" x="1574.83" y="58.42" width="7.09" height="310.89" rx="3.41" ry="3.41"/><rect class="cls-3" x="1588.83" y="58.42" width="7.09" height="310.89" rx="3.41" ry="3.41"/><rect class="cls-3" x="1602.83" y="58.42" width="7.09" height="310.89" rx="3.41" ry="3.41"/><rect class="cls-3" x="1617.83" y="58.42" width="7.09" height="310.89" rx="3.41" ry="3.41"/><rect class="cls-3" x="1633.83" y="58.42" width="7.09" height="310.89" rx="3.41" ry="3.41"/><rect class="cls-3" x="1648.83" y="58.42" width="7.09" height="310.89" rx="3.41" ry="3.41"/><rect class="cls-3" x="1664.83" y="58.42" width="7.09" height="310.89" rx="3.41" ry="3.41"/><rect class="cls-3" x="1680.83" y="57.96" width="7.09" height="310.89" rx="3.41" ry="3.41"/><rect class="cls-3" x="1693.94" y="57.45" width="7.09" height="310.89" rx="3.41" ry="3.41"/><rect class="cls-3" x="1707.94" y="57.45" width="7.09" height="310.89" rx="3.41" ry="3.41"/><rect class="cls-3" x="1720.94" y="57.45" width="7.09" height="310.89" rx="3.41" ry="3.41"/><rect class="cls-3" x="1734.57" y="57.69" width="7.09" height="310.89" rx="3.41" ry="3.41"/><rect class="cls-3" x="1748.75" y="57.78" width="7.09" height="310.89" rx="3.41" ry="3.41"/><rect class="cls-3" x="1762.75" y="57.78" width="7.09" height="310.89" rx="3.41" ry="3.41"/><rect class="cls-3" x="1777.75" y="57.78" width="7.09" height="310.89" rx="3.41" ry="3.41"/><rect class="cls-3" x="1791.75" y="57.78" width="7.09" height="310.89" rx="3.41" ry="3.41"/><rect class="cls-3" x="1805.75" y="57.78" width="7.09" height="310.89" rx="3.41" ry="3.41"/><rect class="cls-3" x="1819.75" y="57.78" width="7.09" height="310.89" rx="3.41" ry="3.41"/><rect class="cls-3" x="1834.75" y="57.78" width="7.09" height="310.89" rx="3.41" ry="3.41"/><rect class="cls-3" x="1848.75" y="57.78" width="7.09" height="310.89" rx="3.41" ry="3.41"/><rect class="cls-3" x="1862.75" y="57.78" width="7.09" height="310.89" rx="3.41" ry="3.41"/><rect class="cls-3" x="1876.75" y="57.78" width="7.09" height="310.89" rx="3.41" ry="3.41"/><rect class="cls-3" x="1891.75" y="57.78" width="7.09" height="310.89" rx="3.41" ry="3.41"/><rect class="cls-3" x="1907.75" y="57.78" width="7.09" height="310.89" rx="3.41" ry="3.41"/><rect class="cls-3" x="1922.75" y="57.78" width="7.09" height="310.89" rx="3.41" ry="3.41"/><rect class="cls-3" x="1938.75" y="57.78" width="7.09" height="310.89" rx="3.41" ry="3.41"/><rect class="cls-2" x="35.13" y="81.86" width="1921" height="18.06"/><rect class="cls-1" x="35.63" y="56.7" width="1920" height="36.12"/><g><g><rect class="cls-4" x="52.42" y="57.98" width="1" height="33.13"/><rect class="cls-4" x="35.13" y="58.83" width="1" height="32.28"/><rect class="cls-4" x="37.79" y="57.98" width="1" height="33.13"/><rect class="cls-4" x="40.74" y="58.83" width="1" height="32.28"/><rect class="cls-4" x="43.69" y="57.98" width="1" height="33.13"/><rect class="cls-4" x="46.78" y="57.98" width="1" height="33.13"/><rect class="cls-4" x="49.73" y="58.83" width="1" height="32.28"/></g><g><path class="cls-4" d="M55.1,89.96c-.84-19.1,3.33-28.57,7.15-30.87,1.41-.85,2.88-.86,4.27-.05,3.77,2.21,7.58,11.5,6.96,30.9l-1-.03c.62-18.99-3.1-28.03-6.46-30.01-1.07-.63-2.16-.61-3.25,.04-3.87,2.33-7.44,12.5-6.67,29.97l-1,.04Z"/><path class="cls-4" d="M56.97,89.89c-.07-13.3,2.36-23.28,6.18-25.45,1.02-.58,2.08-.56,3.08,.05,2.92,1.78,5.82,9.39,5.19,25.38l-1-.04c.61-15.58-2.16-22.93-4.71-24.49-.68-.42-1.36-.43-2.07-.03-2.88,1.63-5.75,9.86-5.68,24.57h-1Z"/><path class="cls-4" d="M60.23,89.99l-1-.03c.28-10.08,1.86-16.62,4.34-17.96,.68-.36,1.39-.33,2.07,.08,2.63,1.63,4.2,8.7,3.92,17.6l-1-.03c.3-9.39-1.5-15.51-3.45-16.71-.37-.23-.71-.25-1.07-.05-1.64,.88-3.5,5.84-3.82,17.1Z"/><path class="cls-4" d="M62.64,89.77l-1-.03c.17-6.67,.92-10.41,2.23-11.11,.38-.2,.8-.18,1.18,.06,1.59,.99,2.81,6.1,2.63,10.94l-1-.04c.19-4.93-1.16-9.43-2.16-10.05-.11-.07-.14-.05-.18-.03-.24,.13-1.47,1.24-1.7,10.26Z"/></g><g><rect class="cls-4" x="75.04" y="57.98" width="1" height="31.99"/><rect class="cls-4" x="77.59" y="58.94" width="1" height="31.04"/><rect class="cls-4" x="80.58" y="58.94" width="1" height="30.82"/><rect class="cls-4" x="83.8" y="58.94" width="1" height="30.82"/><rect class="cls-4" x="72.31" y="74.55" width="29.84" height="1" transform="translate(11.84 161.99) rotate(-89.78)"/><rect class="cls-4" x="89.9" y="58.83" width="1" height="30.93"/><rect class="cls-4" x="93.51" y="62.83" width="1" height="27.15" transform="translate(-.25 .3) rotate(-.19)"/><rect class="cls-4" x="97.66" y="58.94" width="1" height="31.04"/><rect class="cls-4" x="101.43" y="65.39" width="1" height="24.59"/></g><g><path class="cls-4" d="M105.12,88.97c-.84-19.1,3.33-28.57,7.15-30.88,1.41-.85,2.88-.86,4.27-.05,3.77,2.21,7.58,11.5,6.96,30.9l-1-.03c.62-18.99-3.1-28.03-6.46-30.01-1.07-.63-2.16-.61-3.25,.04-3.87,2.33-7.44,12.5-6.67,29.97l-1,.04Z"/><path class="cls-4" d="M107,88.9c-.07-13.3,2.36-23.28,6.18-25.45,1.02-.57,2.08-.56,3.08,.05,2.92,1.78,5.82,9.39,5.19,25.38l-1-.04c.61-15.58-2.16-22.93-4.71-24.49-.68-.42-1.36-.43-2.07-.03-2.88,1.63-5.75,9.86-5.68,24.57h-1Z"/><path class="cls-4" d="M110.26,89l-1-.03c.28-10.08,1.86-16.62,4.34-17.96,.68-.36,1.39-.33,2.07,.08,2.63,1.63,4.2,8.7,3.92,17.6l-1-.03c.3-9.39-1.5-15.51-3.45-16.71-.37-.23-.71-.25-1.07-.05-1.64,.88-3.5,5.84-3.82,17.1Z"/><path class="cls-4" d="M112.67,88.78l-1-.03c.17-6.67,.92-10.41,2.23-11.11,.38-.2,.79-.18,1.18,.06,1.59,.99,2.81,6.1,2.63,10.94l-1-.04c.19-4.93-1.16-9.43-2.16-10.05-.11-.07-.14-.05-.18-.03-.24,.13-1.47,1.24-1.7,10.26Z"/></g><g><rect class="cls-4" x="142.76" y="57.43" width="1" height="33.13"/><rect class="cls-4" x="125.47" y="58.28" width="1" height="32.28"/><rect class="cls-4" x="128.13" y="57.43" width="1" height="33.13"/><rect class="cls-4" x="131.08" y="58.28" width="1" height="32.28"/><rect class="cls-4" x="134.03" y="57.43" width="1" height="33.13"/><rect class="cls-4" x="137.12" y="57.43" width="1" height="33.13"/><rect class="cls-4" x="140.07" y="58.28" width="1" height="32.28"/></g><g><rect class="cls-4" x="146.02" y="57.59" width="1" height="31.99"/><rect class="cls-4" x="148.57" y="58.55" width="1" height="31.04"/><rect class="cls-4" x="151.56" y="58.55" width="1" height="30.82"/><rect class="cls-4" x="154.78" y="58.55" width="1" height="30.82"/><rect class="cls-4" x="143.29" y="74.16" width="29.84" height="1" transform="translate(82.94 232.58) rotate(-89.78)"/><rect class="cls-4" x="160.88" y="58.44" width="1" height="30.93"/><rect class="cls-4" x="164.5" y="62.43" width="1" height="27.15" transform="translate(-.24 .53) rotate(-.18)"/><rect class="cls-4" x="168.64" y="58.55" width="1" height="31.04"/><rect class="cls-4" x="172.41" y="64.99" width="1" height="24.59"/></g><g><path class="cls-4" d="M176.11,89.64c-.84-19.1,3.33-28.57,7.15-30.88,1.41-.85,2.88-.86,4.27-.05,3.77,2.21,7.58,11.5,6.96,30.9l-1-.03c.62-18.99-3.1-28.03-6.46-30.01-1.07-.63-2.16-.61-3.25,.04-3.87,2.33-7.44,12.5-6.67,29.97l-1,.04Z"/><path class="cls-4" d="M177.99,89.57c-.07-13.3,2.36-23.28,6.18-25.45,1.02-.57,2.08-.56,3.08,.05,2.92,1.78,5.82,9.39,5.19,25.38l-1-.04c.61-15.58-2.16-22.93-4.71-24.49-.69-.42-1.36-.43-2.07-.03-2.88,1.63-5.75,9.86-5.68,24.57h-1Z"/><path class="cls-4" d="M181.25,89.67l-1-.03c.28-10.08,1.86-16.62,4.34-17.96,.68-.36,1.39-.33,2.07,.08,2.63,1.63,4.2,8.7,3.92,17.6l-1-.03c.3-9.39-1.5-15.51-3.44-16.71-.37-.23-.71-.25-1.07-.05-1.64,.88-3.5,5.84-3.82,17.1Z"/><path class="cls-4" d="M183.66,89.45l-1-.03c.17-6.67,.92-10.41,2.23-11.11,.38-.2,.79-.18,1.18,.06,1.59,.99,2.81,6.1,2.63,10.94l-1-.04c.19-4.93-1.16-9.43-2.16-10.05-.11-.07-.14-.05-.18-.03-.24,.13-1.47,1.24-1.7,10.26Z"/></g><g><rect class="cls-4" x="214.26" y="57.61" width="1" height="33.13"/><rect class="cls-4" x="196.96" y="58.45" width="1" height="32.28"/><rect class="cls-4" x="199.63" y="57.61" width="1" height="33.13"/><rect class="cls-4" x="202.58" y="58.45" width="1" height="32.28"/><rect class="cls-4" x="205.53" y="57.61" width="1" height="33.13"/><rect class="cls-4" x="208.62" y="57.61" width="1" height="33.13"/><rect class="cls-4" x="211.56" y="58.45" width="1" height="32.28"/></g><g><rect class="cls-4" x="234.32" y="57.61" width="1" height="33.13"/><rect class="cls-4" x="217.02" y="58.45" width="1" height="32.28"/><rect class="cls-4" x="219.69" y="57.61" width="1" height="33.13"/><rect class="cls-4" x="222.64" y="58.45" width="1" height="32.28"/><rect class="cls-4" x="225.59" y="57.61" width="1" height="33.13"/><rect class="cls-4" x="228.68" y="57.61" width="1" height="33.13"/><rect class="cls-4" x="231.62" y="58.45" width="1" height="32.28"/></g><g><rect class="cls-4" x="254.38" y="57.61" width="1" height="33.13"/><rect class="cls-4" x="237.08" y="58.45" width="1" height="32.28"/><rect class="cls-4" x="239.75" y="57.61" width="1" height="33.13"/><rect class="cls-4" x="242.7" y="58.45" width="1" height="32.28"/><rect class="cls-4" x="245.65" y="57.61" width="1" height="33.13"/><rect class="cls-4" x="248.74" y="57.61" width="1" height="33.13"/><rect class="cls-4" x="251.68" y="58.45" width="1" height="32.28"/></g><g><rect class="cls-4" x="259.28" y="58.17" width="1" height="31.99"/><rect class="cls-4" x="261.83" y="59.13" width="1" height="31.04"/><rect class="cls-4" x="264.83" y="59.13" width="1" height="30.82"/><rect class="cls-4" x="268.04" y="59.13" width="1" height="30.82"/><rect class="cls-4" x="256.55" y="74.74" width="29.84" height="1" transform="translate(195.18 346.42) rotate(-89.78)"/><rect class="cls-4" x="274.14" y="59.02" width="1" height="30.93"/><rect class="cls-4" x="277.76" y="63.01" width="1" height="27.15" transform="translate(-.25 .9) rotate(-.19)"/><rect class="cls-4" x="281.91" y="59.13" width="1" height="31.04"/><rect class="cls-4" x="285.68" y="65.57" width="1" height="24.59"/></g><g><rect class="cls-4" x="307.01" y="59.69" width="1" height="33.13"/><rect class="cls-4" x="289.71" y="60.54" width="1" height="32.28"/><rect class="cls-4" x="292.38" y="59.69" width="1" height="33.13"/><rect class="cls-4" x="295.33" y="60.54" width="1" height="32.28"/><rect class="cls-4" x="298.28" y="59.69" width="1" height="33.13"/><rect class="cls-4" x="301.37" y="59.69" width="1" height="33.13"/><rect class="cls-4" x="304.32" y="60.54" width="1" height="32.28"/></g><g><path class="cls-4" d="M309.91,92.3c-.84-19.1,3.33-28.57,7.15-30.88,1.41-.84,2.88-.86,4.27-.05,3.77,2.21,7.58,11.5,6.96,30.9l-1-.03c.62-18.99-3.1-28.03-6.46-30.01-1.07-.63-2.16-.61-3.25,.04-3.87,2.33-7.44,12.5-6.67,29.97l-1,.04Z"/><path class="cls-4" d="M311.79,92.23c-.07-13.3,2.36-23.28,6.18-25.45,1.02-.57,2.08-.56,3.08,.05,2.92,1.78,5.82,9.39,5.19,25.38l-1-.04c.61-15.58-2.16-22.93-4.71-24.49-.69-.42-1.36-.43-2.07-.03-2.88,1.63-5.75,9.86-5.68,24.57h-1Z"/><path class="cls-4" d="M315.04,92.33l-1-.03c.28-10.08,1.86-16.62,4.34-17.96,.68-.37,1.39-.33,2.07,.08,2.63,1.63,4.2,8.7,3.92,17.59l-1-.03c.3-9.39-1.5-15.51-3.45-16.71-.37-.23-.71-.24-1.07-.05-1.64,.88-3.5,5.84-3.82,17.1Z"/><path class="cls-4" d="M317.46,92.12l-1-.03c.17-6.67,.92-10.41,2.23-11.11,.38-.2,.79-.18,1.18,.06,1.59,.99,2.81,6.1,2.63,10.94l-1-.04c.19-4.93-1.16-9.43-2.16-10.05-.11-.06-.14-.05-.18-.03-.24,.13-1.47,1.24-1.7,10.26Z"/></g><g><rect class="cls-4" x="347.13" y="59.69" width="1" height="33.13"/><rect class="cls-4" x="329.83" y="60.54" width="1" height="32.28"/><rect class="cls-4" x="332.5" y="59.69" width="1" height="33.13"/><rect class="cls-4" x="335.45" y="60.54" width="1" height="32.28"/><rect class="cls-4" x="338.4" y="59.69" width="1" height="33.13"/><rect class="cls-4" x="341.49" y="59.69" width="1" height="33.13"/><rect class="cls-4" x="344.44" y="60.54" width="1" height="32.28"/></g><g><rect class="cls-4" x="350.7" y="60.26" width="1" height="31.99"/><rect class="cls-4" x="353.25" y="61.21" width="1" height="31.04"/><rect class="cls-4" x="356.24" y="61.21" width="1" height="30.82"/><rect class="cls-4" x="359.46" y="61.21" width="1" height="30.82"/><rect class="cls-4" x="347.97" y="76.83" width="29.84" height="1" transform="translate(284.15 439.91) rotate(-89.78)"/><rect class="cls-4" x="365.56" y="61.1" width="1" height="30.93"/><rect class="cls-4" x="369.17" y="65.1" width="1" height="27.15" transform="translate(-.25 1.2) rotate(-.19)"/><rect class="cls-4" x="373.32" y="61.21" width="1" height="31.04"/><rect class="cls-4" x="377.09" y="67.66" width="1" height="24.59"/></g><g><rect class="cls-4" x="397.44" y="58.48" width="1" height="33.13"/><rect class="cls-4" x="380.15" y="59.33" width="1" height="32.28"/><rect class="cls-4" x="382.82" y="58.48" width="1" height="33.13"/><rect class="cls-4" x="385.76" y="59.33" width="1" height="32.28"/><rect class="cls-4" x="388.71" y="58.48" width="1" height="33.13"/><rect class="cls-4" x="391.8" y="58.48" width="1" height="33.13"/><rect class="cls-4" x="394.75" y="59.33" width="1" height="32.28"/></g><g><rect class="cls-4" x="417.5" y="58.48" width="1" height="33.13"/><rect class="cls-4" x="400.21" y="59.33" width="1" height="32.28"/><rect class="cls-4" x="402.88" y="58.48" width="1" height="33.13"/><rect class="cls-4" x="405.82" y="59.33" width="1" height="32.28"/><rect class="cls-4" x="408.77" y="58.48" width="1" height="33.13"/><rect class="cls-4" x="411.86" y="58.48" width="1" height="33.13"/><rect class="cls-4" x="414.81" y="59.33" width="1" height="32.28"/></g><g><rect class="cls-4" x="419.73" y="59.04" width="1" height="31.99"/><rect class="cls-4" x="422.28" y="60" width="1" height="31.04"/><rect class="cls-4" x="425.28" y="60" width="1" height="30.82"/><rect class="cls-4" x="428.49" y="60" width="1" height="30.82"/><rect class="cls-4" x="417" y="75.62" width="29.84" height="1" transform="translate(354.12 507.74) rotate(-89.78)"/><rect class="cls-4" x="434.59" y="59.89" width="1" height="30.93"/><rect class="cls-4" x="438.21" y="63.89" width="1" height="27.15" transform="translate(-.25 1.42) rotate(-.19)"/><rect class="cls-4" x="442.36" y="60" width="1" height="31.04"/><rect class="cls-4" x="446.13" y="66.45" width="1" height="24.59"/></g><g><path class="cls-4" d="M449.57,89.89c-.84-19.1,3.33-28.57,7.15-30.87,1.41-.85,2.88-.86,4.27-.05,3.77,2.21,7.58,11.5,6.96,30.9l-1-.03c.62-18.99-3.1-28.03-6.46-30.01-1.07-.63-2.16-.61-3.25,.04-3.87,2.33-7.44,12.5-6.67,29.97l-1,.04Z"/><path class="cls-4" d="M451.45,89.82c-.07-13.3,2.36-23.28,6.18-25.45,1.02-.58,2.08-.56,3.08,.05,2.92,1.78,5.82,9.39,5.19,25.38l-1-.04c.61-15.58-2.16-22.93-4.71-24.49-.68-.42-1.36-.43-2.07-.03-2.88,1.63-5.75,9.86-5.68,24.57h-1Z"/><path class="cls-4" d="M454.71,89.92l-1-.03c.28-10.08,1.86-16.62,4.34-17.96,.68-.36,1.39-.34,2.07,.08,2.63,1.63,4.2,8.7,3.92,17.6l-1-.03c.3-9.39-1.5-15.51-3.45-16.71-.37-.23-.71-.24-1.07-.05-1.64,.88-3.5,5.84-3.82,17.1Z"/><path class="cls-4" d="M457.12,89.7l-1-.03c.17-6.67,.92-10.41,2.23-11.11,.38-.2,.8-.18,1.18,.06,1.59,.99,2.81,6.1,2.63,10.94l-1-.04c.19-4.93-1.16-9.43-2.16-10.05-.11-.07-.14-.05-.18-.03-.24,.13-1.47,1.24-1.7,10.26Z"/></g><g><rect class="cls-4" x="487.48" y="57.38" width="1" height="33.13"/><rect class="cls-4" x="470.18" y="58.23" width="1" height="32.28"/><rect class="cls-4" x="472.85" y="57.38" width="1" height="33.13"/><rect class="cls-4" x="475.8" y="58.23" width="1" height="32.28"/><rect class="cls-4" x="478.75" y="57.38" width="1" height="33.13"/><rect class="cls-4" x="481.84" y="57.38" width="1" height="33.13"/><rect class="cls-4" x="484.78" y="58.23" width="1" height="32.28"/></g><g><rect class="cls-4" x="491.04" y="57.95" width="1" height="31.99"/><rect class="cls-4" x="493.59" y="58.9" width="1" height="31.04"/><rect class="cls-4" x="496.59" y="58.9" width="1" height="30.82"/><rect class="cls-4" x="499.8" y="58.9" width="1" height="30.82"/><rect class="cls-4" x="488.32" y="74.52" width="29.84" height="1" transform="translate(426.26 577.96) rotate(-89.78)"/><rect class="cls-4" x="505.9" y="58.79" width="1" height="30.93"/><rect class="cls-4" x="509.52" y="62.79" width="1" height="27.15" transform="translate(-.24 1.65) rotate(-.19)"/><rect class="cls-4" x="513.67" y="58.9" width="1" height="31.04"/><rect class="cls-4" x="517.44" y="65.35" width="1" height="24.59"/></g><g><rect class="cls-4" x="521.32" y="57.76" width="1" height="31.99"/><rect class="cls-4" x="523.87" y="58.72" width="1" height="31.04"/><rect class="cls-4" x="526.87" y="58.72" width="1" height="30.82"/><rect class="cls-4" x="530.08" y="58.72" width="1" height="30.82"/><rect class="cls-4" x="518.6" y="74.33" width="29.84" height="1" transform="translate(456.6 608.05) rotate(-89.78)"/><rect class="cls-4" x="536.18" y="58.61" width="1" height="30.93"/><rect class="cls-4" x="539.8" y="62.6" width="1" height="27.15" transform="translate(-.24 1.75) rotate(-.19)"/><rect class="cls-4" x="543.95" y="58.72" width="1" height="31.04"/><rect class="cls-4" x="547.72" y="65.16" width="1" height="24.59"/></g><g><rect class="cls-4" x="568.58" y="57.2" width="1" height="33.13"/><rect class="cls-4" x="551.28" y="58.05" width="1" height="32.28"/><rect class="cls-4" x="553.95" y="57.2" width="1" height="33.13"/><rect class="cls-4" x="556.9" y="58.05" width="1" height="32.28"/><rect class="cls-4" x="559.85" y="57.2" width="1" height="33.13"/><rect class="cls-4" x="562.93" y="57.2" width="1" height="33.13"/><rect class="cls-4" x="565.88" y="58.05" width="1" height="32.28"/></g><g><rect class="cls-4" x="588.64" y="57.2" width="1" height="33.13"/><rect class="cls-4" x="571.34" y="58.05" width="1" height="32.28"/><rect class="cls-4" x="574.01" y="57.2" width="1" height="33.13"/><rect class="cls-4" x="576.96" y="58.05" width="1" height="32.28"/><rect class="cls-4" x="579.91" y="57.2" width="1" height="33.13"/><rect class="cls-4" x="582.99" y="57.2" width="1" height="33.13"/><rect class="cls-4" x="585.94" y="58.05" width="1" height="32.28"/></g><g><rect class="cls-4" x="591.26" y="57.68" width="1" height="31.99"/><rect class="cls-4" x="593.81" y="58.64" width="1" height="31.04"/><rect class="cls-4" x="596.81" y="58.64" width="1" height="30.82"/><rect class="cls-4" x="600.03" y="58.64" width="1" height="30.82"/><rect class="cls-4" x="588.54" y="74.25" width="29.84" height="1" transform="translate(526.35 677.92) rotate(-89.78)"/><rect class="cls-4" x="606.12" y="58.53" width="1" height="30.93"/><rect class="cls-4" x="609.74" y="62.53" width="1" height="27.15" transform="translate(-.24 1.98) rotate(-.19)"/><rect class="cls-4" x="613.89" y="58.64" width="1" height="31.04"/><rect class="cls-4" x="617.66" y="65.09" width="1" height="24.59"/></g><g><rect class="cls-4" x="622.35" y="57.26" width="1" height="31.99"/><rect class="cls-4" x="624.9" y="58.22" width="1" height="31.04"/><rect class="cls-4" x="627.9" y="58.22" width="1" height="30.82"/><rect class="cls-4" x="631.11" y="58.22" width="1" height="30.82"/><rect class="cls-4" x="619.63" y="73.84" width="29.84" height="1" transform="translate(557.73 708.59) rotate(-89.78)"/><rect class="cls-4" x="637.21" y="58.11" width="1" height="30.93"/><rect class="cls-4" x="640.83" y="62.11" width="1" height="27.15" transform="translate(-.24 2.08) rotate(-.19)"/><rect class="cls-4" x="644.98" y="58.22" width="1" height="31.04"/><rect class="cls-4" x="648.75" y="64.67" width="1" height="24.59"/></g><g><path class="cls-4" d="M652.45,89.31c-.84-19.1,3.33-28.57,7.15-30.87,1.41-.85,2.88-.86,4.27-.05,3.77,2.21,7.58,11.5,6.96,30.9l-1-.03c.62-18.99-3.1-28.03-6.46-30.01-1.07-.63-2.16-.61-3.25,.04-3.87,2.33-7.44,12.5-6.67,29.97l-1,.04Z"/><path class="cls-4" d="M654.32,89.24c-.07-13.3,2.36-23.28,6.18-25.45,1.02-.58,2.08-.56,3.08,.05,2.92,1.78,5.82,9.39,5.19,25.38l-1-.04c.61-15.58-2.16-22.93-4.71-24.49-.69-.42-1.36-.43-2.07-.03-2.88,1.63-5.75,9.86-5.68,24.57h-1Z"/><path class="cls-4" d="M657.58,89.34l-1-.03c.28-10.08,1.86-16.62,4.34-17.96,.68-.36,1.39-.34,2.07,.08,2.63,1.63,4.2,8.7,3.92,17.6l-1-.03c.3-9.39-1.5-15.51-3.45-16.71-.37-.23-.71-.24-1.07-.05-1.64,.88-3.5,5.84-3.82,17.1Z"/><path class="cls-4" d="M659.99,89.12l-1-.03c.17-6.67,.92-10.41,2.23-11.11,.38-.2,.79-.18,1.18,.06,1.59,.99,2.81,6.1,2.63,10.94l-1-.04c.19-4.93-1.16-9.43-2.16-10.05-.11-.07-.14-.05-.18-.03-.24,.13-1.47,1.24-1.7,10.26Z"/></g><g><rect class="cls-4" x="691" y="56.7" width="1" height="33.13"/><rect class="cls-4" x="673.71" y="57.55" width="1" height="32.28"/><rect class="cls-4" x="676.38" y="56.7" width="1" height="33.13"/><rect class="cls-4" x="679.32" y="57.55" width="1" height="32.28"/><rect class="cls-4" x="682.27" y="56.7" width="1" height="33.13"/><rect class="cls-4" x="685.36" y="56.7" width="1" height="33.13"/><rect class="cls-4" x="688.31" y="57.55" width="1" height="32.28"/></g><g><rect class="cls-4" x="694.39" y="57.88" width="1" height="31.99"/><rect class="cls-4" x="696.94" y="58.84" width="1" height="31.04"/><rect class="cls-4" x="699.93" y="58.84" width="1" height="30.82"/><rect class="cls-4" x="703.15" y="58.84" width="1" height="30.82"/><rect class="cls-4" x="691.66" y="74.45" width="29.84" height="1" transform="translate(628.87 781.24) rotate(-89.78)"/><rect class="cls-4" x="709.25" y="58.73" width="1" height="30.93"/><rect class="cls-4" x="712.87" y="62.72" width="1" height="27.15" transform="translate(-.24 2.31) rotate(-.19)"/><rect class="cls-4" x="717.01" y="58.84" width="1" height="31.04"/><rect class="cls-4" x="720.78" y="65.28" width="1" height="24.59"/></g><g><rect class="cls-4" x="723.81" y="57.88" width="1" height="31.99"/><rect class="cls-4" x="726.36" y="58.84" width="1" height="31.04"/><rect class="cls-4" x="729.36" y="58.84" width="1" height="30.82"/><rect class="cls-4" x="732.57" y="58.84" width="1" height="30.82"/><rect class="cls-4" x="721.08" y="74.45" width="29.84" height="1" transform="translate(658.18 810.66) rotate(-89.78)"/><rect class="cls-4" x="738.67" y="58.73" width="1" height="30.93"/><rect class="cls-4" x="742.29" y="62.72" width="1" height="27.15" transform="translate(-.24 2.41) rotate(-.19)"/><rect class="cls-4" x="746.43" y="58.84" width="1" height="31.04"/><rect class="cls-4" x="750.21" y="65.28" width="1" height="24.59"/></g><g><rect class="cls-4" x="771.07" y="57.32" width="1" height="33.13"/><rect class="cls-4" x="753.77" y="58.17" width="1" height="32.28"/><rect class="cls-4" x="756.44" y="57.32" width="1" height="33.13"/><rect class="cls-4" x="759.38" y="58.17" width="1" height="32.28"/><rect class="cls-4" x="762.33" y="57.32" width="1" height="33.13"/><rect class="cls-4" x="765.42" y="57.32" width="1" height="33.13"/><rect class="cls-4" x="768.37" y="58.17" width="1" height="32.28"/></g><g><rect class="cls-4" x="791.13" y="57.32" width="1" height="33.13"/><rect class="cls-4" x="773.83" y="58.17" width="1" height="32.28"/><rect class="cls-4" x="776.5" y="57.32" width="1" height="33.13"/><rect class="cls-4" x="779.45" y="58.17" width="1" height="32.28"/><rect class="cls-4" x="782.39" y="57.32" width="1" height="33.13"/><rect class="cls-4" x="785.48" y="57.32" width="1" height="33.13"/><rect class="cls-4" x="788.43" y="58.17" width="1" height="32.28"/></g></g><g><g><rect class="cls-4" x="812.13" y="57.53" width="1" height="33.13"/><rect class="cls-4" x="794.83" y="58.37" width="1" height="32.28"/><rect class="cls-4" x="797.5" y="57.53" width="1" height="33.13"/><rect class="cls-4" x="800.45" y="58.37" width="1" height="32.28"/><rect class="cls-4" x="803.4" y="57.53" width="1" height="33.13"/><rect class="cls-4" x="806.49" y="57.53" width="1" height="33.13"/><rect class="cls-4" x="809.44" y="58.37" width="1" height="32.28"/></g><g><path class="cls-4" d="M814.8,89.5c-.84-19.1,3.33-28.57,7.15-30.87,1.41-.85,2.88-.86,4.27-.05,3.77,2.21,7.58,11.5,6.96,30.9l-1-.03c.62-18.99-3.1-28.03-6.46-30.01-1.07-.63-2.16-.61-3.25,.04-3.87,2.33-7.44,12.5-6.67,29.97l-1,.04Z"/><path class="cls-4" d="M816.68,89.43c-.07-13.3,2.36-23.28,6.18-25.45,1.02-.58,2.08-.56,3.08,.05,2.92,1.78,5.82,9.39,5.19,25.38l-1-.04c.61-15.58-2.16-22.93-4.71-24.49-.69-.42-1.36-.43-2.07-.03-2.88,1.63-5.75,9.86-5.68,24.57h-1Z"/><path class="cls-4" d="M819.94,89.53l-1-.03c.28-10.08,1.86-16.62,4.34-17.96,.68-.37,1.39-.34,2.07,.08,2.63,1.63,4.2,8.7,3.92,17.59l-1-.03c.3-9.39-1.5-15.51-3.44-16.71-.37-.23-.71-.24-1.07-.05-1.64,.88-3.5,5.84-3.82,17.1Z"/><path class="cls-4" d="M822.35,89.32l-1-.03c.17-6.67,.92-10.41,2.23-11.11,.38-.2,.79-.18,1.18,.06,1.59,.99,2.81,6.1,2.63,10.94l-1-.04c.19-4.93-1.16-9.43-2.16-10.05-.11-.06-.14-.05-.18-.03-.24,.13-1.47,1.24-1.7,10.26Z"/></g><g><rect class="cls-4" x="834.74" y="57.53" width="1" height="31.99"/><rect class="cls-4" x="837.29" y="58.48" width="1" height="31.04"/><rect class="cls-4" x="840.29" y="58.48" width="1" height="30.82"/><rect class="cls-4" x="843.5" y="58.48" width="1" height="30.82"/><rect class="cls-4" x="832.02" y="74.1" width="29.84" height="1" transform="translate(769.03 921.24) rotate(-89.78)"/><rect class="cls-4" x="849.6" y="58.37" width="1" height="30.93"/><rect class="cls-4" x="853.22" y="62.37" width="1" height="27.15" transform="translate(-.24 2.76) rotate(-.19)"/><rect class="cls-4" x="857.37" y="58.48" width="1" height="31.04"/><rect class="cls-4" x="861.14" y="64.93" width="1" height="24.59"/></g><g><path class="cls-4" d="M864.83,88.51c-.84-19.1,3.33-28.57,7.15-30.87,1.41-.85,2.88-.86,4.27-.05,3.77,2.21,7.58,11.5,6.96,30.9l-1-.03c.62-18.99-3.1-28.03-6.46-30.01-1.07-.63-2.16-.61-3.25,.04-3.87,2.33-7.44,12.5-6.67,29.97l-1,.04Z"/><path class="cls-4" d="M866.71,88.44c-.07-13.3,2.36-23.28,6.18-25.45,1.02-.58,2.08-.56,3.08,.05,2.92,1.78,5.82,9.39,5.19,25.38l-1-.04c.61-15.58-2.16-22.93-4.71-24.49-.69-.42-1.36-.43-2.07-.03-2.88,1.63-5.75,9.86-5.68,24.57h-1Z"/><path class="cls-4" d="M869.97,88.54l-1-.03c.28-10.08,1.86-16.62,4.34-17.96,.68-.36,1.39-.34,2.07,.08,2.63,1.63,4.2,8.7,3.92,17.6l-1-.03c.3-9.39-1.5-15.51-3.45-16.71-.37-.23-.71-.24-1.07-.05-1.64,.88-3.5,5.84-3.82,17.1Z"/><path class="cls-4" d="M872.38,88.32l-1-.03c.17-6.67,.92-10.41,2.23-11.11,.38-.2,.79-.18,1.18,.06,1.59,.99,2.81,6.1,2.63,10.94l-1-.04c.19-4.93-1.16-9.43-2.16-10.05-.11-.07-.14-.05-.18-.03-.24,.13-1.47,1.24-1.7,10.26Z"/></g><g><rect class="cls-4" x="902.47" y="56.98" width="1" height="33.13"/><rect class="cls-4" x="885.18" y="57.83" width="1" height="32.28"/><rect class="cls-4" x="887.84" y="56.98" width="1" height="33.13"/><rect class="cls-4" x="890.79" y="57.83" width="1" height="32.28"/><rect class="cls-4" x="893.74" y="56.98" width="1" height="33.13"/><rect class="cls-4" x="896.83" y="56.98" width="1" height="33.13"/><rect class="cls-4" x="899.78" y="57.83" width="1" height="32.28"/></g><g><rect class="cls-4" x="905.73" y="57.13" width="1" height="31.99"/><rect class="cls-4" x="908.28" y="58.09" width="1" height="31.04"/><rect class="cls-4" x="911.27" y="58.09" width="1" height="30.82"/><rect class="cls-4" x="914.49" y="58.09" width="1" height="30.82"/><rect class="cls-4" x="903" y="73.7" width="29.84" height="1" transform="translate(840.13 991.83) rotate(-89.78)"/><rect class="cls-4" x="920.59" y="57.98" width="1" height="30.93"/><rect class="cls-4" x="924.2" y="61.98" width="1" height="27.15" transform="translate(-.24 2.99) rotate(-.19)"/><rect class="cls-4" x="928.35" y="58.09" width="1" height="31.04"/><rect class="cls-4" x="932.12" y="64.54" width="1" height="24.59"/></g><g><path class="cls-4" d="M935.82,89.18c-.84-19.1,3.33-28.57,7.15-30.87,1.41-.85,2.88-.86,4.27-.05,3.77,2.21,7.58,11.5,6.96,30.9l-1-.03c.62-18.99-3.1-28.03-6.46-30.01-1.07-.63-2.16-.61-3.25,.04-3.87,2.33-7.44,12.5-6.67,29.97l-1,.04Z"/><path class="cls-4" d="M937.7,89.11c-.07-13.3,2.36-23.28,6.18-25.45,1.02-.58,2.08-.56,3.08,.05,2.92,1.78,5.82,9.39,5.19,25.38l-1-.04c.61-15.58-2.16-22.93-4.71-24.49-.68-.42-1.36-.43-2.07-.03-2.88,1.63-5.75,9.86-5.68,24.57h-1Z"/><path class="cls-4" d="M940.96,89.21l-1-.03c.28-10.08,1.86-16.62,4.34-17.96,.68-.36,1.39-.34,2.07,.08,2.63,1.63,4.2,8.7,3.92,17.6l-1-.03c.3-9.39-1.5-15.51-3.45-16.71-.37-.23-.71-.24-1.07-.05-1.64,.88-3.5,5.84-3.82,17.1Z"/><path class="cls-4" d="M943.37,88.99l-1-.03c.17-6.67,.92-10.41,2.23-11.11,.38-.2,.79-.18,1.18,.06,1.59,.99,2.81,6.1,2.63,10.94l-1-.04c.19-4.93-1.16-9.43-2.16-10.05-.11-.07-.14-.04-.18-.03-.24,.13-1.47,1.24-1.7,10.26Z"/></g><g><rect class="cls-4" x="973.97" y="57.15" width="1" height="33.13"/><rect class="cls-4" x="956.67" y="58" width="1" height="32.28"/><rect class="cls-4" x="959.34" y="57.15" width="1" height="33.13"/><rect class="cls-4" x="962.29" y="58" width="1" height="32.28"/><rect class="cls-4" x="965.24" y="57.15" width="1" height="33.13"/><rect class="cls-4" x="968.32" y="57.15" width="1" height="33.13"/><rect class="cls-4" x="971.27" y="58" width="1" height="32.28"/></g><g><rect class="cls-4" x="994.03" y="57.15" width="1" height="33.13"/><rect class="cls-4" x="976.73" y="58" width="1" height="32.28"/><rect class="cls-4" x="979.4" y="57.15" width="1" height="33.13"/><rect class="cls-4" x="982.35" y="58" width="1" height="32.28"/><rect class="cls-4" x="985.3" y="57.15" width="1" height="33.13"/><rect class="cls-4" x="988.38" y="57.15" width="1" height="33.13"/><rect class="cls-4" x="991.33" y="58" width="1" height="32.28"/></g><g><rect class="cls-4" x="1014.09" y="57.15" width="1" height="33.13"/><rect class="cls-4" x="996.79" y="58" width="1" height="32.28"/><rect class="cls-4" x="999.46" y="57.15" width="1" height="33.13"/><rect class="cls-4" x="1002.41" y="58" width="1" height="32.28"/><rect class="cls-4" x="1005.36" y="57.15" width="1" height="33.13"/><rect class="cls-4" x="1008.44" y="57.15" width="1" height="33.13"/><rect class="cls-4" x="1011.39" y="58" width="1" height="32.28"/></g><g><rect class="cls-4" x="1018.99" y="57.71" width="1" height="31.99"/><rect class="cls-4" x="1021.54" y="58.67" width="1" height="31.04"/><rect class="cls-4" x="1024.54" y="58.67" width="1" height="30.82"/><rect class="cls-4" x="1027.75" y="58.67" width="1" height="30.82"/><rect class="cls-4" x="1016.26" y="74.28" width="29.84" height="1" transform="translate(952.37 1105.67) rotate(-89.78)"/><rect class="cls-4" x="1033.85" y="58.56" width="1" height="30.93"/><rect class="cls-4" x="1037.47" y="62.56" width="1" height="27.15" transform="translate(-.24 3.36) rotate(-.19)"/><rect class="cls-4" x="1041.61" y="58.67" width="1" height="31.04"/><rect class="cls-4" x="1045.38" y="65.12" width="1" height="24.59"/></g><g><rect class="cls-4" x="1066.72" y="59.24" width="1" height="33.13"/><rect class="cls-4" x="1049.42" y="60.08" width="1" height="32.28"/><rect class="cls-4" x="1052.09" y="59.24" width="1" height="33.13"/><rect class="cls-4" x="1055.04" y="60.08" width="1" height="32.28"/><rect class="cls-4" x="1057.99" y="59.24" width="1" height="33.13"/><rect class="cls-4" x="1061.08" y="59.24" width="1" height="33.13"/><rect class="cls-4" x="1064.02" y="60.08" width="1" height="32.28"/></g><g><path class="cls-4" d="M1069.62,91.84c-.84-19.1,3.33-28.57,7.15-30.87,1.41-.85,2.88-.86,4.27-.05,3.77,2.21,7.58,11.5,6.96,30.9l-1-.03c.62-18.99-3.1-28.03-6.46-30.01-1.07-.63-2.16-.61-3.25,.04-3.87,2.33-7.44,12.5-6.67,29.97l-1,.04Z"/><path class="cls-4" d="M1071.5,91.77c-.07-13.3,2.36-23.28,6.18-25.45,1.02-.58,2.08-.56,3.08,.05,2.92,1.78,5.82,9.39,5.19,25.38l-1-.04c.61-15.58-2.16-22.93-4.71-24.49-.68-.42-1.36-.43-2.07-.03-2.88,1.63-5.75,9.86-5.68,24.57h-1Z"/><path class="cls-4" d="M1074.75,91.88l-1-.03c.28-10.08,1.87-16.62,4.34-17.96,.67-.36,1.39-.33,2.07,.08,2.63,1.63,4.2,8.7,3.92,17.6l-1-.03c.3-9.39-1.5-15.51-3.44-16.71-.37-.23-.71-.25-1.07-.05-1.64,.88-3.5,5.84-3.82,17.1Z"/><path class="cls-4" d="M1077.16,91.66l-1-.03c.17-6.67,.92-10.41,2.23-11.11,.38-.2,.79-.18,1.18,.06,1.59,.99,2.81,6.1,2.63,10.94l-1-.04c.19-4.93-1.16-9.43-2.16-10.05-.11-.07-.14-.05-.18-.03-.24,.13-1.47,1.24-1.7,10.26Z"/></g><g><rect class="cls-4" x="1106.84" y="59.24" width="1" height="33.13"/><rect class="cls-4" x="1089.54" y="60.08" width="1" height="32.28"/><rect class="cls-4" x="1092.21" y="59.24" width="1" height="33.13"/><rect class="cls-4" x="1095.16" y="60.08" width="1" height="32.28"/><rect class="cls-4" x="1098.11" y="59.24" width="1" height="33.13"/><rect class="cls-4" x="1101.2" y="59.24" width="1" height="33.13"/><rect class="cls-4" x="1104.14" y="60.08" width="1" height="32.28"/></g><g><rect class="cls-4" x="1110.4" y="59.8" width="1" height="31.99"/><rect class="cls-4" x="1112.96" y="60.75" width="1" height="31.04"/><rect class="cls-4" x="1115.95" y="60.75" width="1" height="30.82"/><rect class="cls-4" x="1119.17" y="60.75" width="1" height="30.82"/><rect class="cls-4" x="1107.68" y="76.37" width="29.84" height="1" transform="translate(1041.34 1199.16) rotate(-89.78)"/><rect class="cls-4" x="1125.26" y="60.65" width="1" height="30.93"/><rect class="cls-4" x="1128.88" y="64.64" width="1" height="27.15" transform="translate(-.25 3.66) rotate(-.19)"/><rect class="cls-4" x="1133.03" y="60.75" width="1" height="31.04"/><rect class="cls-4" x="1136.8" y="67.2" width="1" height="24.59"/></g><g><rect class="cls-4" x="1157.15" y="58.03" width="1" height="33.13"/><rect class="cls-4" x="1139.86" y="58.87" width="1" height="32.28"/><rect class="cls-4" x="1142.52" y="58.03" width="1" height="33.13"/><rect class="cls-4" x="1145.47" y="58.87" width="1" height="32.28"/><rect class="cls-4" x="1148.42" y="58.03" width="1" height="33.13"/><rect class="cls-4" x="1151.51" y="58.03" width="1" height="33.13"/><rect class="cls-4" x="1154.46" y="58.87" width="1" height="32.28"/></g><g><rect class="cls-4" x="1177.21" y="58.03" width="1" height="33.13"/><rect class="cls-4" x="1159.92" y="58.87" width="1" height="32.28"/><rect class="cls-4" x="1162.58" y="58.03" width="1" height="33.13"/><rect class="cls-4" x="1165.53" y="58.87" width="1" height="32.28"/><rect class="cls-4" x="1168.48" y="58.03" width="1" height="33.13"/><rect class="cls-4" x="1171.57" y="58.03" width="1" height="33.13"/><rect class="cls-4" x="1174.52" y="58.87" width="1" height="32.28"/></g><g><rect class="cls-4" x="1179.44" y="58.59" width="1" height="31.99"/><rect class="cls-4" x="1181.99" y="59.54" width="1" height="31.04"/><rect class="cls-4" x="1184.99" y="59.54" width="1" height="30.82"/><rect class="cls-4" x="1188.2" y="59.54" width="1" height="30.82"/><rect class="cls-4" x="1176.71" y="75.16" width="29.84" height="1" transform="translate(1111.32 1266.99) rotate(-89.78)"/><rect class="cls-4" x="1194.3" y="59.44" width="1" height="30.93"/><rect class="cls-4" x="1197.92" y="63.43" width="1" height="27.15" transform="translate(-.24 3.88) rotate(-.19)"/><rect class="cls-4" x="1202.06" y="59.54" width="1" height="31.04"/><rect class="cls-4" x="1205.83" y="65.99" width="1" height="24.59"/></g><g><path class="cls-4" d="M1209.28,89.43c-.84-19.1,3.33-28.57,7.15-30.87,1.41-.85,2.88-.86,4.27-.05,3.77,2.21,7.58,11.5,6.96,30.9l-1-.03c.62-18.99-3.1-28.03-6.46-30.01-1.07-.63-2.16-.61-3.25,.04-3.87,2.33-7.44,12.5-6.67,29.97l-1,.04Z"/><path class="cls-4" d="M1211.16,89.36c-.07-13.3,2.36-23.29,6.18-25.45,1.02-.58,2.08-.56,3.08,.05,2.92,1.78,5.82,9.39,5.19,25.38l-1-.04c.61-15.58-2.16-22.93-4.71-24.49-.68-.42-1.36-.43-2.07-.03-2.88,1.63-5.75,9.86-5.68,24.57h-1Z"/><path class="cls-4" d="M1214.42,89.46l-1-.03c.28-10.08,1.86-16.62,4.34-17.96,.68-.36,1.39-.33,2.07,.08,2.63,1.63,4.2,8.7,3.92,17.6l-1-.03c.3-9.39-1.5-15.51-3.44-16.71-.37-.23-.71-.25-1.07-.05-1.64,.88-3.5,5.84-3.82,17.1Z"/><path class="cls-4" d="M1216.83,89.24l-1-.03c.17-6.67,.92-10.41,2.23-11.11,.38-.2,.79-.18,1.18,.06,1.59,.99,2.81,6.1,2.63,10.94l-1-.04c.19-4.93-1.16-9.43-2.16-10.05-.11-.07-.14-.05-.18-.03-.24,.13-1.47,1.24-1.7,10.26Z"/></g><g><rect class="cls-4" x="1247.19" y="56.93" width="1" height="33.13"/><rect class="cls-4" x="1229.89" y="57.78" width="1" height="32.28"/><rect class="cls-4" x="1232.56" y="56.93" width="1" height="33.13"/><rect class="cls-4" x="1235.51" y="57.78" width="1" height="32.28"/><rect class="cls-4" x="1238.46" y="56.93" width="1" height="33.13"/><rect class="cls-4" x="1241.54" y="56.93" width="1" height="33.13"/><rect class="cls-4" x="1244.49" y="57.78" width="1" height="32.28"/></g><g><rect class="cls-4" x="1250.75" y="57.49" width="1" height="31.99"/><rect class="cls-4" x="1253.3" y="58.45" width="1" height="31.04"/><rect class="cls-4" x="1256.3" y="58.45" width="1" height="30.82"/><rect class="cls-4" x="1259.51" y="58.45" width="1" height="30.82"/><rect class="cls-4" x="1248.03" y="74.06" width="29.84" height="1" transform="translate(1183.45 1337.21) rotate(-89.78)"/><rect class="cls-4" x="1265.61" y="58.34" width="1" height="30.93"/><rect class="cls-4" x="1269.23" y="62.33" width="1" height="27.15" transform="translate(-.24 4.11) rotate(-.19)"/><rect class="cls-4" x="1273.38" y="58.45" width="1" height="31.04"/><rect class="cls-4" x="1277.15" y="64.89" width="1" height="24.59"/></g><g><rect class="cls-4" x="1281.03" y="57.31" width="1" height="31.99"/><rect class="cls-4" x="1283.58" y="58.26" width="1" height="31.04"/><rect class="cls-4" x="1286.58" y="58.26" width="1" height="30.82"/><rect class="cls-4" x="1289.79" y="58.26" width="1" height="30.82"/><rect class="cls-4" x="1278.31" y="73.88" width="29.84" height="1" transform="translate(1213.8 1367.3) rotate(-89.78)"/><rect class="cls-4" x="1295.89" y="58.15" width="1" height="30.93"/><rect class="cls-4" x="1299.51" y="62.15" width="1" height="27.15" transform="translate(-.24 4.21) rotate(-.19)"/><rect class="cls-4" x="1303.66" y="58.26" width="1" height="31.04"/><rect class="cls-4" x="1307.43" y="64.71" width="1" height="24.59"/></g><g><rect class="cls-4" x="1328.29" y="56.74" width="1" height="33.13"/><rect class="cls-4" x="1310.99" y="57.59" width="1" height="32.28"/><rect class="cls-4" x="1313.66" y="56.74" width="1" height="33.13"/><rect class="cls-4" x="1316.61" y="57.59" width="1" height="32.28"/><rect class="cls-4" x="1319.55" y="56.74" width="1" height="33.13"/><rect class="cls-4" x="1322.64" y="56.74" width="1" height="33.13"/><rect class="cls-4" x="1325.59" y="57.59" width="1" height="32.28"/></g><g><rect class="cls-4" x="1348.35" y="56.74" width="1" height="33.13"/><rect class="cls-4" x="1331.05" y="57.59" width="1" height="32.28"/><rect class="cls-4" x="1333.72" y="56.74" width="1" height="33.13"/><rect class="cls-4" x="1336.67" y="57.59" width="1" height="32.28"/><rect class="cls-4" x="1339.61" y="56.74" width="1" height="33.13"/><rect class="cls-4" x="1342.7" y="56.74" width="1" height="33.13"/><rect class="cls-4" x="1345.65" y="57.59" width="1" height="32.28"/></g><g><rect class="cls-4" x="1350.97" y="57.23" width="1" height="31.99"/><rect class="cls-4" x="1353.52" y="58.18" width="1" height="31.04"/><rect class="cls-4" x="1356.52" y="58.18" width="1" height="30.82"/><rect class="cls-4" x="1359.73" y="58.18" width="1" height="30.82"/><rect class="cls-4" x="1348.25" y="73.8" width="29.84" height="1" transform="translate(1283.54 1437.17) rotate(-89.78)"/><rect class="cls-4" x="1365.83" y="58.08" width="1" height="30.93"/><rect class="cls-4" x="1369.45" y="62.07" width="1" height="27.15" transform="translate(-.24 4.39) rotate(-.18)"/><rect class="cls-4" x="1373.6" y="58.18" width="1" height="31.04"/><rect class="cls-4" x="1377.37" y="64.63" width="1" height="24.59"/></g><g><rect class="cls-4" x="1382.06" y="56.81" width="1" height="31.99"/><rect class="cls-4" x="1384.61" y="57.76" width="1" height="31.04"/><rect class="cls-4" x="1387.61" y="57.76" width="1" height="30.82"/><rect class="cls-4" x="1390.82" y="57.76" width="1" height="30.82"/><rect class="cls-4" x="1379.33" y="73.38" width="29.84" height="1" transform="translate(1314.93 1467.84) rotate(-89.78)"/><rect class="cls-4" x="1396.92" y="57.66" width="1" height="30.93"/><rect class="cls-4" x="1400.54" y="61.65" width="1" height="27.15" transform="translate(-.24 4.54) rotate(-.19)"/><rect class="cls-4" x="1404.68" y="57.76" width="1" height="31.04"/><rect class="cls-4" x="1408.46" y="64.21" width="1" height="24.59"/></g><g><path class="cls-4" d="M1412.15,88.85c-.84-19.1,3.33-28.57,7.15-30.87,1.41-.85,2.88-.86,4.27-.05,3.77,2.21,7.58,11.5,6.96,30.9l-1-.03c.62-18.99-3.1-28.03-6.46-30.01-1.07-.63-2.16-.61-3.25,.04-3.87,2.33-7.44,12.5-6.67,29.97l-1,.04Z"/><path class="cls-4" d="M1414.03,88.78c-.07-13.3,2.36-23.28,6.18-25.45,1.02-.57,2.08-.56,3.08,.05,2.92,1.78,5.82,9.39,5.19,25.38l-1-.04c.61-15.58-2.16-22.93-4.71-24.49-.68-.42-1.36-.43-2.07-.03-2.88,1.63-5.75,9.86-5.68,24.57h-1Z"/><path class="cls-4" d="M1417.29,88.88l-1-.03c.28-10.08,1.87-16.62,4.34-17.96,.67-.36,1.39-.33,2.07,.08,2.63,1.63,4.2,8.7,3.92,17.6l-1-.03c.3-9.39-1.5-15.51-3.44-16.71-.37-.23-.71-.25-1.07-.05-1.64,.88-3.5,5.84-3.82,17.1Z"/><path class="cls-4" d="M1419.7,88.67l-1-.03c.17-6.67,.92-10.41,2.23-11.11,.38-.2,.79-.18,1.18,.06,1.59,.99,2.81,6.1,2.63,10.94l-1-.04c.19-4.93-1.16-9.43-2.16-10.05-.11-.07-.14-.05-.18-.03-.24,.13-1.47,1.24-1.7,10.26Z"/></g><g><rect class="cls-4" x="1450.71" y="56.24" width="1" height="33.13"/><rect class="cls-4" x="1433.42" y="57.09" width="1" height="32.28"/><rect class="cls-4" x="1436.08" y="56.24" width="1" height="33.13"/><rect class="cls-4" x="1439.03" y="57.09" width="1" height="32.28"/><rect class="cls-4" x="1441.98" y="56.24" width="1" height="33.13"/><rect class="cls-4" x="1445.07" y="56.24" width="1" height="33.13"/><rect class="cls-4" x="1448.02" y="57.09" width="1" height="32.28"/></g><g><rect class="cls-4" x="1454.1" y="57.42" width="1" height="31.99"/><rect class="cls-4" x="1456.65" y="58.38" width="1" height="31.04"/><rect class="cls-4" x="1459.64" y="58.38" width="1" height="30.82"/><rect class="cls-4" x="1462.86" y="58.38" width="1" height="30.82"/><rect class="cls-4" x="1451.37" y="74" width="29.84" height="1" transform="translate(1386.07 1540.49) rotate(-89.78)"/><rect class="cls-4" x="1468.96" y="58.27" width="1" height="30.93"/><rect class="cls-4" x="1472.57" y="62.27" width="1" height="27.15" transform="translate(-.24 4.77) rotate(-.19)"/><rect class="cls-4" x="1476.72" y="58.38" width="1" height="31.04"/><rect class="cls-4" x="1480.49" y="64.83" width="1" height="24.59"/></g><g><rect class="cls-4" x="1483.52" y="57.42" width="1" height="31.99"/><rect class="cls-4" x="1486.07" y="58.38" width="1" height="31.04"/><rect class="cls-4" x="1489.06" y="58.38" width="1" height="30.82"/><rect class="cls-4" x="1492.28" y="58.38" width="1" height="30.82"/><rect class="cls-4" x="1480.79" y="74" width="29.84" height="1" transform="translate(1415.38 1569.91) rotate(-89.78)"/><rect class="cls-4" x="1498.38" y="58.27" width="1" height="30.93"/><rect class="cls-4" x="1502" y="62.27" width="1" height="27.15" transform="translate(-.24 4.86) rotate(-.19)"/><rect class="cls-4" x="1506.14" y="58.38" width="1" height="31.04"/><rect class="cls-4" x="1509.91" y="64.83" width="1" height="24.59"/></g><g><rect class="cls-4" x="1530.77" y="56.86" width="1" height="33.13"/><rect class="cls-4" x="1513.48" y="57.71" width="1" height="32.28"/><rect class="cls-4" x="1516.15" y="56.86" width="1" height="33.13"/><rect class="cls-4" x="1519.09" y="57.71" width="1" height="32.28"/><rect class="cls-4" x="1522.04" y="56.86" width="1" height="33.13"/><rect class="cls-4" x="1525.13" y="56.86" width="1" height="33.13"/><rect class="cls-4" x="1528.08" y="57.71" width="1" height="32.28"/></g><g><rect class="cls-4" x="1550.83" y="56.86" width="1" height="33.13"/><rect class="cls-4" x="1533.54" y="57.71" width="1" height="32.28"/><rect class="cls-4" x="1536.21" y="56.86" width="1" height="33.13"/><rect class="cls-4" x="1539.15" y="57.71" width="1" height="32.28"/><rect class="cls-4" x="1542.1" y="56.86" width="1" height="33.13"/><rect class="cls-4" x="1545.19" y="56.86" width="1" height="33.13"/><rect class="cls-4" x="1548.14" y="57.71" width="1" height="32.28"/></g></g><g><g><rect class="cls-4" x="1570.35" y="58.46" width="1" height="33.13"/><rect class="cls-4" x="1553.05" y="59.31" width="1" height="32.28"/><rect class="cls-4" x="1555.72" y="58.46" width="1" height="33.13"/><rect class="cls-4" x="1558.67" y="59.31" width="1" height="32.28"/><rect class="cls-4" x="1561.62" y="58.46" width="1" height="33.13"/><rect class="cls-4" x="1564.7" y="58.46" width="1" height="33.13"/><rect class="cls-4" x="1567.65" y="59.31" width="1" height="32.28"/></g><g><path class="cls-4" d="M1573.02,90.43c-.84-19.1,3.33-28.57,7.15-30.88,1.41-.85,2.88-.86,4.27-.05,3.77,2.21,7.58,11.5,6.96,30.9l-1-.03c.62-18.99-3.1-28.03-6.46-30.01-1.07-.63-2.16-.61-3.25,.04-3.87,2.33-7.44,12.5-6.67,29.97l-1,.04Z"/><path class="cls-4" d="M1574.9,90.36c-.07-13.3,2.36-23.28,6.18-25.45,1.02-.57,2.08-.56,3.08,.05,2.92,1.78,5.82,9.39,5.19,25.38l-1-.04c.61-15.58-2.16-22.93-4.71-24.49-.69-.42-1.36-.43-2.07-.03-2.88,1.63-5.75,9.86-5.68,24.57h-1Z"/><path class="cls-4" d="M1578.16,90.46l-1-.03c.28-10.08,1.86-16.62,4.34-17.96,.68-.37,1.39-.34,2.07,.08,2.63,1.63,4.2,8.7,3.92,17.59l-1-.03c.3-9.39-1.5-15.51-3.45-16.71-.37-.23-.71-.24-1.07-.05-1.64,.88-3.5,5.84-3.82,17.1Z"/><path class="cls-4" d="M1580.57,90.25l-1-.03c.17-6.67,.92-10.41,2.23-11.11,.38-.2,.8-.18,1.18,.06,1.59,.99,2.81,6.1,2.63,10.94l-1-.04c.19-4.93-1.16-9.43-2.16-10.05-.11-.07-.14-.05-.18-.03-.24,.13-1.47,1.24-1.7,10.26Z"/></g><g><rect class="cls-4" x="1592.96" y="58.46" width="1" height="31.99"/><rect class="cls-4" x="1595.51" y="59.41" width="1" height="31.04"/><rect class="cls-4" x="1598.5" y="59.41" width="1" height="30.82"/><rect class="cls-4" x="1601.72" y="59.41" width="1" height="30.82"/><rect class="cls-4" x="1590.23" y="75.03" width="29.84" height="1" transform="translate(1523.36 1680.38) rotate(-89.78)"/><rect class="cls-4" x="1607.82" y="59.31" width="1" height="30.93"/><rect class="cls-4" x="1611.44" y="63.3" width="1" height="27.15" transform="translate(-.24 5.22) rotate(-.19)"/><rect class="cls-4" x="1615.58" y="59.41" width="1" height="31.04"/><rect class="cls-4" x="1619.35" y="65.86" width="1" height="24.59"/></g><g><path class="cls-4" d="M1623.05,89.44c-.84-19.1,3.33-28.57,7.15-30.87,1.41-.85,2.88-.86,4.27-.05,3.77,2.21,7.58,11.5,6.96,30.9l-1-.03c.62-18.99-3.1-28.03-6.46-30.01-1.07-.63-2.16-.61-3.25,.04-3.87,2.33-7.44,12.5-6.67,29.97l-1,.04Z"/><path class="cls-4" d="M1624.93,89.37c-.07-13.3,2.36-23.28,6.18-25.45,1.02-.58,2.08-.56,3.08,.05,2.92,1.78,5.82,9.39,5.19,25.38l-1-.04c.61-15.58-2.16-22.93-4.71-24.49-.68-.42-1.36-.43-2.07-.03-2.88,1.63-5.75,9.86-5.68,24.57h-1Z"/><path class="cls-4" d="M1628.18,89.47l-1-.03c.28-10.08,1.86-16.62,4.34-17.96,.68-.37,1.39-.34,2.07,.08,2.63,1.63,4.2,8.7,3.92,17.6l-1-.03c.3-9.39-1.5-15.51-3.44-16.71-.37-.23-.71-.24-1.07-.05-1.64,.88-3.5,5.84-3.82,17.1Z"/><path class="cls-4" d="M1630.59,89.26l-1-.03c.17-6.67,.92-10.41,2.23-11.11,.38-.2,.79-.18,1.18,.06,1.59,.99,2.81,6.1,2.63,10.94l-1-.04c.19-4.93-1.16-9.43-2.16-10.05-.11-.07-.14-.05-.18-.03-.24,.13-1.47,1.24-1.7,10.26Z"/></g><g><rect class="cls-4" x="1660.69" y="57.91" width="1" height="33.13"/><rect class="cls-4" x="1643.39" y="58.76" width="1" height="32.28"/><rect class="cls-4" x="1646.06" y="57.91" width="1" height="33.13"/><rect class="cls-4" x="1649.01" y="58.76" width="1" height="32.28"/><rect class="cls-4" x="1651.96" y="57.91" width="1" height="33.13"/><rect class="cls-4" x="1655.04" y="57.91" width="1" height="33.13"/><rect class="cls-4" x="1657.99" y="58.76" width="1" height="32.28"/></g><g><rect class="cls-4" x="1663.94" y="58.07" width="1" height="31.99"/><rect class="cls-4" x="1666.49" y="59.02" width="1" height="31.04"/><rect class="cls-4" x="1669.49" y="59.02" width="1" height="30.82"/><rect class="cls-4" x="1672.71" y="59.02" width="1" height="30.82"/><rect class="cls-4" x="1661.22" y="74.64" width="29.84" height="1" transform="translate(1594.46 1750.97) rotate(-89.78)"/><rect class="cls-4" x="1678.8" y="58.91" width="1" height="30.93"/><rect class="cls-4" x="1682.42" y="62.91" width="1" height="27.15" transform="translate(-.24 5.45) rotate(-.19)"/><rect class="cls-4" x="1686.57" y="59.02" width="1" height="31.04"/><rect class="cls-4" x="1690.34" y="65.47" width="1" height="24.59"/></g><g><path class="cls-4" d="M1694.04,90.11c-.84-19.1,3.33-28.57,7.15-30.87,1.41-.85,2.88-.86,4.27-.05,3.77,2.21,7.58,11.5,6.96,30.9l-1-.03c.62-18.99-3.1-28.03-6.46-30.01-1.07-.63-2.16-.61-3.25,.04-3.87,2.33-7.44,12.5-6.67,29.97l-1,.04Z"/><path class="cls-4" d="M1695.92,90.04c-.07-13.3,2.36-23.28,6.18-25.45,1.02-.58,2.08-.56,3.08,.05,2.92,1.78,5.82,9.39,5.19,25.38l-1-.04c.61-15.58-2.16-22.93-4.71-24.49-.68-.42-1.36-.43-2.07-.03-2.88,1.63-5.75,9.86-5.68,24.57h-1Z"/><path class="cls-4" d="M1699.17,90.14l-1-.03c.28-10.08,1.86-16.62,4.34-17.96,.67-.36,1.39-.34,2.07,.08,2.63,1.63,4.2,8.7,3.92,17.6l-1-.03c.3-9.39-1.5-15.51-3.44-16.71-.37-.23-.71-.25-1.07-.05-1.64,.88-3.5,5.84-3.82,17.1Z"/><path class="cls-4" d="M1701.58,89.93l-1-.03c.17-6.67,.92-10.41,2.23-11.11,.38-.2,.79-.18,1.18,.06,1.59,.99,2.81,6.1,2.63,10.94l-1-.04c.19-4.93-1.16-9.43-2.16-10.05-.11-.06-.14-.05-.18-.03-.24,.13-1.47,1.24-1.7,10.26Z"/></g><g><rect class="cls-4" x="1732.18" y="58.08" width="1" height="33.13"/><rect class="cls-4" x="1714.89" y="58.93" width="1" height="32.28"/><rect class="cls-4" x="1717.56" y="58.08" width="1" height="33.13"/><rect class="cls-4" x="1720.5" y="58.93" width="1" height="32.28"/><rect class="cls-4" x="1723.45" y="58.08" width="1" height="33.13"/><rect class="cls-4" x="1726.54" y="58.08" width="1" height="33.13"/><rect class="cls-4" x="1729.49" y="58.93" width="1" height="32.28"/></g><g><rect class="cls-4" x="1752.24" y="58.08" width="1" height="33.13"/><rect class="cls-4" x="1734.95" y="58.93" width="1" height="32.28"/><rect class="cls-4" x="1737.62" y="58.08" width="1" height="33.13"/><rect class="cls-4" x="1740.56" y="58.93" width="1" height="32.28"/><rect class="cls-4" x="1743.51" y="58.08" width="1" height="33.13"/><rect class="cls-4" x="1746.6" y="58.08" width="1" height="33.13"/><rect class="cls-4" x="1749.55" y="58.93" width="1" height="32.28"/></g><g><rect class="cls-4" x="1772.3" y="58.08" width="1" height="33.13"/><rect class="cls-4" x="1755.01" y="58.93" width="1" height="32.28"/><rect class="cls-4" x="1757.68" y="58.08" width="1" height="33.13"/><rect class="cls-4" x="1760.62" y="58.93" width="1" height="32.28"/><rect class="cls-4" x="1763.57" y="58.08" width="1" height="33.13"/><rect class="cls-4" x="1766.66" y="58.08" width="1" height="33.13"/><rect class="cls-4" x="1769.61" y="58.93" width="1" height="32.28"/></g><g><rect class="cls-4" x="1777.21" y="58.65" width="1" height="31.99"/><rect class="cls-4" x="1779.76" y="59.6" width="1" height="31.04"/><rect class="cls-4" x="1782.75" y="59.6" width="1" height="30.82"/><rect class="cls-4" x="1785.97" y="59.6" width="1" height="30.82"/><rect class="cls-4" x="1774.48" y="75.22" width="29.84" height="1" transform="translate(1706.7 1864.81) rotate(-89.78)"/><rect class="cls-4" x="1792.07" y="59.49" width="1" height="30.93"/><rect class="cls-4" x="1795.68" y="63.49" width="1" height="27.15" transform="translate(-.24 5.81) rotate(-.19)"/><rect class="cls-4" x="1799.83" y="59.6" width="1" height="31.04"/><rect class="cls-4" x="1803.6" y="66.05" width="1" height="24.59"/></g><g><rect class="cls-4" x="1824.94" y="60.17" width="1" height="33.13"/><rect class="cls-4" x="1807.64" y="61.02" width="1" height="32.28"/><rect class="cls-4" x="1810.31" y="60.17" width="1" height="33.13"/><rect class="cls-4" x="1813.25" y="61.02" width="1" height="32.28"/><rect class="cls-4" x="1816.2" y="60.17" width="1" height="33.13"/><rect class="cls-4" x="1819.29" y="60.17" width="1" height="33.13"/><rect class="cls-4" x="1822.24" y="61.02" width="1" height="32.28"/></g><g><path class="cls-4" d="M1827.83,92.78c-.84-19.1,3.33-28.57,7.15-30.87,1.41-.84,2.88-.86,4.27-.05,3.77,2.21,7.58,11.5,6.96,30.9l-1-.03c.62-18.99-3.1-28.03-6.46-30.01-1.07-.63-2.16-.61-3.25,.04-3.87,2.33-7.44,12.5-6.67,29.97l-1,.04Z"/><path class="cls-4" d="M1829.71,92.71c-.07-13.3,2.36-23.28,6.18-25.45,1.02-.58,2.08-.56,3.08,.05,2.92,1.78,5.82,9.39,5.19,25.38l-1-.04c.61-15.58-2.16-22.93-4.71-24.49-.68-.42-1.36-.43-2.07-.03-2.88,1.63-5.75,9.86-5.68,24.57h-1Z"/><path class="cls-4" d="M1832.97,92.81l-1-.03c.28-10.08,1.86-16.62,4.34-17.96,.68-.36,1.39-.34,2.07,.08,2.63,1.63,4.2,8.7,3.92,17.6l-1-.03c.3-9.39-1.5-15.51-3.45-16.71-.37-.23-.71-.24-1.07-.05-1.64,.88-3.5,5.84-3.82,17.1Z"/><path class="cls-4" d="M1835.38,92.59l-1-.03c.17-6.67,.92-10.41,2.23-11.11,.38-.2,.79-.18,1.18,.06,1.59,.99,2.81,6.1,2.63,10.94l-1-.04c.19-4.93-1.16-9.43-2.16-10.05-.1-.07-.14-.05-.18-.03-.24,.13-1.47,1.24-1.7,10.26Z"/></g><g><rect class="cls-4" x="1865.06" y="60.17" width="1" height="33.13"/><rect class="cls-4" x="1847.76" y="61.02" width="1" height="32.28"/><rect class="cls-4" x="1850.43" y="60.17" width="1" height="33.13"/><rect class="cls-4" x="1853.38" y="61.02" width="1" height="32.28"/><rect class="cls-4" x="1856.32" y="60.17" width="1" height="33.13"/><rect class="cls-4" x="1859.41" y="60.17" width="1" height="33.13"/><rect class="cls-4" x="1862.36" y="61.02" width="1" height="32.28"/></g><g><rect class="cls-4" x="1868.62" y="60.73" width="1" height="31.99"/><rect class="cls-4" x="1871.17" y="61.69" width="1" height="31.04"/><rect class="cls-4" x="1874.17" y="61.69" width="1" height="30.82"/><rect class="cls-4" x="1877.38" y="61.69" width="1" height="30.82"/><rect class="cls-4" x="1865.89" y="77.3" width="29.84" height="1" transform="translate(1795.67 1958.3) rotate(-89.78)"/><rect class="cls-4" x="1883.48" y="61.58" width="1" height="30.93"/><rect class="cls-4" x="1887.1" y="65.57" width="1" height="27.15" transform="translate(-.25 6.11) rotate(-.19)"/><rect class="cls-4" x="1891.24" y="61.69" width="1" height="31.04"/><rect class="cls-4" x="1895.01" y="68.13" width="1" height="24.59"/></g><g><rect class="cls-4" x="1915.37" y="58.96" width="1" height="33.13"/><rect class="cls-4" x="1898.07" y="59.81" width="1" height="32.28"/><rect class="cls-4" x="1900.74" y="58.96" width="1" height="33.13"/><rect class="cls-4" x="1903.69" y="59.81" width="1" height="32.28"/><rect class="cls-4" x="1906.64" y="58.96" width="1" height="33.13"/><rect class="cls-4" x="1909.73" y="58.96" width="1" height="33.13"/><rect class="cls-4" x="1912.67" y="59.81" width="1" height="32.28"/></g><g><rect class="cls-4" x="1935.43" y="58.96" width="1" height="33.13"/><rect class="cls-4" x="1918.13" y="59.81" width="1" height="32.28"/><rect class="cls-4" x="1920.8" y="58.96" width="1" height="33.13"/><rect class="cls-4" x="1923.75" y="59.81" width="1" height="32.28"/><rect class="cls-4" x="1926.7" y="58.96" width="1" height="33.13"/><rect class="cls-4" x="1929.79" y="58.96" width="1" height="33.13"/><rect class="cls-4" x="1932.73" y="59.81" width="1" height="32.28"/></g><g><rect class="cls-4" x="1937.66" y="59.52" width="1" height="31.99"/><rect class="cls-4" x="1940.21" y="60.48" width="1" height="31.04"/><rect class="cls-4" x="1943.2" y="60.48" width="1" height="30.82"/><rect class="cls-4" x="1946.42" y="60.48" width="1" height="30.82"/><rect class="cls-4" x="1934.93" y="76.09" width="29.84" height="1" transform="translate(1865.64 2026.13) rotate(-89.78)"/><rect class="cls-4" x="1952.52" y="60.37" width="1" height="30.93"/></g></g></svg>