<?xml version="1.0" encoding="UTF-8"?><svg id="Layer_128" xmlns="http://www.w3.org/2000/svg" viewBox="0 0 140 220"><defs><style>.cls-1{fill:#f2f0e9;}.cls-2{fill:#999;}.cls-3{fill:#a62524;}.cls-4{fill:#ae2112;}.cls-5{fill:#ccc;}.cls-6{fill:#d9d9d9;}.cls-7{fill:#9c201e;}</style></defs><g><path class="cls-2" d="M91.66,180.85c-12.54,1.03-31.89,1.2-44.47,.51-15.48-.85-24.7-9.45-24.76-26.53-.07-17.96,.23-42.53,.8-60.39,.53-16.98,9.53-25.29,24.79-26.62,12.4-1.08,31.5-1.61,43.98-.9,15.36,.87,24.32,9.79,24.94,26.72,.65,17.8,.69,42.58-.05,60.44-.7,16.98-9.8,25.49-25.22,26.76Z"/><path class="cls-4" d="M116.46,163.24c-31.06,0-62.14-.51-93.19,.57-.16-39.51,.33-79.05,.31-118.57,30.96,0,61.91,0,92.87,0,0,39.33,0,78.66,0,118Z"/><path class="cls-4" d="M24.4,156.19c-.76-21.95-.97-47.94-.52-69.91,.18-8.67,4.02-12.72,12.35-13.22,21.08-1.25,46.45-1.32,67.53-.04,8.32,.51,12.22,4.72,12.28,13.22,.14,21.54-.34,46.58-.53,68.1-.08,8.49-3.79,12.92-12.02,13.5-20.86,1.46-45.71,1.88-66.61,1.3-8.25-.23-12.17-4.29-12.47-12.95Z"/><path class="cls-7" d="M64.84,171.64c-14.69,0-28.73-2.77-41-8.34-1.01-.46-1.45-1.64-.99-2.65s1.64-1.45,2.65-.99c24.83,11.27,57.35,10.58,87.27-1.82-.4-25.33-.47-51.06-.54-75.95-.03-10.71-.06-21.42-.12-32.13,0-1.1,.88-2,1.99-2.01h.01c1.1,0,1.99,.89,2,1.99,.06,10.71,.09,21.43,.12,32.14,.07,25.32,.15,51.5,.57,77.25,.01,.81-.47,1.55-1.22,1.87-16.61,7.08-34.08,10.64-50.73,10.64Z"/><path class="cls-6" d="M116.46,45.29c-.1-5.42-38.88-5.4-46.5-5.47-7.61-.07-45.87,.81-45.5,6.19s37.85,4.68,45.32,4.75c7.48,.07,46.76-.06,46.67-5.47Z"/><path class="cls-5" d="M71.24,51.85h-.78c-43.88-.05-46.51-3.4-47.37-4.5-.21-.27-.36-.56-.44-.87-.25-.67-.29-1.58,.2-2.53,.88-1.68,3.56-6.8,47.17-7.19,28.92-.26,45.05,1.96,47.91,6.58,.58,.94,.62,1.86,.43,2.54-.08,.4-.26,.79-.55,1.14-2.62,3.2-18.29,4.83-46.57,4.83Zm-44.02-6.65c2.85,.88,12.39,2.62,43.24,2.65h.75c30.94,0,40.04-2.01,42.63-2.97-2.15-1.31-10.74-4.42-43.79-4.12-31.62,.28-40.44,3.15-42.83,4.44Zm-.71,1.16s0,0,0,0c0,0,0,0,0,0Zm0,0s0,0,0,0c0,0,0,0,0,0Zm.04-.2c0,.07-.02,.13-.04,.2,.02-.07,.03-.13,.04-.2Zm87.89-.32s0,0,0,0c0,0,0,0,0,0Zm0,0s0,0,0,0c0,0,0,0,0,0Zm0,0s0,0,0,0c0,0,0,0,0,0Zm0,0s0,0,0,0c0,0,0,0,0,0Zm0-.01s0,0,0,0c0,0,0,0,0,0Zm0,0s0,0,0,0c0,0,0,0,0,0Zm0,0s0,0,0,0c0,0,0,0,0,0Zm0,0s0,0,0,0c0,0,0,0,0,0Zm0,0s0,0,0,0c0,0,0,0,0,0Zm0,0h0s0,0,0,0Zm0,0h0Z"/><g><path class="cls-5" d="M22.71,165.3h-.03c-1.1-.02-1.99-.93-1.97-2.03,.61-38.87,1.23-77.73,1.86-116.6,.02-1.09,.91-1.97,2-1.97h.03c1.1,.02,1.99,.93,1.97,2.03-.62,38.87-1.25,77.73-1.86,116.6-.02,1.09-.91,1.97-2,1.97Z"/><path class="cls-5" d="M117.23,164.03c-1.1,0-1.99-.89-2-1.99-.3-41.95-.59-79.76-.94-117.71-.01-1.1,.88-2.01,1.98-2.02,1.13-.01,2.01,.88,2.02,1.98,.36,37.95,.64,75.77,.94,117.71,0,1.1-.88,2.01-1.99,2.01h-.01Z"/></g><path class="cls-5" d="M68.16,174.25c-15.34,0-30.71-2.78-45.72-8.35-1.04-.38-1.56-1.54-1.18-2.57,.38-1.04,1.54-1.56,2.57-1.18,30.54,11.33,62.59,10.76,92.7-1.64,1.02-.42,2.19,.07,2.61,1.09,.42,1.02-.07,2.19-1.09,2.61-16.25,6.69-33.06,10.04-49.9,10.04Z"/><path class="cls-5" d="M32.55,179.71c-.42,0-.83-.13-1.19-.4-5.05-3.76-8.04-8.08-10.32-14.91-.35-1.05,.22-2.18,1.26-2.53,1.05-.35,2.18,.22,2.53,1.26,2.02,6.05,4.52,9.69,8.92,12.96,.89,.66,1.07,1.91,.41,2.8-.39,.53-1,.81-1.61,.81Z"/><path class="cls-5" d="M107.82,177.75c-.67,0-1.32-.34-1.7-.95-.58-.94-.29-2.17,.65-2.75,4.86-3,6.39-5.5,8.53-11.46,.37-1.04,1.52-1.58,2.56-1.21,1.04,.37,1.58,1.52,1.21,2.56-2.29,6.41-4.31,9.88-10.19,13.52-.33,.2-.69,.3-1.05,.3Z"/><ellipse class="cls-3" cx="69.46" cy="104.24" rx="43" ry="25"/><path class="cls-5" d="M68.4,183.29c-19.33,0-34.56-3.06-35.58-3.27-1.08-.22-1.78-1.28-1.56-2.36,.22-1.08,1.28-1.78,2.36-1.56,.4,.08,40.21,8.07,72.61-1.8,1.06-.32,2.17,.27,2.5,1.33s-.27,2.17-1.33,2.5c-12.93,3.94-26.79,5.17-39,5.17Z"/></g><g><path class="cls-1" d="M45.4,105.28h-1.34v9.72h-2.37v-21h2.37v9.78l1.28-.42,6.7-9.36h2.74l-6.67,9.03-1.2,.99,1.45,1.2,7.29,9.78h-2.99l-7.27-9.72Z"/><path class="cls-1" d="M56.68,107.5c0-2.54,.54-4.49,1.61-5.83s2.62-2.03,4.63-2.03c1.06,0,1.99,.19,2.78,.56,.79,.37,1.44,.9,1.95,1.59,.51,.69,.89,1.52,1.14,2.49,.25,.97,.37,2.04,.37,3.22,0,2.54-.54,4.49-1.61,5.83-1.07,1.35-2.62,2.03-4.63,2.03-1.06,0-1.99-.19-2.78-.56-.79-.37-1.44-.9-1.95-1.59-.51-.69-.89-1.52-1.14-2.49-.25-.97-.37-2.04-.37-3.22Zm2.37,0c0,.76,.07,1.49,.21,2.19s.37,1.31,.67,1.83c.3,.52,.7,.94,1.2,1.26s1.09,.48,1.79,.48c2.58,.02,3.88-1.9,3.88-5.76,0-.78-.07-1.52-.21-2.22s-.37-1.31-.67-1.83c-.3-.52-.7-.93-1.2-1.25-.49-.31-1.09-.46-1.8-.46-2.58-.02-3.88,1.9-3.88,5.76Z"/><path class="cls-1" d="M75.29,111.31c0,.7,.11,1.2,.34,1.5,.23,.3,.55,.45,.97,.45,.25,0,.51-.02,.8-.06s.61-.13,.97-.27l.26,1.89c-.3,.16-.73,.29-1.27,.39-.54,.1-1.01,.15-1.41,.15-.86,0-1.56-.25-2.11-.77-.55-.51-.83-1.38-.83-2.59v-18h2.28v17.31Z"/><path class="cls-1" d="M83.61,111.31c0,.7,.11,1.2,.34,1.5,.23,.3,.55,.45,.97,.45,.25,0,.51-.02,.8-.06s.61-.13,.97-.27l.26,1.89c-.3,.16-.73,.29-1.27,.39-.54,.1-1.01,.15-1.41,.15-.86,0-1.56-.25-2.11-.77-.55-.51-.83-1.38-.83-2.59v-18h2.28v17.31Z"/><path class="cls-1" d="M89.17,101.11c.72-.46,1.56-.8,2.52-1.02,.96-.22,1.96-.33,3.01-.33,.99,0,1.78,.14,2.38,.42,.6,.28,1.05,.65,1.37,1.1,.31,.45,.52,.94,.63,1.48s.16,1.08,.16,1.62c0,1.2-.03,2.37-.08,3.51-.06,1.14-.09,2.22-.09,3.24,0,.74,.03,1.44,.09,2.1,.06,.66,.16,1.27,.31,1.83h-1.68l-.6-2.1h-.14c-.17,.28-.38,.55-.64,.83-.26,.27-.57,.51-.93,.72-.36,.21-.78,.39-1.25,.53-.47,.14-1.02,.21-1.62,.21s-1.17-.1-1.7-.3c-.52-.2-.97-.49-1.35-.86-.38-.37-.68-.81-.9-1.33-.22-.52-.33-1.11-.33-1.77,0-.88,.17-1.62,.51-2.21s.82-1.06,1.44-1.41c.62-.35,1.36-.6,2.22-.75,.86-.15,1.82-.23,2.86-.23h.78c.26,0,.52,.02,.78,.06,.06-.6,.08-1.14,.08-1.62,0-1.1-.21-1.87-.63-2.31-.42-.44-1.18-.66-2.28-.66-.32,0-.67,.03-1.04,.08-.37,.05-.75,.12-1.14,.22s-.76,.21-1.11,.34c-.35,.13-.66,.28-.93,.45l-.71-1.83Zm4.05,12.03c.53,0,1.01-.07,1.42-.22s.78-.34,1.08-.57c.3-.23,.56-.48,.75-.76,.2-.28,.35-.55,.44-.81v-2.49c-.27-.02-.54-.04-.81-.04s-.55-.02-.81-.02c-.59,0-1.16,.04-1.72,.11-.56,.07-1.05,.2-1.48,.39-.43,.19-.77,.45-1.03,.78s-.38,.75-.38,1.25c0,.7,.24,1.27,.71,1.72,.48,.45,1.08,.67,1.82,.67Z"/></g></svg>