<?xml version="1.0" encoding="UTF-8"?><svg id="Layer_89" xmlns="http://www.w3.org/2000/svg" viewBox="0 0 500 250"><defs><style>.cls-1{fill:#025e73;}.cls-2{fill:#f1f1f2;}</style></defs><path class="cls-1" d="M450.32,195.87H49.68c-6.75,0-12.28-5.53-12.28-12.28V66.41c0-6.75,5.53-12.28,12.28-12.28H450.32c6.75,0,12.28,5.53,12.28,12.28v117.17c0,6.75-5.53,12.28-12.28,12.28Z"/><g><path class="cls-2" d="M190.78,137.47l-12.28-6.28c-6.68-3.41-10.77-9.24-10.77-15.62,0-9.96,9.04-17.41,24.23-17.41,17.66,0,22.94,7.27,22.94,12.92,0,3.23-2.15,6.55-7.43,6.55-3.88,0-5.28-2.06-7.54-4.94-1.62-2.06-3.88-3.5-8.08-3.5-6.57,0-9.48,3.23-9.48,6.64,0,2.87,1.94,4.67,5.6,6.37l6.35,2.96c8.61,4.04,11.31,6.64,11.31,11.13s-4.52,9.6-14.43,9.6c-7.65,0-11.31-2.06-13.78-5.57-1.4-1.97-1.72-3.5-4.42-3.5-1.83,0-3.01,1.35-3.01,2.96,0,5.21,6.57,10.59,20.35,10.59,14.75,0,21.21-6.37,21.43-14.27,.11-6.55-4.09-9.87-13.25-14.54l-8.18-4.13c-.86-.45-1.08-1.53-.54-2.24,.54-.81,1.72-1.08,2.8-.63l8.08,4.13c10.98,5.56,15.61,9.78,15.4,17.41-.22,9.51-7.75,17.59-25.74,17.59s-24.66-7.36-24.66-13.91c0-3.86,3.12-6.28,7.32-6.28s5.71,1.97,7.86,4.94c2.15,2.96,4.2,4.13,10.66,4.13s9.69-3.14,9.69-6.28c0-3.5-2.37-5.3-8.94-8.26l-6.35-2.96c-5.06-2.24-7.97-5.03-7.97-9.24,0-4.94,4.09-9.96,13.89-9.96,6.03,0,9.37,1.97,11.52,4.85,1.18,1.53,1.94,3.59,4.31,3.59,2.05,0,3.02-1.53,3.02-3.23,0-4.22-5.6-9.6-18.74-9.6-12.28,0-19.92,5.92-19.92,14.09,0,5.21,3.02,9.96,8.62,12.75l12.28,6.28c.86,.45,1.18,1.44,.65,2.24-.54,.81-1.83,1.08-2.8,.63Z"/><path class="cls-2" d="M233.21,154.26v-41.29c0-1.53-.11-3.32-2.37-3.32-2.48,0-2.91,1.53-2.91,3.5v41.91c0,3.41,1.83,4.85,7.43,4.85,5.17,0,7.43-2.33,7.43-5.12v-36.08c0-8.98,4.95-12.75,14.32-12.75,12.06,0,20.67,7.45,20.67,22.71,0,17.77-11.63,23.6-19.81,24.59-5.49,.72-7.86-1.71-7.97-4.67-.11-2.6,1.83-4.04,4.42-5.03,5.71-2.15,9.69-6.01,9.69-14.9,0-6.55-3.23-11.49-6.68-11.49-2.15,0-2.8,1.62-1.83,2.69,2.48,2.69,3.77,5.65,3.66,9.51-.11,3.95-1.94,7-4.31,8.71-.86,.63-2.15,.72-2.91-.18-.65-.72-.65-1.79,.22-2.33,1.83-1.35,2.58-3.59,2.69-6.37,.11-2.96-.97-5.38-2.8-7.54-2.69-3.05-.54-7.72,5.28-7.72,4.74,0,10.98,3.95,10.98,14.72s-5.6,15.35-12.38,17.86c-.97,.36-1.83,.9-1.72,1.88,.11,1.17,1.29,1.79,3.12,1.53,7.11-.81,15.94-6.64,15.94-21.27,0-12.12-6.03-19.39-16.26-19.39-7,0-10.01,3.23-10.01,9.42v36.08c0,4.4-3.23,8.44-11.74,8.44-9.48,0-11.84-2.78-11.84-8.17v-41.91c0-4.94,2.48-6.73,7.32-6.73s6.68,1.97,6.68,6.55v41.29c0,.9-.86,1.62-2.15,1.62-1.4,0-2.15-.72-2.15-1.62Z"/><path class="cls-2" d="M293.93,144.56v-31.59c0-1.53-.11-3.32-2.37-3.32-2.48,0-2.91,1.53-2.91,3.5v32.31c0,3.32,1.83,4.67,7.43,4.67,5.17,0,7.43-2.24,7.43-5.03v-36.62c0-.9,.75-1.62,2.15-1.62,1.29,0,2.15,.72,2.15,1.62v36.62c0,4.49-3.23,8.35-11.74,8.35-9.58,0-11.84-2.69-11.84-7.99v-32.31c0-4.94,2.48-6.73,7.32-6.73s6.68,1.97,6.68,6.55v31.59c0,.9-.86,1.62-2.15,1.62-1.4,0-2.15-.72-2.15-1.62Zm-3.55-41.73c-3.23-1.62-4.95-4.4-4.95-7.63,0-4.85,3.77-8.71,11.09-8.71s10.55,3.86,10.55,8.71c0,3.23-1.94,6.19-5.06,7.63-.97,.45-2.37,.27-2.91-.63-.54-.9-.21-1.97,.75-2.33,2.05-.99,2.91-2.87,2.91-4.76,0-2.87-1.83-5.39-6.46-5.39s-6.46,2.51-6.46,5.39c0,1.88,.86,3.77,2.8,4.76,.97,.45,1.19,1.53,.65,2.33-.65,.9-2.05,1.08-2.91,.63Z"/><path class="cls-2" d="M325.92,144.56v-42.81c0-1.53-.11-3.32-2.37-3.32-2.48,0-2.91,1.53-2.91,3.5v43.35c0,3.41,1.83,4.85,7.43,4.85,5.17,0,7.43-2.33,7.43-5.12v-50.26c0-.9,.75-1.62,2.15-1.62,1.29,0,2.15,.72,2.15,1.62v50.26c0,4.4-3.23,8.44-11.74,8.44-9.48,0-11.84-2.78-11.84-8.17v-43.35c0-4.94,2.48-6.82,7.32-6.82s6.68,2.06,6.68,6.64v42.81c0,.9-.86,1.62-2.15,1.62-1.4,0-2.15-.72-2.15-1.62Z"/></g></svg>