<?xml version="1.0" encoding="UTF-8"?><svg id="Layer_147" xmlns="http://www.w3.org/2000/svg" viewBox="0 0 500 250"><defs><style>.cls-1{fill:#025e73;}.cls-2{fill:#fff;}</style></defs><path class="cls-1" d="M450.32,195.87H49.68c-6.75,0-12.28-5.53-12.28-12.28V66.41c0-6.75,5.53-12.28,12.28-12.28H450.32c6.75,0,12.28,5.53,12.28,12.28v117.17c0,6.75-5.53,12.28-12.28,12.28Z"/><g><path class="cls-2" d="M95.41,136.63l-6.66-4.05c-5.4-3.24-8.46-8.55-8.46-14.49,0-8.46,6.84-15.75,17.82-15.75,7.29,0,11.61,1.8,14.49,4.14,3.6,2.97,3.87,7.02,1.44,9.63-1.89,1.98-5.4,2.52-8.73-.18-1.89-1.53-4.23-2.79-7.2-2.79-4.23,0-6.3,2.61-6.3,5.22,0,2.34,.99,3.87,3.42,5.22l4.68,2.61c6.21,3.42,7.56,5.85,7.56,9.54,0,4.68-3.78,8.46-10.17,8.46-3.87,0-7.29-1.53-9.63-3.51-1.44-1.26-3.15-1.44-4.14-.36-1.17,1.44-.45,3.33,1.08,4.59,2.43,2.07,6.12,3.42,12.42,3.42,10.62,0,15.39-5.49,15.48-12.33,.18-5.85-2.97-9.45-9.9-13.41l-4.05-2.25c-.81-.36-1.17-1.35-.72-2.25,.45-.9,1.62-1.17,2.43-.72l4.05,2.25c8.55,4.68,11.97,9.36,11.88,16.47-.18,8.46-5.94,15.57-19.26,15.57-7.29,0-11.52-1.89-14.4-4.23-3.51-2.88-3.69-7.02-1.44-9.54,1.89-2.25,5.31-2.7,8.64,.18,1.89,1.62,4.59,2.79,7.65,2.79,3.96,0,6.48-1.98,6.48-5.13,0-2.52-1.26-4.32-5.67-6.75l-4.68-2.52c-3.78-2.16-5.31-4.41-5.31-8.1,0-4.14,2.88-8.55,9.9-8.55,3.87,0,7.02,1.62,9.36,3.6,1.53,1.35,3.24,1.26,4.14,.27,1.26-1.35,.27-3.15-1.08-4.5-2.43-1.98-6.21-3.51-12.42-3.51-8.73,0-14.13,5.58-14.13,12.42,0,4.86,2.25,8.91,6.48,11.43l6.75,4.14c.81,.54,.99,1.44,.54,2.25-.45,.81-1.53,1.17-2.34,.72Z"/><path class="cls-2" d="M129.79,151.48v-41.4c0-1.53-.09-3.33-1.98-3.33-2.07,0-2.43,1.53-2.43,3.51v42.03c0,3.42,1.53,4.86,6.21,4.86,4.32,0,6.21-2.34,6.21-5.13v-36.18c0-9,4.14-12.78,11.97-12.78,10.08,0,17.28,7.47,17.28,22.77,0,17.82-9.72,23.67-16.56,24.66-4.59,.72-6.57-1.71-6.66-4.68-.09-2.61,1.53-4.05,3.69-5.04,4.77-2.16,8.1-6.03,8.1-14.94,0-6.57-2.7-11.52-5.58-11.52-1.8,0-2.34,1.62-1.53,2.7,2.07,2.7,3.15,5.67,3.06,9.54-.09,3.96-1.62,7.02-3.6,8.73-.72,.63-1.8,.72-2.43-.18-.54-.72-.54-1.8,.18-2.34,1.53-1.35,2.16-3.6,2.25-6.39,.09-2.97-.81-5.4-2.34-7.56-2.25-3.06-.45-7.74,4.41-7.74,3.96,0,9.18,3.96,9.18,14.76s-4.68,15.39-10.35,17.91c-.81,.36-1.53,.9-1.44,1.89,.09,1.17,1.08,1.8,2.61,1.53,5.94-.81,13.32-6.66,13.32-21.33,0-12.15-5.04-19.44-13.59-19.44-5.85,0-8.37,3.24-8.37,9.45v36.18c0,4.41-2.7,8.46-9.81,8.46-7.92,0-9.9-2.79-9.9-8.19v-42.03c0-4.95,2.07-6.75,6.12-6.75s5.58,1.98,5.58,6.57v41.4c0,.9-.72,1.62-1.8,1.62-1.17,0-1.8-.72-1.8-1.62Z"/><path class="cls-2" d="M180.55,141.76v-31.68c0-1.53-.09-3.33-1.98-3.33-2.07,0-2.43,1.53-2.43,3.51v32.4c0,3.33,1.53,4.68,6.21,4.68,4.32,0,6.21-2.25,6.21-5.04v-36.72c0-.9,.63-1.62,1.8-1.62,1.08,0,1.8,.72,1.8,1.62v36.72c0,4.5-2.7,8.37-9.81,8.37-8.01,0-9.9-2.7-9.9-8.01v-32.4c0-4.95,2.07-6.75,6.12-6.75s5.58,1.98,5.58,6.57v31.68c0,.9-.72,1.62-1.8,1.62-1.17,0-1.8-.72-1.8-1.62Zm-2.97-41.85c-2.7-1.62-4.14-4.41-4.14-7.65,0-4.86,3.15-8.73,9.27-8.73s8.82,3.87,8.82,8.73c0,3.24-1.62,6.21-4.23,7.65-.81,.45-1.98,.27-2.43-.63-.45-.9-.18-1.98,.63-2.34,1.71-.99,2.43-2.88,2.43-4.77,0-2.88-1.53-5.4-5.4-5.4s-5.4,2.52-5.4,5.4c0,1.89,.72,3.78,2.34,4.77,.81,.45,.99,1.53,.54,2.34-.54,.9-1.71,1.08-2.43,.63Z"/><path class="cls-2" d="M207.28,141.76v-42.93c0-1.53-.09-3.33-1.98-3.33-2.07,0-2.43,1.53-2.43,3.51v43.47c0,3.42,1.53,4.86,6.21,4.86,4.32,0,6.21-2.34,6.21-5.13v-50.4c0-.9,.63-1.62,1.8-1.62,1.08,0,1.8,.72,1.8,1.62v50.4c0,4.41-2.7,8.46-9.81,8.46-7.92,0-9.9-2.79-9.9-8.19v-43.47c0-4.95,2.07-6.84,6.12-6.84s5.58,2.07,5.58,6.66v42.93c0,.9-.72,1.62-1.8,1.62-1.17,0-1.8-.72-1.8-1.62Z"/><path class="cls-2" d="M256.06,141.76v-31.68c0-1.53-.09-3.33-1.98-3.33-2.07,0-2.43,1.53-2.43,3.51v32.4c0,3.33,1.53,4.68,6.21,4.68,4.32,0,6.21-2.25,6.21-5.04v-36.72c0-.9,.63-1.62,1.8-1.62,1.08,0,1.8,.72,1.8,1.62v36.72c0,4.5-2.7,8.37-9.81,8.37-8.01,0-9.9-2.7-9.9-8.01v-32.4c0-4.95,2.07-6.75,6.12-6.75s5.58,1.98,5.58,6.57v31.68c0,.9-.72,1.62-1.8,1.62-1.17,0-1.8-.72-1.8-1.62Zm-2.97-41.85c-2.7-1.62-4.14-4.41-4.14-7.65,0-4.86,3.15-8.73,9.27-8.73s8.82,3.87,8.82,8.73c0,3.24-1.62,6.21-4.23,7.65-.81,.45-1.98,.27-2.43-.63-.45-.9-.18-1.98,.63-2.34,1.71-.99,2.43-2.88,2.43-4.77,0-2.88-1.53-5.4-5.4-5.4s-5.4,2.52-5.4,5.4c0,1.89,.72,3.78,2.34,4.77,.81,.45,.99,1.53,.54,2.34-.54,.9-1.71,1.08-2.43,.63Z"/><path class="cls-2" d="M300.69,132.67c8.55,2.07,15.39-2.61,15.39-11.7s-7.02-15.12-18.9-14.94c-11.61,.18-18.45,5.67-18.45,16.38,0,2.34,.09,5.13,2.61,5.13,1.98,0,1.98-2.34,1.98-3.78,0-9.54,5.13-13.23,13.77-13.23,9.54,0,14.04,5.31,14.04,11.16,0,4.95-2.97,7.2-6.21,7.2-3.69,0-5.76-2.25-5.76-5.31,0-1.44-.45-2.7-2.25-2.7-1.53,0-2.25,1.17-2.25,2.43l-.09,8.55c0,3.42-1.53,5.67-6.12,5.67h-3.42c-5.13,0-7.83,2.97-7.83,7.11,0,7.92,6.03,14.22,20.7,14.22,12.24,0,18.99-5.85,18.99-11.34,0-1.44-.63-2.97-2.52-2.97h-27.09c-.9,0-1.44,.45-1.44,1.26,0,3.06,4.32,5.4,11.25,5.4s10.8-2.34,12.15-3.33c.72-.54,1.71-.63,2.34,.18,.54,.81,.45,1.89-.27,2.43-1.62,1.26-6.12,4.05-14.22,4.05-11.34,0-14.85-4.77-14.85-8.73,0-3.15,1.89-4.59,5.04-4.59h27.09c4.05,0,6.21,2.88,6.21,6.3,0,6.48-6.75,14.67-22.68,14.67-18.09,0-24.3-8.28-24.3-17.55,0-6.12,4.05-10.44,11.43-10.44h3.42c1.89,0,2.52-.9,2.52-2.34l.09-8.55c0-3.33,2.16-5.76,5.85-5.76s5.85,2.34,5.85,6.03c0,1.17,.81,1.98,2.16,1.98,1.71,0,2.61-1.8,2.61-3.87,0-4.32-3.78-7.83-10.44-7.83s-10.08,2.88-10.08,9.9c0,3.96-1.98,7.11-5.67,7.11-4.23,0-6.21-2.79-6.21-8.46,0-12.78,8.1-19.53,22.05-19.71,14.4-.18,22.5,7.38,22.5,18.27,0,11.79-8.91,17.55-19.71,14.85-.9-.18-1.53-.99-1.26-1.98,.18-1.08,1.17-1.44,1.98-1.17Zm10.17-34.83c3.42,0,5.4-2.7,5.4-5.58s-1.53-5.4-5.4-5.4-6.03,2.52-6.03,7.2v4.23c0,.9-.72,1.71-1.8,1.71-1.17,0-1.89-.81-1.89-1.71v-4.23c0-7.38,3.96-10.53,9.72-10.53,6.3,0,9,3.87,9,8.73s-3.51,8.82-9,8.82c-.9,0-1.62-.45-1.62-1.62s.72-1.62,1.62-1.62Z"/><path class="cls-2" d="M350.91,126.46c0-2.97-.9-4.95-3.06-4.95-2.7,0-3.51,2.61-3.51,5.13,0,3.78,1.8,5.58,5.94,5.58h10.26c4.95,0,6.84-3.33,6.84-7.2,0-12.24-7.65-18.9-19.26-18.9s-19.62,8.37-19.62,20.97c0,14.22,6.75,20.7,16.11,20.7,1.62,0,2.61-.9,2.61-2.34,0-1.26-.45-2.07-1.98-2.25-8.01-.72-12.42-5.85-12.42-16.38s6.3-16.29,15.39-16.29,14.49,5.22,14.31,15.84c0,.9-.63,1.71-1.89,1.71s-1.71-.81-1.71-1.71c.18-7.83-3.78-12.51-10.71-12.51-7.29,0-11.79,5.22-11.79,12.96s2.79,12.51,9.09,13.05c4.14,.45,5.4,2.34,5.4,5.58,0,3.42-2.43,5.67-6.3,5.67-10.89,0-19.71-6.57-19.71-24.03,0-14.85,9.9-24.3,23.22-24.3s22.95,7.74,22.95,22.23c0,5.85-3.24,10.53-10.53,10.53h-10.26c-6.57,0-9.54-2.88-9.54-8.91,0-5.22,2.7-8.46,7.11-8.46,3.69,0,6.66,1.8,6.66,8.28,0,.9-.54,1.62-1.8,1.62-1.35,0-1.8-.72-1.8-1.62Z"/><path class="cls-2" d="M384.66,141.76v-31.68c0-1.53,0-3.33-1.89-3.33-2.07,0-2.43,1.53-2.43,3.51v32.22c0,3.42,1.44,4.86,6.21,4.86,4.23,0,6.12-2.34,6.12-5.13v-25.56c0-9,4.95-13.14,13.77-13.14,10.8,0,13.95,5.67,13.95,15.03v23.67c0,4.41-2.52,8.46-9.72,8.46-7.83,0-9.99-2.79-9.99-8.19v-24.12c0-4.95,2.16-6.84,6.12-6.84s5.58,2.07,5.58,6.66v23.58c0,.9-.72,1.62-1.8,1.62-1.17,0-1.89-.72-1.89-1.62v-23.58c0-1.53,0-3.33-1.89-3.33s-2.43,1.44-2.43,3.51v24.12c0,3.42,1.62,4.86,6.3,4.86,4.32,0,6.12-2.34,6.12-5.13v-23.67c0-6.93-1.98-11.79-10.35-11.79-6.57,0-10.08,3.33-10.08,9.9v25.56c0,4.41-2.7,8.46-9.81,8.46-7.92,0-9.9-2.79-9.9-8.19v-32.22c0-4.95,2.07-6.75,6.12-6.75,3.78,0,5.58,1.98,5.58,6.57v31.68c0,.9-.72,1.62-1.8,1.62-1.17,0-1.89-.72-1.89-1.62Z"/></g></svg>