<?xml version="1.0" encoding="UTF-8"?><svg id="væg" xmlns="http://www.w3.org/2000/svg" viewBox="0 0 1920 1080"><defs><style>.cls-1{fill:#8b3629;}.cls-2{fill:#c04f3c;}.cls-3{fill:#53281f;}</style></defs><rect class="cls-3" x="1.91" y=".15" width="1920" height="1080"/><rect class="cls-1" x="109.37" y="88.76" width="128.53" height="47.37" rx="3.65" ry="3.65"/><rect class="cls-1" x="257.92" y="89.21" width="128.53" height="47.37" rx="3.65" ry="3.65"/><rect class="cls-2" x="65.92" y="156.21" width="128.53" height="47.37" rx="3.65" ry="3.65"/><rect class="cls-2" x="164.92" y="223.21" width="128.53" height="47.37" rx="3.65" ry="3.65"/><rect class="cls-1" x="244.31" y="1007.66" width="128.53" height="47.37" rx="3.65" ry="3.65"/><rect class="cls-1" x="165.31" y="944.66" width="128.53" height="47.37" rx="3.65" ry="3.65"/><rect class="cls-1" x="244.59" y="882.04" width="128.53" height="47.37" rx="3.65" ry="3.65"/><rect class="cls-2" x="165.59" y="819.04" width="128.53" height="47.37" rx="3.65" ry="3.65"/><rect class="cls-2" x="315.59" y="819.04" width="128.53" height="47.37" rx="3.65" ry="3.65"/><rect class="cls-2" x="395.59" y="882.04" width="128.53" height="47.37" rx="3.65" ry="3.65"/><rect class="cls-1" x="444.16" y="516.42" width="128.53" height="47.37" rx="3.65" ry="3.65"/><rect class="cls-1" x="524.09" y="582.12" width="128.53" height="47.37" rx="3.65" ry="3.65"/><rect class="cls-2" x="597.09" y="516.12" width="128.53" height="47.37" rx="3.65" ry="3.65"/><rect class="cls-2" x="524.09" y="450.12" width="128.53" height="47.37" rx="3.65" ry="3.65"/><rect class="cls-1" x="676.09" y="450.12" width="128.53" height="47.37" rx="3.65" ry="3.65"/><rect class="cls-1" x="920.01" y="88.88" width="128.53" height="47.37" rx="3.65" ry="3.65"/><rect class="cls-1" x="961.69" y="152.89" width="128.53" height="47.37" rx="3.65" ry="3.65"/><rect class="cls-2" x="1113.69" y="152.89" width="128.53" height="47.37" rx="3.65" ry="3.65"/><rect class="cls-1" x="919.69" y="216.89" width="128.53" height="47.37" rx="3.65" ry="3.65"/><rect class="cls-1" x="1066.69" y="216.89" width="128.53" height="47.37" rx="3.65" ry="3.65"/><rect class="cls-2" x="961.69" y="280.89" width="128.53" height="47.37" rx="3.65" ry="3.65"/><rect class="cls-2" x="1025.69" y="344.89" width="128.53" height="47.37" rx="3.65" ry="3.65"/><rect class="cls-1" x="1002.84" y="1007.16" width="128.53" height="47.37" rx="3.65" ry="3.65"/><rect class="cls-1" x="1026.04" y="943.05" width="128.53" height="47.37" rx="3.65" ry="3.65"/><rect class="cls-2" x="1090.04" y="879.05" width="128.53" height="47.37" rx="3.65" ry="3.65"/><rect class="cls-1" x="939.04" y="879.05" width="128.53" height="47.37" rx="3.65" ry="3.65"/><rect class="cls-2" x="858.3" y="814.75" width="128.53" height="47.37" rx="3.65" ry="3.65"/><rect class="cls-2" x="1002.3" y="814.75" width="128.53" height="47.37" rx="3.65" ry="3.65"/><rect class="cls-1" x="1147.3" y="814.75" width="128.53" height="47.37" rx="3.65" ry="3.65"/><rect class="cls-1" x="1737.7" y="17.07" width="128.53" height="47.37" rx="3.65" ry="3.65"/><rect class="cls-1" x="1689.7" y="81.07" width="128.53" height="47.37" rx="3.65" ry="3.65"/><rect class="cls-2" x="1605.7" y="145.07" width="128.53" height="47.37" rx="3.65" ry="3.65"/><rect class="cls-1" x="1753.7" y="145.07" width="128.53" height="47.37" rx="3.65" ry="3.65"/><rect class="cls-2" x="1783.7" y="399.07" width="128.53" height="47.37" rx="3.65" ry="3.65"/><rect class="cls-2" x="1743.7" y="460.07" width="128.53" height="47.37" rx="3.65" ry="3.65"/><rect class="cls-1" x="1783.7" y="521.07" width="128.53" height="47.37" rx="3.65" ry="3.65"/><rect class="cls-1" x="1636.7" y="399.07" width="128.53" height="47.37" rx="3.65" ry="3.65"/><rect class="cls-2" x="1597.7" y="460.07" width="128.53" height="47.37" rx="3.65" ry="3.65"/><rect class="cls-1" x="1489.7" y="399.07" width="128.53" height="47.37" rx="3.65" ry="3.65"/><rect class="cls-1" x="1553.7" y="338.07" width="128.53" height="47.37" rx="3.65" ry="3.65"/><rect class="cls-1" x="1553.7" y="983.44" width="128.53" height="47.37" rx="3.65" ry="3.65"/><rect class="cls-2" x="1625.7" y="919.44" width="128.53" height="47.37" rx="3.65" ry="3.65"/><rect class="cls-1" x="1541.7" y="860.44" width="128.53" height="47.37" rx="3.65" ry="3.65"/><rect class="cls-1" x="1689.7" y="860.44" width="128.53" height="47.37" rx="3.65" ry="3.65"/><rect class="cls-1" x="1737.7" y="801.44" width="128.53" height="47.37" rx="3.65" ry="3.65"/></svg>