<?xml version="1.0" encoding="UTF-8"?><svg id="Layer_103" xmlns="http://www.w3.org/2000/svg" viewBox="0 0 500 250"><defs><style>.cls-1{fill:#025e73;}.cls-2{fill:#fff;}</style></defs><path class="cls-1" d="M450.32,195.87H49.68c-6.75,0-12.28-5.53-12.28-12.28V66.41c0-6.75,5.53-12.28,12.28-12.28H450.32c6.75,0,12.28,5.53,12.28,12.28v117.17c0,6.75-5.53,12.28-12.28,12.28Z"/><g><path class="cls-2" d="M186.37,143.81v-39.24c0-1.53-.09-3.33-1.98-3.33s-2.43,1.53-2.43,3.51v39.78c0,3.42,1.53,4.86,6.21,4.86,4.32,0,6.21-2.34,6.21-5.13v-44.19c0-.9,.72-1.62,1.8-1.62,1.17,0,1.8,.72,1.8,1.62v44.19c0,4.41-2.61,8.46-9.81,8.46-7.83,0-9.81-2.79-9.81-8.19v-39.78c0-4.95,2.07-6.75,6.03-6.75s5.58,1.98,5.58,6.57v39.24c0,.9-.72,1.62-1.8,1.62s-1.8-.72-1.8-1.62Z"/><path class="cls-2" d="M213.73,143.81v-31.68c0-1.53,0-3.33-1.89-3.33-2.07,0-2.43,1.53-2.43,3.51v32.22c0,3.42,1.44,4.86,6.21,4.86,4.23,0,6.12-2.34,6.12-5.13v-25.56c0-9,4.95-13.14,13.77-13.14,10.8,0,13.95,5.67,13.95,15.03v23.67c0,4.41-2.52,8.46-9.72,8.46-7.83,0-9.99-2.79-9.99-8.19v-24.12c0-4.95,2.16-6.84,6.12-6.84s5.58,2.07,5.58,6.66v23.58c0,.9-.72,1.62-1.8,1.62-1.17,0-1.89-.72-1.89-1.62v-23.58c0-1.53,0-3.33-1.89-3.33s-2.43,1.44-2.43,3.51v24.12c0,3.42,1.62,4.86,6.3,4.86,4.32,0,6.12-2.34,6.12-5.13v-23.67c0-6.93-1.98-11.79-10.35-11.79-6.57,0-10.08,3.33-10.08,9.9v25.56c0,4.41-2.7,8.46-9.81,8.46-7.92,0-9.9-2.79-9.9-8.19v-32.22c0-4.95,2.07-6.75,6.12-6.75,3.78,0,5.58,1.98,5.58,6.57v31.68c0,.9-.72,1.62-1.8,1.62-1.17,0-1.89-.72-1.89-1.62Z"/><path class="cls-2" d="M283.21,104.75c-.72,2.97,.18,5.4,3.33,5.4,2.61,0,4.05-1.98,4.05-5.4,0-4.86-3.78-8.19-12.24-8.19-10.44,0-18.09,6.39-18,17.01v30.96c0,3.42,1.44,4.86,6.21,4.86,4.23,0,6.12-2.34,6.12-5.13v-33.66c0-1.62,0-3.33-1.89-3.33s-2.34,1.53-2.34,3.42l-.09,33.12c0,.9-.72,1.71-1.8,1.71-1.17,0-1.89-.81-1.89-1.71l.09-33.12c0-4.95,2.16-6.75,6.03-6.75s5.58,2.07,5.58,6.66v33.66c0,4.41-2.7,8.46-9.81,8.46-7.92,0-9.9-2.79-9.9-8.19v-30.96c0-12.78,9.18-20.34,21.69-20.34s15.84,5.31,15.84,11.52-3.51,8.73-7.74,8.73c-5.4,0-8.19-3.51-6.66-9.63,.18-.81,.99-1.44,2.07-1.17,1.17,.18,1.62,1.17,1.35,2.07Zm-1.26,29.97c2.97,.36,4.68-1.35,4.68-4.86s-1.35-4.95-4.77-4.5c-.9,0-1.8-.45-1.89-1.44-.09-.99,.54-1.8,1.44-1.89,5.85-.81,8.82,1.44,8.82,7.83,0,6.75-3.6,8.82-8.73,8.19-.9-.18-1.62-.9-1.44-1.89,.18-1.08,.99-1.53,1.89-1.44Z"/><path class="cls-2" d="M314.62,108.71c-9.18,1.89-15.03,9.54-15.03,20.43,0,14.49,8.64,20.7,20.25,20.7s19.71-6.57,19.71-21.06-7.02-20.43-14.31-20.52c-1.71-.09-2.7,.81-2.7,2.25,0,1.26,.54,1.98,2.25,2.25,6.21,1.17,10.44,4.86,10.44,16.11s-5.22,16.38-15.75,16.38-15.57-5.31-15.57-16.38c0-3.87,1.08-7.2,2.7-9.72,3.51-5.67,8.73-5.58,10.98-2.79,2.34,2.97,.63,6.21-1.17,8.55-.63,.9-.99,2.16-.99,3.69,0,3.15,.63,6.03,4.14,6.03s4.05-2.7,4.05-5.76c0-1.44-.36-2.61-1.17-3.51-.54-.63-.54-1.62,.18-2.34,.72-.81,1.98-.54,2.61,.09,1.17,1.44,1.98,3.24,1.98,5.76,0,5.76-2.34,9.09-7.65,9.09s-7.74-3.51-7.74-9.36c0-2.61,1.08-4.41,2.07-5.85,.9-1.35,1.98-2.97,.99-4.23-1.44-1.62-3.87,.18-5.4,2.43-1.44,2.07-1.98,4.86-1.98,7.92,0,8.46,3.6,13.05,11.97,13.05s12.06-4.59,12.06-13.05-2.34-11.97-7.38-12.78c-4.05-.72-5.22-2.52-5.22-5.58,0-3.42,2.34-5.67,6.3-5.58,8.55,.09,18,6.3,18,23.85s-10.35,24.39-23.4,24.39-23.85-7.02-23.85-24.03c0-12.78,7.38-21.42,17.91-23.76,.9-.18,1.8,.18,1.98,1.26,.27,1.17-.45,1.8-1.26,2.07Z"/></g></svg>