<?xml version="1.0" encoding="UTF-8"?><svg xmlns="http://www.w3.org/2000/svg" viewBox="0 0 1920 1080"><defs><style>.cls-1{fill:#f2f2f2;}.cls-2{fill:#f2f0e9;}.cls-3{fill:#fac4ab;}.cls-4{fill:#f3d5b5;}.cls-5{fill:#e8ccae;}.cls-6{fill:#e8b318;}.cls-7{fill:#ef8080;}.cls-8{fill:#fff;}.cls-9{fill:#f5bb00;}.cls-10{fill:#f3978e;}.cls-11{fill:#e6bc91;}.cls-12{fill:#75315e;}.cls-13{fill:#7e3766;}.cls-14{fill:#8b9b35;}.cls-15{fill:#8c6239;}.cls-16{fill:#8b3629;}.cls-17{fill:#b3b3b3;}.cls-18{fill:#98a824;}.cls-19{fill:#ab6894;}.cls-20{fill:#c04f3c;}.cls-21{fill:#ccc;}.cls-22{fill:#d2de3f;}.cls-23{fill:#d2de8c;}.cls-24{fill:#231f20;}.cls-25{fill:#53281f;}.cls-26{opacity:.35;}</style></defs><g id="Layer_93"><g><rect class="cls-25" x=".34" y="-3.01" width="1920" height="1080"/><rect class="cls-16" x="107.81" y="85.61" width="128.53" height="47.37" rx="3.65" ry="3.65"/><rect class="cls-16" x="256.36" y="86.05" width="128.53" height="47.37" rx="3.65" ry="3.65"/><rect class="cls-20" x="64.36" y="153.05" width="128.53" height="47.37" rx="3.65" ry="3.65"/><rect class="cls-20" x="163.36" y="220.05" width="128.53" height="47.37" rx="3.65" ry="3.65"/><rect class="cls-16" x="242.75" y="1004.5" width="128.53" height="47.37" rx="3.65" ry="3.65"/><rect class="cls-16" x="163.75" y="941.5" width="128.53" height="47.37" rx="3.65" ry="3.65"/><rect class="cls-16" x="243.03" y="878.88" width="128.53" height="47.37" rx="3.65" ry="3.65"/><rect class="cls-20" x="164.03" y="815.88" width="128.53" height="47.37" rx="3.65" ry="3.65"/><rect class="cls-20" x="314.03" y="815.88" width="128.53" height="47.37" rx="3.65" ry="3.65"/><rect class="cls-20" x="394.03" y="878.88" width="128.53" height="47.37" rx="3.65" ry="3.65"/><rect class="cls-16" x="442.59" y="513.26" width="128.53" height="47.37" rx="3.65" ry="3.65"/><rect class="cls-16" x="522.53" y="578.96" width="128.53" height="47.37" rx="3.65" ry="3.65"/><rect class="cls-20" x="595.53" y="512.96" width="128.53" height="47.37" rx="3.65" ry="3.65"/><rect class="cls-20" x="522.53" y="446.96" width="128.53" height="47.37" rx="3.65" ry="3.65"/><rect class="cls-16" x="674.53" y="446.96" width="128.53" height="47.37" rx="3.65" ry="3.65"/><rect class="cls-16" x="918.45" y="85.72" width="128.53" height="47.37" rx="3.65" ry="3.65"/><rect class="cls-16" x="960.13" y="149.73" width="128.53" height="47.37" rx="3.65" ry="3.65"/><rect class="cls-20" x="1112.13" y="149.73" width="128.53" height="47.37" rx="3.65" ry="3.65"/><rect class="cls-16" x="918.13" y="213.73" width="128.53" height="47.37" rx="3.65" ry="3.65"/><rect class="cls-16" x="1065.13" y="213.73" width="128.53" height="47.37" rx="3.65" ry="3.65"/><rect class="cls-20" x="960.13" y="277.73" width="128.53" height="47.37" rx="3.65" ry="3.65"/><rect class="cls-20" x="1024.13" y="341.73" width="128.53" height="47.37" rx="3.65" ry="3.65"/><rect class="cls-16" x="1001.27" y="1004" width="128.53" height="47.37" rx="3.65" ry="3.65"/><rect class="cls-16" x="1024.48" y="939.89" width="128.53" height="47.37" rx="3.65" ry="3.65"/><rect class="cls-20" x="1088.48" y="875.89" width="128.53" height="47.37" rx="3.65" ry="3.65"/><rect class="cls-16" x="937.48" y="875.89" width="128.53" height="47.37" rx="3.65" ry="3.65"/><rect class="cls-20" x="856.74" y="811.59" width="128.53" height="47.37" rx="3.65" ry="3.65"/><rect class="cls-20" x="1000.74" y="811.59" width="128.53" height="47.37" rx="3.65" ry="3.65"/><rect class="cls-16" x="1145.74" y="811.59" width="128.53" height="47.37" rx="3.65" ry="3.65"/><rect class="cls-16" x="1736.14" y="13.91" width="128.53" height="47.37" rx="3.65" ry="3.65"/><rect class="cls-16" x="1688.14" y="77.91" width="128.53" height="47.37" rx="3.65" ry="3.65"/><rect class="cls-20" x="1604.14" y="141.91" width="128.53" height="47.37" rx="3.65" ry="3.65"/><rect class="cls-16" x="1752.14" y="141.91" width="128.53" height="47.37" rx="3.65" ry="3.65"/><rect class="cls-20" x="1782.14" y="395.91" width="128.53" height="47.37" rx="3.65" ry="3.65"/><rect class="cls-20" x="1742.14" y="456.91" width="128.53" height="47.37" rx="3.65" ry="3.65"/><rect class="cls-16" x="1782.14" y="517.91" width="128.53" height="47.37" rx="3.65" ry="3.65"/><rect class="cls-16" x="1635.14" y="395.91" width="128.53" height="47.37" rx="3.65" ry="3.65"/><rect class="cls-20" x="1596.14" y="456.91" width="128.53" height="47.37" rx="3.65" ry="3.65"/><rect class="cls-16" x="1488.14" y="395.91" width="128.53" height="47.37" rx="3.65" ry="3.65"/><rect class="cls-16" x="1552.14" y="334.91" width="128.53" height="47.37" rx="3.65" ry="3.65"/><rect class="cls-16" x="1552.14" y="980.28" width="128.53" height="47.37" rx="3.65" ry="3.65"/><rect class="cls-20" x="1624.14" y="916.28" width="128.53" height="47.37" rx="3.65" ry="3.65"/><rect class="cls-16" x="1540.14" y="857.28" width="128.53" height="47.37" rx="3.65" ry="3.65"/><rect class="cls-16" x="1688.14" y="857.28" width="128.53" height="47.37" rx="3.65" ry="3.65"/><rect class="cls-16" x="1736.14" y="798.28" width="128.53" height="47.37" rx="3.65" ry="3.65"/></g></g><g id="Layer_94"><g><path class="cls-2" d="M694.35,332.25c-20.7-12.3-32.7-37.8-32.7-80.7,0-70.2,32.7-95.1,71.7-95.1h9v185.1h-9c-6.3,0-12.6-.6-18.3-1.5l-12.6,23.1h-24.9l16.8-30.9Zm69.6-175.8c6.9,0,13.5,.9,19.8,2.4l12.3-22.5h24.9l-17.1,31.8c18.9,13.2,31.8,39.6,31.8,83.4,0,65.4-27.9,90-71.7,90h-9.3V156.45h9.3Z"/><path class="cls-2" d="M840.45,158.85h84.9l36.3,148.5-6,33h-71.7l-43.5-181.5Zm156.9,0l-29.1,133.5-18.9-133.5h48Z"/><path class="cls-2" d="M1002.45,158.85h84.9l36.3,148.5-6,33h-71.7l-43.5-181.5Zm156.9,0l-29.1,133.5-18.9-133.5h48Z"/><path class="cls-2" d="M1172.85,310.35c0-20.1,15.9-32.1,42.6-32.1s42.9,12,42.9,32.1-15.9,32.4-42.9,32.4-42.6-12-42.6-32.4Zm4.8-126.3c-3.3-7.8-4.5-14.7-4.5-21.3,0-22.5,17.1-36.6,42.9-36.6s42.3,13.8,42.3,35.7c0,6.6-1.5,14.1-4.5,22.2l-32.7,84.6h-10.8l-32.7-84.6Z"/></g></g><g id="Layer_36"><g><path class="cls-11" d="M150.57,663.99c-.09-.91,.02-1.88,.07-2.79,0-.12-.06-.22,.17-.19,22.06,2.71,4.16-7.54,7.12-30.92,.03-.24,.06-.18,.17-.19,.82-.08,1.57-.05,2.38,.12,.11,.02,.16,.01,.14,.24-2.34,22.01,15.15,35.7-9.89,33.72-.26-.02-.15,.14-.16,.02Z"/><path class="cls-9" d="M207.97,573.75c23.2-79.76,63.41-176.91,162.73-151.09,99.32,25.83,74.35,125.82,47.39,197.96-26.96,72.14-39.42,132.01-137.24,90.25-97.81-41.76-96.09-57.37-72.89-137.13Z"/><rect class="cls-6" x="248.35" y="615.82" width="42.95" height="31" transform="translate(302.41 -54.47) rotate(25.86)"/><path class="cls-6" d="M392.37,585.44c-28.91,30.71-58.75,56.93-114.7,38.43-55.95-18.5-53.47-90.98-22.8-124.27,30.67-33.29,63.84-27.67,92.53-14.49,28.7,13.18,73.88,69.62,44.97,100.33Z"/><rect class="cls-4" x="251.7" y="609.11" width="37.65" height="39.32" transform="translate(301.37 -55.03) rotate(25.86)"/><path class="cls-4" d="M232,631.71c-.23-9.67,30.25,5.34,34.97,7.26,4.72,1.92,40.09,25.53,25.69,28.96-14.4,3.43-25.56,5.55-40.61-1.2-15.05-6.75-19.82-25.36-20.05-35.02Z"/><path class="cls-5" d="M244.28,521.87c11.95-43.92,38.52-63.06,82.37-63.86,43.85-.8,88.78,28.57,89.15,76.63s-75.43,101.23-125.34,89.34c-49.91-11.89-58.13-58.19-46.18-102.12Z"/><path class="cls-4" d="M252.62,504.6c10.7-26.31,42.07-50.96,87.09-50.35s94.69,60.38,68.76,103.27c-25.94,42.89-80.02,81.3-130.53,59.58-50.51-21.72-36.01-86.2-25.31-112.5Z"/><g class="cls-26"><ellipse class="cls-3" cx="273" cy="549" rx="11" ry="17" transform="translate(-338.95 510.92) rotate(-60)"/></g><g class="cls-26"><ellipse class="cls-3" cx="332.33" cy="583.77" rx="11" ry="17" transform="translate(-339.4 579.69) rotate(-60)"/></g><path class="cls-13" d="M195.77,840.96c-18.47-3.42-36.96-6.26-55.72-7.47-43.88,84.39-34.71,156.41-36.08,250.01,22.88-1.22,45.37-.42,68.22,.66,2.22-64.79,7.7-183.58,23.58-243.2Z"/><path class="cls-13" d="M179.95,840.72c20.68-2.11,41.15-1.03,61.86-.23,36.14,79.52,27.79,162.73,27.61,244.42-23.2,.34-46.07,.2-69.25-.74-3.25-83.32-7.2-160.75-20.23-243.45Z"/><path class="cls-13" d="M203.11,929.12c17.21-21.28-11.85-60.26-36.73-55.78-24.88,4.48-42.06,30.22-42.08,44.11-.02,13.89,14.74,82.1,41.02,45.95,26.28-36.15,20.58-13,37.79-34.28Z"/><path class="cls-12" d="M200.67,1083.91c-.53,0-.97-.42-1-.96-.24-5.37-.48-11.35-.72-17.33-.3-7.38-.61-15-.91-21.39l-.34-7.19c-.35-7.54-.63-13.5-1.11-22.1l-.14-2.46c-.57-10.15-1.1-19.74-1.87-31.18-.45-6.76-1.08-14.83-1.69-22.63-.51-6.56-1.02-13.12-1.43-18.98-.04-.55,.38-1.03,.93-1.07,.55-.05,1.03,.38,1.07,.93,.41,5.86,.92,12.41,1.43,18.97,.61,7.81,1.23,15.88,1.69,22.65,.77,11.44,1.3,21.04,1.87,31.2l.14,2.46c.48,8.61,.76,14.57,1.11,22.12l.34,7.19c.3,6.39,.61,14.02,.91,21.4,.24,5.98,.48,11.95,.72,17.33,.02,.55-.4,1.02-.95,1.04-.02,0-.03,0-.05,0Z"/><path class="cls-12" d="M244,829.68c-32.53-3.42-64.96-7.81-97.46-11.52-2.3,5.84-5.08,11.43-7.59,17.18,33.86,8.34,70.42,13.54,105.29,11.09-.7-5.97-1.42-10.77-.24-16.75Z"/><path class="cls-12" d="M225.92,883.2c-2.19-9.95-4.54-23.68,10.61-27.43,15.15-3.76,14.13,8.43,18.87,22.96,4.75,14.53,5.65,20.39,9.52,38.01,3.87,17.61-36.82-23.58-39.01-33.54Z"/><path class="cls-12" d="M149.81,872.89c3.35-10.73,5.84-23.25-8.65-26.91s-16.19,11.24-16.32,22.44c-.13,11.2-12.15,31.36-12.22,42.43-.07,11.06,33.85-27.23,37.2-37.96Z"/><path class="cls-4" d="M139.27,765.6c-6.54,24.85,9.48,99.7-9.47,111.6-18.95,11.9-25.92-94.24-22.01-109.23,3.91-14.99,20.04-122.22,43.18-104.98,23.14,17.24-5.16,77.76-11.7,102.61Z"/><path class="cls-4" d="M278.83,795.25c-8.85,19.44-55.81,88.9-35.05,96.28,20.76,7.38,48.97-67.9,58.64-80.21,9.66-12.31,48.06-103.08,17.13-92.98-30.93,10.09-31.87,57.47-40.72,76.92Z"/><path class="cls-12" d="M148.99,876.59c5.12-6.11,7.1-24.5-1.74-26.37-8.85-1.87-14.17,12.3-19.01,20.48-4.83,8.18-15.37,29.7-15.19,39.85,.18,10.14,30.82-27.84,35.94-33.96Z"/><path class="cls-12" d="M227.21,883.56c-3.05-9.72-6.71-23.14,5.39-27.27,12.1-4.13,12.77,7.88,18.51,22.03s7.23,19.89,12.63,37.09c5.4,17.2-33.47-22.12-36.53-31.84Z"/><path class="cls-12" d="M191.11,904.19c-.44-28.63-1.72-30.37,5.25-58.87-2.55-.69-5.17-.51-7.75-1.03-8.37,31.07-5.7,28.25-4.76,59.31,2.71,.46,4.44,.94,7.26,.59Z"/><path class="cls-14" d="M233.76,626.42c9.42-2.43,3.28,22.83,25.86,35.33,22.58,12.51,31.01-9.1,37.91,.69,6.91,9.79-37.1,8.28-45.17,2.81-8.08-5.48-28.02-36.4-18.6-38.83Z"/><path class="cls-14" d="M167.34,688.36c-1.6,5.36-19.69,.04-23.88-1-4.19-1.04-21.31-4.12-19.1-8.88,2.2-4.76,17.4,.16,21.59,1.11,4.18,.96,23,3.41,21.4,8.76Z"/><path class="cls-14" d="M330.15,764.58c-2.61,6.59-15.95-4.02-19.64-5.95s-23.5-12.71-19.35-17.93,17.51,7.07,22.2,9.75c4.69,2.68,19.41,7.54,16.8,14.13Z"/><path class="cls-18" d="M295.58,658.47c-24.13,27.09-59.43-2.6-58.43-32.67-59.31-7.51-87.73,143.84-88.58,186.72,32.33,1.97,63.96,9.01,95.97,13.51,1.79-30.78,85.4-154.86,51.04-167.56Z"/><path class="cls-18" d="M249.85,700.26c26.28,15.88,41.88,1.5,40.66,41.21,13.42,7.5,25.96,16.4,39.58,23.55,15.28-57.04,30.24-78.42-34.42-106.48,15.66,29.77-27.66,31.83-45.81,41.72Z"/><path class="cls-18" d="M216.06,687.41c-21.64-8.87-35.88-28.79-49.01,1.54-14.57-3.37-28.57-5.52-42.74-10.67,28.78-45.97,51.79-87.61,112.99-51.16-45.04,9.19-24.23,28.42-21.23,60.29Z"/><circle class="cls-22" cx="188" cy="750" r="16"/><circle class="cls-22" cx="237" cy="763" r="16"/><circle class="cls-22" cx="220.66" cy="725.14" r="21.82"/><path class="cls-23" d="M188.96,737.27c-1.4-1-5.43-.76-7.45,.27-2.02,1.03-6.07,4.51-5.05,6.11,1.01,1.6,6.66-3.01,7.29-3.26,.63-.25,6.62-2.12,5.22-3.12Z"/><path class="cls-23" d="M238.59,748.61c-1.44-.95-5.46-.55-7.44,.55s-5.89,4.74-4.81,6.3c1.08,1.56,6.54-3.26,7.16-3.54,.62-.28,6.53-2.37,5.1-3.32Z"/><path class="cls-23" d="M225.28,706.66c-1.4-1.23-6.35-1.67-9.09-.99s-8.66,3.46-7.9,5.22c.76,1.76,8.93-1.86,9.77-2.01,.83-.14,8.63-.99,7.23-2.22Z"/><path class="cls-14" d="M244.43,823.36s-.1,0-.15-.01c-.55-.08-.92-.59-.84-1.14,1.53-10.32,4.3-15.62,8.89-24.41,1.25-2.4,2.67-5.11,4.22-8.24,4.15-8.37,11.94-24.81,18.82-39.31,4.83-10.18,9.39-19.79,11.81-24.76,.86-1.77,1.85-3.37,3.19-3.05,1.82,.43,1.96,3.74,1.89,12.38-.02,2.57-.05,5.89,.15,7.48,.24-.04,.5,0,.72,.14,.47,.3,.6,.91,.31,1.38-.65,1.03-1.33,1.08-1.78,.95-1.34-.4-1.46-2.24-1.39-9.97,.03-3.18,.07-8.25-.38-10.03-.21,.29-.5,.78-.9,1.59-2.42,4.96-6.97,14.57-11.8,24.74-6.88,14.51-14.68,30.95-18.84,39.34-1.56,3.15-2.98,5.87-4.24,8.28-4.49,8.6-7.2,13.79-8.69,23.78-.07,.5-.5,.85-.99,.85Z"/><g><path class="cls-17" d="M267.2,672.17c-4.88,0-8.92-1.17-12.12-2.68-13-6.17-21.21-22.69-21.96-44.19-.02-.55,.41-1.02,.96-1.03,.55-.03,1.02,.41,1.03,.96,.72,20.74,8.5,36.61,20.81,42.46,11.08,5.26,24.68,2.15,39.33-8.98,.44-.33,1.07-.25,1.4,.19,.33,.44,.25,1.07-.19,1.4-11.81,8.98-21.58,11.87-29.28,11.87Z"/><g><path class="cls-21" d="M264,678.96c-5.66,0-10.12-1.45-13.24-2.97-14.82-7.23-23.01-27.13-21.4-51.94,.04-.55,.53-.94,1.06-.93,.55,.04,.97,.51,.93,1.06-1.56,23.98,6.21,43.15,20.28,50.02,7.67,3.74,24,6.96,47.07-13.61,.41-.37,1.04-.33,1.41,.08,.37,.41,.33,1.04-.08,1.41-14.75,13.15-26.95,16.88-36.04,16.88Z"/><path class="cls-13" d="M231.43,630.29c-.75,1.24-2.19,1.93-3.44,1.04-1.25-.88-1.37-2.46-.62-3.71s2.19-1.82,3.49-1.01c1.3,.81,1.32,2.44,.57,3.67Z"/><path class="cls-13" d="M231.35,638.35c-.71,1.28-2.08,1.87-3.47,1.22-1.39-.65-1.56-2.25-.84-3.53,.72-1.28,2.18-2.07,3.51-1.28,1.34,.79,1.51,2.31,.8,3.59Z"/><path class="cls-13" d="M232.4,647.02c-.66,1.24-2.05,1.66-3.29,1.01-1.24-.65-1.68-2.01-1.02-3.25,.66-1.24,2.06-1.68,3.31-1.04s1.66,2.04,1,3.28Z"/><path class="cls-13" d="M234.84,655.26c-.66,1.24-2.03,1.66-3.26,.98s-1.65-2.07-.99-3.32c.66-1.24,2.03-1.68,3.27-1,1.24,.68,1.64,2.09,.98,3.33Z"/><path class="cls-13" d="M238.72,662.98c-.65,1.24-2.03,1.67-3.27,1.01-1.24-.66-1.67-2.04-1.02-3.28,.65-1.24,2.03-1.66,3.27-1,1.24,.66,1.67,2.03,1.02,3.28Z"/><path class="cls-13" d="M243.98,670.21c-.65,1.24-2.03,1.68-3.27,1.04-1.24-.64-1.68-2.01-1.03-3.25,.65-1.24,2.04-1.68,3.28-1.04,1.25,.64,1.67,2.01,1.02,3.25Z"/><path class="cls-13" d="M252.5,675.7c-.67,1.24-2.06,1.68-3.31,1.03-1.25-.65-1.7-2.02-1.03-3.27s2.07-1.67,3.33-1.03c1.26,.64,1.69,2.03,1.02,3.28Z"/><path class="cls-13" d="M261.37,678.1c-.69,1.2-2.05,1.72-3.29,1.05-1.24-.66-1.6-2.06-.92-3.29,.68-1.23,2.1-1.68,3.35-1.01s1.55,2.04,.86,3.24Z"/><path class="cls-13" d="M270.96,678.5c-.78,1.26-2.35,1.59-3.64,.93s-1.72-2.05-.94-3.28c.79-1.23,2.29-1.59,3.57-.92,1.28,.67,1.79,2.01,1,3.27Z"/><path class="cls-13" d="M287.73,673.04c-.67,1.37-2.29,1.97-3.7,1.44-1.41-.53-1.9-1.86-1.21-3.17s2.17-1.83,3.58-1.38c1.41,.45,1.99,1.73,1.32,3.1Z"/><path class="cls-13" d="M295.58,668.61c-.61,1.41-2.13,2.15-3.54,1.75-1.41-.41-2.06-1.67-1.48-3.02,.58-1.35,1.96-1.95,3.46-1.71s2.16,1.57,1.55,2.98Z"/><path class="cls-13" d="M300.77,663.32c-.28,1.43-1.89,2.07-3.15,1.77-1.26-.3-2.35-1.1-2.19-2.46,.16-1.36,1.59-1.65,2.8-1.57,1.21,.08,2.82,.83,2.54,2.26Z"/><path class="cls-13" d="M279.56,676.76c-.75,1.3-2.36,1.74-3.71,1.14-1.35-.6-1.81-1.98-1.05-3.25,.76-1.27,2.3-1.69,3.65-1.1,1.34,.58,1.87,1.91,1.12,3.21Z"/><path class="cls-19" d="M230.49,637.91c-.42,.77-1.27,1.18-2.09,.76-.82-.42-.92-1.38-.49-2.15,.42-.77,1.3-1.23,2.11-.77,.81,.46,.9,1.38,.48,2.15Z"/><path class="cls-19" d="M230.62,629.75c-.45,.74-1.31,1.13-2.07,.61s-.82-1.47-.37-2.22,1.32-1.11,2.09-.61c.78,.5,.79,1.48,.34,2.22Z"/><path class="cls-19" d="M231.54,646.57c-.4,.74-1.23,1-1.98,.61s-1.01-1.21-.61-1.95c.4-.74,1.23-1,1.98-.62,.75,.39,1,1.21,.61,1.96Z"/><path class="cls-19" d="M233.99,654.8c-.39,.75-1.22,.99-1.96,.59-.74-.4-.99-1.24-.6-1.99,.39-.75,1.22-1.01,1.96-.6,.74,.41,.99,1.25,.59,2Z"/><path class="cls-19" d="M237.86,662.53c-.39,.75-1.22,1-1.96,.6-.74-.39-1-1.22-.61-1.97,.39-.75,1.22-1,1.96-.6s1,1.22,.61,1.97Z"/><path class="cls-19" d="M243.12,669.76c-.39,.74-1.22,1.01-1.96,.62-.75-.39-1.01-1.2-.62-1.95,.39-.75,1.22-1.01,1.97-.62s1,1.21,.61,1.95Z"/><path class="cls-19" d="M251.63,675.25c-.4,.75-1.24,1.01-1.99,.62-.75-.39-1.02-1.21-.62-1.96,.4-.75,1.24-1,2-.62,.76,.39,1.01,1.22,.61,1.97Z"/><path class="cls-19" d="M260.54,677.66c-.41,.72-1.24,1.02-1.98,.62-.74-.4-.95-1.23-.54-1.97,.4-.73,1.26-1.01,2.01-.61,.75,.4,.93,1.23,.52,1.95Z"/><path class="cls-19" d="M270.02,678.04c-.47,.75-1.4,.96-2.17,.55-.77-.41-1.03-1.22-.56-1.97s1.38-.95,2.14-.55c.76,.4,1.05,1.22,.59,1.97Z"/><path class="cls-19" d="M278.6,676.36c-.45,.77-1.42,1.03-2.23,.67s-1.1-1.18-.64-1.95c.46-.77,1.4-1.01,2.2-.66,.81,.35,1.12,1.16,.66,1.94Z"/><path class="cls-19" d="M286.74,672.72c-.41,.8-1.37,1.16-2.21,.85-.84-.3-1.15-1.09-.74-1.89,.41-.8,1.32-1.11,2.17-.84,.85,.27,1.2,1.07,.78,1.87Z"/><path class="cls-19" d="M294.58,668.35c-.36,.82-1.28,1.29-2.12,1.04s-1.25-.97-.9-1.79,1.24-1.26,2.14-1.09c.9,.17,1.25,1.01,.89,1.83Z"/><path class="cls-19" d="M299.79,663.12c-.11,.85-1.1,1.08-1.84,1.01-.74-.08-1.54-.55-1.43-1.37,.11-.83,1-1.01,1.72-.95s1.66,.47,1.55,1.32Z"/></g></g><path class="cls-13" d="M244.94,822.1c-32.77-2.71-64.04-6.57-96.61-10.83-2.23,7.12-5.34,13.87-7.34,21.07,33.59,6.65,68.55,11.03,102.84,10.65,.25-7.33-.17-13.6,1.11-20.89Z"/><circle class="cls-24" cx="192" cy="830" r="4"/><path class="cls-9" d="M370.99,466.53c8.22-15.64,32.55,3.17,42.67,15.99,10.12,12.82,10.63,15.55,16.85,44.43,6.22,28.88-13.32,26.25-33.38,7.43-20.06-18.82-34.36-52.21-26.15-67.85Z"/><path class="cls-9" d="M276.96,456.39c24.44-12.46,28.21-9.01,44.67-13.42,16.46-4.41,15.28-.27,26.75,5.34,11.47,5.61,44.86,11.51,21.82,29.66-23.03,18.16-117.68-9.12-93.24-21.59Z"/><path class="cls-6" d="M414.4,547.55c-.15,0-.3-.03-.45-.11-.44-.22-43.56-22.4-44.76-69.44-.01-.55,.42-1.01,.97-1.03,.52-.03,1.01,.42,1.02,.97,1.17,45.85,43.23,67.49,43.66,67.7,.49,.25,.69,.85,.44,1.34-.18,.35-.53,.55-.89,.55Z"/><path class="cls-6" d="M345.56,485.22c-8.56,0-18.7-1.37-30.38-4.11-18.86-4.42-34.94-10.98-35.1-11.04-.51-.21-.76-.79-.55-1.3s.79-.76,1.3-.55c.63,.26,63.59,25.76,87.24,9.61,.46-.31,1.08-.19,1.39,.26,.31,.46,.19,1.08-.26,1.39-5.61,3.83-13.52,5.75-23.64,5.75Z"/><path class="cls-15" d="M389.12,531.97c-12.02-4.79-19.56-13.99-20.27-26.9-.07-1.29-1.06-1.49-1.94-1.33,.04-.17,0,0,0,0-.88,.16-1.42,.56-1.32,1.96,1,13.98,9.35,24.05,22.28,29.31,1.29,.53,1.74-.03,2.08-.83,.15,.05,0,0,0,0,.35-.8,.36-1.73-.84-2.21Z"/><path class="cls-15" d="M330.47,486.81c-12.1,4.58-23.87,2.89-33.11-6.15-.92-.9-1.79-.38-2.32,.33-.09-.15,0,0,0,0-.54,.71-.67,1.37,.35,2.34,10.18,9.64,23.14,11.42,36.22,6.57,1.31-.49,1.26-1.2,.98-2.02,.15-.07,0,0,0,0-.28-.82-.9-1.52-2.11-1.07Z"/><g><ellipse class="cls-1" cx="299.71" cy="515.6" rx="21.5" ry="17" transform="translate(-296.66 517.36) rotate(-60)"/><ellipse class="cls-1" cx="354.71" cy="547.6" rx="21.5" ry="17" transform="translate(-296.65 510.09) rotate(-53.77)"/><path d="M291.58,510.59c3.38-4.87,7.24-9.8,14.35-7.73,7.11,2.07,6.27,11.2,2.83,16.86-3.43,5.66-10.03,10.99-15.94,7.2-5.91-3.79-4.63-11.46-1.25-16.33Z"/><path d="M345.9,542.99c3.38-4.87,7.24-9.8,14.35-7.73,7.11,2.07,6.27,11.2,2.83,16.86-3.43,5.66-10.03,10.99-15.94,7.2-5.91-3.79-4.63-11.46-1.25-16.33Z"/><path class="cls-8" d="M309.63,514.11c1.21-2.61,.76-5.49-1.52-7.49-2.27-2-2.73,1.77-2.85,3.29-.12,1.52-.52,2.07,.47,3.3s2.69,3.5,3.9,.9Z"/><path class="cls-8" d="M364.13,546.41c1.21-2.61,.76-5.49-1.52-7.49-2.27-2-2.73,1.77-2.85,3.29-.12,1.52-.52,2.07,.47,3.3s2.69,3.5,3.9,.9Z"/><path class="cls-8" d="M293.93,522.36c.06-1.56-1.46-2.55-1.37-4.48,.09-1.93-1.11-3.36-2.54-1-1.43,2.36,.09,4.99,1.45,6.39,1.37,1.4,2.4,.65,2.46-.91Z"/><path class="cls-8" d="M348.77,554.38c.06-1.56-1.46-2.55-1.37-4.48,.09-1.93-1.11-3.36-2.54-1-1.43,2.36,.09,4.99,1.45,6.39,1.37,1.4,2.4,.65,2.46-.91Z"/><circle class="cls-8" cx="346.93" cy="545.33" r="1.21"/></g><path class="cls-11" d="M302.59,561.84c.4-.82,1.01-1.59,1.54-2.34,.07-.1,.06-.22,.24-.07,17.3,13.96,7.52-4.2,22.38-22.49,.15-.19,.15-.12,.25-.07,.74,.37,1.36,.79,1.96,1.36,.08,.08,.13,.09-.01,.28-13.62,17.45-5.99,38.31-26.21,23.41-.21-.15-.2,.04-.15-.07Z"/><g><path class="cls-10" d="M271.76,580.14c2.25,4.8,14.28,6.62,18.84,12.07,4.56,5.45,16.26,11.05,22.18,5.26,5.92-5.79-9.75-15.84-13.8-16.37-4.06-.52-29.47-5.76-27.22-.97Z"/><path class="cls-7" d="M267.8,578.11c-3.22,3.34,22.32,8.04,24.57,9.3s25.53,12.53,23.44,9.22c-2.09-3.31-16.72-8.97-22.1-11.39-5.39-2.42-22.69-10.48-25.91-7.13Z"/><path class="cls-7" d="M268.86,578.09c0,2.4,15.78,9.99,21.89,18.1,6.11,8.11,29.73,2.77,24.59,.02-5.14-2.75-15.07,6.14-24.63-4.81-9.56-10.95-21.85-15.7-21.84-13.31Z"/><path class="cls-7" d="M268.1,578.2c.78,4.29,25.11,2.03,32.07,3.42s8.16,14.02,14.68,15.54c6.53,1.52-11.99-18.97-16.65-19.45-4.66-.47-30.88-3.8-30.1,.49Z"/></g></g></g><g id="Layer_155"><g><path class="cls-8" d="M598.01,546.02c2.65-.4,5.8-.7,9.25-.7,6.25,0,10.7,1.45,13.65,4.2,3,2.75,4.75,6.65,4.75,12.1s-1.7,10-4.85,13.1c-3.15,3.15-8.35,4.85-14.9,4.85-3.1,0-5.7-.15-7.9-.4v-33.15Zm4.35,29.8c1.1,.2,2.7,.25,4.4,.25,9.3,0,14.35-5.2,14.35-14.3,.05-7.95-4.45-13-13.65-13-2.25,0-3.95,.2-5.1,.45v26.6Z"/><path class="cls-8" d="M633.81,567.97c.1,5.95,3.9,8.4,8.3,8.4,3.15,0,5.05-.55,6.7-1.25l.75,3.15c-1.55,.7-4.2,1.5-8.05,1.5-7.45,0-11.9-4.9-11.9-12.2s4.3-13.05,11.35-13.05c7.9,0,10,6.95,10,11.4,0,.9-.1,1.6-.15,2.05h-17Zm12.9-3.15c.05-2.8-1.15-7.15-6.1-7.15-4.45,0-6.4,4.1-6.75,7.15h12.85Z"/><path class="cls-8" d="M656.41,562.62c0-2.85-.05-5.3-.2-7.55h3.85l.15,4.75h.2c1.1-3.25,3.75-5.3,6.7-5.3,.5,0,.85,.05,1.25,.15v4.15c-.45-.1-.9-.15-1.5-.15-3.1,0-5.3,2.35-5.9,5.65-.1,.6-.2,1.3-.2,2.05v12.9h-4.35v-16.65Z"/><path class="cls-8" d="M674.71,579.27v-20.85h-3.4v-3.35h3.4v-1.15c0-3.4,.75-6.5,2.8-8.45,1.65-1.6,3.85-2.25,5.9-2.25,1.55,0,2.9,.35,3.75,.7l-.6,3.4c-.65-.3-1.55-.55-2.8-.55-3.75,0-4.7,3.3-4.7,7v1.3h5.85v3.35h-5.85v20.85h-4.35Z"/><path class="cls-8" d="M710.11,566.97c0,8.95-6.2,12.85-12.05,12.85-6.55,0-11.6-4.8-11.6-12.45,0-8.1,5.3-12.85,12-12.85s11.65,5.05,11.65,12.45Zm-19.2,.25c0,5.3,3.05,9.3,7.35,9.3s7.35-3.95,7.35-9.4c0-4.1-2.05-9.3-7.25-9.3s-7.45,4.8-7.45,9.4Z"/><path class="cls-8" d="M715.66,562.62c0-2.85-.05-5.3-.2-7.55h3.85l.15,4.75h.2c1.1-3.25,3.75-5.3,6.7-5.3,.5,0,.85,.05,1.25,.15v4.15c-.45-.1-.9-.15-1.5-.15-3.1,0-5.3,2.35-5.9,5.65-.1,.6-.2,1.3-.2,2.05v12.9h-4.35v-16.65Z"/><path class="cls-8" d="M742.4,579.27c.1-1.65,.2-4.1,.2-6.25v-29.25h4.35v15.2h.1c1.55-2.7,4.35-4.45,8.25-4.45,6,0,10.25,5,10.2,12.35,0,8.65-5.45,12.95-10.85,12.95-3.5,0-6.3-1.35-8.1-4.55h-.15l-.2,4h-3.8Zm4.55-9.7c0,.55,.1,1.1,.2,1.6,.85,3.05,3.4,5.15,6.6,5.15,4.6,0,7.35-3.75,7.35-9.3,0-4.85-2.5-9-7.2-9-3,0-5.8,2.05-6.7,5.4-.1,.5-.25,1.1-.25,1.8v4.35Z"/><path class="cls-8" d="M771.05,543.77h4.4v35.5h-4.4v-35.5Z"/><path class="cls-8" d="M785.3,567.97c.1,5.95,3.9,8.4,8.3,8.4,3.15,0,5.05-.55,6.7-1.25l.75,3.15c-1.55,.7-4.2,1.5-8.05,1.5-7.45,0-11.9-4.9-11.9-12.2s4.3-13.05,11.35-13.05c7.9,0,10,6.95,10,11.4,0,.9-.1,1.6-.15,2.05h-17Zm12.9-3.15c.05-2.8-1.15-7.15-6.1-7.15-4.45,0-6.4,4.1-6.75,7.15h12.85Z"/><path class="cls-8" d="M809.6,555.07l4.75,13.6c.8,2.2,1.45,4.2,1.95,6.2h.15c.55-2,1.25-4,2.05-6.2l4.7-13.6h4.6l-9.5,24.2h-4.2l-9.2-24.2h4.7Z"/><path class="cls-8" d="M842.7,546.02c1.9-.4,4.9-.7,7.95-.7,4.35,0,7.15,.75,9.25,2.45,1.75,1.3,2.8,3.3,2.8,5.95,0,3.25-2.15,6.1-5.7,7.4v.1c3.2,.8,6.95,3.45,6.95,8.45,0,2.9-1.15,5.1-2.85,6.75-2.35,2.15-6.15,3.15-11.65,3.15-3,0-5.3-.2-6.75-.4v-33.15Zm4.35,13.8h3.95c4.6,0,7.3-2.4,7.3-5.65,0-3.95-3-5.5-7.4-5.5-2,0-3.15,.15-3.85,.3v10.85Zm0,16.15c.85,.15,2.1,.2,3.65,.2,4.5,0,8.65-1.65,8.65-6.55,0-4.6-3.95-6.5-8.7-6.5h-3.6v12.85Z"/><path class="cls-8" d="M872.3,567.97c.1,5.95,3.9,8.4,8.3,8.4,3.15,0,5.05-.55,6.7-1.25l.75,3.15c-1.55,.7-4.2,1.5-8.05,1.5-7.45,0-11.9-4.9-11.9-12.2s4.3-13.05,11.35-13.05c7.9,0,10,6.95,10,11.4,0,.9-.1,1.6-.15,2.05h-17Zm12.9-3.15c.05-2.8-1.15-7.15-6.1-7.15-4.45,0-6.4,4.1-6.75,7.15h12.85Z"/><path class="cls-8" d="M894.9,561.62c0-2.5-.05-4.55-.2-6.55h3.9l.25,4h.1c1.2-2.3,4-4.55,8-4.55,3.35,0,8.55,2,8.55,10.3v14.45h-4.4v-13.95c0-3.9-1.45-7.15-5.6-7.15-2.9,0-5.15,2.05-5.9,4.5-.2,.55-.3,1.3-.3,2.05v14.55h-4.4v-17.65Z"/><path class="cls-8" d="M925.1,567.97c.1,5.95,3.9,8.4,8.3,8.4,3.15,0,5.05-.55,6.7-1.25l.75,3.15c-1.55,.7-4.2,1.5-8.05,1.5-7.45,0-11.9-4.9-11.9-12.2s4.3-13.05,11.35-13.05c7.9,0,10,6.95,10,11.4,0,.9-.1,1.6-.15,2.05h-17Zm12.9-3.15c.05-2.8-1.15-7.15-6.1-7.15-4.45,0-6.4,4.1-6.75,7.15h12.85Z"/><path class="cls-8" d="M968.6,543.77v29.25c0,2.15,.05,4.6,.2,6.25h-3.95l-.2-4.2h-.1c-1.35,2.7-4.3,4.75-8.25,4.75-5.85,0-10.35-4.95-10.35-12.3-.05-8.05,4.95-13,10.85-13,3.7,0,6.2,1.75,7.3,3.7h.1v-14.45h4.4Zm-4.4,21.15c0-.55-.05-1.3-.2-1.85-.65-2.8-3.05-5.1-6.35-5.1-4.55,0-7.25,4-7.25,9.35,0,4.9,2.4,8.95,7.15,8.95,2.95,0,5.65-1.95,6.45-5.25,.15-.6,.2-1.2,.2-1.9v-4.2Z"/><path class="cls-8" d="M980.8,548.27c.05,1.5-1.05,2.7-2.8,2.7-1.55,0-2.65-1.2-2.65-2.7s1.15-2.75,2.75-2.75,2.7,1.2,2.7,2.75Zm-4.9,31v-24.2h4.4v24.2h-4.4Z"/><path class="cls-8" d="M991.95,566.17h.1c.6-.85,1.45-1.9,2.15-2.75l7.1-8.35h5.3l-9.35,9.95,10.65,14.25h-5.35l-8.35-11.6-2.25,2.5v9.1h-4.35v-35.5h4.35v22.4Z"/><path class="cls-8" d="M1016.35,548.12v6.95h6.3v3.35h-6.3v13.05c0,3,.85,4.7,3.3,4.7,1.15,0,2-.15,2.55-.3l.2,3.3c-.85,.35-2.2,.6-3.9,.6-2.05,0-3.7-.65-4.75-1.85-1.25-1.3-1.7-3.45-1.7-6.3v-13.2h-3.75v-3.35h3.75v-5.8l4.3-1.15Z"/><path class="cls-8" d="M1029.75,567.97c.1,5.95,3.9,8.4,8.3,8.4,3.15,0,5.05-.55,6.7-1.25l.75,3.15c-1.55,.7-4.2,1.5-8.05,1.5-7.45,0-11.9-4.9-11.9-12.2s4.3-13.05,11.35-13.05c7.9,0,10,6.95,10,11.4,0,.9-.1,1.6-.15,2.05h-17Zm12.9-3.15c.05-2.8-1.15-7.15-6.1-7.15-4.45,0-6.4,4.1-6.75,7.15h12.85Z"/><path class="cls-8" d="M1067.85,548.27c.05,1.5-1.05,2.7-2.8,2.7-1.55,0-2.65-1.2-2.65-2.7s1.15-2.75,2.75-2.75,2.7,1.2,2.7,2.75Zm-4.9,31v-24.2h4.4v24.2h-4.4Z"/><path class="cls-8" d="M1079,566.17h.1c.6-.85,1.45-1.9,2.15-2.75l7.1-8.35h5.3l-9.35,9.95,10.65,14.25h-5.35l-8.35-11.6-2.25,2.5v9.1h-4.35v-35.5h4.35v22.4Z"/><path class="cls-8" d="M1103.3,566.17h.1c.6-.85,1.45-1.9,2.15-2.75l7.1-8.35h5.3l-9.35,9.95,10.65,14.25h-5.35l-8.35-11.6-2.25,2.5v9.1h-4.35v-35.5h4.35v22.4Z"/><path class="cls-8" d="M1124.85,567.97c.1,5.95,3.9,8.4,8.3,8.4,3.15,0,5.05-.55,6.7-1.25l.75,3.15c-1.55,.7-4.2,1.5-8.05,1.5-7.45,0-11.9-4.9-11.9-12.2s4.3-13.05,11.35-13.05c7.9,0,10,6.95,10,11.4,0,.9-.1,1.6-.15,2.05h-17Zm12.9-3.15c.05-2.8-1.15-7.15-6.1-7.15-4.45,0-6.4,4.1-6.75,7.15h12.85Z"/><path class="cls-8" d="M1158.5,579.27v-20.85h-3.4v-3.35h3.4v-1.15c0-3.4,.75-6.5,2.8-8.45,1.65-1.6,3.85-2.25,5.9-2.25,1.55,0,2.9,.35,3.75,.7l-.6,3.4c-.65-.3-1.55-.55-2.8-.55-3.75,0-4.7,3.3-4.7,7v1.3h5.85v3.35h-5.85v20.85h-4.35Z"/><path class="cls-8" d="M1192.9,572.67c0,2.5,.05,4.7,.2,6.6h-3.9l-.25-3.95h-.1c-1.15,1.95-3.7,4.5-8,4.5-3.8,0-8.35-2.1-8.35-10.6v-14.15h4.4v13.4c0,4.6,1.4,7.7,5.4,7.7,2.95,0,5-2.05,5.8-4,.25-.65,.4-1.45,.4-2.25v-14.85h4.4v17.6Z"/><path class="cls-8" d="M1200.2,543.77h4.4v35.5h-4.4v-35.5Z"/><path class="cls-8" d="M1232.9,543.77v29.25c0,2.15,.05,4.6,.2,6.25h-3.95l-.2-4.2h-.1c-1.35,2.7-4.3,4.75-8.25,4.75-5.85,0-10.35-4.95-10.35-12.3-.05-8.05,4.95-13,10.85-13,3.7,0,6.2,1.75,7.3,3.7h.1v-14.45h4.4Zm-4.4,21.15c0-.55-.05-1.3-.2-1.85-.65-2.8-3.05-5.1-6.35-5.1-4.55,0-7.25,4-7.25,9.35,0,4.9,2.4,8.95,7.15,8.95,2.95,0,5.65-1.95,6.45-5.25,.15-.6,.2-1.2,.2-1.9v-4.2Z"/><path class="cls-8" d="M1250.8,561.62c0-2.5-.05-4.55-.2-6.55h3.9l.25,4h.1c1.2-2.3,4-4.55,8-4.55,3.35,0,8.55,2,8.55,10.3v14.45h-4.4v-13.95c0-3.9-1.45-7.15-5.6-7.15-2.9,0-5.15,2.05-5.9,4.5-.2,.55-.3,1.3-.3,2.05v14.55h-4.4v-17.65Z"/><path class="cls-8" d="M1300.45,566.97c0,8.95-6.2,12.85-12.05,12.85-6.55,0-11.6-4.8-11.6-12.45,0-8.1,5.3-12.85,12-12.85s11.65,5.05,11.65,12.45Zm-19.2,.25c0,5.3,3.05,9.3,7.35,9.3s7.35-3.95,7.35-9.4c0-4.1-2.05-9.3-7.25-9.3s-7.45,4.8-7.45,9.4Z"/><path class="cls-8" d="M1310.35,566.17h.1c.6-.85,1.45-1.9,2.15-2.75l7.1-8.35h5.3l-9.35,9.95,10.65,14.25h-5.35l-8.35-11.6-2.25,2.5v9.1h-4.35v-35.5h4.35v22.4Z"/><path class="cls-8" d="M586.18,608.27c.05,1.5-1.05,2.7-2.8,2.7-1.55,0-2.65-1.2-2.65-2.7s1.15-2.75,2.75-2.75,2.7,1.2,2.7,2.75Zm-4.9,31v-24.2h4.4v24.2h-4.4Z"/><path class="cls-8" d="M592.98,621.62c0-2.5-.05-4.55-.2-6.55h3.9l.25,4h.1c1.2-2.3,4-4.55,8-4.55,3.35,0,8.55,2,8.55,10.3v14.45h-4.4v-13.95c0-3.9-1.45-7.15-5.6-7.15-2.9,0-5.15,2.05-5.9,4.5-.2,.55-.3,1.3-.3,2.05v14.55h-4.4v-17.65Z"/><path class="cls-8" d="M641.63,603.77v29.25c0,2.15,.05,4.6,.2,6.25h-3.95l-.2-4.2h-.1c-1.35,2.7-4.3,4.75-8.25,4.75-5.85,0-10.35-4.95-10.35-12.3-.05-8.05,4.95-13,10.85-13,3.7,0,6.2,1.75,7.3,3.7h.1v-14.45h4.4Zm-4.4,21.15c0-.55-.05-1.3-.2-1.85-.65-2.8-3.05-5.1-6.35-5.1-4.55,0-7.25,4-7.25,9.35,0,4.9,2.4,8.95,7.15,8.95,2.95,0,5.65-1.95,6.45-5.25,.15-.6,.2-1.2,.2-1.9v-4.2Z"/><path class="cls-8" d="M651.38,627.97c.1,5.95,3.9,8.4,8.3,8.4,3.15,0,5.05-.55,6.7-1.25l.75,3.15c-1.55,.7-4.2,1.5-8.05,1.5-7.45,0-11.9-4.9-11.9-12.2s4.3-13.05,11.35-13.05c7.9,0,10,6.95,10,11.4,0,.9-.1,1.6-.15,2.05h-17Zm12.9-3.15c.05-2.8-1.15-7.15-6.1-7.15-4.45,0-6.4,4.1-6.75,7.15h12.85Z"/><path class="cls-8" d="M673.98,621.62c0-2.5-.05-4.55-.2-6.55h3.9l.25,4h.1c1.2-2.3,4-4.55,8-4.55,3.35,0,8.55,2,8.55,10.3v14.45h-4.4v-13.95c0-3.9-1.45-7.15-5.6-7.15-2.9,0-5.15,2.05-5.9,4.5-.2,.55-.3,1.3-.3,2.05v14.55h-4.4v-17.65Z"/><path class="cls-8" d="M712.13,639.27c.1-1.65,.2-4.1,.2-6.25v-29.25h4.35v15.2h.1c1.55-2.7,4.35-4.45,8.25-4.45,6,0,10.25,5,10.2,12.35,0,8.65-5.45,12.95-10.85,12.95-3.5,0-6.3-1.35-8.1-4.55h-.15l-.2,4h-3.8Zm4.55-9.7c0,.55,.1,1.1,.2,1.6,.85,3.05,3.4,5.15,6.6,5.15,4.6,0,7.35-3.75,7.35-9.3,0-4.85-2.5-9-7.2-9-3,0-5.8,2.05-6.7,5.4-.1,.5-.25,1.1-.25,1.8v4.35Z"/><path class="cls-8" d="M742.03,615.07l5.3,14.3c.55,1.6,1.15,3.5,1.55,4.95h.1c.45-1.45,.95-3.3,1.55-5.05l4.8-14.2h4.65l-6.6,17.25c-3.15,8.3-5.3,12.55-8.3,15.15-2.15,1.9-4.3,2.65-5.4,2.85l-1.1-3.7c1.1-.35,2.55-1.05,3.85-2.15,1.2-.95,2.7-2.65,3.7-4.9,.2-.45,.35-.8,.35-1.05s-.1-.6-.3-1.15l-8.95-22.3h4.8Z"/><path class="cls-8" d="M765.93,627.97c.1,5.95,3.9,8.4,8.3,8.4,3.15,0,5.05-.55,6.7-1.25l.75,3.15c-1.55,.7-4.2,1.5-8.05,1.5-7.45,0-11.9-4.9-11.9-12.2s4.3-13.05,11.35-13.05c7.9,0,10,6.95,10,11.4,0,.9-.1,1.6-.15,2.05h-17Zm12.9-3.15c.05-2.8-1.15-7.15-6.1-7.15-4.45,0-6.4,4.1-6.75,7.15h12.85Z"/><path class="cls-8" d="M788.53,621.62c0-2.5-.05-4.55-.2-6.55h3.9l.25,4h.1c1.2-2.3,4-4.55,8-4.55,3.35,0,8.55,2,8.55,10.3v14.45h-4.4v-13.95c0-3.9-1.45-7.15-5.6-7.15-2.9,0-5.15,2.05-5.9,4.5-.2,.55-.3,1.3-.3,2.05v14.55h-4.4v-17.65Z"/><path class="cls-8" d="M815.23,636.67c0-1.85,1.25-3.15,3-3.15s2.95,1.3,2.95,3.15-1.15,3.15-3,3.15c-1.75,0-2.95-1.35-2.95-3.15Z"/><path class="cls-8" d="M837.38,639.27v-33.7h4.75l10.8,17.05c2.5,3.95,4.45,7.5,6.05,10.95l.1-.05c-.4-4.5-.5-8.6-.5-13.85v-14.1h4.1v33.7h-4.4l-10.7-17.1c-2.35-3.75-4.6-7.6-6.3-11.25l-.15,.05c.25,4.25,.35,8.3,.35,13.9v14.4h-4.1Z"/><path class="cls-8" d="M890.38,632.67c0,2.5,.05,4.7,.2,6.6h-3.9l-.25-3.95h-.1c-1.15,1.95-3.7,4.5-8,4.5-3.8,0-8.35-2.1-8.35-10.6v-14.15h4.4v13.4c0,4.6,1.4,7.7,5.4,7.7,2.95,0,5-2.05,5.8-4,.25-.65,.4-1.45,.4-2.25v-14.85h4.4v17.6Z"/><path class="cls-8" d="M908.08,639.27c.1-1.65,.2-4.1,.2-6.25v-29.25h4.35v15.2h.1c1.55-2.7,4.35-4.45,8.25-4.45,6,0,10.25,5,10.2,12.35,0,8.65-5.45,12.95-10.85,12.95-3.5,0-6.3-1.35-8.1-4.55h-.15l-.2,4h-3.8Zm4.55-9.7c0,.55,.1,1.1,.2,1.6,.85,3.05,3.4,5.15,6.6,5.15,4.6,0,7.35-3.75,7.35-9.3,0-4.85-2.5-9-7.2-9-3,0-5.8,2.05-6.7,5.4-.1,.5-.25,1.1-.25,1.8v4.35Z"/><path class="cls-8" d="M936.73,603.77h4.4v35.5h-4.4v-35.5Z"/><path class="cls-8" d="M953.43,608.27c.05,1.5-1.05,2.7-2.8,2.7-1.55,0-2.65-1.2-2.65-2.7s1.15-2.75,2.75-2.75,2.7,1.2,2.7,2.75Zm-4.9,31v-24.2h4.4v24.2h-4.4Z"/><path class="cls-8" d="M961.93,615.07l4.75,13.6c.8,2.2,1.45,4.2,1.95,6.2h.15c.55-2,1.25-4,2.05-6.2l4.7-13.6h4.6l-9.5,24.2h-4.2l-9.2-24.2h4.7Z"/><path class="cls-8" d="M986.23,627.97c.1,5.95,3.9,8.4,8.3,8.4,3.15,0,5.05-.55,6.7-1.25l.75,3.15c-1.55,.7-4.2,1.5-8.05,1.5-7.45,0-11.9-4.9-11.9-12.2s4.3-13.05,11.35-13.05c7.9,0,10,6.95,10,11.4,0,.9-.1,1.6-.15,2.05h-17Zm12.9-3.15c.05-2.8-1.15-7.15-6.1-7.15-4.45,0-6.4,4.1-6.75,7.15h12.85Z"/><path class="cls-8" d="M1008.83,622.62c0-2.85-.05-5.3-.2-7.55h3.85l.15,4.75h.2c1.1-3.25,3.75-5.3,6.7-5.3,.5,0,.85,.05,1.25,.15v4.15c-.45-.1-.9-.15-1.5-.15-3.1,0-5.3,2.35-5.9,5.65-.1,.6-.2,1.3-.2,2.05v12.9h-4.35v-16.65Z"/><path class="cls-8" d="M1035.77,603.77h4.4v15.1h.1c.7-1.25,1.8-2.35,3.15-3.1,1.3-.75,2.85-1.25,4.5-1.25,3.25,0,8.45,2,8.45,10.35v14.4h-4.4v-13.9c0-3.9-1.45-7.2-5.6-7.2-2.85,0-5.1,2-5.9,4.4-.25,.6-.3,1.25-.3,2.1v14.6h-4.4v-35.5Z"/><path class="cls-8" d="M1083.78,632.67c0,2.5,.05,4.7,.2,6.6h-3.9l-.25-3.95h-.1c-1.15,1.95-3.7,4.5-8,4.5-3.8,0-8.35-2.1-8.35-10.6v-14.15h4.4v13.4c0,4.6,1.4,7.7,5.4,7.7,2.95,0,5-2.05,5.8-4,.25-.65,.4-1.45,.4-2.25v-14.85h4.4v17.6Z"/><path class="cls-8" d="M1091.07,621.62c0-2.5-.05-4.55-.2-6.55h3.9l.25,4h.1c1.2-2.3,4-4.55,8-4.55,3.35,0,8.55,2,8.55,10.3v14.45h-4.4v-13.95c0-3.9-1.45-7.15-5.6-7.15-2.9,0-5.15,2.05-5.9,4.5-.2,.55-.3,1.3-.3,2.05v14.55h-4.4v-17.65Z"/><path class="cls-8" d="M1129.42,621.62c0-2.5-.05-4.55-.2-6.55h3.9l.25,4h.1c1.2-2.3,4-4.55,8-4.55,3.35,0,8.55,2,8.55,10.3v14.45h-4.4v-13.95c0-3.9-1.45-7.15-5.6-7.15-2.9,0-5.15,2.05-5.9,4.5-.2,.55-.3,1.3-.3,2.05v14.55h-4.4v-17.65Z"/><path class="cls-8" d="M1173.47,616.27l2.1-3,1.95,1.35-2.1,3.1c2.35,2.25,3.65,5.5,3.65,9.25,0,8.9-6.15,12.85-11.8,12.85-2.25,0-4.45-.55-6.2-1.7l-2.15,3.05-1.85-1.5,2.1-3c-2.35-2.2-3.75-5.4-3.75-9.35,0-8.05,5.3-12.8,11.9-12.8,2.2,0,4.35,.6,6.15,1.75Zm-2,3c-1.1-.9-2.5-1.45-4.25-1.45-5.4,0-7.55,5-7.55,9.4,0,2.1,.55,4.3,1.8,6.05l.1,.05,9.9-14.05Zm-8.4,15.85c1.15,1,2.55,1.4,4.05,1.4,4.6,0,7.65-3.95,7.65-9.4,0-1.65-.4-4-1.7-5.9h-.1l-9.9,13.9Z"/><path class="cls-8" d="M1205.53,603.77v29.25c0,2.15,.05,4.6,.2,6.25h-3.95l-.2-4.2h-.1c-1.35,2.7-4.3,4.75-8.25,4.75-5.85,0-10.35-4.95-10.35-12.3-.05-8.05,4.95-13,10.85-13,3.7,0,6.2,1.75,7.3,3.7h.1v-14.45h4.4Zm-4.4,21.15c0-.55-.05-1.3-.2-1.85-.65-2.8-3.05-5.1-6.35-5.1-4.55,0-7.25,4-7.25,9.35,0,4.9,2.4,8.95,7.15,8.95,2.95,0,5.65-1.95,6.45-5.25,.15-.6,.2-1.2,.2-1.9v-4.2Z"/><path class="cls-8" d="M1218.12,608.12v6.95h6.3v3.35h-6.3v13.05c0,3,.85,4.7,3.3,4.7,1.15,0,2-.15,2.55-.3l.2,3.3c-.85,.35-2.2,.6-3.9,.6-2.05,0-3.7-.65-4.75-1.85-1.25-1.3-1.7-3.45-1.7-6.3v-13.2h-3.75v-3.35h3.75v-5.8l4.3-1.15Z"/><path class="cls-8" d="M1245.27,608.12v6.95h6.3v3.35h-6.3v13.05c0,3,.85,4.7,3.3,4.7,1.15,0,2-.15,2.55-.3l.2,3.3c-.85,.35-2.2,.6-3.9,.6-2.05,0-3.7-.65-4.75-1.85-1.25-1.3-1.7-3.45-1.7-6.3v-13.2h-3.75v-3.35h3.75v-5.8l4.3-1.15Z"/><path class="cls-8" d="M1261.42,608.27c.05,1.5-1.05,2.7-2.8,2.7-1.55,0-2.65-1.2-2.65-2.7s1.15-2.75,2.75-2.75,2.7,1.2,2.7,2.75Zm-4.9,31v-24.2h4.4v24.2h-4.4Z"/><path class="cls-8" d="M1268.22,603.77h4.4v35.5h-4.4v-35.5Z"/><path class="cls-8" d="M1312.52,626.97c0,8.95-6.2,12.85-12.05,12.85-6.55,0-11.6-4.8-11.6-12.45,0-8.1,5.3-12.85,12-12.85s11.65,5.05,11.65,12.45Zm-19.2,.25c0,5.3,3.05,9.3,7.35,9.3s7.35-3.95,7.35-9.4c0-4.1-2.05-9.3-7.25-9.3s-7.45,4.8-7.45,9.4Z"/><path class="cls-8" d="M1338.92,615.07c-.1,1.75-.2,3.7-.2,6.65v14.05c0,5.55-1.1,8.95-3.45,11.05-2.35,2.2-5.75,2.9-8.8,2.9s-6.1-.7-8.05-2l1.1-3.35c1.6,1,4.1,1.9,7.1,1.9,4.5,0,7.8-2.35,7.8-8.45v-2.7h-.1c-1.35,2.25-3.95,4.05-7.7,4.05-6,0-10.3-5.1-10.3-11.8,0-8.2,5.35-12.85,10.9-12.85,4.2,0,6.5,2.2,7.55,4.2h.1l.2-3.65h3.85Zm-4.55,9.55c0-.75-.05-1.4-.25-2-.8-2.55-2.95-4.65-6.15-4.65-4.2,0-7.2,3.55-7.2,9.15,0,4.75,2.4,8.7,7.15,8.7,2.7,0,5.15-1.7,6.1-4.5,.25-.75,.35-1.6,.35-2.35v-4.35Z"/><path class="cls-8" d="M781.93,699.27c.1-1.65,.2-4.1,.2-6.25v-29.25h4.35v15.2h.1c1.55-2.7,4.35-4.45,8.25-4.45,6,0,10.25,5,10.2,12.35,0,8.65-5.45,12.95-10.85,12.95-3.5,0-6.3-1.35-8.1-4.55h-.15l-.2,4h-3.8Zm4.55-9.7c0,.55,.1,1.1,.2,1.6,.85,3.05,3.4,5.15,6.6,5.15,4.6,0,7.35-3.75,7.35-9.3,0-4.85-2.5-9-7.2-9-3,0-5.8,2.05-6.7,5.4-.1,.5-.25,1.1-.25,1.8v4.35Z"/><path class="cls-8" d="M810.58,682.62c0-2.85-.05-5.3-.2-7.55h3.85l.15,4.75h.2c1.1-3.25,3.75-5.3,6.7-5.3,.5,0,.85,.05,1.25,.15v4.15c-.45-.1-.9-.15-1.5-.15-3.1,0-5.3,2.35-5.9,5.65-.1,.6-.2,1.3-.2,2.05v12.9h-4.35v-16.65Z"/><path class="cls-8" d="M847.18,692.67c0,2.5,.05,4.7,.2,6.6h-3.9l-.25-3.95h-.1c-1.15,1.95-3.7,4.5-8,4.5-3.8,0-8.35-2.1-8.35-10.6v-14.15h4.4v13.4c0,4.6,1.4,7.7,5.4,7.7,2.95,0,5-2.05,5.8-4,.25-.65,.4-1.45,.4-2.25v-14.85h4.4v17.6Z"/><path class="cls-8" d="M875.33,675.07c-.1,1.75-.2,3.7-.2,6.65v14.05c0,5.55-1.1,8.95-3.45,11.05-2.35,2.2-5.75,2.9-8.8,2.9s-6.1-.7-8.05-2l1.1-3.35c1.6,1,4.1,1.9,7.1,1.9,4.5,0,7.8-2.35,7.8-8.45v-2.7h-.1c-1.35,2.25-3.95,4.05-7.7,4.05-6,0-10.3-5.1-10.3-11.8,0-8.2,5.35-12.85,10.9-12.85,4.2,0,6.5,2.2,7.55,4.2h.1l.2-3.65h3.85Zm-4.55,9.55c0-.75-.05-1.4-.25-2-.8-2.55-2.95-4.65-6.15-4.65-4.2,0-7.2,3.55-7.2,9.15,0,4.75,2.4,8.7,7.15,8.7,2.7,0,5.15-1.7,6.1-4.5,.25-.75,.35-1.6,.35-2.35v-4.35Z"/><path class="cls-8" d="M884.88,687.97c.1,5.95,3.9,8.4,8.3,8.4,3.15,0,5.05-.55,6.7-1.25l.75,3.15c-1.55,.7-4.2,1.5-8.05,1.5-7.45,0-11.9-4.9-11.9-12.2s4.3-13.05,11.35-13.05c7.9,0,10,6.95,10,11.4,0,.9-.1,1.6-.15,2.05h-17Zm12.9-3.15c.05-2.8-1.15-7.15-6.1-7.15-4.45,0-6.4,4.1-6.75,7.15h12.85Z"/><path class="cls-8" d="M918.08,663.77h4.4v15.1h.1c.7-1.25,1.8-2.35,3.15-3.1,1.3-.75,2.85-1.25,4.5-1.25,3.25,0,8.45,2,8.45,10.35v14.4h-4.4v-13.9c0-3.9-1.45-7.2-5.6-7.2-2.85,0-5.1,2-5.9,4.4-.25,.6-.3,1.25-.3,2.1v14.6h-4.4v-35.5Z"/><path class="cls-8" d="M948.28,687.97c.1,5.95,3.9,8.4,8.3,8.4,3.15,0,5.05-.55,6.7-1.25l.75,3.15c-1.55,.7-4.2,1.5-8.05,1.5-7.45,0-11.9-4.9-11.9-12.2s4.3-13.05,11.35-13.05c7.9,0,10,6.95,10,11.4,0,.9-.1,1.6-.15,2.05h-17Zm12.9-3.15c.05-2.8-1.15-7.15-6.1-7.15-4.45,0-6.4,4.1-6.75,7.15h12.85Z"/><path class="cls-8" d="M970.88,663.77h4.4v35.5h-4.4v-35.5Z"/><path class="cls-8" d="M985.13,687.97c.1,5.95,3.9,8.4,8.3,8.4,3.15,0,5.05-.55,6.7-1.25l.75,3.15c-1.55,.7-4.2,1.5-8.05,1.5-7.45,0-11.9-4.9-11.9-12.2s4.3-13.05,11.35-13.05c7.9,0,10,6.95,10,11.4,0,.9-.1,1.6-.15,2.05h-17Zm12.9-3.15c.05-2.8-1.15-7.15-6.1-7.15-4.45,0-6.4,4.1-6.75,7.15h12.85Z"/><path class="cls-8" d="M1017.72,694.77c1.3,.85,3.6,1.75,5.8,1.75,3.2,0,4.7-1.6,4.7-3.6,0-2.1-1.25-3.25-4.5-4.45-4.35-1.55-6.4-3.95-6.4-6.85,0-3.9,3.15-7.1,8.35-7.1,2.45,0,4.6,.7,5.95,1.5l-1.1,3.2c-.95-.6-2.7-1.4-4.95-1.4-2.6,0-4.05,1.5-4.05,3.3,0,2,1.45,2.9,4.6,4.1,4.2,1.6,6.35,3.7,6.35,7.3,0,4.25-3.3,7.25-9.05,7.25-2.65,0-5.1-.65-6.8-1.65l1.1-3.35Z"/><path class="cls-8" d="M1043.03,668.27c.05,1.5-1.05,2.7-2.8,2.7-1.55,0-2.65-1.2-2.65-2.7s1.15-2.75,2.75-2.75,2.7,1.2,2.7,2.75Zm-4.9,31v-24.2h4.4v24.2h-4.4Z"/><path class="cls-8" d="M1049.82,681.62c0-2.5-.05-4.55-.2-6.55h3.9l.25,4h.1c1.2-2.3,4-4.55,8-4.55,3.35,0,8.55,2,8.55,10.3v14.45h-4.4v-13.95c0-3.9-1.45-7.15-5.6-7.15-2.9,0-5.15,2.05-5.9,4.5-.2,.55-.3,1.3-.3,2.05v14.55h-4.4v-17.65Z"/><path class="cls-8" d="M1087.72,693.97c1.95,1.2,4.8,2.2,7.8,2.2,4.45,0,7.05-2.35,7.05-5.75,0-3.15-1.8-4.95-6.35-6.7-5.5-1.95-8.9-4.8-8.9-9.55,0-5.25,4.35-9.15,10.9-9.15,3.45,0,5.95,.8,7.45,1.65l-1.2,3.55c-1.1-.6-3.35-1.6-6.4-1.6-4.6,0-6.35,2.75-6.35,5.05,0,3.15,2.05,4.7,6.7,6.5,5.7,2.2,8.6,4.95,8.6,9.9,0,5.2-3.85,9.7-11.8,9.7-3.25,0-6.8-.95-8.6-2.15l1.1-3.65Z"/><path class="cls-8" d="M1117.32,665.57v19.95c0,7.55,3.35,10.75,7.85,10.75,5,0,8.2-3.3,8.2-10.75v-19.95h4.4v19.65c0,10.35-5.45,14.6-12.75,14.6-6.9,0-12.1-3.95-12.1-14.4v-19.85h4.4Z"/></g></g></svg>