<?xml version="1.0" encoding="UTF-8"?><svg id="Layer_136" xmlns="http://www.w3.org/2000/svg" viewBox="0 0 145 260"><defs><style>.cls-1{fill:#f2f0e9;}.cls-2{fill:#bdccd4;}.cls-3{fill:#d2edf3;}.cls-4{fill:#acbac2;}.cls-5{fill:#065085;}.cls-6{fill:#0b5e9c;}.cls-7{opacity:.5;}.cls-8{opacity:.75;}</style></defs><g class="cls-8"><rect class="cls-3" x="30.39" y="70.18" width="88.12" height="175.23" rx="14" ry="14"/></g><g class="cls-8"><rect class="cls-3" x="50.51" y="51.18" width="48" height="19"/></g><g class="cls-7"><rect class="cls-2" x="30.51" y="70.18" width="88" height="174.89" rx="14" ry="14"/></g><g class="cls-7"><rect class="cls-2" x="50.51" y="32.18" width="48" height="38"/></g><path class="cls-4" d="M105,245.83c-.18,0-.36,0-.53-.01H44.51c-12.51-.92-15.11-11.03-14.75-16.25V81.32c0-.07,0-.13,.03-.2,1.62-5.86,4.89-8.73,7.34-10.1,2.68-1.5,4.98-1.59,5.08-1.59h7.46V37.18c-.03-4.31,1.24-7.8,3.78-10.35,4.32-4.35,10.7-4.4,10.97-4.4h20.19c12.6,1.66,15.15,10.42,14.75,14.82v32.19s6.84,.09,6.84,.09c.04,0,.08,0,.11,0,10.53,1.75,13.08,10.35,12.96,14.66l-.03,147.73s0,.07,0,.11c-1.62,10.97-9.72,13.79-14.22,13.79Zm-.49-1.51c.5,.03,11.3,.4,13.22-12.44l.03-147.7c.01-.47,.15-11.15-11.65-13.15l-7.52-.1c-.41,0-.74-.34-.74-.75V37.18c.04-.53,.82-11.38-13.35-13.26h-20.09c-.06,0-6.05,.07-9.92,3.97-2.24,2.26-3.36,5.38-3.33,9.28v33c0,.41-.34,.75-.75,.75h-8.18c-.31,.01-8.14,.42-10.97,10.49V229.62c-.04,.61-.75,13.65,13.31,14.7h59.94Z"/><g><rect class="cls-6" x="45.51" y="22.18" width="57" height="28" rx="10.31" ry="10.31"/><rect class="cls-6" x="45.51" y="34.18" width="57" height="18" rx="3.01" ry="3.01"/></g><g><rect class="cls-5" x="45.51" y="47.18" width="57" height="2"/><path class="cls-5" d="M100.01,47.18H48.01c-1.38,0-2.5,1.12-2.5,2.5h0c0,.33,.06,.64,.18,.93,.37,.92,1.27,1.57,2.32,1.57h52c1.38,0,2.5-1.12,2.5-2.5h0c0-1.38-1.12-2.5-2.5-2.5Z"/></g><path class="cls-6" d="M46.51,51.68c-.28,0-.5-.22-.5-.5v-5c0-.28,.22-.5,.5-.5s.5,.22,.5,.5v5c0,.28-.22,.5-.5,.5Z"/><path class="cls-6" d="M48.01,52.18c-.28,0-.5-.22-.5-.5v-5c0-.28,.22-.5,.5-.5s.5,.22,.5,.5v5c0,.28-.22,.5-.5,.5Z"/><path class="cls-6" d="M49.56,52.18c-.28,0-.5-.22-.5-.5v-5c0-.28,.22-.5,.5-.5s.5,.22,.5,.5v5c0,.28-.22,.5-.5,.5Z"/><path class="cls-6" d="M51.01,52.18c-.28,0-.5-.22-.5-.5v-5c0-.28,.22-.5,.5-.5s.5,.22,.5,.5v5c0,.28-.22,.5-.5,.5Z"/><path class="cls-6" d="M52.4,52.18c-.28,0-.5-.22-.5-.5v-5c0-.28,.22-.5,.5-.5s.5,.22,.5,.5v5c0,.28-.22,.5-.5,.5Z"/><path class="cls-6" d="M53.93,52.18c-.28,0-.5-.22-.5-.5v-5c0-.28,.22-.5,.5-.5s.5,.22,.5,.5v5c0,.28-.22,.5-.5,.5Z"/><path class="cls-6" d="M55.47,52.18c-.28,0-.5-.22-.5-.5v-5c0-.28,.22-.5,.5-.5s.5,.22,.5,.5v5c0,.28-.22,.5-.5,.5Z"/><path class="cls-6" d="M56.92,52.18c-.28,0-.5-.22-.5-.5v-5c0-.28,.22-.5,.5-.5s.5,.22,.5,.5v5c0,.28-.22,.5-.5,.5Z"/><path class="cls-6" d="M58.31,52.18c-.28,0-.5-.22-.5-.5v-5c0-.28,.22-.5,.5-.5s.5,.22,.5,.5v5c0,.28-.22,.5-.5,.5Z"/><path class="cls-6" d="M59.84,52.18c-.28,0-.5-.22-.5-.5v-5c0-.28,.22-.5,.5-.5s.5,.22,.5,.5v5c0,.28-.22,.5-.5,.5Z"/><path class="cls-6" d="M61.42,52.18c-.28,0-.5-.22-.5-.5v-5c0-.28,.22-.5,.5-.5s.5,.22,.5,.5v5c0,.28-.22,.5-.5,.5Z"/><path class="cls-6" d="M62.87,52.18c-.28,0-.5-.22-.5-.5v-5c0-.28,.22-.5,.5-.5s.5,.22,.5,.5v5c0,.28-.22,.5-.5,.5Z"/><path class="cls-6" d="M64.26,52.18c-.28,0-.5-.22-.5-.5v-5c0-.28,.22-.5,.5-.5s.5,.22,.5,.5v5c0,.28-.22,.5-.5,.5Z"/><path class="cls-6" d="M65.79,52.18c-.28,0-.5-.22-.5-.5v-5c0-.28,.22-.5,.5-.5s.5,.22,.5,.5v5c0,.28-.22,.5-.5,.5Z"/><path class="cls-6" d="M67.36,52.18c-.28,0-.5-.22-.5-.5v-5c0-.28,.22-.5,.5-.5s.5,.22,.5,.5v5c0,.28-.22,.5-.5,.5Z"/><path class="cls-6" d="M68.81,52.18c-.28,0-.5-.22-.5-.5v-5c0-.28,.22-.5,.5-.5s.5,.22,.5,.5v5c0,.28-.22,.5-.5,.5Z"/><path class="cls-6" d="M70.2,52.18c-.28,0-.5-.22-.5-.5v-5c0-.28,.22-.5,.5-.5s.5,.22,.5,.5v5c0,.28-.22,.5-.5,.5Z"/><path class="cls-6" d="M71.73,52.18c-.28,0-.5-.22-.5-.5v-5c0-.28,.22-.5,.5-.5s.5,.22,.5,.5v5c0,.28-.22,.5-.5,.5Z"/><path class="cls-6" d="M73.32,52.18c-.28,0-.5-.22-.5-.5v-5c0-.28,.22-.5,.5-.5s.5,.22,.5,.5v5c0,.28-.22,.5-.5,.5Z"/><path class="cls-6" d="M74.76,52.18c-.28,0-.5-.22-.5-.5v-5c0-.28,.22-.5,.5-.5s.5,.22,.5,.5v5c0,.28-.22,.5-.5,.5Z"/><path class="cls-6" d="M76.15,52.18c-.28,0-.5-.22-.5-.5v-5c0-.28,.22-.5,.5-.5s.5,.22,.5,.5v5c0,.28-.22,.5-.5,.5Z"/><path class="cls-6" d="M77.68,52.18c-.28,0-.5-.22-.5-.5v-5c0-.28,.22-.5,.5-.5s.5,.22,.5,.5v5c0,.28-.22,.5-.5,.5Z"/><path class="cls-6" d="M79.28,52.18c-.28,0-.5-.22-.5-.5v-5c0-.28,.22-.5,.5-.5s.5,.22,.5,.5v5c0,.28-.22,.5-.5,.5Z"/><path class="cls-6" d="M80.73,52.18c-.28,0-.5-.22-.5-.5v-5c0-.28,.22-.5,.5-.5s.5,.22,.5,.5v5c0,.28-.22,.5-.5,.5Z"/><path class="cls-6" d="M82.12,52.18c-.28,0-.5-.22-.5-.5v-5c0-.28,.22-.5,.5-.5s.5,.22,.5,.5v5c0,.28-.22,.5-.5,.5Z"/><path class="cls-6" d="M83.65,52.18c-.28,0-.5-.22-.5-.5v-5c0-.28,.22-.5,.5-.5s.5,.22,.5,.5v5c0,.28-.22,.5-.5,.5Z"/><path class="cls-6" d="M85.22,52.18c-.28,0-.5-.22-.5-.5v-5c0-.28,.22-.5,.5-.5s.5,.22,.5,.5v5c0,.28-.22,.5-.5,.5Z"/><path class="cls-6" d="M86.67,52.18c-.28,0-.5-.22-.5-.5v-5c0-.28,.22-.5,.5-.5s.5,.22,.5,.5v5c0,.28-.22,.5-.5,.5Z"/><path class="cls-6" d="M88.06,52.18c-.28,0-.5-.22-.5-.5v-5c0-.28,.22-.5,.5-.5s.5,.22,.5,.5v5c0,.28-.22,.5-.5,.5Z"/><path class="cls-6" d="M89.59,52.18c-.28,0-.5-.22-.5-.5v-5c0-.28,.22-.5,.5-.5s.5,.22,.5,.5v5c0,.28-.22,.5-.5,.5Z"/><path class="cls-6" d="M91.19,52.18c-.28,0-.5-.22-.5-.5v-5c0-.28,.22-.5,.5-.5s.5,.22,.5,.5v5c0,.28-.22,.5-.5,.5Z"/><path class="cls-6" d="M92.63,52.18c-.28,0-.5-.22-.5-.5v-5c0-.28,.22-.5,.5-.5s.5,.22,.5,.5v5c0,.28-.22,.5-.5,.5Z"/><path class="cls-6" d="M94.02,52.18c-.28,0-.5-.22-.5-.5v-5c0-.28,.22-.5,.5-.5s.5,.22,.5,.5v5c0,.28-.22,.5-.5,.5Z"/><path class="cls-6" d="M95.55,52.18c-.28,0-.5-.22-.5-.5v-5c0-.28,.22-.5,.5-.5s.5,.22,.5,.5v5c0,.28-.22,.5-.5,.5Z"/><path class="cls-6" d="M95.43,52.18c-.28,0-.5-.22-.5-.5v-5c0-.28,.22-.5,.5-.5s.5,.22,.5,.5v5c0,.28-.22,.5-.5,.5Z"/><path class="cls-6" d="M96.87,52.18c-.28,0-.5-.22-.5-.5v-5c0-.28,.22-.5,.5-.5s.5,.22,.5,.5v5c0,.28-.22,.5-.5,.5Z"/><path class="cls-6" d="M98.26,52.18c-.28,0-.5-.22-.5-.5v-5c0-.28,.22-.5,.5-.5s.5,.22,.5,.5v5c0,.28-.22,.5-.5,.5Z"/><path class="cls-6" d="M99.79,52.18c-.28,0-.5-.22-.5-.5v-5c0-.28,.22-.5,.5-.5s.5,.22,.5,.5v5c0,.28-.22,.5-.5,.5Z"/><path class="cls-6" d="M101.25,51.74c-.28,0-.5-.22-.5-.5v-5c0-.28,.22-.5,.5-.5s.5,.22,.5,.5v5c0,.28-.22,.5-.5,.5Z"/><rect class="cls-5" x="45.51" y="46.18" width="57" height="1"/><circle class="cls-5" cx="74.01" cy="142.68" r="35.5"/><g><path class="cls-1" d="M59.77,148.26l-1.71,1.68c-.26-2.07-.72-4.42-1.38-7.04-.57-2.23-1-3.68-1.31-4.34s-.71-.99-1.21-.99c-.85,0-1.47,.65-1.85,1.95-.24-.05-.35-.18-.34-.39,.02-.4,.27-.98,.74-1.74,.57-.91,1.3-1.37,2.19-1.37,.73,0,1.3,.33,1.7,.99s.87,2.02,1.4,4.08c.58,2.31,1.05,4.38,1.39,6.19,2.85-3.99,4.27-6.77,4.27-8.34,0-.61-.25-1.06-.74-1.34l1.44-1.58c.65,.36,.98,.93,.98,1.69,0,.96-.78,2.69-2.35,5.19l-1.1,1.7-.8,1.26c-.05,.07-.21,.34-.48,.82l-.45,.79c-.07,.11-.19,.37-.38,.79Z"/><path class="cls-1" d="M71.27,145.67c-.73,1.21-1.54,2.2-2.42,2.97s-1.65,1.16-2.3,1.16c-.89,0-1.34-.72-1.34-2.16,0-1.98,.65-3.69,1.95-5.14s2.84-2.17,4.61-2.17c.68,0,1.25,.08,1.73,.25-.03,.12-.05,.19-.06,.21l-.12,.52c-.08,.36-.12,.57-.13,.62l-.62,4.31-.09,.62c-.08,.62-.13,1.03-.13,1.24,0,.28,.08,.42,.24,.42,.54,0,1.1-.61,1.67-1.83,.17,.1,.26,.21,.26,.31,0,.23-.28,.69-.84,1.38-.76,.94-1.47,1.41-2.12,1.41-.48,0-.71-.32-.71-.96,0-.2,.02-.47,.07-.81l.1-.78,.13-.86,.11-.72Zm.56-3.87c-.59-.33-1.19-.5-1.8-.5-.91,0-1.68,.56-2.3,1.67-.62,1.11-.93,2.49-.93,4.13,0,.84,.25,1.27,.75,1.27,.58,0,1.28-.44,2.1-1.33,1.11-1.19,1.78-2.59,2.01-4.19l.16-1.05Z"/><path class="cls-1" d="M78.12,149.2l-1.46,.6,.03-.27,.08-.72,.08-.68,.51-4.53,.06-.52c.04-.4,.06-.73,.06-.98,0-.42-.1-.62-.31-.62-.49,0-1.01,.55-1.58,1.66-.15-.12-.22-.23-.22-.32,0-.39,.36-.92,1.07-1.6s1.28-1.01,1.69-1.01c.56,0,.84,.36,.84,1.07,0,.18-.02,.43-.05,.73l-.08,.79-.08,.66-.08,.69c.77-1.15,1.61-2.09,2.52-2.84s1.69-1.12,2.34-1.12,.95,.44,.95,1.32c0,.27-.03,.67-.1,1.2l-.53,3.64c-.11,.73-.16,1.3-.16,1.73,0,.34,.09,.51,.27,.51,.45,0,1-.6,1.66-1.79,.16,.1,.24,.2,.24,.3,0,.42-.36,.98-1.09,1.67-.73,.69-1.32,1.03-1.78,1.03-.51,0-.76-.36-.76-1.09,0-.53,.07-1.27,.21-2.22l.34-2.36c.11-.77,.17-1.38,.17-1.83,0-.51-.18-.77-.54-.77-.83,0-1.68,.56-2.53,1.69-.86,1.13-1.35,2.34-1.5,3.64l-.26,2.34Z"/><path class="cls-1" d="M93.29,140.35l.09-.84c.23-2.08,.95-3.82,2.14-5.2s2.56-2.07,4.11-2.07c.37,0,.69,.03,.96,.1l-1.39,1.42c-.31-.1-.67-.16-1.08-.16-.98,0-1.71,.34-2.19,1.02-.48,.68-.81,1.85-1,3.49l-.9,8.14-.07,.62c-.06,.55-.09,.95-.09,1.18,0,.32,.08,.48,.25,.48,.54,0,1.08-.61,1.63-1.83,.18,.1,.26,.21,.26,.31,0,.23-.26,.69-.79,1.38-.74,.94-1.43,1.41-2.07,1.41-.5,0-.75-.34-.75-1.04,0-.25,.04-.76,.12-1.51l.1-.86,.07-.72c-.44,.98-1.16,1.91-2.15,2.8s-1.81,1.33-2.45,1.33c-.92,0-1.38-.72-1.38-2.16,0-1.88,.63-3.57,1.9-5.07s2.7-2.25,4.29-2.25c.08,0,.21,0,.38,.02Zm-.16,1.41c-.55-.3-1.05-.45-1.5-.45-.96,0-1.76,.55-2.39,1.64-.63,1.09-.94,2.48-.94,4.16,0,.84,.25,1.27,.74,1.27,.6,0,1.3-.44,2.11-1.33,1.05-1.14,1.67-2.54,1.86-4.19l.12-1.1Z"/></g></svg>