<?xml version="1.0" encoding="UTF-8"?><svg xmlns="http://www.w3.org/2000/svg" viewBox="0 0 1920 1080"><defs><style>.cls-1{fill:#f2f2f2;}.cls-2{fill:#f2f0e9;}.cls-3{fill:#fac4ab;}.cls-4{fill:#f3d5b5;}.cls-5{fill:#e8ccae;}.cls-6{fill:#e8b318;}.cls-7{fill:#ef8080;}.cls-8{fill:#fff;}.cls-9{fill:#f5bb00;}.cls-10{fill:#f3978e;}.cls-11{fill:#e6bc91;}.cls-12{fill:#75315e;}.cls-13{fill:#7e3766;}.cls-14{fill:#8b9b35;}.cls-15{fill:#8a9a34;}.cls-16{fill:#8c6239;}.cls-17{fill:#8b3629;}.cls-18{fill:#b3b3b3;}.cls-19{fill:#98a824;}.cls-20{fill:#ab6894;}.cls-21{fill:#c04f3c;}.cls-22{fill:#ccc;}.cls-23{fill:#d2de3f;}.cls-24{fill:#d2de8c;}.cls-25{fill:#231f20;}.cls-26{fill:#53281f;}.cls-27{opacity:.35;}</style></defs><g id="Layer_90"><g><rect class="cls-26" x=".21" y="-.44" width="1920" height="1080"/><rect class="cls-17" x="107.67" y="88.17" width="128.53" height="47.37" rx="3.65" ry="3.65"/><rect class="cls-17" x="256.23" y="88.62" width="128.53" height="47.37" rx="3.65" ry="3.65"/><rect class="cls-21" x="64.23" y="155.62" width="128.53" height="47.37" rx="3.65" ry="3.65"/><rect class="cls-21" x="163.23" y="222.62" width="128.53" height="47.37" rx="3.65" ry="3.65"/><rect class="cls-17" x="242.61" y="1007.06" width="128.53" height="47.37" rx="3.65" ry="3.65"/><rect class="cls-17" x="163.61" y="944.06" width="128.53" height="47.37" rx="3.65" ry="3.65"/><rect class="cls-17" x="242.89" y="881.45" width="128.53" height="47.37" rx="3.65" ry="3.65"/><rect class="cls-21" x="163.89" y="818.45" width="128.53" height="47.37" rx="3.65" ry="3.65"/><rect class="cls-21" x="313.89" y="818.45" width="128.53" height="47.37" rx="3.65" ry="3.65"/><rect class="cls-21" x="393.89" y="881.45" width="128.53" height="47.37" rx="3.65" ry="3.65"/><rect class="cls-17" x="442.46" y="515.83" width="128.53" height="47.37" rx="3.65" ry="3.65"/><rect class="cls-17" x="522.39" y="581.53" width="128.53" height="47.37" rx="3.65" ry="3.65"/><rect class="cls-21" x="595.39" y="515.53" width="128.53" height="47.37" rx="3.65" ry="3.65"/><rect class="cls-21" x="522.39" y="449.53" width="128.53" height="47.37" rx="3.65" ry="3.65"/><rect class="cls-17" x="674.39" y="449.53" width="128.53" height="47.37" rx="3.65" ry="3.65"/><rect class="cls-17" x="918.31" y="88.29" width="128.53" height="47.37" rx="3.65" ry="3.65"/><rect class="cls-17" x="959.99" y="152.3" width="128.53" height="47.37" rx="3.65" ry="3.65"/><rect class="cls-21" x="1111.99" y="152.3" width="128.53" height="47.37" rx="3.65" ry="3.65"/><rect class="cls-17" x="917.99" y="216.3" width="128.53" height="47.37" rx="3.65" ry="3.65"/><rect class="cls-17" x="1064.99" y="216.3" width="128.53" height="47.37" rx="3.65" ry="3.65"/><rect class="cls-21" x="959.99" y="280.3" width="128.53" height="47.37" rx="3.65" ry="3.65"/><rect class="cls-21" x="1023.99" y="344.3" width="128.53" height="47.37" rx="3.65" ry="3.65"/><rect class="cls-17" x="1001.14" y="1006.57" width="128.53" height="47.37" rx="3.65" ry="3.65"/><rect class="cls-17" x="1024.34" y="942.45" width="128.53" height="47.37" rx="3.65" ry="3.65"/><rect class="cls-21" x="1088.34" y="878.45" width="128.53" height="47.37" rx="3.65" ry="3.65"/><rect class="cls-17" x="937.34" y="878.45" width="128.53" height="47.37" rx="3.65" ry="3.65"/><rect class="cls-21" x="856.6" y="814.15" width="128.53" height="47.37" rx="3.65" ry="3.65"/><rect class="cls-21" x="1000.6" y="814.15" width="128.53" height="47.37" rx="3.65" ry="3.65"/><rect class="cls-17" x="1145.6" y="814.15" width="128.53" height="47.37" rx="3.65" ry="3.65"/><rect class="cls-17" x="1736.01" y="16.48" width="128.53" height="47.37" rx="3.65" ry="3.65"/><rect class="cls-17" x="1688.01" y="80.48" width="128.53" height="47.37" rx="3.65" ry="3.65"/><rect class="cls-21" x="1604.01" y="144.48" width="128.53" height="47.37" rx="3.65" ry="3.65"/><rect class="cls-17" x="1752.01" y="144.48" width="128.53" height="47.37" rx="3.65" ry="3.65"/><rect class="cls-21" x="1782.01" y="398.48" width="128.53" height="47.37" rx="3.65" ry="3.65"/><rect class="cls-21" x="1742.01" y="459.48" width="128.53" height="47.37" rx="3.65" ry="3.65"/><rect class="cls-17" x="1782.01" y="520.48" width="128.53" height="47.37" rx="3.65" ry="3.65"/><rect class="cls-17" x="1635.01" y="398.48" width="128.53" height="47.37" rx="3.65" ry="3.65"/><rect class="cls-21" x="1596.01" y="459.48" width="128.53" height="47.37" rx="3.65" ry="3.65"/><rect class="cls-17" x="1488.01" y="398.48" width="128.53" height="47.37" rx="3.65" ry="3.65"/><rect class="cls-17" x="1552.01" y="337.48" width="128.53" height="47.37" rx="3.65" ry="3.65"/><rect class="cls-17" x="1552" y="982.85" width="128.53" height="47.37" rx="3.65" ry="3.65"/><rect class="cls-21" x="1624" y="918.85" width="128.53" height="47.37" rx="3.65" ry="3.65"/><rect class="cls-17" x="1540" y="859.85" width="128.53" height="47.37" rx="3.65" ry="3.65"/><rect class="cls-17" x="1688" y="859.85" width="128.53" height="47.37" rx="3.65" ry="3.65"/><rect class="cls-17" x="1736" y="800.85" width="128.53" height="47.37" rx="3.65" ry="3.65"/></g></g><g id="Layer_92"><g><path class="cls-2" d="M531.15,133.05h80.4l29.7,117.6-4.5,63.9h-60.3l-45.3-181.5Zm105.9,0h67.8l34.5,135-9.3,46.5h-60l-36-143.4,3-38.1Zm135.3,0l-28.5,119.1-16.8-119.1h45.3Z"/><path class="cls-2" d="M849.75,315.75c-34.5,0-63.6-15.9-63.6-60.6v-96.9h70.8v157.5h-7.2Zm19.5-157.5h68.4v96.9c0,44.7-28.2,60.6-61.8,60.6h-6.6V158.25Z"/><path class="cls-2" d="M1027.05,112.95v201.6h-68.4V123.15l68.4-10.2Zm26.4,45.3c30.9,0,56.7,16.5,56.7,62.7v93.6h-70.8V158.25h14.1Z"/><path class="cls-2" d="M1194.75,315.75c-34.5,0-63.6-15.9-63.6-60.6v-96.9h70.8v157.5h-7.2Zm19.5-157.5h68.4v96.9c0,44.7-28.2,60.6-61.8,60.6h-6.6V158.25Z"/><path class="cls-2" d="M1303.35,284.55c0-20.1,15.9-32.1,42.6-32.1s42.9,12,42.9,32.1-15.9,32.4-42.9,32.4-42.6-12-42.6-32.4Zm4.8-126.3c-3.3-7.8-4.5-14.7-4.5-21.3,0-22.5,17.1-36.6,42.9-36.6s42.3,13.8,42.3,35.7c0,6.6-1.5,14.1-4.5,22.2l-32.7,84.6h-10.8l-32.7-84.6Z"/></g></g><g id="Layer_69"><g><path class="cls-9" d="M137.59,630.24c6.41-85.33-26.87-197.6,77.16-220.21,104.04-22.6,134.77,66.06,146.81,158.37s17.98,137.92-86.76,148.19c-104.74,10.27-143.62-1.02-137.21-86.35Z"/><path class="cls-6" d="M325.39,503.35c18.57,37.65,9.57,89.32-32.62,111.3-42.19,21.98-102.07,.49-117.55-47.03-15.48-47.53,15.44-67.83,50.15-90.03,34.71-22.21,81.45-11.89,100.03,25.77Z"/><rect class="cls-6" x="250.1" y="615.62" width="49.25" height="31" transform="translate(-96.05 51.19) rotate(-9.07)"/><rect class="cls-4" x="252.82" y="609.75" width="42.46" height="39.32" transform="translate(-95.78 51.06) rotate(-9.07)"/><path class="cls-4" d="M240.25,654.99c-5.88-9.72,29.84-11.49,37.9-13.66,8.06-2.17,41.4-6.5,39.77,4.78-1.63,11.28-23.12,22.75-35.19,25.91s-36.6-7.31-42.48-17.03Z"/><path class="cls-5" d="M188.8,579.63c-27-40.45-21.31-70.35,7.26-106.97,28.57-36.62,90.81-43.43,113.89-2.38s27.93,101.38-7.59,133.03-86.56,16.76-113.56-23.68Z"/><path class="cls-4" d="M191.72,576.98c-28.02-41.99-25.4-64.79-5.53-105.23,19.86-40.43,90.83-47.44,118.48-9.65,27.65,37.78,29.55,102.44-1.39,136.18-30.94,33.74-83.54,20.68-111.56-21.3Z"/><g class="cls-27"><ellipse class="cls-3" cx="225.35" cy="571.76" rx="17" ry="11" transform="translate(-153.19 87.61) rotate(-16.51)"/></g><g class="cls-27"><ellipse class="cls-3" cx="297.53" cy="551.65" rx="17" ry="11" transform="translate(-144.5 107.3) rotate(-16.51)"/></g><path class="cls-9" d="M225.54,446.89c-4.05-19.86,28.31-34.22,48.51-21.98,20.2,12.24,29.03,23.45,50.88,37,21.85,13.55-5.36,24.73-20.75,21.64s-74.59-16.8-78.64-36.66Z"/><path class="cls-9" d="M150.36,518.45c7.34-31.32,14.06-34.14,23.79-55.06s11.1-9.91,26.74-20.79c15.64-10.88,48.56-21.58,45.34,.73-3.22,22.31-103.21,106.43-95.87,75.11Z"/><path class="cls-6" d="M309.17,484.26c-9.14,0-29.33-3.85-73.02-23.34-.5-.22-.73-.82-.51-1.32,.22-.5,.82-.73,1.32-.51,67.02,29.88,77.9,22.21,78.01,22.12,.42-.33,1.04-.29,1.39,.11,.35,.4,.34,1-.05,1.37-.37,.35-2.02,1.56-7.14,1.56Z"/><path class="cls-6" d="M170.26,519.46c-.33,0-.65-.16-.84-.45-.3-.46-.17-1.08,.29-1.38,.43-.28,43.19-28.49,65.16-57.12,.34-.44,.96-.52,1.4-.18,.44,.34,.52,.96,.18,1.4-22.18,28.9-65.22,57.3-65.65,57.58-.17,.11-.36,.16-.55,.16Z"/><ellipse class="cls-1" cx="214.69" cy="536.41" rx="17" ry="21.5" transform="translate(-163.78 99.84) rotate(-19.11)"/><ellipse class="cls-1" cx="286.99" cy="518.46" rx="17" ry="21.5" transform="translate(-135.5 102.93) rotate(-16.51)"/><path d="M205.65,539.28c-1.47-5.74-2.67-11.89,3.55-15.91,6.22-4.02,12.57,2.59,14.6,8.89s1.75,14.78-4.99,16.76c-6.73,1.99-11.7-4-13.16-9.74Z"/><path d="M278.04,522.85c-1.96-5.59-3.69-11.61,2.16-16.16,5.85-4.54,12.74,1.5,15.31,7.59s3.02,14.57-3.52,17.13c-6.54,2.56-12-2.98-13.96-8.57Z"/><path class="cls-8" d="M220.07,528.67c-.84-2.75-3.1-4.59-6.13-4.56-3.03,.03-.85,3.14,.08,4.35,.92,1.22,1,1.89,2.56,2.14s4.34,.81,3.5-1.94Z"/><path class="cls-8" d="M291.2,512.29c-.84-2.75-3.1-4.59-6.13-4.56-3.03,.03-.85,3.14,.08,4.35,.92,1.22,1,1.89,2.56,2.14s4.34,.81,3.5-1.94Z"/><path class="cls-8" d="M216.91,545.3c-1-1.2-2.79-.92-4.02-2.41-1.23-1.5-3.07-1.76-2.56,.95,.51,2.71,3.4,3.65,5.35,3.78,1.95,.13,2.22-1.12,1.22-2.32Z"/><path class="cls-8" d="M290.1,528.48c-1-1.2-2.79-.92-4.02-2.41-1.23-1.5-3.07-1.76-2.56,.95,.51,2.71,3.4,3.65,5.35,3.78,1.95,.13,2.22-1.12,1.22-2.32Z"/><circle class="cls-8" cx="280.68" cy="522.97" r="1.21"/><path class="cls-11" d="M253.78,559.92c-.34-.84-.52-1.81-.73-2.7-.03-.12-.12-.19,.11-.23,21.92-3.67,1.85-8.41-1.96-31.67-.04-.24,0-.19,.11-.24,.77-.31,1.5-.49,2.32-.56,.11,0,.16-.03,.2,.19,4.01,21.77,24.67,29.92,.1,35.14-.26,.05-.11,.17-.15,.06Z"/><path class="cls-16" d="M191.19,527.67c5.33-11.79,14.86-18.91,27.79-19.03,1.29-.01,1.53-.99,1.41-1.88,.17,.04,0,0,0,0-.12-.88-.5-1.44-1.9-1.41-14.01,.36-24.45,8.25-30.29,20.93-.58,1.27-.04,1.74,.74,2.12-.06,.15,0,0,0,0,.78,.38,1.72,.44,2.25-.74Z"/><path class="cls-16" d="M302.76,500.3c-10.15-8.02-21.88-9.97-33.43-4.13-1.15,.58-1.82-.18-2.12-1.02-.13,.11,0,0,0,0-.3-.84-.22-1.51,1.04-2.12,12.61-6.11,25.51-3.9,36.52,4.67,1.1,.86,.84,1.52,.32,2.22,.12,.11,0,0,0,0-.52,.7-1.32,1.18-2.34,.38Z"/><g><path class="cls-1" d="M297.33,575.67c-2.49-10.57-21.92,2.38-28.3,4.29-6.38,1.92-44.52,5.36-35.2,11.65,9.33,6.29,28.08,5.35,37.87,2.92,9.79-2.44,28.12-8.29,25.63-18.86Z"/><path class="cls-7" d="M226.02,586.78l4.89-.5,3.91-.4,1.26-.13,2.74-.28,3.57-1.28s1.83-.19,3.57-1.28,2.56-2.1,2.56-2.1l1.64-2.01c.82-1,4.39-2.29,6.22-2.48s9.34,.89,9.34,.89c0,0,7.77-5.39,10.51-5.67s6.59,1.17,9.24-.02,10.79-2.94,10.79-2.94c0,0,6.22-2.48,7.04-3.48s1.1,1.73,1.1,1.73l-.64,2.83s-11.52,4.86-14.17,6.05-10.7,3.85-11.61,3.95-7.23,1.66-8.14,1.75-4.48,1.38-5.4,1.47-3.57,1.28-6.31,1.57-5.3,2.38-8.96,2.76l-8.23,.84-5.42,.55-4.86,.5-1.62,.17s-.62-.37-1.32-.83c-1.05-.69-2.26-1.57-1.71-1.62Z"/><path class="cls-7" d="M228.04,588.41l3.02,2.45s2.02,1.63,3.94,2.36,3.02,2.45,4.95,3.17,13.37,4.15,17.03,3.78,6.73,1.15,17.91-1.83c11.18-2.98,23.51-18.04,23.51-18.04,0,0,6.3-10.76,6.02-13.5s-4.48,1.38-4.48,1.38l-1.55,2.92-2.65,1.19-1.64,2.01-2.47,3.01s-5.66,4.97-8.95,5.87-4.75,4.73-11.16,5.38l-8.23,.84-7.32,.75c-.91,.09-4.57,.47-8.33-.07"/><path class="cls-10" d="M227.16,587.07c1.4,.93,2.72,2.23,4.15,3.1s3.39,1.68,4.7,2.35c1.31,.67,1.64,.94,2.9,1.5,1.26,.56,1.83,.72,3.52,1.32,1.69,.6,4.45,1.85,6.74,1.97s5.31,1.39,7.71,1.16,4.52,.22,6.84,.15c2.32-.07,4.35-.41,6.68-.98s4.34-.44,6.61-2.28c2.27-1.85,5.16-2.96,7.91-5.66s9.96-7.59,12.1-10.72c2.14-3.13,6.66-9,5.61-11.3-1.04-2.3-5.32,3.27-6.34,3.26-.3,1.78,.3,2.14-.74,3.93-1.04,1.79-2.96,4.47-5.11,5.94-2.15,1.47-2.5,1.95-5.61,3.55s-4.51,3.72-10.33,4.96c-5.82,1.23-21.78,2.87-28.45,1.93-6.67-.94-9.75-1.37-15.57-2.86"/><path class="cls-10" d="M227.92,587.29l10.88-1.11s9.18-1.64,9.91-3.56,3.29-4.02,3.29-4.02c0,0,.82-1,4.48-1.38,3.66-.37,9.34,.89,9.34,.89,0,0,6.03-4.3,9.6-5.58s4.67,.44,7.41,.16,12.62-3.13,12.62-3.13l7.96-3.57s-.54,3.74-1.46,3.83-9.78,3.76-9.78,3.76l-9.78,3.76-18.93,4.7-9.06,1.85s-2.56,2.1-4.39,2.29l-6.4,.65-6.82,.7-4.16,.43s-4.57,.47-4.67-.44"/></g><path class="cls-4" d="M468.92,521.81c-12.98-21.48-43.08,83.23-54.08,98.01-11,14.78-81.77,38.79-74.07,61.89,7.7,23.1,97.2-39.39,104.35-53.5,7.15-14.11,36.77-84.91,23.8-106.39Z"/><path class="cls-4" d="M52.45,557.24c9.12-23.33,63.82,78.26,76.09,89.6,12.27,11.34,86.93,30.14,80.84,53.46-6.09,23.32-99.39-26.42-110.48-40.46-11.09-14.04-55.57-79.27-46.45-102.6Z"/><path class="cls-4" d="M485.56,514.53c-1.54,7.65-21.38,21.1-25.73,12.91-4.35-8.19-3.55-9.93-1.88-18.1,1.68-8.17,10.3-19.94,18.66-15.27s10.49,12.82,8.95,20.47Z"/><path class="cls-4" d="M37.48,551.49c1.77,7.6,22,20.45,26.1,12.14,4.1-8.31,3.25-10.03,1.33-18.15-1.92-8.12-10.9-19.62-19.1-14.71s-10.11,13.13-8.33,20.72Z"/><path class="cls-4" d="M455.22,499.67c-3.34-2.65-6.11-15.89-9.85-13.7-3.74,2.19,1.51,13.96,3.6,17.31,2.09,3.35,8.64,15.94,12.76,12.24,4.11-3.69-3.17-13.21-6.51-15.86Z"/><path class="cls-4" d="M461.74,475.57c-4.01,.3-2.12,11.52-1.72,14,.4,2.48,1.03,13.85,5.03,13.47,4-.38,2.07-11.62,1.67-14.14-.4-2.52-.96-13.64-4.98-13.33Z"/><path class="cls-4" d="M482.47,471.64c-4.01-1.32-6.68,10.32-7.29,12.88-.61,2.56-4.57,13.85-.53,15.09,4.03,1.24,6.68-10.44,7.3-13.04,.62-2.6,4.54-13.61,.53-14.93Z"/><path class="cls-4" d="M499.19,484.62c-3-2.68-9.77,6.46-11.28,8.47-1.51,2.01-9.27,10.35-6.22,12.97,3.05,2.62,9.81-6.57,11.34-8.61,1.53-2.04,9.16-10.15,6.15-12.83Z"/><path class="cls-4" d="M505.1,507.64c-1.03-3.52-10.66,.29-12.79,1.11-2.13,.82-12.15,3.54-11.05,7.03,1.09,3.49,10.74-.35,12.91-1.19,2.16-.83,11.97-3.44,10.94-6.95Z"/><path class="cls-4" d="M66.86,535.97c3.63-2.23,7.98-15.04,11.43-12.42,3.45,2.62-3.18,13.68-5.66,16.76-2.48,3.08-10.5,14.78-14.14,10.62-3.64-4.16,4.73-12.73,8.37-14.96Z"/><path class="cls-4" d="M56.61,509.32c4.01,.3,2.12,11.52,1.72,14-.4,2.48-1.03,13.85-5.03,13.47-4-.38-2.07-11.62-1.67-14.14,.4-2.52,.96-13.64,4.98-13.33Z"/><path class="cls-4" d="M38.77,509.13c4.01-1.32,6.68,10.32,7.29,12.88,.61,2.56,4.57,13.85,.53,15.09-4.03,1.24-6.68-10.44-7.3-13.04-.62-2.6-4.54-13.61-.53-14.93Z"/><path class="cls-4" d="M22.95,519.39c3-2.68,9.77,6.46,11.28,8.47,1.51,2.01,9.27,10.35,6.22,12.97-3.05,2.62-9.81-6.57-11.34-8.61-1.53-2.04-9.16-10.15-6.15-12.83Z"/><path class="cls-4" d="M16.78,542.02c1.03-3.52,10.66,.29,12.79,1.11s12.15,3.54,11.05,7.03c-1.09,3.49-10.74-.35-12.91-1.19-2.16-.83-11.97-3.44-10.94-6.95Z"/><path class="cls-13" d="M305.37,835.51c-20.65-2.55-41.56-6.98-62.37-7.32-31.57,108.16-19.18,132.53-20.07,252.1,20.79-1.41,41.49-1.9,62.33-1.53-4.7-101.02,7.52-145.6,20.11-243.25Z"/><path class="cls-13" d="M292.84,834.98c20.34-4.73,40.26-10.3,61.11-12.34,40.14,100.09,15.74,154.86,23.64,256.03-21.99-.79-43.92-1.46-65.92-1.07,4.16-101.85-2.02-142.51-18.83-242.62Z"/><path class="cls-13" d="M326.96,908.09c15.1-22.83-17.54-58.86-41.88-52.02-24.34,6.84-38.98,34.09-37.68,47.92,1.3,13.83,22.5,80.32,45.21,41.83,22.71-38.49,19.25-14.9,34.35-37.73Z"/><path class="cls-12" d="M312.38,1077.67s-.02,0-.03,0c-.55-.02-.98-.48-.97-1.03,.11-3.08,.32-5.2,.52-7.24,.24-2.39,.49-4.86,.56-8.95,.11-5.9-.12-16.13-.31-24.34-.05-2.3-.1-4.43-.14-6.23-.07-3.74-.11-6.99-.15-10.12-.04-3.71-.08-7.22-.18-11.21l-.1-4.42c-.13-5.57-.24-10.37-.5-16.5-.35-8.15-1.21-21.05-1.67-27.4-.25-3.47-.49-6.32-.71-9.01-.24-2.92-.47-5.67-.69-8.83-.25-3.65-.59-6.63-.96-9.78-.23-2.01-.48-4.08-.7-6.38-.05-.55,.35-1.04,.9-1.09,.54-.07,1.04,.35,1.09,.9,.22,2.28,.46,4.34,.69,6.34,.37,3.18,.72,6.18,.97,9.88,.21,3.14,.44,5.89,.69,8.8,.23,2.7,.46,5.55,.72,9.04,.46,6.35,1.33,19.28,1.67,27.46,.26,6.15,.37,10.96,.5,16.54l.1,4.42c.1,4.01,.14,7.52,.18,11.24,.03,3.13,.07,6.37,.15,10.1,.04,1.8,.08,3.92,.14,6.22,.19,8.23,.43,18.48,.31,24.43-.08,4.17-.33,6.68-.57,9.11-.2,2.01-.41,4.09-.51,7.11-.02,.54-.46,.97-1,.97Z"/><path class="cls-14" d="M242.76,652.03c.19-15.89,15.13,19,47.1,10.24,31.98-8.76,15.11-28.54,27.74-20.51s-22.71,28.34-36.22,31.49c-13.51,3.16-38.81-5.34-38.62-21.23Z"/><path class="cls-15" d="M383.49,685.75c-2.12,.41-4.08,.98-6.06,1.83-4.18-15.65-11.48-28.87-15.94-44.94,3.05-.71,6.09-1.47,9.12-2.27,2.09,16.78,10.74,30.75,12.87,45.38Z"/><path class="cls-15" d="M170.07,706.83c2.07,.1,4.16,.15,6.23,.3-.27-15.93,3.25-31.53,.82-47.01-2.91,.34-5.48,1.69-8.38,2.18,1.94,10.98,2.76,34.5,1.33,44.53Z"/><path class="cls-12" d="M304.51,895.27c4.22-20.59,.94-38.43-2.81-58.83,2.74-.38,5.46,.22,8.18-.2,4.22,23.33,6.59,35.19,2.22,59.05-2.52,.09-5.08,.18-7.59-.02Z"/><path class="cls-12" d="M345.86,879.03c-1.44-9.51-2.28-23.26,9.37-25.51s12.88,12.73,15.79,25.14,4.44,23.53,5.72,40.27-29.45-30.39-30.88-39.89Z"/><path class="cls-12" d="M254.44,878.61c1.44-9.51,2.28-23.26-9.37-25.51s-12.88,12.73-15.79,25.14-4.44,23.53-5.72,40.27,29.45-30.39,30.88-39.89Z"/><path class="cls-19" d="M313.38,640.36c-2.72,36.56-55.88,38.74-69.22,7.49-61.61,7.18,2.11,135.14-.51,170.77,36.63-4.89,73.58-.21,110.3-3.73-5.53-29.86-12.47-166.17-40.57-174.54Z"/><path class="cls-19" d="M332.22,706.09c24.47-15.95,22.21-9.78,49.47-19.88-3.41-15.93-11.3-29.84-13.66-45.01-20.79,5.6-30.35-5.54-54.04-1.46,3.76,31.07,1.5,37.73,18.23,66.35Z"/><path class="cls-19" d="M228.08,713.94c-18.9-5.44-36.5-5.57-55.96-6.83,.97-15.69,1.47-29.81-.89-45.43,27.36-8.03,38.48-20.28,71.6-13.58-2.37,15.04-8.87,53.3-14.76,65.83Z"/><circle class="cls-23" cx="268" cy="765" r="16"/><circle class="cls-23" cx="315" cy="763" r="16"/><circle class="cls-23" cx="288.64" cy="729.35" r="21.82"/><path class="cls-14" d="M352.53,814.68c-.5,0-.94-.38-.99-.89-.24-2.2-.45-4.08-.66-5.86-.44-3.91-.82-7.29-1.34-12.51-.44-4.44-1.03-10.31-1.61-16.05l-1.16-11.54c-.34-3.44-.64-7-.92-10.44-.41-4.91-.79-9.54-1.31-13.92-.89-7.51-1.82-13.65-2.9-20.76l-.02-.13c-.56-3.72-1.21-7.34-1.84-10.85-.57-3.19-1.16-6.48-1.68-9.84l-.11-.73,.66-.32c1.25-.61,2.61-1.39,3.92-2.15,1.56-.9,3.17-1.83,4.63-2.49l1.19-.54c1.59-.73,2.07-.94,4.62-1.83,1.6-.55,2.94-.9,4.49-1.29,1.46-.37,3.11-.79,5.36-1.49,1.84-.57,4.47-1.38,7.32-2.26,4.32-1.33,9.12-2.82,12.37-3.83,.53-.16,1.09,.13,1.25,.66,.16,.53-.13,1.09-.66,1.25-3.24,1.01-8.05,2.5-12.37,3.83-2.84,.88-5.47,1.69-7.31,2.26-2.29,.71-3.97,1.14-5.46,1.52-1.51,.38-2.81,.72-4.33,1.25-2.47,.85-2.93,1.06-4.45,1.76l-1.2,.55c-1.37,.62-2.94,1.52-4.46,2.4-1.12,.65-2.27,1.31-3.38,1.88,.49,3.09,1.04,6.13,1.56,9.08,.63,3.52,1.28,7.16,1.85,10.91l.02,.13c1.08,7.13,2.02,13.29,2.91,20.83,.52,4.41,.91,9.07,1.31,13.99,.28,3.43,.58,6.98,.92,10.4l1.16,11.54c.58,5.75,1.17,11.62,1.61,16.06,.52,5.2,.9,8.57,1.34,12.48,.2,1.78,.41,3.67,.66,5.87,.06,.55-.34,1.04-.88,1.1-.04,0-.07,0-.11,0Z"/><path class="cls-24" d="M282.96,712.34c-1.87-.11-6.13,2.61-7.93,4.85s-4.89,8.12-3.22,9.06c1.68,.93,6.08-7.02,6.66-7.65,.58-.63,6.36-6.14,4.49-6.25Z"/><path class="cls-24" d="M263.76,752.82c-1.67-.39-5.31,1.37-6.79,3.09s-3.89,6.48-2.34,7.58c1.55,1.09,5.01-5.32,5.5-5.79,.48-.47,5.31-4.48,3.64-4.88Z"/><path class="cls-24" d="M310.43,750.49c-1.7-.28-5.21,1.72-6.57,3.53s-3.45,6.73-1.83,7.72c1.62,.99,4.65-5.64,5.1-6.14,.45-.5,5-4.83,3.3-5.11Z"/><g><path class="cls-18" d="M278.3,677.03c-13.94,0-27.01-9.93-36.24-27.7-.25-.49-.06-1.09,.43-1.35,.49-.25,1.09-.06,1.35,.43,9.52,18.33,23.14,27.98,37.38,26.47,14.64-1.55,26.72-14.66,32.32-35.06,.15-.53,.69-.84,1.23-.7,.53,.15,.85,.7,.7,1.23-5.82,21.23-18.55,34.88-34.04,36.52-1.05,.11-2.09,.17-3.13,.17Z"/><g><path class="cls-22" d="M280.02,685.9c-16.93,0-33.13-13.94-42.93-37.3-.21-.51,.03-1.1,.54-1.31,.51-.22,1.1,.03,1.31,.54,10.13,24.14,27.15,37.88,44.42,35.88,16.91-1.96,29.56-18.36,33.84-43.86,.09-.54,.61-.92,1.15-.82,.54,.09,.91,.61,.82,1.15-4.43,26.43-17.73,43.45-35.58,45.52-1.19,.14-2.38,.21-3.56,.21Z"/><path class="cls-13" d="M242.63,654.51c-.08,1.65-1.13,2.96-2.83,2.64-1.69-.32-2.69-1.97-2.71-3.69-.02-1.72,1.14-3.04,2.87-2.54,1.73,.5,2.74,1.94,2.66,3.59Z"/><path class="cls-13" d="M247.06,662.28c.15,1.55-.65,3.04-2.35,3.02-1.7-.02-2.81-1.59-2.94-3.2s.8-3.07,2.48-2.96c1.68,.11,2.66,1.59,2.81,3.14Z"/><path class="cls-13" d="M253.84,670.43c.35,1.51-.27,3.09-1.94,3.3-1.66,.21-2.94-1.16-3.28-2.7-.34-1.54,.32-3.17,1.98-3.29,1.66-.12,2.89,1.18,3.24,2.69Z"/><path class="cls-13" d="M261.41,676.55c.25,1.48-.47,3.03-2.03,3.31s-2.73-.98-2.97-2.45c-.24-1.47,.38-3.06,1.96-3.32,1.58-.26,2.79,.97,3.04,2.46Z"/><path class="cls-13" d="M269.52,681.14c.24,1.48-.52,3-2.06,3.25-1.55,.25-2.74-.93-2.98-2.41s.5-3,2.06-3.26,2.74,.94,2.99,2.41Z"/><path class="cls-13" d="M278.5,684.43c.24,1.48-.54,2.96-2.09,3.2-1.54,.24-2.75-.94-2.99-2.41-.24-1.48,.53-2.97,2.08-3.21,1.55-.24,2.76,.94,3,2.42Z"/><path class="cls-13" d="M288.96,683.99c.24,1.48-.53,2.99-2.08,3.22-1.55,.24-2.74-.95-2.97-2.43-.23-1.48,.53-2.97,2.08-3.21s2.74,.95,2.97,2.42Z"/><path class="cls-13" d="M297.84,680.19c.23,1.48-.54,2.97-2.09,3.22-1.55,.25-2.74-.92-2.97-2.4-.23-1.48,.54-2.98,2.08-3.23s2.74,.93,2.97,2.41Z"/><path class="cls-13" d="M305.34,674.32c.24,1.48-.53,2.98-2.08,3.21-1.55,.24-2.74-.95-2.98-2.43-.23-1.48,.53-2.97,2.08-3.21s2.74,.95,2.98,2.43Z"/><path class="cls-13" d="M314.85,659.58c.19,1.56-.62,3.12-2.21,3.41s-2.76-.87-2.99-2.39c-.23-1.52,.58-3.02,2.17-3.38s2.84,.79,3.04,2.35Z"/><path class="cls-13" d="M319.07,651.09c.3,1.54-.5,3.12-2.07,3.53s-2.87-.64-3.13-2.17c-.26-1.53,.53-3.04,2.06-3.47,1.53-.43,2.83,.58,3.13,2.12Z"/><path class="cls-13" d="M320.38,642.2c.47,2.04-.04,3.78-1.59,4.46-1.55,.68-2.79-.03-3.12-1.67s.88-1.95,1.79-3.89c.9-1.95,2.45-.94,2.92,1.1Z"/><path class="cls-13" d="M310.57,667.57c.23,1.47-.54,2.98-2.08,3.23s-2.73-.93-2.96-2.41c-.23-1.48,.55-2.99,2.09-3.23s2.73,.94,2.96,2.41Z"/><path class="cls-20" d="M246.01,662.28c.07,.93-.4,1.81-1.42,1.8s-1.69-.96-1.76-1.91,.47-1.84,1.46-1.79,1.65,.98,1.72,1.9Z"/><path class="cls-20" d="M241.52,654.33c-.05,.99-.71,1.74-1.72,1.54-1.01-.2-1.63-1.21-1.63-2.23,0-1.02,.7-1.76,1.73-1.51,1.03,.25,1.67,1.22,1.62,2.2Z"/><path class="cls-20" d="M252.81,670.58c.21,.9-.17,1.85-1.17,1.97s-1.77-.7-1.97-1.62c-.2-.92,.19-1.87,1.17-1.97,.98-.1,1.76,.72,1.97,1.62Z"/><path class="cls-20" d="M260.41,676.73c.15,.89-.27,1.82-1.22,1.98-.94,.17-1.64-.59-1.79-1.47-.15-.88,.25-1.83,1.19-1.99,.94-.16,1.66,.58,1.81,1.47Z"/><path class="cls-20" d="M268.51,681.31c.15,.89-.31,1.8-1.24,1.95-.93,.15-1.64-.56-1.79-1.45-.14-.89,.3-1.8,1.23-1.95,.93-.15,1.65,.56,1.79,1.45Z"/><path class="cls-20" d="M277.48,684.58c.14,.89-.33,1.78-1.25,1.92-.93,.14-1.65-.56-1.79-1.45-.14-.89,.32-1.79,1.25-1.93,.93-.14,1.65,.57,1.8,1.45Z"/><path class="cls-20" d="M287.95,684.16c.14,.89-.32,1.79-1.25,1.93-.93,.14-1.64-.57-1.78-1.46s.32-1.78,1.25-1.93c.93-.15,1.64,.57,1.78,1.46Z"/><path class="cls-20" d="M296.82,680.35c.14,.89-.32,1.79-1.25,1.94-.93,.15-1.64-.56-1.78-1.44-.14-.89,.32-1.79,1.25-1.94s1.64,.56,1.78,1.45Z"/><path class="cls-20" d="M304.32,674.48c.14,.89-.32,1.79-1.25,1.93-.93,.14-1.65-.57-1.79-1.46-.14-.89,.32-1.78,1.25-1.93,.93-.15,1.64,.57,1.79,1.46Z"/><path class="cls-20" d="M309.56,667.74c.14,.89-.32,1.79-1.25,1.94s-1.64-.56-1.78-1.44c-.14-.89,.32-1.79,1.25-1.94,.93-.15,1.64,.56,1.78,1.44Z"/><path class="cls-20" d="M313.81,659.8c.12,.93-.37,1.87-1.33,2.05s-1.67-.51-1.8-1.43c-.14-.92,.36-1.83,1.31-2.04,.95-.21,1.7,.49,1.82,1.41Z"/><path class="cls-20" d="M318.04,651.36c.18,.92-.3,1.86-1.24,2.11-.93,.24-1.71-.37-1.88-1.29-.17-.92,.32-1.83,1.24-2.09,.92-.26,1.7,.35,1.88,1.27Z"/><path class="cls-20" d="M319.44,642.76c.27,1.16-.06,2.29-.93,2.76s-1.64,.1-1.84-.82,.47-1.49,1.04-2.47,1.46-.63,1.73,.53Z"/></g></g><path class="cls-12" d="M355.16,819.78c-35.86,10.25-74.93-1.96-111.6,1.75-1.29,6.5-2.43,13.03-3.58,19.56,39.66-4.66,79.8-2.6,119.63-1.82-1.46-6.55-3.26-12.85-4.44-19.49Z"/><path class="cls-13" d="M353.52,813.42c-36.74,.51-72.98,.84-109.85,1.75-.74,6.58-1.76,13.1-2.38,19.7,36.98-4.44,80.27-1.39,117.48-.07-1.83-7.17-3.75-14.11-5.26-21.38Z"/><circle class="cls-25" cx="306" cy="824" r="4"/></g></g><g id="Layer_154"><g><path class="cls-8" d="M567.96,526.46c2.65-.4,5.8-.7,9.25-.7,6.25,0,10.7,1.45,13.65,4.2,3,2.75,4.75,6.65,4.75,12.1s-1.7,10-4.85,13.1c-3.15,3.15-8.35,4.85-14.9,4.85-3.1,0-5.7-.15-7.9-.4v-33.15Zm4.35,29.8c1.1,.2,2.7,.25,4.4,.25,9.3,0,14.35-5.2,14.35-14.3,.05-7.95-4.45-13-13.65-13-2.25,0-3.95,.2-5.1,.45v26.6Z"/><path class="cls-8" d="M603.76,548.42c.1,5.95,3.9,8.4,8.3,8.4,3.15,0,5.05-.55,6.7-1.25l.75,3.15c-1.55,.7-4.2,1.5-8.05,1.5-7.45,0-11.9-4.9-11.9-12.2s4.3-13.05,11.35-13.05c7.9,0,10,6.95,10,11.4,0,.9-.1,1.6-.15,2.05h-17Zm12.9-3.15c.05-2.8-1.15-7.15-6.1-7.15-4.45,0-6.4,4.1-6.75,7.15h12.85Z"/><path class="cls-8" d="M631.66,528.56v6.95h6.3v3.35h-6.3v13.05c0,3,.85,4.7,3.3,4.7,1.15,0,2-.15,2.55-.3l.2,3.3c-.85,.35-2.2,.6-3.9,.6-2.05,0-3.7-.65-4.75-1.85-1.25-1.3-1.7-3.45-1.7-6.3v-13.2h-3.75v-3.35h3.75v-5.8l4.3-1.15Z"/><path class="cls-8" d="M653.31,559.72c.1-1.65,.2-4.1,.2-6.25v-29.25h4.35v15.2h.1c1.55-2.7,4.35-4.45,8.25-4.45,6,0,10.25,5,10.2,12.35,0,8.65-5.45,12.95-10.85,12.95-3.5,0-6.3-1.35-8.1-4.55h-.15l-.2,4h-3.8Zm4.55-9.7c0,.55,.1,1.1,.2,1.6,.85,3.05,3.4,5.15,6.6,5.15,4.6,0,7.35-3.75,7.35-9.3,0-4.85-2.5-9-7.2-9-3,0-5.8,2.05-6.7,5.4-.1,.5-.25,1.1-.25,1.8v4.35Z"/><path class="cls-8" d="M684.41,548.42c.1,5.95,3.9,8.4,8.3,8.4,3.15,0,5.05-.55,6.7-1.25l.75,3.15c-1.55,.7-4.2,1.5-8.05,1.5-7.45,0-11.9-4.9-11.9-12.2s4.3-13.05,11.35-13.05c7.9,0,10,6.95,10,11.4,0,.9-.1,1.6-.15,2.05h-17Zm12.9-3.15c.05-2.8-1.15-7.15-6.1-7.15-4.45,0-6.4,4.1-6.75,7.15h12.85Z"/><path class="cls-8" d="M712.31,528.56v6.95h6.3v3.35h-6.3v13.05c0,3,.85,4.7,3.3,4.7,1.15,0,2-.15,2.55-.3l.2,3.3c-.85,.35-2.2,.6-3.9,.6-2.05,0-3.7-.65-4.75-1.85-1.25-1.3-1.7-3.45-1.7-6.3v-13.2h-3.75v-3.35h3.75v-5.8l4.3-1.15Z"/><path class="cls-8" d="M725.6,535.51l5.3,14.3c.55,1.6,1.15,3.5,1.55,4.95h.1c.45-1.45,.95-3.3,1.55-5.05l4.8-14.2h4.65l-6.6,17.25c-3.15,8.3-5.3,12.55-8.3,15.15-2.15,1.9-4.3,2.65-5.4,2.85l-1.1-3.7c1.1-.35,2.55-1.05,3.85-2.15,1.2-.95,2.7-2.65,3.7-4.9,.2-.45,.35-.8,.35-1.05s-.1-.6-.3-1.15l-8.95-22.3h4.8Z"/><path class="cls-8" d="M767.96,524.21v29.25c0,2.15,.05,4.6,.2,6.25h-3.95l-.2-4.2h-.1c-1.35,2.7-4.3,4.75-8.25,4.75-5.85,0-10.35-4.95-10.35-12.3-.05-8.05,4.95-13,10.85-13,3.7,0,6.2,1.75,7.3,3.7h.1v-14.45h4.4Zm-4.4,21.15c0-.55-.05-1.3-.2-1.85-.65-2.8-3.05-5.1-6.35-5.1-4.55,0-7.25,4-7.25,9.35,0,4.9,2.4,8.95,7.15,8.95,2.95,0,5.65-1.95,6.45-5.25,.15-.6,.2-1.2,.2-1.9v-4.2Z"/><path class="cls-8" d="M777.7,548.42c.1,5.95,3.9,8.4,8.3,8.4,3.15,0,5.05-.55,6.7-1.25l.75,3.15c-1.55,.7-4.2,1.5-8.05,1.5-7.45,0-11.9-4.9-11.9-12.2s4.3-13.05,11.35-13.05c7.9,0,10,6.95,10,11.4,0,.9-.1,1.6-.15,2.05h-17Zm12.9-3.15c.05-2.8-1.15-7.15-6.1-7.15-4.45,0-6.4,4.1-6.75,7.15h12.85Z"/><path class="cls-8" d="M800.3,543.06c0-2.85-.05-5.3-.2-7.55h3.85l.15,4.75h.2c1.1-3.25,3.75-5.3,6.7-5.3,.5,0,.85,.05,1.25,.15v4.15c-.45-.1-.9-.15-1.5-.15-3.1,0-5.3,2.35-5.9,5.65-.1,.6-.2,1.3-.2,2.05v12.9h-4.35v-16.65Z"/><path class="cls-8" d="M827.4,526.46c1.9-.4,4.9-.7,7.95-.7,4.35,0,7.15,.75,9.25,2.45,1.75,1.3,2.8,3.3,2.8,5.95,0,3.25-2.15,6.1-5.7,7.4v.1c3.2,.8,6.95,3.45,6.95,8.45,0,2.9-1.15,5.1-2.85,6.75-2.35,2.15-6.15,3.15-11.65,3.15-3,0-5.3-.2-6.75-.4v-33.15Zm4.35,13.8h3.95c4.6,0,7.3-2.4,7.3-5.65,0-3.95-3-5.5-7.4-5.5-2,0-3.15,.15-3.85,.3v10.85Zm0,16.15c.85,.15,2.1,.2,3.65,.2,4.5,0,8.65-1.65,8.65-6.55,0-4.6-3.95-6.5-8.7-6.5h-3.6v12.85Z"/><path class="cls-8" d="M857,548.42c.1,5.95,3.9,8.4,8.3,8.4,3.15,0,5.05-.55,6.7-1.25l.75,3.15c-1.55,.7-4.2,1.5-8.05,1.5-7.45,0-11.9-4.9-11.9-12.2s4.3-13.05,11.35-13.05c7.9,0,10,6.95,10,11.4,0,.9-.1,1.6-.15,2.05h-17Zm12.9-3.15c.05-2.8-1.15-7.15-6.1-7.15-4.45,0-6.4,4.1-6.75,7.15h12.85Z"/><path class="cls-8" d="M879.6,542.06c0-2.5-.05-4.55-.2-6.55h3.9l.25,4h.1c1.2-2.3,4-4.55,8-4.55,3.35,0,8.55,2,8.55,10.3v14.45h-4.4v-13.95c0-3.9-1.45-7.15-5.6-7.15-2.9,0-5.15,2.05-5.9,4.5-.2,.55-.3,1.3-.3,2.05v14.55h-4.4v-17.65Z"/><path class="cls-8" d="M909.8,548.42c.1,5.95,3.9,8.4,8.3,8.4,3.15,0,5.05-.55,6.7-1.25l.75,3.15c-1.55,.7-4.2,1.5-8.05,1.5-7.45,0-11.9-4.9-11.9-12.2s4.3-13.05,11.35-13.05c7.9,0,10,6.95,10,11.4,0,.9-.1,1.6-.15,2.05h-17Zm12.9-3.15c.05-2.8-1.15-7.15-6.1-7.15-4.45,0-6.4,4.1-6.75,7.15h12.85Z"/><path class="cls-8" d="M953.3,524.21v29.25c0,2.15,.05,4.6,.2,6.25h-3.95l-.2-4.2h-.1c-1.35,2.7-4.3,4.75-8.25,4.75-5.85,0-10.35-4.95-10.35-12.3-.05-8.05,4.95-13,10.85-13,3.7,0,6.2,1.75,7.3,3.7h.1v-14.45h4.4Zm-4.4,21.15c0-.55-.05-1.3-.2-1.85-.65-2.8-3.05-5.1-6.35-5.1-4.55,0-7.25,4-7.25,9.35,0,4.9,2.4,8.95,7.15,8.95,2.95,0,5.65-1.95,6.45-5.25,.15-.6,.2-1.2,.2-1.9v-4.2Z"/><path class="cls-8" d="M965.5,528.71c.05,1.5-1.05,2.7-2.8,2.7-1.55,0-2.65-1.2-2.65-2.7s1.15-2.75,2.75-2.75,2.7,1.2,2.7,2.75Zm-4.9,31v-24.2h4.4v24.2h-4.4Z"/><path class="cls-8" d="M976.65,546.62h.1c.6-.85,1.45-1.9,2.15-2.75l7.1-8.35h5.3l-9.35,9.95,10.65,14.25h-5.35l-8.35-11.6-2.25,2.5v9.1h-4.35v-35.5h4.35v22.4Z"/><path class="cls-8" d="M1001.05,528.56v6.95h6.3v3.35h-6.3v13.05c0,3,.85,4.7,3.3,4.7,1.15,0,2-.15,2.55-.3l.2,3.3c-.85,.35-2.2,.6-3.9,.6-2.05,0-3.7-.65-4.75-1.85-1.25-1.3-1.7-3.45-1.7-6.3v-13.2h-3.75v-3.35h3.75v-5.8l4.3-1.15Z"/><path class="cls-8" d="M1014.45,548.42c.1,5.95,3.9,8.4,8.3,8.4,3.15,0,5.05-.55,6.7-1.25l.75,3.15c-1.55,.7-4.2,1.5-8.05,1.5-7.45,0-11.9-4.9-11.9-12.2s4.3-13.05,11.35-13.05c7.9,0,10,6.95,10,11.4,0,.9-.1,1.6-.15,2.05h-17Zm12.9-3.15c.05-2.8-1.15-7.15-6.1-7.15-4.45,0-6.4,4.1-6.75,7.15h12.85Z"/><path class="cls-8" d="M1050.1,548.42c.1,5.95,3.9,8.4,8.3,8.4,3.15,0,5.05-.55,6.7-1.25l.75,3.15c-1.55,.7-4.2,1.5-8.05,1.5-7.45,0-11.9-4.9-11.9-12.2s4.3-13.05,11.35-13.05c7.9,0,10,6.95,10,11.4,0,.9-.1,1.6-.15,2.05h-17Zm12.9-3.15c.05-2.8-1.15-7.15-6.1-7.15-4.45,0-6.4,4.1-6.75,7.15h12.85Z"/><path class="cls-8" d="M1072.7,543.06c0-2.85-.05-5.3-.2-7.55h3.85l.15,4.75h.2c1.1-3.25,3.75-5.3,6.7-5.3,.5,0,.85,.05,1.25,.15v4.15c-.45-.1-.9-.15-1.5-.15-3.1,0-5.3,2.35-5.9,5.65-.1,.6-.2,1.3-.2,2.05v12.9h-4.35v-16.65Z"/><path class="cls-8" d="M1099.45,559.72c.1-1.65,.2-4.1,.2-6.25v-29.25h4.35v15.2h.1c1.55-2.7,4.35-4.45,8.25-4.45,6,0,10.25,5,10.2,12.35,0,8.65-5.45,12.95-10.85,12.95-3.5,0-6.3-1.35-8.1-4.55h-.15l-.2,4h-3.8Zm4.55-9.7c0,.55,.1,1.1,.2,1.6,.85,3.05,3.4,5.15,6.6,5.15,4.6,0,7.35-3.75,7.35-9.3,0-4.85-2.5-9-7.2-9-3,0-5.8,2.05-6.7,5.4-.1,.5-.25,1.1-.25,1.8v4.35Z"/><path class="cls-8" d="M1128.1,524.21h4.4v35.5h-4.4v-35.5Z"/><path class="cls-8" d="M1142.35,548.42c.1,5.95,3.9,8.4,8.3,8.4,3.15,0,5.05-.55,6.7-1.25l.75,3.15c-1.55,.7-4.2,1.5-8.05,1.5-7.45,0-11.9-4.9-11.9-12.2s4.3-13.05,11.35-13.05c7.9,0,10,6.95,10,11.4,0,.9-.1,1.6-.15,2.05h-17Zm12.9-3.15c.05-2.8-1.15-7.15-6.1-7.15-4.45,0-6.4,4.1-6.75,7.15h12.85Z"/><path class="cls-8" d="M1166.65,535.51l4.75,13.6c.8,2.2,1.45,4.2,1.95,6.2h.15c.55-2,1.25-4,2.05-6.2l4.7-13.6h4.6l-9.5,24.2h-4.2l-9.2-24.2h4.7Z"/><path class="cls-8" d="M1190.95,548.42c.1,5.95,3.9,8.4,8.3,8.4,3.15,0,5.05-.55,6.7-1.25l.75,3.15c-1.55,.7-4.2,1.5-8.05,1.5-7.45,0-11.9-4.9-11.9-12.2s4.3-13.05,11.35-13.05c7.9,0,10,6.95,10,11.4,0,.9-.1,1.6-.15,2.05h-17Zm12.9-3.15c.05-2.8-1.15-7.15-6.1-7.15-4.45,0-6.4,4.1-6.75,7.15h12.85Z"/><path class="cls-8" d="M1218.85,528.56v6.95h6.3v3.35h-6.3v13.05c0,3,.85,4.7,3.3,4.7,1.15,0,2-.15,2.55-.3l.2,3.3c-.85,.35-2.2,.6-3.9,.6-2.05,0-3.7-.65-4.75-1.85-1.25-1.3-1.7-3.45-1.7-6.3v-13.2h-3.75v-3.35h3.75v-5.8l4.3-1.15Z"/><path class="cls-8" d="M1240.7,542.06c0-2.5-.05-4.55-.2-6.55h3.85l.2,3.9h.15c1.35-2.3,3.6-4.45,7.6-4.45,3.3,0,5.8,2,6.85,4.85h.1c.75-1.35,1.7-2.4,2.7-3.15,1.45-1.1,3.05-1.7,5.35-1.7,3.2,0,7.95,2.1,7.95,10.5v14.25h-4.3v-13.7c0-4.65-1.7-7.45-5.25-7.45-2.5,0-4.45,1.85-5.2,4-.2,.6-.35,1.4-.35,2.2v14.95h-4.3v-14.5c0-3.85-1.7-6.65-5.05-6.65-2.75,0-4.75,2.2-5.45,4.4-.25,.65-.35,1.4-.35,2.15v14.6h-4.3v-17.65Z"/><path class="cls-8" d="M1284.85,548.42c.1,5.95,3.9,8.4,8.3,8.4,3.15,0,5.05-.55,6.7-1.25l.75,3.15c-1.55,.7-4.2,1.5-8.05,1.5-7.45,0-11.9-4.9-11.9-12.2s4.3-13.05,11.35-13.05c7.9,0,10,6.95,10,11.4,0,.9-.1,1.6-.15,2.05h-17Zm12.9-3.15c.05-2.8-1.15-7.15-6.1-7.15-4.45,0-6.4,4.1-6.75,7.15h12.85Z"/><path class="cls-8" d="M1328.3,535.51c-.1,1.75-.2,3.7-.2,6.65v14.05c0,5.55-1.1,8.95-3.45,11.05-2.35,2.2-5.75,2.9-8.8,2.9s-6.1-.7-8.05-2l1.1-3.35c1.6,1,4.1,1.9,7.1,1.9,4.5,0,7.8-2.35,7.8-8.45v-2.7h-.1c-1.35,2.25-3.95,4.05-7.7,4.05-6,0-10.3-5.1-10.3-11.8,0-8.2,5.35-12.85,10.9-12.85,4.2,0,6.5,2.2,7.55,4.2h.1l.2-3.65h3.85Zm-4.55,9.55c0-.75-.05-1.4-.25-2-.8-2.55-2.95-4.65-6.15-4.65-4.2,0-7.2,3.55-7.2,9.15,0,4.75,2.4,8.7,7.15,8.7,2.7,0,5.15-1.7,6.1-4.5,.25-.75,.35-1.6,.35-2.35v-4.35Z"/><path class="cls-8" d="M1348.8,559.72l-.35-3.05h-.15c-1.35,1.9-3.95,3.6-7.4,3.6-4.9,0-7.4-3.45-7.4-6.95,0-5.85,5.2-9.05,14.55-9v-.5c0-2-.55-5.6-5.5-5.6-2.25,0-4.6,.7-6.3,1.8l-1-2.9c2-1.3,4.9-2.15,7.95-2.15,7.4,0,9.2,5.05,9.2,9.9v9.05c0,2.1,.1,4.15,.4,5.8h-4Zm-.65-12.35c-4.8-.1-10.25,.75-10.25,5.45,0,2.85,1.9,4.2,4.15,4.2,3.15,0,5.15-2,5.85-4.05,.15-.45,.25-.95,.25-1.4v-4.2Z"/><path class="cls-8" d="M571.71,619.72v-20.85h-3.4v-3.35h3.4v-1.15c0-3.4,.75-6.5,2.8-8.45,1.65-1.6,3.85-2.25,5.9-2.25,1.55,0,2.9,.35,3.75,.7l-.6,3.4c-.65-.3-1.55-.55-2.8-.55-3.75,0-4.7,3.3-4.7,7v1.3h5.85v3.35h-5.85v20.85h-4.35Z"/><path class="cls-8" d="M606.11,613.12c0,2.5,.05,4.7,.2,6.6h-3.9l-.25-3.95h-.1c-1.15,1.95-3.7,4.5-8,4.5-3.8,0-8.35-2.1-8.35-10.6v-14.15h4.4v13.4c0,4.6,1.4,7.7,5.4,7.7,2.95,0,5-2.05,5.8-4,.25-.65,.4-1.45,.4-2.25v-14.85h4.4v17.6Z"/><path class="cls-8" d="M613.41,584.21h4.4v35.5h-4.4v-35.5Z"/><path class="cls-8" d="M646.11,584.21v29.25c0,2.15,.05,4.6,.2,6.25h-3.95l-.2-4.2h-.1c-1.35,2.7-4.3,4.75-8.25,4.75-5.85,0-10.35-4.95-10.35-12.3-.05-8.05,4.95-13,10.85-13,3.7,0,6.2,1.75,7.3,3.7h.1v-14.45h4.4Zm-4.4,21.15c0-.55-.05-1.3-.2-1.85-.65-2.8-3.05-5.1-6.35-5.1-4.55,0-7.25,4-7.25,9.35,0,4.9,2.4,8.95,7.15,8.95,2.95,0,5.65-1.95,6.45-5.25,.15-.6,.2-1.2,.2-1.9v-4.2Z"/><path class="cls-8" d="M685.91,607.42c0,8.95-6.2,12.85-12.05,12.85-6.55,0-11.6-4.8-11.6-12.45,0-8.1,5.3-12.85,12-12.85s11.65,5.05,11.65,12.45Zm-19.2,.25c0,5.3,3.05,9.3,7.35,9.3s7.35-3.95,7.35-9.4c0-4.1-2.05-9.3-7.25-9.3s-7.45,4.8-7.45,9.4Z"/><path class="cls-8" d="M712.31,595.51c-.1,1.75-.2,3.7-.2,6.65v14.05c0,5.55-1.1,8.95-3.45,11.05-2.35,2.2-5.75,2.9-8.8,2.9s-6.1-.7-8.05-2l1.1-3.35c1.6,1,4.1,1.9,7.1,1.9,4.5,0,7.8-2.35,7.8-8.45v-2.7h-.1c-1.35,2.25-3.95,4.05-7.7,4.05-6,0-10.3-5.1-10.3-11.8,0-8.2,5.35-12.85,10.9-12.85,4.2,0,6.5,2.2,7.55,4.2h.1l.2-3.65h3.85Zm-4.55,9.55c0-.75-.05-1.4-.25-2-.8-2.55-2.95-4.65-6.15-4.65-4.2,0-7.2,3.55-7.2,9.15,0,4.75,2.4,8.7,7.15,8.7,2.7,0,5.15-1.7,6.1-4.5,.25-.75,.35-1.6,.35-2.35v-4.35Z"/><path class="cls-8" d="M732.46,608.42c.1,5.95,3.9,8.4,8.3,8.4,3.15,0,5.05-.55,6.7-1.25l.75,3.15c-1.55,.7-4.2,1.5-8.05,1.5-7.45,0-11.9-4.9-11.9-12.2s4.3-13.05,11.35-13.05c7.9,0,10,6.95,10,11.4,0,.9-.1,1.6-.15,2.05h-17Zm12.9-3.15c.05-2.8-1.15-7.15-6.1-7.15-4.45,0-6.4,4.1-6.75,7.15h12.85Z"/><path class="cls-8" d="M755.06,603.06c0-2.85-.05-5.3-.2-7.55h3.85l.15,4.75h.2c1.1-3.25,3.75-5.3,6.7-5.3,.5,0,.85,.05,1.25,.15v4.15c-.45-.1-.9-.15-1.5-.15-3.1,0-5.3,2.35-5.9,5.65-.1,.6-.2,1.3-.2,2.05v12.9h-4.35v-16.65Z"/><path class="cls-8" d="M781.4,615.22c1.3,.85,3.6,1.75,5.8,1.75,3.2,0,4.7-1.6,4.7-3.6,0-2.1-1.25-3.25-4.5-4.45-4.35-1.55-6.4-3.95-6.4-6.85,0-3.9,3.15-7.1,8.35-7.1,2.45,0,4.6,.7,5.95,1.5l-1.1,3.2c-.95-.6-2.7-1.4-4.95-1.4-2.6,0-4.05,1.5-4.05,3.3,0,2,1.45,2.9,4.6,4.1,4.2,1.6,6.35,3.7,6.35,7.3,0,4.25-3.3,7.25-9.05,7.25-2.65,0-5.1-.65-6.8-1.65l1.1-3.35Z"/><path class="cls-8" d="M815.21,619.72l-.35-3.05h-.15c-1.35,1.9-3.95,3.6-7.4,3.6-4.9,0-7.4-3.45-7.4-6.95,0-5.85,5.2-9.05,14.55-9v-.5c0-2-.55-5.6-5.5-5.6-2.25,0-4.6,.7-6.3,1.8l-1-2.9c2-1.3,4.9-2.15,7.95-2.15,7.4,0,9.2,5.05,9.2,9.9v9.05c0,2.1,.1,4.15,.4,5.8h-4Zm-.65-12.35c-4.8-.1-10.25,.75-10.25,5.45,0,2.85,1.9,4.2,4.15,4.2,3.15,0,5.15-2,5.85-4.05,.15-.45,.25-.95,.25-1.4v-4.2Zm-9.45-19.05c0-2.65,1.95-4.75,5.1-4.75s4.95,2.05,4.95,4.7-2.15,4.6-5,4.6c-3,0-5.05-2-5.05-4.55Zm7.6-.1c0-1.5-1-2.75-2.6-2.75s-2.45,1.3-2.45,2.85c0,1.3,1,2.7,2.45,2.7,1.6,0,2.6-1.3,2.6-2.8Z"/><path class="cls-8" d="M840.85,606.62h.1c.6-.85,1.45-1.9,2.15-2.75l7.1-8.35h5.3l-9.35,9.95,10.65,14.25h-5.35l-8.35-11.6-2.25,2.5v9.1h-4.35v-35.5h4.35v22.4Z"/><path class="cls-8" d="M860.8,584.21h4.4v35.5h-4.4v-35.5Z"/><path class="cls-8" d="M886,619.72l-.35-3.05h-.15c-1.35,1.9-3.95,3.6-7.4,3.6-4.9,0-7.4-3.45-7.4-6.95,0-5.85,5.2-9.05,14.55-9v-.5c0-2-.55-5.6-5.5-5.6-2.25,0-4.6,.7-6.3,1.8l-1-2.9c2-1.3,4.9-2.15,7.95-2.15,7.4,0,9.2,5.05,9.2,9.9v9.05c0,2.1,.1,4.15,.4,5.8h-4Zm-.65-12.35c-4.8-.1-10.25,.75-10.25,5.45,0,2.85,1.9,4.2,4.15,4.2,3.15,0,5.15-2,5.85-4.05,.15-.45,.25-.95,.25-1.4v-4.2Z"/><path class="cls-8" d="M896.7,603.06c0-2.85-.05-5.3-.2-7.55h3.85l.15,4.75h.2c1.1-3.25,3.75-5.3,6.7-5.3,.5,0,.85,.05,1.25,.15v4.15c-.45-.1-.9-.15-1.5-.15-3.1,0-5.3,2.35-5.9,5.65-.1,.6-.2,1.3-.2,2.05v12.9h-4.35v-16.65Z"/><path class="cls-8" d="M923.65,603.42c0-3.1-.1-5.6-.2-7.9h3.95l.2,4.15h.1c1.8-2.95,4.65-4.7,8.6-4.7,5.85,0,10.25,4.95,10.25,12.3,0,8.7-5.3,13-11,13-3.2,0-6-1.4-7.45-3.8h-.1v13.15h-4.35v-26.2Zm4.35,6.45c0,.65,.1,1.25,.2,1.8,.8,3.05,3.45,5.15,6.6,5.15,4.65,0,7.35-3.8,7.35-9.35,0-4.85-2.55-9-7.2-9-3,0-5.8,2.15-6.65,5.45-.15,.55-.3,1.2-.3,1.8v4.15Z"/><path class="cls-8" d="M965.5,619.72l-.35-3.05h-.15c-1.35,1.9-3.95,3.6-7.4,3.6-4.9,0-7.4-3.45-7.4-6.95,0-5.85,5.2-9.05,14.55-9v-.5c0-2-.55-5.6-5.5-5.6-2.25,0-4.6,.7-6.3,1.8l-1-2.9c2-1.3,4.9-2.15,7.95-2.15,7.4,0,9.2,5.05,9.2,9.9v9.05c0,2.1,.1,4.15,.4,5.8h-4Zm-.65-12.35c-4.8-.1-10.25,.75-10.25,5.45,0,2.85,1.9,4.2,4.15,4.2,3.15,0,5.15-2,5.85-4.05,.15-.45,.25-.95,.25-1.4v-4.2Zm-9.45-19.05c0-2.65,1.95-4.75,5.1-4.75s4.95,2.05,4.95,4.7-2.15,4.6-5,4.6c-3,0-5.05-2-5.05-4.55Zm7.6-.1c0-1.5-1-2.75-2.6-2.75s-2.45,1.3-2.45,2.85c0,1.3,1,2.7,2.45,2.7,1.6,0,2.6-1.3,2.6-2.8Z"/><path class="cls-8" d="M986.6,619.72c.1-1.65,.2-4.1,.2-6.25v-29.25h4.35v15.2h.1c1.55-2.7,4.35-4.45,8.25-4.45,6,0,10.25,5,10.2,12.35,0,8.65-5.45,12.95-10.85,12.95-3.5,0-6.3-1.35-8.1-4.55h-.15l-.2,4h-3.8Zm4.55-9.7c0,.55,.1,1.1,.2,1.6,.85,3.05,3.4,5.15,6.6,5.15,4.6,0,7.35-3.75,7.35-9.3,0-4.85-2.5-9-7.2-9-3,0-5.8,2.05-6.7,5.4-.1,.5-.25,1.1-.25,1.8v4.35Z"/><path class="cls-8" d="M1016.5,595.51l5.3,14.3c.55,1.6,1.15,3.5,1.55,4.95h.1c.45-1.45,.95-3.3,1.55-5.05l4.8-14.2h4.65l-6.6,17.25c-3.15,8.3-5.3,12.55-8.3,15.15-2.15,1.9-4.3,2.65-5.4,2.85l-1.1-3.7c1.1-.35,2.55-1.05,3.85-2.15,1.2-.95,2.7-2.65,3.7-4.9,.2-.45,.35-.8,.35-1.05s-.1-.6-.3-1.15l-8.95-22.3h4.8Z"/><path class="cls-8" d="M1040.4,608.42c.1,5.95,3.9,8.4,8.3,8.4,3.15,0,5.05-.55,6.7-1.25l.75,3.15c-1.55,.7-4.2,1.5-8.05,1.5-7.45,0-11.9-4.9-11.9-12.2s4.3-13.05,11.35-13.05c7.9,0,10,6.95,10,11.4,0,.9-.1,1.6-.15,2.05h-17Zm12.9-3.15c.05-2.8-1.15-7.15-6.1-7.15-4.45,0-6.4,4.1-6.75,7.15h12.85Z"/><path class="cls-8" d="M1063,602.06c0-2.5-.05-4.55-.2-6.55h3.9l.25,4h.1c1.2-2.3,4-4.55,8-4.55,3.35,0,8.55,2,8.55,10.3v14.45h-4.4v-13.95c0-3.9-1.45-7.15-5.6-7.15-2.9,0-5.15,2.05-5.9,4.5-.2,.55-.3,1.3-.3,2.05v14.55h-4.4v-17.65Z"/><path class="cls-8" d="M1089.7,617.12c0-1.85,1.25-3.15,3-3.15s2.95,1.3,2.95,3.15-1.15,3.15-3,3.15c-1.75,0-2.95-1.35-2.95-3.15Z"/><path class="cls-8" d="M1111.85,619.72v-33.7h4.75l10.8,17.05c2.5,3.95,4.45,7.5,6.05,10.95l.1-.05c-.4-4.5-.5-8.6-.5-13.85v-14.1h4.1v33.7h-4.4l-10.7-17.1c-2.35-3.75-4.6-7.6-6.3-11.25l-.15,.05c.25,4.25,.35,8.3,.35,13.9v14.4h-4.1Z"/><path class="cls-8" d="M1164.85,613.12c0,2.5,.05,4.7,.2,6.6h-3.9l-.25-3.95h-.1c-1.15,1.95-3.7,4.5-8,4.5-3.8,0-8.35-2.1-8.35-10.6v-14.15h4.4v13.4c0,4.6,1.4,7.7,5.4,7.7,2.95,0,5-2.05,5.8-4,.25-.65,.4-1.45,.4-2.25v-14.85h4.4v17.6Z"/><path class="cls-8" d="M1182.55,619.72c.1-1.65,.2-4.1,.2-6.25v-29.25h4.35v15.2h.1c1.55-2.7,4.35-4.45,8.25-4.45,6,0,10.25,5,10.2,12.35,0,8.65-5.45,12.95-10.85,12.95-3.5,0-6.3-1.35-8.1-4.55h-.15l-.2,4h-3.8Zm4.55-9.7c0,.55,.1,1.1,.2,1.6,.85,3.05,3.4,5.15,6.6,5.15,4.6,0,7.35-3.75,7.35-9.3,0-4.85-2.5-9-7.2-9-3,0-5.8,2.05-6.7,5.4-.1,.5-.25,1.1-.25,1.8v4.35Z"/><path class="cls-8" d="M1213.65,608.42c.1,5.95,3.9,8.4,8.3,8.4,3.15,0,5.05-.55,6.7-1.25l.75,3.15c-1.55,.7-4.2,1.5-8.05,1.5-7.45,0-11.9-4.9-11.9-12.2s4.3-13.05,11.35-13.05c7.9,0,10,6.95,10,11.4,0,.9-.1,1.6-.15,2.05h-17Zm12.9-3.15c.05-2.8-1.15-7.15-6.1-7.15-4.45,0-6.4,4.1-6.75,7.15h12.85Z"/><path class="cls-8" d="M1236.25,584.21h4.4v15.1h.1c.7-1.25,1.8-2.35,3.15-3.1,1.3-.75,2.85-1.25,4.5-1.25,3.25,0,8.45,2,8.45,10.35v14.4h-4.4v-13.9c0-3.9-1.45-7.2-5.6-7.2-2.85,0-5.1,2-5.9,4.4-.25,.6-.3,1.25-.3,2.1v14.6h-4.4v-35.5Z"/><path class="cls-8" d="M1280.3,596.71l2.1-3,1.95,1.35-2.1,3.1c2.35,2.25,3.65,5.5,3.65,9.25,0,8.9-6.15,12.85-11.8,12.85-2.25,0-4.45-.55-6.2-1.7l-2.15,3.05-1.85-1.5,2.1-3c-2.35-2.2-3.75-5.4-3.75-9.35,0-8.05,5.3-12.8,11.9-12.8,2.2,0,4.35,.6,6.15,1.75Zm-2,3c-1.1-.9-2.5-1.45-4.25-1.45-5.4,0-7.55,5-7.55,9.4,0,2.1,.55,4.3,1.8,6.05l.1,.05,9.9-14.05Zm-8.4,15.85c1.15,1,2.55,1.4,4.05,1.4,4.6,0,7.65-3.95,7.65-9.4,0-1.65-.4-4-1.7-5.9h-.1l-9.9,13.9Z"/><path class="cls-8" d="M1292.8,595.51l4.75,13.6c.8,2.2,1.45,4.2,1.95,6.2h.15c.55-2,1.25-4,2.05-6.2l4.7-13.6h4.6l-9.5,24.2h-4.2l-9.2-24.2h4.7Z"/><path class="cls-8" d="M1317.1,608.42c.1,5.95,3.9,8.4,8.3,8.4,3.15,0,5.05-.55,6.7-1.25l.75,3.15c-1.55,.7-4.2,1.5-8.05,1.5-7.45,0-11.9-4.9-11.9-12.2s4.3-13.05,11.35-13.05c7.9,0,10,6.95,10,11.4,0,.9-.1,1.6-.15,2.05h-17Zm12.9-3.15c.05-2.8-1.15-7.15-6.1-7.15-4.45,0-6.4,4.1-6.75,7.15h12.85Z"/><path class="cls-8" d="M1339.7,603.06c0-2.85-.05-5.3-.2-7.55h3.85l.15,4.75h.2c1.1-3.25,3.75-5.3,6.7-5.3,.5,0,.85,.05,1.25,.15v4.15c-.45-.1-.9-.15-1.5-.15-3.1,0-5.3,2.35-5.9,5.65-.1,.6-.2,1.3-.2,2.05v12.9h-4.35v-16.65Z"/><path class="cls-8" d="M645.06,644.21h4.4v15.1h.1c.7-1.25,1.8-2.35,3.15-3.1,1.3-.75,2.85-1.25,4.5-1.25,3.25,0,8.45,2,8.45,10.35v14.4h-4.4v-13.9c0-3.9-1.45-7.2-5.6-7.2-2.85,0-5.1,2-5.9,4.4-.25,.6-.3,1.25-.3,2.1v14.6h-4.4v-35.5Z"/><path class="cls-8" d="M693.06,673.12c0,2.5,.05,4.7,.2,6.6h-3.9l-.25-3.95h-.1c-1.15,1.95-3.7,4.5-8,4.5-3.8,0-8.35-2.1-8.35-10.6v-14.15h4.4v13.4c0,4.6,1.4,7.7,5.4,7.7,2.95,0,5-2.05,5.8-4,.25-.65,.4-1.45,.4-2.25v-14.85h4.4v17.6Z"/><path class="cls-8" d="M700.36,662.06c0-2.5-.05-4.55-.2-6.55h3.9l.25,4h.1c1.2-2.3,4-4.55,8-4.55,3.35,0,8.55,2,8.55,10.3v14.45h-4.4v-13.95c0-3.9-1.45-7.15-5.6-7.15-2.9,0-5.15,2.05-5.9,4.5-.2,.55-.3,1.3-.3,2.05v14.55h-4.4v-17.65Z"/><path class="cls-8" d="M743.61,648.71c.05,1.5-1.05,2.7-2.8,2.7-1.55,0-2.65-1.2-2.65-2.7s1.15-2.75,2.75-2.75,2.7,1.2,2.7,2.75Zm-4.9,31v-24.2h4.4v24.2h-4.4Z"/><path class="cls-8" d="M754.76,666.62h.1c.6-.85,1.45-1.9,2.15-2.75l7.1-8.35h5.3l-9.35,9.95,10.65,14.25h-5.35l-8.35-11.6-2.25,2.5v9.1h-4.35v-35.5h4.35v22.4Z"/><path class="cls-8" d="M779.06,666.62h.1c.6-.85,1.45-1.9,2.15-2.75l7.1-8.35h5.3l-9.35,9.95,10.65,14.25h-5.35l-8.35-11.6-2.25,2.5v9.1h-4.35v-35.5h4.35v22.4Z"/><path class="cls-8" d="M800.6,668.42c.1,5.95,3.9,8.4,8.3,8.4,3.15,0,5.05-.55,6.7-1.25l.75,3.15c-1.55,.7-4.2,1.5-8.05,1.5-7.45,0-11.9-4.9-11.9-12.2s4.3-13.05,11.35-13.05c7.9,0,10,6.95,10,11.4,0,.9-.1,1.6-.15,2.05h-17Zm12.9-3.15c.05-2.8-1.15-7.15-6.1-7.15-4.45,0-6.4,4.1-6.75,7.15h12.85Z"/><path class="cls-8" d="M833.6,679.72c.1-1.65,.2-4.1,.2-6.25v-29.25h4.35v15.2h.1c1.55-2.7,4.35-4.45,8.25-4.45,6,0,10.25,5,10.2,12.35,0,8.65-5.45,12.95-10.85,12.95-3.5,0-6.3-1.35-8.1-4.55h-.15l-.2,4h-3.8Zm4.55-9.7c0,.55,.1,1.1,.2,1.6,.85,3.05,3.4,5.15,6.6,5.15,4.6,0,7.35-3.75,7.35-9.3,0-4.85-2.5-9-7.2-9-3,0-5.8,2.05-6.7,5.4-.1,.5-.25,1.1-.25,1.8v4.35Z"/><path class="cls-8" d="M862.25,663.06c0-2.85-.05-5.3-.2-7.55h3.85l.15,4.75h.2c1.1-3.25,3.75-5.3,6.7-5.3,.5,0,.85,.05,1.25,.15v4.15c-.45-.1-.9-.15-1.5-.15-3.1,0-5.3,2.35-5.9,5.65-.1,.6-.2,1.3-.2,2.05v12.9h-4.35v-16.65Z"/><path class="cls-8" d="M898.85,673.12c0,2.5,.05,4.7,.2,6.6h-3.9l-.25-3.95h-.1c-1.15,1.95-3.7,4.5-8,4.5-3.8,0-8.35-2.1-8.35-10.6v-14.15h4.4v13.4c0,4.6,1.4,7.7,5.4,7.7,2.95,0,5-2.05,5.8-4,.25-.65,.4-1.45,.4-2.25v-14.85h4.4v17.6Z"/><path class="cls-8" d="M927,655.51c-.1,1.75-.2,3.7-.2,6.65v14.05c0,5.55-1.1,8.95-3.45,11.05-2.35,2.2-5.75,2.9-8.8,2.9s-6.1-.7-8.05-2l1.1-3.35c1.6,1,4.1,1.9,7.1,1.9,4.5,0,7.8-2.35,7.8-8.45v-2.7h-.1c-1.35,2.25-3.95,4.05-7.7,4.05-6,0-10.3-5.1-10.3-11.8,0-8.2,5.35-12.85,10.9-12.85,4.2,0,6.5,2.2,7.55,4.2h.1l.2-3.65h3.85Zm-4.55,9.55c0-.75-.05-1.4-.25-2-.8-2.55-2.95-4.65-6.15-4.65-4.2,0-7.2,3.55-7.2,9.15,0,4.75,2.4,8.7,7.15,8.7,2.7,0,5.15-1.7,6.1-4.5,.25-.75,.35-1.6,.35-2.35v-4.35Z"/><path class="cls-8" d="M936.55,668.42c.1,5.95,3.9,8.4,8.3,8.4,3.15,0,5.05-.55,6.7-1.25l.75,3.15c-1.55,.7-4.2,1.5-8.05,1.5-7.45,0-11.9-4.9-11.9-12.2s4.3-13.05,11.35-13.05c7.9,0,10,6.95,10,11.4,0,.9-.1,1.6-.15,2.05h-17Zm12.9-3.15c.05-2.8-1.15-7.15-6.1-7.15-4.45,0-6.4,4.1-6.75,7.15h12.85Z"/><path class="cls-8" d="M983.15,679.72l-.35-3.05h-.15c-1.35,1.9-3.95,3.6-7.4,3.6-4.9,0-7.4-3.45-7.4-6.95,0-5.85,5.2-9.05,14.55-9v-.5c0-2-.55-5.6-5.5-5.6-2.25,0-4.6,.7-6.3,1.8l-1-2.9c2-1.3,4.9-2.15,7.95-2.15,7.4,0,9.2,5.05,9.2,9.9v9.05c0,2.1,.1,4.15,.4,5.8h-4Zm-.65-12.35c-4.8-.1-10.25,.75-10.25,5.45,0,2.85,1.9,4.2,4.15,4.2,3.15,0,5.15-2,5.85-4.05,.15-.45,.25-.95,.25-1.4v-4.2Z"/><path class="cls-8" d="M993.85,644.21h4.4v35.5h-4.4v-35.5Z"/><path class="cls-8" d="M1005.65,644.21h4.4v35.5h-4.4v-35.5Z"/><path class="cls-8" d="M1019.9,668.42c.1,5.95,3.9,8.4,8.3,8.4,3.15,0,5.05-.55,6.7-1.25l.75,3.15c-1.55,.7-4.2,1.5-8.05,1.5-7.45,0-11.9-4.9-11.9-12.2s4.3-13.05,11.35-13.05c7.9,0,10,6.95,10,11.4,0,.9-.1,1.6-.15,2.05h-17Zm12.9-3.15c.05-2.8-1.15-7.15-6.1-7.15-4.45,0-6.4,4.1-6.75,7.15h12.85Z"/><path class="cls-8" d="M1052.5,675.22c1.3,.85,3.6,1.75,5.8,1.75,3.2,0,4.7-1.6,4.7-3.6,0-2.1-1.25-3.25-4.5-4.45-4.35-1.55-6.4-3.95-6.4-6.85,0-3.9,3.15-7.1,8.35-7.1,2.45,0,4.6,.7,5.95,1.5l-1.1,3.2c-.95-.6-2.7-1.4-4.95-1.4-2.6,0-4.05,1.5-4.05,3.3,0,2,1.45,2.9,4.6,4.1,4.2,1.6,6.35,3.7,6.35,7.3,0,4.25-3.3,7.25-9.05,7.25-2.65,0-5.1-.65-6.8-1.65l1.1-3.35Z"/><path class="cls-8" d="M1077.8,648.71c.05,1.5-1.05,2.7-2.8,2.7-1.55,0-2.65-1.2-2.65-2.7s1.15-2.75,2.75-2.75,2.7,1.2,2.7,2.75Zm-4.9,31v-24.2h4.4v24.2h-4.4Z"/><path class="cls-8" d="M1084.6,662.06c0-2.5-.05-4.55-.2-6.55h3.9l.25,4h.1c1.2-2.3,4-4.55,8-4.55,3.35,0,8.55,2,8.55,10.3v14.45h-4.4v-13.95c0-3.9-1.45-7.15-5.6-7.15-2.9,0-5.15,2.05-5.9,4.5-.2,.55-.3,1.3-.3,2.05v14.55h-4.4v-17.65Z"/><path class="cls-8" d="M1114.8,668.42c.1,5.95,3.9,8.4,8.3,8.4,3.15,0,5.05-.55,6.7-1.25l.75,3.15c-1.55,.7-4.2,1.5-8.05,1.5-7.45,0-11.9-4.9-11.9-12.2s4.3-13.05,11.35-13.05c7.9,0,10,6.95,10,11.4,0,.9-.1,1.6-.15,2.05h-17Zm12.9-3.15c.05-2.8-1.15-7.15-6.1-7.15-4.45,0-6.4,4.1-6.75,7.15h12.85Z"/><path class="cls-8" d="M1148,663.42c0-3.1-.1-5.6-.2-7.9h3.95l.2,4.15h.1c1.8-2.95,4.65-4.7,8.6-4.7,5.85,0,10.25,4.95,10.25,12.3,0,8.7-5.3,13-11,13-3.2,0-6-1.4-7.45-3.8h-.1v13.15h-4.35v-26.2Zm4.35,6.45c0,.65,.1,1.25,.2,1.8,.8,3.05,3.45,5.15,6.6,5.15,4.65,0,7.35-3.8,7.35-9.35,0-4.85-2.55-9-7.2-9-3,0-5.8,2.15-6.65,5.45-.15,.55-.3,1.2-.3,1.8v4.15Z"/><path class="cls-8" d="M1178.9,668.42c.1,5.95,3.9,8.4,8.3,8.4,3.15,0,5.05-.55,6.7-1.25l.75,3.15c-1.55,.7-4.2,1.5-8.05,1.5-7.45,0-11.9-4.9-11.9-12.2s4.3-13.05,11.35-13.05c7.9,0,10,6.95,10,11.4,0,.9-.1,1.6-.15,2.05h-17Zm12.9-3.15c.05-2.8-1.15-7.15-6.1-7.15-4.45,0-6.4,4.1-6.75,7.15h12.85Z"/><path class="cls-8" d="M1201.5,662.06c0-2.5-.05-4.55-.2-6.55h3.9l.25,4h.1c1.2-2.3,4-4.55,8-4.55,3.35,0,8.55,2,8.55,10.3v14.45h-4.4v-13.95c0-3.9-1.45-7.15-5.6-7.15-2.9,0-5.15,2.05-5.9,4.5-.2,.55-.3,1.3-.3,2.05v14.55h-4.4v-17.65Z"/><path class="cls-8" d="M1250.1,655.51c-.1,1.75-.2,3.7-.2,6.65v14.05c0,5.55-1.1,8.95-3.45,11.05-2.35,2.2-5.75,2.9-8.8,2.9s-6.1-.7-8.05-2l1.1-3.35c1.6,1,4.1,1.9,7.1,1.9,4.5,0,7.8-2.35,7.8-8.45v-2.7h-.1c-1.35,2.25-3.95,4.05-7.7,4.05-6,0-10.3-5.1-10.3-11.8,0-8.2,5.35-12.85,10.9-12.85,4.2,0,6.5,2.2,7.55,4.2h.1l.2-3.65h3.85Zm-4.55,9.55c0-.75-.05-1.4-.25-2-.8-2.55-2.95-4.65-6.15-4.65-4.2,0-7.2,3.55-7.2,9.15,0,4.75,2.4,8.7,7.15,8.7,2.7,0,5.15-1.7,6.1-4.5,.25-.75,.35-1.6,.35-2.35v-4.35Z"/><path class="cls-8" d="M1259.65,668.42c.1,5.95,3.9,8.4,8.3,8.4,3.15,0,5.05-.55,6.7-1.25l.75,3.15c-1.55,.7-4.2,1.5-8.05,1.5-7.45,0-11.9-4.9-11.9-12.2s4.3-13.05,11.35-13.05c7.9,0,10,6.95,10,11.4,0,.9-.1,1.6-.15,2.05h-17Zm12.9-3.15c.05-2.8-1.15-7.15-6.1-7.15-4.45,0-6.4,4.1-6.75,7.15h12.85Z"/></g></g></svg>